<svg width="16" height="16" viewBox="0 0 16 16" fill="none" xmlns="http://www.w3.org/2000/svg">
<g clip-path="url(#clip0_101_1538)">
<path d="M7.98364 1.44086C10.1159 1.44086 10.3662 1.45036 11.209 1.48838C11.9884 1.52323 12.4098 1.65313 12.6918 1.76403C13.0656 1.90977 13.3318 2.08086 13.6106 2.35967C13.8894 2.63848 14.0636 2.90462 14.2062 3.27848C14.3139 3.56046 14.447 3.98185 14.4819 4.76125C14.5199 5.60403 14.5294 5.85432 14.5294 7.9866C14.5294 10.1189 14.5199 10.3692 14.4819 11.2119C14.447 11.9914 14.3171 12.4127 14.2062 12.6947C14.0605 13.0686 13.8894 13.3347 13.6106 13.6135C13.3318 13.8923 13.0656 14.0666 12.6918 14.2092C12.4098 14.3169 11.9884 14.45 11.209 14.4848C10.3662 14.5228 10.1159 14.5323 7.98364 14.5323C5.85137 14.5323 5.60107 14.5228 4.7583 14.4848C3.97889 14.45 3.55751 14.3201 3.27553 14.2092C2.90166 14.0634 2.63553 13.8923 2.35671 13.6135C2.0779 13.3347 1.90364 13.0686 1.76107 12.6947C1.65335 12.4127 1.52028 11.9914 1.48543 11.2119C1.44741 10.3692 1.4379 10.1189 1.4379 7.9866C1.4379 5.85432 1.44741 5.60403 1.48543 4.76125C1.52028 3.98185 1.65018 3.56046 1.76107 3.27848C1.90681 2.90462 2.0779 2.63848 2.35671 2.35967C2.63553 2.08086 2.90166 1.9066 3.27553 1.76403C3.55751 1.6563 3.97889 1.52323 4.7583 1.48838C5.60107 1.44719 5.85137 1.44086 7.98364 1.44086ZM7.98364 0.00244141C5.81652 0.00244141 5.54404 0.0119464 4.69176 0.0499662C3.84265 0.087986 3.26285 0.224224 2.75592 0.420659C2.22998 0.623432 1.78642 0.899075 1.34285 1.34264C0.899289 1.7862 0.626813 2.23294 0.420873 2.75571C0.224437 3.26264 0.0881996 3.84244 0.0501798 4.69472C0.01216 5.54383 0.00265503 5.8163 0.00265503 7.98343C0.00265503 10.1506 0.01216 10.423 0.0501798 11.2753C0.0881996 12.1244 0.224437 12.7042 0.420873 13.2143C0.623645 13.7403 0.899289 14.1838 1.34285 14.6274C1.78642 15.071 2.23315 15.3434 2.75592 15.5494C3.26285 15.7458 3.84265 15.882 4.69493 15.9201C5.54721 15.9581 5.81652 15.9676 7.98681 15.9676C10.1571 15.9676 10.4264 15.9581 11.2787 15.9201C12.1278 15.882 12.7076 15.7458 13.2177 15.5494C13.7436 15.3466 14.1872 15.071 14.6308 14.6274C15.0743 14.1838 15.3468 13.7371 15.5528 13.2143C15.7492 12.7074 15.8854 12.1276 15.9234 11.2753C15.9615 10.423 15.971 10.1537 15.971 7.98343C15.971 5.81313 15.9615 5.54383 15.9234 4.69155C15.8854 3.84244 15.7492 3.26264 15.5528 2.75254C15.35 2.2266 15.0743 1.78304 14.6308 1.33947C14.1872 0.895907 13.7405 0.623432 13.2177 0.417491C12.7108 0.221055 12.131 0.0848177 11.2787 0.0467978C10.4232 0.0119464 10.1508 0.00244141 7.98364 0.00244141Z" fill="white"/>
<path d="M7.98363 3.88369C5.72145 3.88369 3.88383 5.71815 3.88383 7.98349C3.88383 10.2488 5.72145 12.0833 7.98363 12.0833C10.2458 12.0833 12.0834 10.2457 12.0834 7.98349C12.0834 5.72132 10.2458 3.88369 7.98363 3.88369ZM7.98363 10.6449C6.51353 10.6449 5.32225 9.45359 5.32225 7.98349C5.32225 6.51339 6.51353 5.32211 7.98363 5.32211C9.45373 5.32211 10.645 6.51339 10.645 7.98349C10.645 9.45359 9.45373 10.6449 7.98363 10.6449Z" fill="white"/>
<path d="M12.245 4.679C12.7735 4.679 13.2019 4.25061 13.2019 3.72216C13.2019 3.19372 12.7735 2.76533 12.245 2.76533C11.7166 2.76533 11.2882 3.19372 11.2882 3.72216C11.2882 4.25061 11.7166 4.679 12.245 4.679Z" fill="white"/>
</g>
<defs>
<clipPath id="clip0_101_1538">
<rect width="16" height="16" fill="white"/>
</clipPath>
</defs>
</svg>
