<svg width="16" height="16" viewBox="0 0 16 16" fill="none" xmlns="http://www.w3.org/2000/svg">
<path d="M16 2.40986C15.4008 2.68734 14.7654 2.86951 14.1147 2.95031C14.7914 2.52495 15.312 1.85275 15.557 1.05061C14.9127 1.45053 14.2077 1.73229 13.4726 1.88371C12.8522 1.1907 11.9846 0.798162 11.0769 0.79981C9.26482 0.79981 7.79411 2.33662 7.79411 4.23237C7.79411 4.50175 7.8231 4.76429 7.87986 5.01498C5.15137 4.87159 2.73319 3.5055 1.11385 1.42824C0.831103 1.93464 0.669823 2.52495 0.669823 3.15424C0.669823 4.34469 1.2491 5.3956 2.12971 6.01133C1.60834 5.99461 1.09839 5.84735 0.64267 5.58191V5.62568C0.64267 7.28847 1.77428 8.67602 3.27521 8.99205C2.79181 9.12895 2.28498 9.14903 1.79307 9.05077C2.21097 10.4148 3.42363 11.4071 4.85943 11.436C3.73618 12.3552 2.321 12.9051 0.782719 12.9051C0.521148 12.9048 0.25981 12.8887 0 12.857C1.45254 13.8307 3.17834 14.3998 5.03194 14.3998C11.0697 14.3998 14.3709 9.16779 14.3709 4.63061C14.3709 4.48221 14.3709 4.3338 14.3607 4.18646C15.003 3.70037 15.5577 3.09883 15.999 2.40986H16Z" fill="white"/>
</svg>
