<svg width="16" height="16" viewBox="0 0 16 16" fill="none" xmlns="http://www.w3.org/2000/svg">
<path d="M15.664 4.52784C16 5.80784 16 8.47984 16 8.47984C16 8.47984 16 11.1518 15.664 12.4318C15.488 13.1358 14.944 13.6958 14.256 13.8878C13.008 14.2398 8 14.2398 8 14.2398C8 14.2398 2.992 14.2398 1.744 13.8878C1.056 13.6958 0.512 13.1358 0.336 12.4318C0 11.1518 0 8.47984 0 8.47984C0 8.47984 0 5.80784 0.336 4.52784C0.512 3.82384 1.056 3.26384 1.744 3.07184C2.992 2.73584 8 2.73584 8 2.73584C8 2.73584 13.008 2.73584 14.256 3.07184C14.944 3.26384 15.488 3.82384 15.664 4.52784ZM6.496 11.2318L10.496 8.73584L6.496 6.23984V11.2318Z" fill="white"/>
</svg>
