<svg width="30" height="30" viewBox="0 0 30 30" fill="none" xmlns="http://www.w3.org/2000/svg">
<path d="M23.6865 11.4666L18.681 6.51996L20.3299 4.87107C20.7814 4.41959 21.3361 4.19385 21.9941 4.19385C22.6513 4.19385 23.2056 4.41959 23.6571 4.87107L25.306 6.51996C25.7575 6.97144 25.993 7.51636 26.0127 8.15471C26.0323 8.79228 25.8164 9.33681 25.3649 9.78829L23.6865 11.4666ZM5.66655 25.6883C5.33284 25.6883 5.05332 25.5752 4.82797 25.3491C4.60184 25.1237 4.48877 24.8442 4.48877 24.5105V21.1833C4.48877 21.0263 4.51821 20.8743 4.5771 20.7275C4.63599 20.5799 4.72433 20.4472 4.8421 20.3294L16.9732 8.19829L21.9788 13.2038L9.84766 25.335C9.72988 25.4527 9.59758 25.5411 9.45075 25.6C9.30313 25.6588 9.15081 25.6883 8.99377 25.6883H5.66655Z" fill="white"/>
</svg>
