<svg width="58" height="16" viewBox="0 0 58 16" fill="none" xmlns="http://www.w3.org/2000/svg">
<path d="M36.8839 5.70553C36.8839 6.44587 37.0257 6.69793 37.537 6.68691V6.91548C37.537 6.91548 37.5073 6.91165 36.6778 6.91165C36.1848 6.91165 34.856 7.03959 34.5622 7.03863C32.2698 7.03336 31.8452 5.72901 31.8452 4.63646C31.8452 3.26214 32.7336 2.22949 34.0581 2.22949C34.7961 2.22949 35.0577 2.43793 35.3486 2.75707V1.69375C35.3078 1.36359 35.4272 0.878653 34.6475 0.859486V0.660143L36.675 0.530762H36.8839V5.70553ZM35.3486 3.34456C35.0884 2.85339 34.7961 2.54671 34.2915 2.54671C33.5746 2.54671 33.3825 3.44807 33.3825 4.55451C33.3825 6.18711 33.8238 6.76837 34.5124 6.76837C35.28 6.76837 35.3486 6.32464 35.3486 5.63509V3.34456Z" fill="black" fill-opacity="0.6"/>
<path d="M28.8808 2.23975C30.6959 2.24407 31.2475 3.57525 31.2892 4.33525L28.0417 4.32902C27.9986 5.25577 28.4907 6.28651 29.6211 6.2889C30.3691 6.29034 30.7645 5.78719 30.9523 5.45463L31.212 5.57683C30.9288 6.25344 30.189 7.05608 28.8511 7.04985C27.6703 7.04458 26.4796 6.24673 26.4829 4.64337C26.4853 3.00071 27.8117 2.23688 28.8808 2.23975ZM28.9009 2.60825C28.2401 2.60825 28.0475 3.32416 28.0427 3.86516C28.0427 3.86516 29.7246 3.8666 29.7222 3.86516C29.7582 3.36633 29.5574 2.60825 28.9009 2.60825ZM30.3792 11.2533C29.7184 11.2523 29.5258 11.9687 29.5205 12.5093C29.5205 12.5093 31.2024 12.5112 31.1996 12.5093C31.236 12.0119 31.0352 11.2533 30.3792 11.2533ZM30.3543 10.8838C32.169 10.8848 32.7234 12.2155 32.766 12.975H29.5191C29.4778 13.9023 29.9714 14.9325 31.1023 14.9325C31.8498 14.9325 32.2447 14.4275 32.4316 14.0949L32.6913 14.2166C32.41 14.8937 31.6716 15.6983 30.3337 15.6949C29.153 15.6916 27.9607 14.8966 27.9607 13.2923C27.9607 11.6496 29.2852 10.8829 30.3543 10.8838Z" fill="black" fill-opacity="0.6"/>
<path d="M21.6232 11.1749C22.0478 11.1601 23.7642 11.0005 23.7642 11.0005L23.7733 11.704C24.3416 11.3105 24.9464 10.8908 25.6618 11.0221C26.7199 11.2166 26.9249 12.0811 26.923 12.6619C26.923 12.6619 26.9221 14.4329 26.923 14.6534C26.9249 14.9212 27.0481 15.2854 27.5278 15.2859C27.5268 15.2854 27.5282 15.5073 27.5282 15.5073H24.794V15.2845C25.0465 15.2854 25.4121 15.192 25.4141 14.6198C25.4145 14.2978 25.4131 13.1037 25.4141 12.6853C25.4145 12.267 25.2296 11.9996 24.9368 11.8851C24.4926 11.7107 24.0618 11.9661 23.7781 12.2546L23.7786 14.6131C23.7786 14.8815 23.8514 15.2854 24.3809 15.2849L24.3795 15.5087H21.6745C21.6745 15.5087 21.6754 15.3554 21.6745 15.2849C21.9778 15.2854 22.2782 15.1345 22.2797 14.5954C22.2797 14.5954 22.2787 12.3672 22.2797 12.083C22.2811 11.588 22.1623 11.3767 21.6237 11.381C21.6232 11.3858 21.6232 11.1754 21.6232 11.1749ZM7.38025 15.2778C6.65907 15.2945 6.56372 14.489 6.34952 13.9969L4.62779 9.40913L3.49643 9.40625L1.57727 14.3409C1.42968 14.6553 1.28257 15.0099 0.95385 15.2044C0.872867 15.3266 0.528809 15.2931 0.528809 15.2931L0.530245 15.4982L2.70864 15.502L2.70624 15.3003C2.49636 15.3022 2.28599 15.2639 2.1638 15.0525C2.01861 14.4991 2.32481 13.9815 2.51074 13.4851H4.45289L4.84247 14.5547C4.8741 14.7368 4.93591 14.9577 4.79695 15.0995C4.6484 15.283 4.42845 15.2658 4.22815 15.3075L4.23007 15.4934L7.3079 15.5015M2.69618 12.9685L3.49882 10.862L4.25786 12.9685H2.69618ZM10.6828 15.2907C10.6828 15.2907 10.9641 15.3022 11.0393 15.2174C11.2588 15.1148 11.3197 14.8949 11.3479 14.6826L11.3503 11.7322C11.2066 11.3182 10.9287 11.3326 10.6982 11.3038C10.7173 11.243 10.7073 11.1735 10.7068 11.1122L12.8306 11.0082L12.8282 12.2138C13.2441 11.6958 13.6907 10.7427 14.5341 11.0077L14.8355 11.1261C14.7598 11.6215 14.6337 12.1477 14.5283 12.6532C14.1459 12.4041 13.672 12.0351 13.2043 12.3523C13.0428 12.4725 12.9123 12.6293 12.8234 12.8099L12.8253 14.6596C12.8411 14.9117 12.936 15.1278 13.119 15.2164C13.2829 15.296 13.4741 15.2859 13.4741 15.2859L13.4631 15.4982L10.6785 15.4929L10.6828 15.2907Z" fill="black" fill-opacity="0.6"/>
<path d="M7.38974 15.2793C7.83587 15.2783 7.97435 15.0282 7.97435 14.4206C7.97339 14.4134 7.97435 12.0409 7.97435 12.0409C7.97291 11.9403 7.99208 11.624 7.81813 11.4664C7.6878 11.3485 7.49468 11.3149 7.32361 11.3125V11.1046L9.45457 11.003C9.45457 11.003 9.45552 14.4354 9.45457 14.4273C9.45313 15.2285 9.79623 15.2774 10.0866 15.2774V15.5031H7.31738M14.8244 15.2822C15.0985 15.275 15.5168 15.2146 15.5168 14.5528C15.5168 14.3722 15.5182 10.7222 15.5168 10.1721C15.5158 9.74272 15.3865 9.49019 14.8234 9.53332V9.31001L17.0507 9.12984C17.0507 9.12984 17.0454 13.5044 17.0507 14.5447C17.0545 15.1705 17.3382 15.2874 17.7129 15.286C17.711 15.2874 17.7129 15.5093 17.7129 15.5093H14.8244C14.8244 15.5093 14.8215 15.2812 14.8244 15.2822ZM18.2649 15.2783C18.7111 15.2778 18.8912 15.0301 18.8908 14.4263V12.0639C18.8903 11.9642 18.909 11.6509 18.7345 11.4946C18.6047 11.3782 18.4111 11.3442 18.24 11.3418V11.1357L20.3724 11.0356C20.3724 11.0356 20.3734 13.7866 20.3724 14.433C20.3705 15.229 20.7146 15.2778 21.0045 15.2774V15.5011L18.2649 15.5016V15.2783ZM19.5851 10.5118C20.0456 10.5118 20.4184 10.15 20.4184 9.70343C20.4184 9.2573 20.0456 8.896 19.5851 8.896C19.1251 8.896 18.7523 9.2573 18.7523 9.70343C18.7523 10.1496 19.1251 10.5118 19.5851 10.5118Z" fill="black" fill-opacity="0.6"/>
<path d="M8.68731 10.5118C9.14686 10.5118 9.51966 10.15 9.51966 9.70343C9.51966 9.2573 9.14686 8.896 8.68731 8.896C8.22729 8.896 7.854 9.2573 7.854 9.70343C7.85448 10.1496 8.22729 10.5118 8.68731 10.5118ZM33.5879 13.9213C33.931 13.8072 33.8131 14.2533 33.9967 14.3832C34.3757 14.9371 34.9565 15.4379 35.6633 15.2798C35.8248 15.2069 36.0155 15.1044 36.0955 14.9319C36.1366 14.8141 36.1435 14.6872 36.1155 14.5657C36.0875 14.4442 36.0258 14.3331 35.9374 14.2452C35.1635 13.6553 33.7278 13.7487 33.6157 12.4741C33.5812 11.9887 33.7796 11.5727 34.1514 11.2761C34.8343 10.7533 35.9383 10.8856 36.6998 11.1424C36.9427 11.2105 37.0002 10.876 37.2336 10.9455L37.2863 12.3414L37.0841 12.3538C36.8977 11.8789 36.4285 11.3878 35.9311 11.2397C35.6882 11.1712 35.3647 11.1942 35.1424 11.2972C34.9919 11.3907 34.8621 11.5426 34.863 11.7246C34.8549 11.9379 34.968 12.1185 35.1505 12.2288C36.0342 12.5949 37.4722 12.7851 37.5139 14.0693C37.5383 14.5442 37.3294 14.9414 36.9681 15.2376C36.2551 15.8917 35.0394 15.6693 34.2176 15.4039C34.0762 15.3847 33.9449 15.4465 33.8855 15.5788V15.609L33.6938 15.6209C33.6375 15.0559 33.6022 14.4889 33.5879 13.9213Z" fill="black" fill-opacity="0.6"/>
<path d="M55.7073 0.616161V15.4686H52.6304C53.2802 13.7622 53.4268 11.6524 52.9682 9.80222C52.4124 7.45132 50.8737 5.21686 48.6929 3.83775C46.6334 2.52621 44.017 2.00964 41.4442 2.54106L40.8524 2.68482V0.616161H55.7073ZM44.9414 2.9455C44.1521 2.50944 43.1123 2.44666 42.1803 2.6048L42.5099 2.64217L42.5569 2.62013C42.9887 2.5885 43.4424 2.60288 43.845 2.69057C43.7132 2.72747 43.4875 2.8027 43.3284 2.86883C43.417 2.90189 43.5316 2.95988 43.6106 3.00971C43.8422 2.93287 44.0777 2.86825 44.316 2.81612C44.4713 2.86404 44.8733 3.04853 45.123 3.23206C44.8278 3.26272 44.4248 3.3207 44.1008 3.39546C44.177 3.4635 44.2432 3.54209 44.2992 3.63026C44.6863 3.56141 45.0776 3.51915 45.4704 3.50375C45.6721 3.67818 45.836 3.88759 45.9481 4.10466C45.5121 4.07447 44.9303 4.08262 44.5752 4.12047C44.6107 4.18516 44.662 4.34665 44.684 4.44536C45.1249 4.42619 45.8461 4.45782 46.1475 4.50191C46.2467 4.74102 46.3042 4.99691 46.3267 5.26669C45.8211 5.16654 45.2279 5.08316 44.764 5.06112C44.7693 5.21015 44.7631 5.35295 44.7497 5.49335C45.3012 5.54989 45.8365 5.64957 46.355 5.78422C46.3487 6.04777 46.3104 6.37506 46.2395 6.62807C45.7086 6.44216 45.1663 6.29043 44.616 6.1738C44.5608 6.40329 44.4846 6.62721 44.3884 6.84275C44.9318 7.02388 45.4689 7.2606 45.9836 7.51505C45.8973 7.7639 45.7897 8.00486 45.6621 8.23527C45.1469 7.94728 44.6174 7.6636 44.0922 7.43982C43.928 7.73666 43.7437 8.02196 43.5407 8.29373C44.049 8.6064 44.5419 8.9435 45.0175 9.30386C44.8728 9.51423 44.6673 9.76772 44.5412 9.91914C44.0817 9.53627 43.1367 8.78298 43.1367 8.78298C42.8564 9.11937 42.6192 9.36951 42.2684 9.63929C42.6917 10.0753 43.0966 10.5287 43.4822 10.9983C43.3264 11.1627 43.1536 11.31 42.9666 11.4377C42.5818 10.965 42.2084 10.4831 41.8467 9.99246C41.4687 10.2891 41.2377 10.4501 40.8524 10.6504V11.2048L41.4663 12.4339C41.3296 12.5201 41.1854 12.5937 41.0355 12.6539L40.8524 12.2964V12.9423C43.2211 11.8896 45.6299 9.57077 46.3315 7.05071C46.5878 6.18098 46.6338 5.05968 46.2141 4.24841C45.9678 3.71508 45.4689 3.2172 44.9414 2.9455ZM44.5887 2.58036C44.6917 2.61342 44.7904 2.6599 44.8886 2.70303L44.9442 2.69345C45.4426 2.7753 45.9235 2.94054 46.3669 3.18222C46.1317 3.18366 45.8878 3.1803 45.653 3.19899C45.7517 3.28812 45.8552 3.39067 45.9409 3.48411C46.2505 3.4779 46.5602 3.48477 46.8691 3.50471C47.1696 3.72562 47.4763 4.02224 47.6473 4.327C47.2294 4.23811 46.8062 4.17585 46.3804 4.1406C46.4369 4.26902 46.493 4.40176 46.5409 4.53785C47.0201 4.60829 47.4959 4.6955 47.9583 4.8129C48.1097 5.12869 48.2267 5.4622 48.2755 5.81297C47.7662 5.63088 47.2429 5.45885 46.7076 5.35007C46.7215 5.52114 46.722 5.70084 46.7235 5.87622C47.2764 6.03675 47.816 6.22172 48.3393 6.45891C48.3433 6.8005 48.3048 7.14126 48.2248 7.47336C47.6972 7.21076 47.1614 6.95248 46.6037 6.76272C46.5328 7.07237 46.4416 7.377 46.3305 7.67462C46.8662 7.95111 47.3986 8.23048 47.9051 8.56112C47.8017 8.8519 47.6685 9.13117 47.5074 9.39443C47.0095 9.05468 46.5117 8.72356 45.9922 8.43413C45.8092 8.81868 45.5861 9.18281 45.3266 9.52045C45.79 9.88655 46.263 10.2646 46.71 10.6691C46.542 10.9208 46.353 11.1579 46.1451 11.3778C45.8187 11.0347 45.2763 10.5478 44.8249 10.165C44.5048 10.5526 44.1258 10.9796 43.7448 11.2973C44.0352 11.6025 44.8982 12.6429 44.8982 12.6429C44.7252 12.8149 44.511 12.9912 44.2887 13.1508C44.2887 13.1508 43.4094 12.0204 43.1909 11.7492C42.6705 12.1622 42.2526 12.4517 41.6436 12.7751C41.887 13.1872 42.4855 14.3023 42.4855 14.3023C42.3317 14.3972 42.1692 14.4858 42.0078 14.5448C41.726 14.0747 41.3858 13.3933 41.2037 13.0042C41.0288 13.1005 40.8524 13.1623 40.8524 13.1623V15.1945C42.6892 14.5989 44.3807 13.5437 45.8144 12.017C47.1202 10.6025 48.1519 9.07433 48.4591 7.2491C48.7035 5.79284 48.2214 4.42284 47.0661 3.49513C46.3655 2.89614 45.4963 2.68626 44.5887 2.58036ZM43.9777 3.55072C43.1731 2.73609 41.9383 2.66901 40.8524 2.92489V3.02361C41.1121 2.96532 41.377 2.93369 41.6431 2.92921C41.4687 3.03798 41.3022 3.15887 41.1447 3.29099C41.2104 3.30537 41.2803 3.32693 41.3417 3.35377C41.5603 3.19648 41.7875 3.05139 42.0221 2.91914C42.2785 2.9201 42.611 2.9685 42.8286 3.05523C42.4711 3.18414 42.0375 3.38252 41.7576 3.56988C41.8116 3.60073 41.8607 3.63949 41.9033 3.68489C42.3025 3.47666 42.7181 3.30133 43.1458 3.16066C43.337 3.23685 43.5426 3.37342 43.661 3.48746C43.1439 3.60966 42.6479 3.74622 42.1491 3.9494C42.1985 4.00547 42.2488 4.09172 42.2737 4.14491C42.8045 3.96265 43.3466 3.81554 43.8967 3.70454C43.9978 3.81283 44.1181 3.98678 44.1814 4.14779C43.5704 4.212 42.8698 4.31838 42.3997 4.45255C42.428 4.53258 42.4457 4.60924 42.4606 4.68304C43.0685 4.56473 43.6844 4.49154 44.3031 4.46405C44.3606 4.64327 44.3908 4.8359 44.3917 5.03237C43.7571 4.9976 43.1207 5.01266 42.4884 5.07741C42.4889 5.15169 42.4788 5.29832 42.4687 5.38984C43.1041 5.36651 43.7404 5.38877 44.3726 5.45645C44.3491 5.6419 44.3031 5.88293 44.2432 6.09042C43.602 5.94427 43.0174 5.87335 42.3729 5.83118C42.3415 5.97165 42.2947 6.10824 42.2335 6.23849C42.8377 6.34918 43.442 6.51642 44.0242 6.72486C43.9437 6.91414 43.8507 7.09863 43.7491 7.27833C43.3126 7.0718 42.5387 6.7838 42.0303 6.64101C41.9294 6.84398 41.8071 7.03562 41.6656 7.21268C42.0312 7.39046 42.7318 7.78579 43.21 8.09439C43.0955 8.24869 42.9676 8.40778 42.832 8.54962C42.3722 8.18537 41.8948 7.84394 41.4016 7.52655C41.2406 7.71056 41.0398 7.91086 40.8524 8.07043V8.12793L42.0106 9.3628C41.8843 9.47754 41.7518 9.58535 41.6139 9.68577L40.8524 8.71206V10.4319C42.0293 9.7404 43.2215 8.60808 43.891 7.40579C44.4377 6.44454 44.8503 5.14162 44.3222 4.03613C44.2274 3.86554 44.1282 3.69879 43.9777 3.55072ZM47.4389 3.56174L47.781 3.60295C48.1241 3.78073 48.4375 4.03134 48.7212 4.32988C48.8252 4.44488 48.9368 4.55941 49.0101 4.68304C48.7274 4.60349 48.4528 4.5067 48.1615 4.44392C48.2602 4.59774 48.3311 4.74917 48.404 4.92647C48.7293 5.01847 49.0514 5.13252 49.3681 5.24609C49.5708 5.62992 49.7189 6.0449 49.7888 6.48096C49.4251 6.29887 49.0605 6.12109 48.6829 5.97302C48.7121 6.18673 48.7212 6.40716 48.7121 6.61897C49.1242 6.80872 49.5866 7.06269 49.8727 7.24527C49.8823 7.54811 49.854 8.0848 49.7653 8.42838C49.4361 8.18735 48.9603 7.87875 48.5765 7.68085C48.5238 7.97699 48.3843 8.43941 48.2358 8.76525C48.6393 9.03695 49.0379 9.31632 49.4203 9.64409C49.2996 9.96374 49.1569 10.2747 48.9934 10.5747C48.6125 10.248 48.2214 9.9333 47.8208 9.63115C47.5932 10.0883 47.3158 10.519 46.9937 10.9154C47.3794 11.2679 47.7551 11.6313 48.1203 12.0051C47.9392 12.2686 47.7365 12.5288 47.4993 12.7741C47.1466 12.3956 46.7853 12.0074 46.4158 11.6461C46.0329 12.0884 45.6007 12.5508 45.1474 12.9318C45.5023 13.3146 45.8317 13.7202 46.1336 14.1461C45.9088 14.3382 45.699 14.5208 45.4733 14.6847L44.5216 13.4575C43.9336 13.9141 43.3107 14.2932 42.6839 14.6348L43.1842 15.4686H44.7329C47.0987 13.8514 49.2378 11.4516 49.8957 8.77244C50.2939 7.13218 49.9158 5.45549 48.7854 4.23452C48.1835 3.58474 47.5146 3.36623 47.0431 3.22151C47.1633 3.30106 47.3033 3.42325 47.4389 3.56174ZM40.8529 3.42565V3.71172L41.0134 3.59959C41.1462 3.63218 41.2986 3.69783 41.3997 3.76539C41.2157 3.87321 41.0259 3.98103 40.8543 4.09699V4.27717C41.0852 4.13189 41.3213 3.99507 41.5621 3.86698C41.6484 3.92161 41.726 4.00259 41.7859 4.08405C41.4787 4.20625 41.0513 4.41517 40.8524 4.52107V4.7046C41.1927 4.54024 41.5688 4.373 41.9263 4.26231C41.9733 4.34377 42.0183 4.4468 42.0365 4.54072C41.656 4.61404 41.2152 4.77456 40.8543 4.91449V5.08364C41.2343 4.95139 41.7485 4.81626 42.0835 4.76211C42.1093 4.87088 42.1113 5.00889 42.1122 5.10856C41.6902 5.14755 41.2708 5.21139 40.8563 5.29976V5.49239C41.2219 5.44303 41.8285 5.39847 42.0926 5.40853C42.0709 5.54178 42.0358 5.67247 41.9876 5.79859C41.6106 5.76572 41.2322 5.75197 40.8539 5.75738C40.8524 5.75738 40.8524 6.01471 40.8524 6.01614C41.1864 6.03531 41.5506 6.11534 41.8439 6.17092C41.7951 6.29195 41.7356 6.40837 41.6661 6.51881C41.437 6.44214 41.1026 6.33624 40.8524 6.29647V6.80537C41.013 6.87629 41.2439 6.99225 41.3225 7.04305C41.2554 7.14104 41.1785 7.23191 41.093 7.31427C40.9871 7.24239 40.8519 7.16332 40.8519 7.16332L40.8524 7.81071C41.1203 7.54907 41.3834 7.27354 41.5913 6.98123C42.1093 6.23417 42.5195 5.26526 42.1467 4.32988C41.9215 3.81762 41.3752 3.49513 40.8529 3.42565ZM49.5281 4.85651C49.6364 5.03956 49.74 5.2274 49.8262 5.41907L50.2383 5.61027C50.5316 6.08706 50.7649 6.59117 50.8919 7.13745C50.6648 6.99417 50.4329 6.84514 50.2009 6.71768C50.2369 6.9659 50.246 7.19016 50.2512 7.4518C50.5134 7.63437 50.7855 7.827 51.0381 8.05318C51.06 8.50004 51.0337 8.94795 50.9595 9.38916C50.6959 9.13158 50.4121 8.89554 50.1108 8.68331C50.0399 9.07481 49.8986 9.5171 49.7347 9.91339C50.0504 10.1701 50.3464 10.4501 50.6202 10.751C50.5024 11.0948 50.3554 11.428 50.1808 11.7468C49.9005 11.4444 49.5933 11.1277 49.2866 10.8607C49.0988 11.2273 48.7178 11.8182 48.3824 12.2739C48.6823 12.5881 48.972 12.9119 49.2512 13.2447C49.0475 13.5249 48.8275 13.793 48.5923 14.0474C48.3081 13.7191 48.0417 13.3837 47.7451 13.0641C47.2966 13.5859 46.9204 13.9937 46.3832 14.4456C46.7014 14.8294 47.1796 15.4686 47.1796 15.4686H47.4513C47.9568 15.0144 48.4323 14.528 48.875 14.0124C49.9589 12.6893 50.8153 11.2724 51.1147 9.62732C51.4396 7.90128 50.9858 6.22172 49.8454 4.97439L49.5281 4.85651ZM46.0243 3.80852L46.02 3.82098C46.5155 4.43003 46.9075 5.08316 47.1126 5.80913L47.1087 5.81824L46.7263 5.52929C46.7747 5.82399 46.8135 6.09713 46.8236 6.40621C47.0033 6.54277 47.2007 6.72007 47.355 6.90552C47.3809 7.40723 47.3809 7.94057 47.2942 8.43413C47.1236 8.20412 46.9707 8.04072 46.7024 7.77285C46.6429 8.13704 46.5078 8.70967 46.3425 9.09398C46.5763 9.34795 46.8169 9.66948 46.9674 9.90477C46.8797 10.2062 46.7091 10.6116 46.5279 10.9513C46.3118 10.6739 46.1599 10.4472 45.8777 10.1161C45.5923 10.6453 45.269 11.1531 44.9102 11.6356C45.1555 11.9255 45.3793 12.2284 45.595 12.5355C45.3903 12.8233 45.1705 13.1 44.9366 13.3645C44.7123 13.0574 44.4751 12.7511 44.2427 12.4483C43.9173 12.8259 43.59 13.2112 43.1942 13.5581H45.0185C46.192 12.1953 47.044 10.6878 47.3895 8.98328C47.7489 7.26539 47.4657 5.44783 46.3597 4.1521C46.2562 4.03757 46.1489 3.89334 46.0243 3.80852ZM47.5807 6.19632C47.6507 6.52504 47.6818 6.79626 47.723 7.22658C47.8591 7.3756 48.0221 7.62478 48.0221 7.62478C48.0428 8.13636 48.0034 8.6486 47.9047 9.151L47.6286 8.8103C47.5454 9.28942 47.4194 9.76012 47.252 10.2167L47.5596 10.7505C47.4691 11.0678 47.2937 11.5077 47.125 11.8599C47.011 11.6739 46.9017 11.4698 46.7853 11.3054C46.5021 11.8484 46.1807 12.3706 45.8235 12.8681L46.2505 13.5581H46.3492C47.3809 12.0252 48.0728 10.3356 48.1442 8.41401C48.1787 7.60897 47.9267 6.90935 47.6239 6.23897L47.5807 6.19632ZM46.8433 6.56434C46.8102 6.82118 46.7901 7.08138 46.7445 7.32673L46.6626 7.21603C46.5792 7.72927 46.4462 8.23319 46.2654 8.72069L46.3923 9.07146C46.2884 9.4251 46.1566 9.80461 45.9869 10.2014C45.9397 10.07 45.8782 9.94413 45.8034 9.82618C45.5734 10.2891 45.3161 10.7379 45.0329 11.1703L45.7157 11.1698C46.0886 10.4456 46.3832 9.68369 46.5946 8.89703C46.7747 8.16052 46.9372 7.37225 46.8476 6.56434H46.8433ZM46.8873 8.44659C46.7431 9.19748 46.4843 10.1271 46.2663 10.7908C46.2399 10.7388 46.2153 10.6859 46.1925 10.6322C46.0909 10.8387 45.9357 11.1698 45.9357 11.1698H46.2864C46.5893 10.4568 46.8011 9.42893 46.8873 8.44659ZM36.0102 10.5886C35.5837 10.7831 35.1573 10.9446 34.7092 11.0884V11.1684H36.3356L36.0102 10.5886ZM50.4487 8.55537C50.28 8.6766 50.0648 8.8678 49.8046 9.02833H50.7601C50.7601 9.02833 50.5527 8.71925 50.4487 8.55537ZM56.2344 14.8591C56.2344 14.5165 56.5075 14.2433 56.853 14.2433C57.198 14.2433 57.4712 14.5165 57.4712 14.8591C57.4712 15.2012 57.198 15.4739 56.853 15.4739C56.7719 15.4747 56.6914 15.4593 56.6163 15.4287C56.5411 15.3982 56.4728 15.353 56.4153 15.2958C56.3577 15.2386 56.3121 15.1705 56.281 15.0956C56.25 15.0206 56.2341 14.9402 56.2344 14.8591ZM57.3768 14.8591C57.3768 14.5687 57.1353 14.3387 56.853 14.3387C56.5708 14.3387 56.3293 14.5687 56.3293 14.8591C56.3293 15.1485 56.5708 15.3795 56.853 15.3795C57.1353 15.3795 57.3768 15.1485 57.3768 14.8591ZM57.1463 15.1921H57.0327L56.831 14.8811H56.7169V15.1921H56.623V14.5179H56.9163C57.0375 14.5179 57.1559 14.5515 57.1559 14.6957C57.1559 14.8284 57.0629 14.8778 56.9426 14.8811L57.1463 15.1921ZM50.1334 8.14949C50.2167 8.14949 50.3634 8.16531 50.3634 8.05797C50.3634 7.98897 50.2723 7.97555 50.1995 7.97555H50.0193V8.14949H50.1334ZM19.5343 6.68701C19.9804 6.68605 20.161 6.43879 20.1601 5.83453V3.47309C20.1591 3.37294 20.1783 3.05955 20.0039 2.90333C19.874 2.78689 19.6804 2.75334 19.5098 2.75047V2.54442L21.6413 2.44379C21.6413 2.44379 21.6422 5.19481 21.6413 5.84172C21.6398 6.63813 21.9839 6.68605 22.2743 6.68557V6.90983H19.5343V6.68701ZM20.8544 1.92099C21.3149 1.92099 21.6873 1.55873 21.6873 1.11212C21.6873 0.666476 21.3149 0.304688 20.8544 0.304688C20.3949 0.304688 20.0216 0.666476 20.0216 1.11212C20.0216 1.55873 20.3949 1.92099 20.8544 1.92099ZM13.0767 2.577C13.5013 2.56215 15.2177 2.40258 15.2177 2.40258L15.2263 3.10651C15.7951 2.71261 16.3999 2.29236 17.1153 2.42414C18.1734 2.61917 18.378 3.48315 18.3765 4.06345C18.3765 4.06345 18.3756 5.83501 18.3765 6.05496C18.378 6.32283 18.5016 6.68797 18.9813 6.68893C18.9803 6.68797 18.9818 6.90935 18.9818 6.90935H16.247V6.68653C16.5005 6.68797 16.8657 6.59357 16.8671 6.02237C16.8681 5.69988 16.8661 4.50574 16.8671 4.08741C16.8681 3.66908 16.6836 3.40169 16.3903 3.28668C15.9456 3.11322 15.5153 3.36862 15.2316 3.65662L15.2321 6.01471C15.2321 6.28401 15.304 6.68797 15.8344 6.68701L15.8335 6.90983H13.128V6.68701C13.4313 6.68797 13.7313 6.53702 13.7332 5.99698V3.48555C13.7346 2.99006 13.6158 2.77922 13.0772 2.78353L13.0767 2.577ZM22.6758 2.75526C23.4004 2.26649 24.1441 1.49931 24.651 0.887381H24.813V2.46583H26.1538V2.96419H24.8058C24.8058 2.96419 24.8034 4.51389 24.8058 5.47035C24.8073 6.04058 25.0425 6.32426 25.47 6.32378C25.681 6.3194 25.8819 6.23293 26.0301 6.08275L26.2635 6.18386C25.9094 6.76847 25.3703 7.03778 24.7234 7.03873C23.7329 7.04065 23.3112 6.3856 23.3131 5.66681C23.3141 5.05489 23.3141 2.96275 23.3141 2.96275H22.6758V2.75526ZM11.8164 5.89731C11.8016 6.4201 12.1313 6.66545 12.5443 6.66449V6.88827H10.2222V6.23082C9.46745 6.95152 9.15023 7.03873 8.49805 7.03873C7.20903 7.03873 6.39154 6.27778 6.39154 5.0961V2.01587C6.39154 1.49547 6.25545 1.3843 5.61621 1.23384V1.02491H8.64229V1.23384C7.97143 1.3843 7.86648 1.52566 7.86648 2.06619V5.34672C7.86648 6.06742 8.18371 6.49821 8.89626 6.49821C9.42049 6.49821 9.65625 6.24759 10.2222 5.68694V2.01587C10.2222 1.48541 10.0861 1.3843 9.44685 1.23384V1.02491H12.4729V1.23144C11.8706 1.21659 11.8164 1.5247 11.8164 2.13615V5.89731Z" fill="black" fill-opacity="0.6"/>
</svg>
