<svg width="687" height="644" viewBox="0 0 687 644" fill="none" xmlns="http://www.w3.org/2000/svg">
<path d="M126.949 190.541L129.522 195.753L135.276 196.59L131.112 200.647L132.096 206.376L126.949 203.671L121.802 206.376L122.785 200.647L118.62 196.59L124.375 195.753L126.949 190.541Z" fill="#0F2F65"/>
<path d="M642.042 435.922L644.615 441.134L650.369 441.971L646.205 446.028L647.189 451.757L642.042 449.052L636.895 451.757L637.877 446.028L633.713 441.971L639.468 441.134L642.042 435.922Z" fill="#0F2F65"/>
<path d="M540.021 587.195L542.594 592.407L548.349 593.243L544.184 597.301L545.168 603.03L540.021 600.325L534.874 603.03L535.857 597.301L531.692 593.243L537.447 592.407L540.021 587.195Z" fill="#0F2F65"/>
<path d="M306.612 98.1166L307.567 100.051L309.703 100.361C310.236 100.439 310.449 101.093 310.062 101.47L308.517 102.977L308.881 105.104C308.972 105.635 308.415 106.04 307.939 105.79L306.028 104.786L304.116 105.79C303.639 106.041 303.082 105.635 303.174 105.104L303.539 102.977L301.993 101.47C301.608 101.095 301.82 100.439 302.353 100.361L304.489 100.051L305.444 98.1166C305.684 97.633 306.373 97.633 306.612 98.1166Z" fill="#0F2F65"/>
<path d="M43.7462 562.443L44.7011 564.377L46.8369 564.688C47.3701 564.766 47.5834 565.419 47.1966 565.797L45.6512 567.303L46.0157 569.43C46.1064 569.962 45.5494 570.366 45.0735 570.116L43.1621 569.112L41.2507 570.116C40.7732 570.366 40.2162 569.962 40.3085 569.43L40.6729 567.303L39.1275 565.797C38.7424 565.421 38.9541 564.766 39.4872 564.688L41.6231 564.377L42.578 562.443C42.8183 561.959 43.5074 561.959 43.7462 562.443Z" fill="#0F2F65"/>
<path d="M86.6853 77.6694L87.6402 79.604L89.776 79.9142C90.3092 79.9922 90.5225 80.646 90.1357 81.0231L88.5903 82.5297L88.9548 84.6568C89.0455 85.1882 88.4885 85.5923 88.011 85.3409L86.0996 84.337L84.1897 85.3409C83.7123 85.5923 83.1553 85.1866 83.246 84.6568L83.6104 82.5297L82.065 81.0231C81.6799 80.6476 81.8916 79.9922 82.4247 79.9142L84.5606 79.604L85.5155 77.6694C85.7574 77.1857 86.4465 77.1857 86.6853 77.6694Z" fill="#0F2F65"/>
<path d="M84.097 461.117C84.097 462.283 83.1516 463.228 81.985 463.228C80.8184 463.228 79.873 462.283 79.873 461.117C79.873 459.951 80.8184 459.006 81.985 459.006C83.15 459.006 84.097 459.951 84.097 461.117Z" fill="#0F2F65"/>
<path d="M385.754 196.344C385.754 197.51 384.809 198.455 383.642 198.455C382.476 198.455 381.53 197.51 381.53 196.344C381.53 195.177 382.476 194.232 383.642 194.232C384.809 194.232 385.754 195.177 385.754 196.344Z" fill="#0F2F65"/>
<path d="M275.998 79.4178C275.998 80.584 275.053 81.529 273.886 81.529C272.72 81.529 271.774 80.584 271.774 79.4178C271.774 78.2517 272.72 77.3066 273.886 77.3066C275.053 77.3066 275.998 78.2533 275.998 79.4178Z" fill="#0F2F65"/>
<path d="M279.393 595.042C285.679 593.559 289.57 587.264 288.085 580.981C286.599 574.698 280.299 570.807 274.013 572.289C267.727 573.771 263.835 580.066 265.321 586.349C266.807 592.632 273.107 596.524 279.393 595.042Z" fill="#0F2F65"/>
<path d="M272.639 576.891C270.157 576.891 267.849 577.686 265.971 579.054C265.35 580.486 265 582.061 265 583.716C265 590.175 270.236 595.393 276.698 595.393C278.878 595.393 280.931 594.789 282.682 593.74C282.666 593.724 282.666 593.724 282.682 593.724C283.557 592.102 284.051 590.256 284.051 588.283C284.051 581.998 278.942 576.891 272.639 576.891Z" fill="#0F2F65"/>
<path d="M182.048 380.497H85.1953V336.786L182.048 221.701H228.386V339.264H252.402V380.497H228.386V416.249H182.048V380.497ZM182.048 339.264V279.066L130.871 339.264H182.048Z" fill="#1A86FE"/>
<path d="M268.982 319.823C268.982 283.463 275.528 258.021 288.627 243.492C301.723 228.965 321.67 221.701 348.475 221.701C361.352 221.701 371.926 223.291 380.192 226.464C388.459 229.64 395.204 233.772 400.424 238.86C405.644 243.949 409.757 249.298 412.758 254.909C415.762 260.519 418.176 267.066 420.003 274.548C423.57 288.814 425.354 303.689 425.354 319.172C425.354 353.879 419.479 379.282 407.732 395.372C395.984 411.466 375.752 419.51 347.036 419.51C330.936 419.51 317.927 416.942 308.008 411.812C298.087 406.681 289.949 399.156 283.599 389.239C278.984 382.195 275.395 372.56 272.831 360.338C270.264 348.116 268.982 334.612 268.982 319.823ZM321.716 319.953C321.716 344.311 323.87 360.947 328.176 369.865C332.485 378.78 338.728 383.238 346.907 383.238C352.302 383.238 356.98 381.347 360.94 377.562C364.899 373.778 367.814 367.8 369.687 359.622C371.557 351.446 372.493 338.701 372.493 321.39C372.493 295.992 370.339 278.92 366.033 270.177C361.724 261.434 355.264 257.063 346.648 257.063C337.858 257.063 331.506 261.523 327.589 270.438C323.674 279.354 321.716 295.86 321.716 319.953Z" fill="#1A86FE"/>
<path d="M538.65 380.497H441.797V336.786L538.65 221.701H584.987V339.264H609.003V380.497H584.987V416.249H538.65V380.497ZM538.65 339.264V279.066L487.474 339.264H538.65Z" fill="#1A86FE"/>
<g opacity="0.3">
<path d="M266.824 154.539C266.824 156.178 265.495 157.506 263.856 157.506C262.217 157.506 260.888 156.178 260.888 154.539C260.888 152.901 262.217 151.572 263.856 151.572C265.495 151.572 266.824 152.901 266.824 154.539Z" fill="#1A86FE"/>
<path d="M63.1344 268.823C64.2973 268.823 65.24 267.881 65.24 266.718C65.24 265.556 64.2973 264.613 63.1344 264.613C61.9715 264.613 61.0288 265.556 61.0288 266.718C61.0288 267.881 61.9715 268.823 63.1344 268.823Z" fill="#1A86FE"/>
<path d="M410.229 575.517C411.893 575.517 413.242 574.169 413.242 572.506C413.242 570.843 411.893 569.494 410.229 569.494C408.565 569.494 407.216 570.843 407.216 572.506C407.216 574.169 408.565 575.517 410.229 575.517Z" fill="#1A86FE"/>
<path d="M482.549 453.169C483.712 453.169 484.655 452.226 484.655 451.064C484.655 449.901 483.712 448.959 482.549 448.959C481.387 448.959 480.444 449.901 480.444 451.064C480.444 452.226 481.387 453.169 482.549 453.169Z" fill="#1A86FE"/>
<path d="M622.095 74.9935C622.095 76.1565 621.153 77.0983 619.989 77.0983C618.826 77.0983 617.884 76.1565 617.884 74.9935C617.884 73.8305 618.826 72.8887 619.989 72.8887C621.153 72.8887 622.095 73.8305 622.095 74.9935Z" fill="#1A86FE"/>
<path d="M221.946 32.5853C221.946 33.7483 221.003 34.6901 219.84 34.6901C218.677 34.6901 217.734 33.7483 217.734 32.5853C217.734 31.4223 218.677 30.4805 219.84 30.4805C221.003 30.4805 221.946 31.4223 221.946 32.5853Z" fill="#1A86FE"/>
<path d="M388.97 142.842C390.133 142.842 391.075 141.9 391.075 140.738C391.075 139.575 390.133 138.633 388.97 138.633C387.807 138.633 386.864 139.575 386.864 140.738C386.864 141.9 387.807 142.842 388.97 142.842Z" fill="#1A86FE"/>
</g>
<path d="M171.784 142.852C191.042 142.852 206.654 127.246 206.654 107.994C206.654 88.743 191.042 73.1367 171.784 73.1367C152.525 73.1367 136.913 88.743 136.913 107.994C136.913 127.246 152.525 142.852 171.784 142.852Z" fill="#1A86FE"/>
<path opacity="0.7" d="M171.784 142.852C191.042 142.852 206.654 127.246 206.654 107.994C206.654 88.743 191.042 73.1367 171.784 73.1367C152.525 73.1367 136.913 88.743 136.913 107.994C136.913 127.246 152.525 142.852 171.784 142.852Z" fill="url(#paint0_linear_2087_4024)"/>
<path opacity="0.2" d="M159.767 81.6953C154.88 81.6953 150.24 82.7056 146.015 84.5113C140.365 90.7049 136.917 98.9539 136.917 107.997C136.917 127.243 152.526 142.845 171.778 142.845C176.682 142.845 181.355 141.835 185.598 140.013C185.598 140.013 185.598 140.013 185.598 139.997C191.214 133.802 194.644 125.586 194.644 116.561C194.646 97.2978 179.037 81.6953 159.767 81.6953Z" fill="#1A86FE"/>
<path opacity="0.2" d="M156.298 90.9113C156.298 92.6709 154.87 94.0979 153.11 94.0979C151.349 94.0979 149.922 92.6709 149.922 90.9113C149.922 89.1517 151.349 87.7246 153.11 87.7246C154.87 87.7246 156.298 89.1517 156.298 90.9113Z" fill="#1A86FE"/>
<path opacity="0.2" d="M193.794 87.7238C193.794 89.4834 192.366 90.9105 190.606 90.9105C188.846 90.9105 187.418 89.4834 187.418 87.7238C187.418 85.9642 188.846 84.5371 190.606 84.5371C192.366 84.5387 193.794 85.9642 193.794 87.7238Z" fill="#1A86FE"/>
<path opacity="0.2" d="M187.423 110.444C187.423 113.323 185.089 115.659 182.206 115.659C179.326 115.659 176.989 113.323 176.989 110.444C176.989 107.564 179.324 105.229 182.206 105.229C185.087 105.229 187.423 107.564 187.423 110.444Z" fill="#1A86FE"/>
<path opacity="0.2" d="M170.842 125.312C170.842 129.162 167.72 132.282 163.87 132.282C160.018 132.282 156.897 129.16 156.897 125.312C156.897 121.462 160.02 118.342 163.87 118.342C167.72 118.342 170.842 121.463 170.842 125.312Z" fill="#1A86FE"/>
<path d="M585.077 528.536C588.964 512.096 578.782 495.626 562.335 491.747C545.888 487.869 529.403 498.052 525.516 514.492C521.629 530.931 531.811 547.402 548.258 551.28C564.705 555.158 581.19 544.975 585.077 528.536Z" fill="#1A86FE"/>
<path opacity="0.3" d="M585.077 528.536C588.964 512.096 578.782 495.626 562.335 491.747C545.888 487.869 529.403 498.052 525.516 514.492C521.629 530.931 531.811 547.402 548.258 551.28C564.705 555.158 581.19 544.975 585.077 528.536Z" fill="url(#paint1_linear_2087_4024)"/>
<path opacity="0.4" d="M574.606 497.739C571.823 496.894 568.858 496.447 565.793 496.447C548.892 496.447 535.189 510.145 535.189 527.038C535.189 536.612 539.58 545.141 546.473 550.756C549.257 551.601 552.222 552.048 555.288 552.048C572.189 552.048 585.89 538.35 585.89 521.457C585.89 511.884 581.499 503.338 574.606 497.739Z" fill="#1A86FE"/>
<path d="M526.06 530.528C493.38 545.9 517.759 557.748 563.799 541.209C606.427 525.894 622.633 506.575 584.572 512.562C586.536 520.688 533.146 541.484 526.06 530.528Z" fill="#0F2F65"/>
<path opacity="0.2" d="M574.249 221.695C531.452 250.603 476.051 288.722 460.756 380.488H457.494C472.375 289.836 525.755 250.714 568.567 221.695H574.249Z" fill="#0F2F65"/>
<path d="M352.903 508.762C325.895 508.764 299.095 496.572 286.081 476.647C278.039 464.335 268.701 438.544 296.513 404.135L298.99 406.136C279.315 430.476 275.677 454.899 288.747 474.908C304.652 499.264 342.216 511.51 374.26 502.794C407.09 493.864 427.022 465.316 428.947 424.475C435.528 284.779 509.771 241.747 563.982 210.325C597.662 190.804 621.996 176.699 616.647 146.945C615.906 142.817 614.258 139.964 611.613 138.225C604.685 133.662 591.157 136.816 575.495 140.465C544.769 147.62 502.689 157.42 477.62 114.797L480.364 113.184C504.247 153.789 543.352 144.684 574.772 137.364C591.149 133.553 605.293 130.258 613.364 135.565C616.778 137.811 618.877 141.35 619.781 146.382C625.525 178.331 599.07 193.665 565.578 213.078C512.001 244.131 438.625 286.661 432.125 424.623C430.132 466.936 409.345 496.547 375.094 505.863C367.876 507.827 360.378 508.76 352.903 508.762Z" fill="#1A86FE"/>
<path opacity="0.2" d="M352.903 508.762C325.895 508.764 299.095 496.572 286.081 476.647C278.039 464.335 268.701 438.544 296.513 404.135L298.99 406.136C279.315 430.476 275.677 454.899 288.747 474.908C304.652 499.264 342.216 511.51 374.26 502.794C407.09 493.864 427.022 465.316 428.947 424.475C435.528 284.779 509.771 241.747 563.982 210.325C597.662 190.804 621.996 176.699 616.647 146.945C615.906 142.817 614.258 139.964 611.613 138.225C604.685 133.662 591.157 136.816 575.495 140.465C544.769 147.62 502.689 157.42 477.62 114.797L480.364 113.184C504.247 153.789 543.352 144.684 574.772 137.364C591.149 133.553 605.293 130.258 613.364 135.565C616.778 137.811 618.877 141.35 619.781 146.382C625.525 178.331 599.07 193.665 565.578 213.078C512.001 244.131 438.625 286.661 432.125 424.623C430.132 466.936 409.345 496.547 375.094 505.863C367.876 507.827 360.378 508.76 352.903 508.762Z" fill="url(#paint2_linear_2087_4024)"/>
<path d="M444.794 77.1095C455.704 76.9107 466.41 80.5046 466.41 80.5046C466.41 80.5046 483.861 110.368 485.989 117.203C485.256 123.949 473.87 135.007 473.87 135.007L444.794 77.1095Z" fill="#1A86FE"/>
<path opacity="0.3" d="M444.794 77.1095C455.704 76.9107 466.41 80.5046 466.41 80.5046C466.41 80.5046 483.861 110.368 485.989 117.203C485.256 123.949 473.87 135.007 473.87 135.007L444.794 77.1095Z" fill="url(#paint3_linear_2087_4024)"/>
<path d="M496.641 222.179C490.058 213.829 483.595 205.324 478.244 196.111C476.907 193.809 475.641 191.464 474.442 189.087C473.761 187.736 473.102 186.374 472.462 185.003C471.904 183.805 470.67 182.041 470.546 180.733C468.635 160.572 475.539 145.732 468.91 129.549L442.696 139.79C442.696 139.79 444.926 168.621 450.014 185.868C453.171 196.569 460.319 205.833 467.207 214.405C469.362 217.088 471.439 219.83 473.589 222.516C475.625 225.058 477.905 227.391 479.946 229.92C483.044 233.759 484.076 237.423 481.72 241.949C481.594 242.191 481.462 242.431 481.327 242.67C480.659 243.849 483.788 245.185 485.753 242.703C489.003 238.597 488.492 238.85 491.263 235.349C492.945 233.223 494.877 230.927 496.545 228.932C498.175 226.987 498.212 224.171 496.641 222.179Z" fill="#1A86FE"/>
<path opacity="0.7" d="M496.641 222.179C490.058 213.829 483.595 205.324 478.244 196.111C476.907 193.809 475.641 191.464 474.442 189.087C473.761 187.736 473.102 186.374 472.462 185.003C471.904 183.805 470.67 182.041 470.546 180.733C468.635 160.572 475.539 145.732 468.91 129.549L442.696 139.79C442.696 139.79 444.926 168.621 450.014 185.868C453.171 196.569 460.319 205.833 467.207 214.405C469.362 217.088 471.439 219.83 473.589 222.516C475.625 225.058 477.905 227.391 479.946 229.92C483.044 233.759 484.076 237.423 481.72 241.949C481.594 242.191 481.462 242.431 481.327 242.67C480.659 243.849 483.788 245.185 485.753 242.703C489.003 238.597 488.492 238.85 491.263 235.349C492.945 233.223 494.877 230.927 496.545 228.932C498.175 226.987 498.212 224.171 496.641 222.179Z" fill="url(#paint4_linear_2087_4024)"/>
<path opacity="0.3" d="M490.228 213.881C486.719 218.121 479.584 223.621 476.439 225.85C477.123 226.612 477.801 227.39 478.481 228.168C484.955 223.94 490.074 218.456 492.015 216.229C491.415 215.457 490.822 214.668 490.228 213.881Z" fill="#1A86FE"/>
<path opacity="0.3" d="M496.632 222.182C496.571 222.099 496.507 222.032 496.447 221.951C495.342 223.101 494.564 224.936 494.434 226.994C494.329 228.417 494.567 229.718 495.034 230.735C495.564 230.121 496.059 229.513 496.544 228.935C498.18 226.988 498.202 224.174 496.632 222.182Z" fill="#1A86FE"/>
<path d="M438.562 96.2027C435.82 100.19 432.588 104.119 428.416 107.648C426.346 109.422 423.982 111.027 421.386 112.389C420.076 113.057 418.7 113.636 417.275 114.115L416.201 114.46L415.854 114.569C415.603 114.645 415.35 114.713 415.095 114.774C414.614 114.882 414.132 114.955 413.706 114.99C411.982 115.121 410.733 114.876 409.703 114.62C407.671 114.066 406.313 113.326 405.029 112.609C403.763 111.878 402.652 111.131 401.6 110.359C399.528 108.782 397.653 107.199 395.906 105.51C392.389 102.153 389.269 98.6719 386.373 94.7947C385.052 93.0272 385.414 90.5246 387.183 89.2057C388.547 88.1859 390.35 88.17 391.707 89.0275L391.828 89.1055C395.584 91.4887 399.374 94.0024 403.071 96.252C404.938 97.353 406.762 98.4603 408.555 99.3226C409.437 99.768 410.301 100.174 411.081 100.462C411.84 100.758 412.598 100.926 412.795 100.886C412.878 100.882 412.779 100.769 412.194 100.789C412.052 100.797 411.851 100.816 411.648 100.861C411.53 100.883 411.415 100.914 411.301 100.95C411.191 100.987 411.347 100.92 411.356 100.91L411.883 100.641C412.584 100.285 413.255 99.8396 413.936 99.3862C415.299 98.4651 416.596 97.2957 417.92 96.0134C420.54 93.4122 423.061 90.1746 425.722 86.8082L425.757 86.762C428.481 83.3128 433.488 82.7258 436.939 85.4495C440.243 88.0571 440.907 92.7806 438.562 96.2027Z" fill="#1A86FE"/>
<path opacity="0.7" d="M438.562 96.2027C435.82 100.19 432.588 104.119 428.416 107.648C426.346 109.422 423.982 111.027 421.386 112.389C420.076 113.057 418.7 113.636 417.275 114.115L416.201 114.46L415.854 114.569C415.603 114.645 415.35 114.713 415.095 114.774C414.614 114.882 414.132 114.955 413.706 114.99C411.982 115.121 410.733 114.876 409.703 114.62C407.671 114.066 406.313 113.326 405.029 112.609C403.763 111.878 402.652 111.131 401.6 110.359C399.528 108.782 397.653 107.199 395.906 105.51C392.389 102.153 389.269 98.6719 386.373 94.7947C385.052 93.0272 385.414 90.5246 387.183 89.2057C388.547 88.1859 390.35 88.17 391.707 89.0275L391.828 89.1055C395.584 91.4887 399.374 94.0024 403.071 96.252C404.938 97.353 406.762 98.4603 408.555 99.3226C409.437 99.768 410.301 100.174 411.081 100.462C411.84 100.758 412.598 100.926 412.795 100.886C412.878 100.882 412.779 100.769 412.194 100.789C412.052 100.797 411.851 100.816 411.648 100.861C411.53 100.883 411.415 100.914 411.301 100.95C411.191 100.987 411.347 100.92 411.356 100.91L411.883 100.641C412.584 100.285 413.255 99.8396 413.936 99.3862C415.299 98.4651 416.596 97.2957 417.92 96.0134C420.54 93.4122 423.061 90.1746 425.722 86.8082L425.757 86.762C428.481 83.3128 433.488 82.7258 436.939 85.4495C440.243 88.0571 440.907 92.7806 438.562 96.2027Z" fill="url(#paint5_linear_2087_4024)"/>
<path d="M380.375 85.8059L382.24 88.9337C382.24 88.9337 383.664 93.0956 386.515 93.8657L394.24 91.3647L393.853 90.7156C393.857 90.7172 393.861 90.7172 393.865 90.7172C392.875 89.2105 392.981 86.3055 393.33 83.8888C393.677 81.4722 392.423 81.3862 391.496 81.9876C390.962 82.3344 390.583 83.437 390.148 84.6254C389.768 84.102 389.361 83.5977 388.901 83.1395L386.54 80.7896C385.522 79.7762 383.89 79.7301 382.816 80.6846L380.903 82.3838C379.929 83.2492 379.708 84.6859 380.375 85.8059Z" fill="#1A86FE"/>
<path opacity="0.7" d="M380.375 85.8059L382.24 88.9337C382.24 88.9337 383.664 93.0956 386.515 93.8657L394.24 91.3647L393.853 90.7156C393.857 90.7172 393.861 90.7172 393.865 90.7172C392.875 89.2105 392.981 86.3055 393.33 83.8888C393.677 81.4722 392.423 81.3862 391.496 81.9876C390.962 82.3344 390.583 83.437 390.148 84.6254C389.768 84.102 389.361 83.5977 388.901 83.1395L386.54 80.7896C385.522 79.7762 383.89 79.7301 382.816 80.6846L380.903 82.3838C379.929 83.2492 379.708 84.6859 380.375 85.8059Z" fill="url(#paint6_linear_2087_4024)"/>
<path d="M452.613 74.3637C445.214 76.1583 435.049 80.379 428.185 84.6539C425.751 86.1685 424.537 89.0449 425.11 91.853C428.172 106.872 435.159 126.989 442.701 139.787L477.892 125.234C478.133 119.03 469.59 98.9518 460.888 79.547C459.325 76.0564 456.331 73.4632 452.613 74.3637Z" fill="#1A86FE"/>
<path opacity="0.8" d="M452.613 74.3637C445.214 76.1583 435.049 80.379 428.185 84.6539C425.751 86.1685 424.537 89.0449 425.11 91.853C428.172 106.872 435.159 126.989 442.701 139.787L477.892 125.234C478.133 119.03 469.59 98.9518 460.888 79.547C459.325 76.0564 456.331 73.4632 452.613 74.3637Z" fill="url(#paint7_linear_2087_4024)"/>
<path opacity="0.3" d="M466.338 91.8481L459.354 89.5078C460.917 93.5918 466.568 98.7687 470.542 101.809C469.233 98.6176 467.813 95.2814 466.338 91.8481Z" fill="#1A86FE"/>
<path d="M450.294 58.6073C447.389 53.0692 441.104 50.2818 433.557 50.9119C427.194 51.4432 421.551 57.9375 422.221 61.4471C422.889 64.9568 428.245 66.4427 429.214 67.6614L424.801 70.8592C422.604 72.4517 422.175 75.5477 423.852 77.6796C425.709 80.0374 428.154 82.5002 429.578 84.2391C441.776 83.9225 450.797 79.2705 454.047 74.7952C452.878 69.1012 453.182 64.1151 450.294 58.6073Z" fill="#1A86FE"/>
<path opacity="0.8" d="M450.294 58.6073C447.389 53.0692 441.104 50.2818 433.557 50.9119C427.194 51.4432 421.551 57.9375 422.221 61.4471C422.889 64.9568 428.245 66.4427 429.214 67.6614L424.801 70.8592C422.604 72.4517 422.175 75.5477 423.852 77.6796C425.709 80.0374 428.154 82.5002 429.578 84.2391C441.776 83.9225 450.797 79.2705 454.047 74.7952C452.878 69.1012 453.182 64.1151 450.294 58.6073Z" fill="url(#paint8_linear_2087_4024)"/>
<path d="M444.313 62.0368C446.736 68.2351 443.675 75.2226 437.475 77.644C431.274 80.0654 424.284 77.006 421.862 70.8077C419.439 64.6109 422.5 57.6219 428.7 55.2005C434.899 52.779 441.889 55.84 444.313 62.0368Z" fill="#0F2F65"/>
<path d="M547.664 205.413C547.487 200.18 547.261 200.704 547.108 196.243C547.016 193.533 547.005 190.533 546.987 187.933C546.97 185.396 545.176 183.224 542.688 182.72C540.58 182.292 538.464 181.885 536.359 181.436C533.612 180.85 530.897 180.22 528.199 179.438C526.108 178.83 524.034 178.16 521.984 177.422C519.788 176.631 517.622 175.764 515.476 174.845C512.968 173.769 510.49 172.624 508.031 171.443C505.286 170.126 502.561 168.764 499.846 167.385C489.372 150.051 489.146 138.63 477.905 125.232L453.777 136.143C453.777 136.143 471.505 167.588 483.579 180.92C490.529 188.594 501.433 192.052 511.157 194.563C518.172 196.373 525.287 197.759 532.409 199.067C535.178 199.574 538.188 199.772 540.57 201.425C542.447 202.726 543.417 204.758 543.971 206.917C544.084 207.357 544.18 207.803 544.266 208.251C544.52 209.583 547.772 208.577 547.664 205.413Z" fill="#1A86FE"/>
<path opacity="0.8" d="M547.664 205.413C547.487 200.18 547.261 200.704 547.108 196.243C547.016 193.533 547.005 190.533 546.987 187.933C546.97 185.396 545.176 183.224 542.688 182.72C540.58 182.292 538.464 181.885 536.359 181.436C533.612 180.85 530.897 180.22 528.199 179.438C526.108 178.83 524.034 178.16 521.984 177.422C519.788 176.631 517.622 175.764 515.476 174.845C512.968 173.769 510.49 172.624 508.031 171.443C505.286 170.126 502.561 168.764 499.846 167.385C489.372 150.051 489.146 138.63 477.905 125.232L453.777 136.143C453.777 136.143 471.505 167.588 483.579 180.92C490.529 188.594 501.433 192.052 511.157 194.563C518.172 196.373 525.287 197.759 532.409 199.067C535.178 199.574 538.188 199.772 540.57 201.425C542.447 202.726 543.417 204.758 543.971 206.917C544.084 207.357 544.18 207.803 544.266 208.251C544.52 209.583 547.772 208.577 547.664 205.413Z" fill="url(#paint9_linear_2087_4024)"/>
<path opacity="0.3" d="M535.417 181.237C534.467 181.029 533.502 180.815 532.543 180.588C532.617 186.081 530.041 195.57 529.094 198.445C530.098 198.634 531.117 198.828 532.121 199.019C534.914 191.47 535.353 183.479 535.417 181.237Z" fill="#1A86FE"/>
<path opacity="0.3" d="M546.974 187.936C546.956 185.392 545.169 183.225 542.686 182.716C542.187 182.614 541.671 182.506 541.168 182.42C541.273 183.915 542.203 185.651 543.759 187.029C544.779 187.948 545.933 188.559 546.993 188.847C546.977 188.531 546.975 188.233 546.974 187.936Z" fill="#1A86FE"/>
<path d="M442.067 62.1401C442.711 64.552 440.01 67.0879 437.849 65.0022C436.095 63.3094 433.453 60.4744 431.297 59.1268C429.081 57.7411 432.035 55.3292 435.514 56.2647C438.763 57.1397 441.422 59.7266 442.067 62.1401Z" fill="url(#paint10_linear_2087_4024)"/>
<path d="M442.248 139.015C441.126 139.429 443.176 141.331 443.176 141.331C443.176 141.331 465.409 133.716 478.977 125.874C479.092 124.234 477.898 123.363 477.898 123.363C477.898 123.363 461.391 131.961 442.248 139.015Z" fill="#1A86FE"/>
<path opacity="0.5" d="M442.248 139.015C441.126 139.429 443.176 141.331 443.176 141.331C443.176 141.331 465.409 133.716 478.977 125.874C479.092 124.234 477.898 123.363 477.898 123.363C477.898 123.363 461.391 131.961 442.248 139.015Z" fill="url(#paint11_linear_2087_4024)"/>
<path d="M458.641 73.3126C463.03 75.5288 467.162 77.8755 471.289 80.4735C473.343 81.7669 475.388 83.0954 477.403 84.5288C479.434 85.9336 481.438 87.4148 483.448 89.0821L484.202 89.6994L485.143 90.5474C485.811 91.136 486.302 91.6785 486.793 92.2194C487.309 92.7779 487.734 93.3156 488.152 93.8518C488.587 94.3911 488.999 94.9273 489.37 95.4554C490.944 97.5682 492.227 99.7176 493.486 101.849C495.932 106.172 498.05 110.488 499.798 115.132C500.578 117.204 499.53 119.514 497.457 120.295C495.9 120.88 494.207 120.435 493.131 119.299L493.053 119.213C489.855 115.828 486.789 112.256 483.703 108.939C480.683 105.631 477.476 102.236 474.89 100.76C471.277 98.5069 467.254 96.27 463.256 94.0665L451.219 87.3877L451.189 87.3718C447.346 85.24 445.959 80.3971 448.092 76.555C450.175 72.8083 454.848 71.4035 458.641 73.3126Z" fill="#1A86FE"/>
<path opacity="0.8" d="M458.641 73.3126C463.03 75.5288 467.162 77.8755 471.289 80.4735C473.343 81.7669 475.388 83.0954 477.403 84.5288C479.434 85.9336 481.438 87.4148 483.448 89.0821L484.202 89.6994L485.143 90.5474C485.811 91.136 486.302 91.6785 486.793 92.2194C487.309 92.7779 487.734 93.3156 488.152 93.8518C488.587 94.3911 488.999 94.9273 489.37 95.4554C490.944 97.5682 492.227 99.7176 493.486 101.849C495.932 106.172 498.05 110.488 499.798 115.132C500.578 117.204 499.53 119.514 497.457 120.295C495.9 120.88 494.207 120.435 493.131 119.299L493.053 119.213C489.855 115.828 486.789 112.256 483.703 108.939C480.683 105.631 477.476 102.236 474.89 100.76C471.277 98.5069 467.254 96.27 463.256 94.0665L451.219 87.3877L451.189 87.3718C447.346 85.24 445.959 80.3971 448.092 76.555C450.175 72.8083 454.848 71.4035 458.641 73.3126Z" fill="url(#paint12_linear_2087_4024)"/>
<path d="M503.638 122.91L502.287 119.53C502.287 119.53 501.532 115.196 498.838 113.988L490.816 115.248L491.097 115.95C491.093 115.948 491.09 115.947 491.085 115.947C491.827 117.589 491.265 120.443 490.543 122.774C489.82 125.106 491.046 125.387 492.055 124.939C492.637 124.679 493.185 123.65 493.799 122.544C494.093 123.122 494.416 123.684 494.798 124.207L496.761 126.897C497.608 128.057 499.212 128.359 500.423 127.585L502.578 126.205C503.678 125.504 504.123 124.121 503.638 122.91Z" fill="#1A86FE"/>
<path opacity="0.8" d="M503.638 122.91L502.287 119.53C502.287 119.53 501.532 115.196 498.838 113.988L490.816 115.248L491.097 115.95C491.093 115.948 491.09 115.947 491.085 115.947C491.827 117.589 491.265 120.443 490.543 122.774C489.82 125.106 491.046 125.387 492.055 124.939C492.637 124.679 493.185 123.65 493.799 122.544C494.093 123.122 494.416 123.684 494.798 124.207L496.761 126.897C497.608 128.057 499.212 128.359 500.423 127.585L502.578 126.205C503.678 125.504 504.123 124.121 503.638 122.91Z" fill="url(#paint13_linear_2087_4024)"/>
<path opacity="0.3" d="M451.914 91.5996L449.974 91.7571L438.062 120.528C438.762 120.576 439.405 120.517 440 120.37C440 120.37 455.533 114.584 460.235 112.463C457.071 105.909 451.914 91.5996 451.914 91.5996Z" fill="#1A86FE"/>
<path d="M430.156 99.1497C430.819 104.331 434.706 115.344 438.058 120.529C443.875 118.524 453.591 114.743 458.293 112.622C455.127 106.069 451.794 97.0385 449.97 91.7598C444.959 92.0923 434.036 96.2049 430.156 99.1497Z" fill="url(#paint14_linear_2087_4024)"/>
<path opacity="0.3" d="M441.991 105.371C441.342 107.542 439.053 108.775 436.882 108.125C434.711 107.474 433.476 105.188 434.127 103.018C434.778 100.846 437.065 99.6129 439.236 100.264C441.407 100.913 442.64 103.199 441.991 105.371Z" fill="#1A86FE"/>
<path opacity="0.6" d="M445.03 99.8908C444.816 100.602 444.067 101.006 443.355 100.793C442.644 100.58 442.24 99.8303 442.451 99.1191C442.665 98.408 443.414 98.0039 444.126 98.2171C444.839 98.4287 445.243 99.178 445.03 99.8908Z" fill="#1A86FE"/>
<path opacity="0.6" d="M448.587 98.508C448.374 99.2191 447.624 99.6232 446.913 99.41C446.202 99.1968 445.797 98.4475 446.011 97.7363C446.224 97.0252 446.973 96.6211 447.685 96.8343C448.396 97.0475 448.801 97.7968 448.587 98.508Z" fill="#1A86FE"/>
<path opacity="0.5" d="M453.595 110.898L438.878 116.711L437.988 113.819L452.705 108.004L453.595 110.898Z" fill="#1A86FE"/>
<path opacity="0.2" d="M372.366 332.013C372.047 344.009 371.156 353.221 369.692 359.616C367.814 367.794 364.901 373.776 360.938 377.562C356.991 381.349 352.312 383.242 346.917 383.242C338.737 383.242 332.482 378.787 328.185 369.862C327.484 368.414 326.848 366.76 326.259 364.914C317.171 372.726 308.704 381.253 300.922 390.417L292.471 400.376C297.038 405.006 302.227 408.808 308.02 411.815C317.935 416.938 330.938 419.515 347.044 419.515C349.877 419.515 352.615 419.436 355.273 419.277C365.013 404.863 373.082 389.367 379.305 373.107L402.939 311.506L372.366 332.013Z" fill="#0F2F65"/>
<path d="M159.3 415.996C168.208 424.901 187.155 443.841 187.155 443.841L265.158 370.391C238.315 360.19 185.992 389.316 159.3 415.996Z" fill="#0F2F65"/>
<path d="M256.445 513.098C247.537 504.194 228.59 485.254 228.59 485.254L302.066 407.281C312.271 434.113 283.137 486.417 256.445 513.098Z" fill="#0F2F65"/>
<path d="M363.047 337.628L393.431 279.066L334.848 309.439C316.026 319.198 298.65 331.517 283.212 346.044L183.348 440.021L232.415 489.07L326.427 389.243C340.961 373.812 353.284 356.442 363.047 337.628Z" fill="#1A86FE"/>
<path opacity="0.6" d="M363.047 337.628L393.431 279.066L334.848 309.439C316.026 319.198 298.65 331.517 283.212 346.044L183.348 440.021L232.415 489.07L326.427 389.243C340.961 373.812 353.284 356.442 363.047 337.628Z" fill="url(#paint15_linear_2087_4024)"/>
<path d="M300.654 392.328C311.992 392.328 321.183 383.141 321.183 371.807C321.183 360.473 311.992 351.285 300.654 351.285C289.316 351.285 280.125 360.473 280.125 371.807C280.125 383.141 289.316 392.328 300.654 392.328Z" fill="url(#paint16_linear_2087_4024)"/>
<path d="M300.651 384.989C307.933 384.989 313.837 379.088 313.837 371.808C313.837 364.528 307.933 358.627 300.651 358.627C293.368 358.627 287.465 364.528 287.465 371.808C287.465 379.088 293.368 384.989 300.651 384.989Z" fill="#1A86FE"/>
<path opacity="0.3" d="M249.001 471.454L200.965 423.438L240.293 386.426L286.024 432.14L249.001 471.454Z" fill="#1A86FE"/>
<path d="M170.179 459.998C134.203 462.924 122.285 485.94 118.22 516.539C116.148 532.144 115.228 547.933 102.119 557.068C98.4806 559.604 100.287 565.257 104.721 565.118C153.007 563.612 175.528 539.975 178.357 530.078C177.383 536.335 175.963 541.27 174.39 545.152C172.773 549.141 177.155 552.832 180.803 550.547C194.358 542.058 211.359 526.436 212.489 501.103C202.467 487.024 170.179 459.998 170.179 459.998Z" fill="#1A86FE"/>
<path opacity="0.2" d="M170.179 459.998C134.203 462.924 122.285 485.94 118.22 516.539C116.148 532.144 115.228 547.933 102.119 557.068C98.4806 559.604 100.287 565.257 104.721 565.118C153.007 563.612 175.528 539.975 178.357 530.078C177.383 536.335 175.963 541.27 174.39 545.152C172.773 549.141 177.155 552.832 180.803 550.547C194.358 542.058 211.359 526.436 212.489 501.103C202.467 487.024 170.179 459.998 170.179 459.998Z" fill="url(#paint17_linear_2087_4024)"/>
<path d="M218.016 511.997L160.409 454.411L191.099 447.775L224.656 481.319L218.016 511.997Z" fill="#1A86FE"/>
<defs>
<linearGradient id="paint0_linear_2087_4024" x1="117.716" y1="108.533" x2="215.829" y2="108.018" gradientUnits="userSpaceOnUse">
<stop stop-color="#EAFEFF"/>
<stop offset="1" stop-color="#FFFBF1"/>
</linearGradient>
<linearGradient id="paint1_linear_2087_4024" x1="544.843" y1="567.775" x2="564.155" y2="483.908" gradientUnits="userSpaceOnUse">
<stop stop-color="#EAFEFF"/>
<stop offset="1" stop-color="#FFFBF1"/>
</linearGradient>
<linearGradient id="paint2_linear_2087_4024" x1="183.511" y1="314.027" x2="665.659" y2="311.837" gradientUnits="userSpaceOnUse">
<stop stop-color="#EAFEFF"/>
<stop offset="1" stop-color="#FFFBF1"/>
</linearGradient>
<linearGradient id="paint3_linear_2087_4024" x1="433.455" y1="106.502" x2="491.41" y2="106.285" gradientUnits="userSpaceOnUse">
<stop stop-color="#EAFEFF"/>
<stop offset="1" stop-color="#FFFBF1"/>
</linearGradient>
<linearGradient id="paint4_linear_2087_4024" x1="427.529" y1="187.711" x2="505.044" y2="187.516" gradientUnits="userSpaceOnUse">
<stop stop-color="#EAFEFF"/>
<stop offset="1" stop-color="#FFFBF1"/>
</linearGradient>
<linearGradient id="paint5_linear_2087_4024" x1="370.61" y1="99.623" x2="447.105" y2="98.9259" gradientUnits="userSpaceOnUse">
<stop stop-color="#EAFEFF"/>
<stop offset="1" stop-color="#FFFBF1"/>
</linearGradient>
<linearGradient id="paint6_linear_2087_4024" x1="376.07" y1="87.0389" x2="396.115" y2="86.9309" gradientUnits="userSpaceOnUse">
<stop stop-color="#EAFEFF"/>
<stop offset="1" stop-color="#FFFBF1"/>
</linearGradient>
<linearGradient id="paint7_linear_2087_4024" x1="410.401" y1="107.492" x2="484.86" y2="107.177" gradientUnits="userSpaceOnUse">
<stop stop-color="#EAFEFF"/>
<stop offset="1" stop-color="#FFFBF1"/>
</linearGradient>
<linearGradient id="paint8_linear_2087_4024" x1="413.391" y1="67.7897" x2="458.241" y2="67.5653" gradientUnits="userSpaceOnUse">
<stop stop-color="#EAFEFF"/>
<stop offset="1" stop-color="#FFFBF1"/>
</linearGradient>
<linearGradient id="paint9_linear_2087_4024" x1="427.933" y1="167.674" x2="560.017" y2="166.896" gradientUnits="userSpaceOnUse">
<stop stop-color="#EAFEFF"/>
<stop offset="1" stop-color="#FFFBF1"/>
</linearGradient>
<linearGradient id="paint10_linear_2087_4024" x1="427.329" y1="60.99" x2="443.694" y2="60.8873" gradientUnits="userSpaceOnUse">
<stop stop-color="#EAFEFF"/>
<stop offset="1" stop-color="#FFFBF1"/>
</linearGradient>
<linearGradient id="paint11_linear_2087_4024" x1="431.707" y1="132.486" x2="483.858" y2="131.922" gradientUnits="userSpaceOnUse">
<stop stop-color="#EAFEFF"/>
<stop offset="1" stop-color="#FFFBF1"/>
</linearGradient>
<linearGradient id="paint12_linear_2087_4024" x1="432.512" y1="96.8791" x2="507.023" y2="96.4488" gradientUnits="userSpaceOnUse">
<stop stop-color="#EAFEFF"/>
<stop offset="1" stop-color="#FFFBF1"/>
</linearGradient>
<linearGradient id="paint13_linear_2087_4024" x1="486.607" y1="121.109" x2="505.61" y2="121.013" gradientUnits="userSpaceOnUse">
<stop stop-color="#EAFEFF"/>
<stop offset="1" stop-color="#FFFBF1"/>
</linearGradient>
<linearGradient id="paint14_linear_2087_4024" x1="422.411" y1="106.366" x2="461.994" y2="106.163" gradientUnits="userSpaceOnUse">
<stop stop-color="#EAFEFF"/>
<stop offset="1" stop-color="#FFFBF1"/>
</linearGradient>
<linearGradient id="paint15_linear_2087_4024" x1="125.521" y1="385.69" x2="421.068" y2="384.139" gradientUnits="userSpaceOnUse">
<stop stop-color="#EAFEFF"/>
<stop offset="1" stop-color="#FFFBF1"/>
</linearGradient>
<linearGradient id="paint16_linear_2087_4024" x1="268.823" y1="372.124" x2="326.585" y2="371.821" gradientUnits="userSpaceOnUse">
<stop stop-color="#EAFEFF"/>
<stop offset="1" stop-color="#FFFBF1"/>
</linearGradient>
<linearGradient id="paint17_linear_2087_4024" x1="69.258" y1="513.371" x2="227.264" y2="512.486" gradientUnits="userSpaceOnUse">
<stop stop-color="#EAFEFF"/>
<stop offset="1" stop-color="#FFFBF1"/>
</linearGradient>
</defs>
</svg>
