<svg width="10" height="15" viewBox="0 0 10 15" fill="none" xmlns="http://www.w3.org/2000/svg">
<path d="M1.92954 6.46499C1.82723 6.67648 1.774 6.90835 1.77384 7.14329L1.83174 10.7808L0.570241 13.488C0.52437 13.5721 0.493796 13.6638 0.479941 13.7586C0.463692 13.865 0.468632 13.9736 0.494478 14.0781C0.520324 14.1826 0.566567 14.2809 0.630548 14.3675C0.694529 14.454 0.774987 14.5271 0.867297 14.5825C0.959607 14.6378 1.06195 14.6744 1.16844 14.6901C1.33435 14.7157 1.50413 14.6895 1.65461 14.6151C1.8051 14.5407 1.92897 14.4217 2.00934 14.2743L3.39714 11.3151C3.42594 11.2464 3.45174 11.1741 3.46224 11.0949L3.46974 10.9833L3.45894 8.73449L5.59164 9.66209L5.93604 11.8599C5.97181 12.0214 6.05574 12.1683 6.17674 12.2811C6.29774 12.3939 6.45012 12.4673 6.61374 12.4917C6.82849 12.5235 7.04711 12.4693 7.22221 12.341C7.39731 12.2127 7.51477 12.0205 7.54914 11.8062C7.55964 11.7303 7.55964 11.6544 7.55244 11.5824L7.13214 8.92919C7.10693 8.80188 7.05215 8.68227 6.97221 8.58003C6.89227 8.47779 6.78941 8.39577 6.67194 8.34059L4.76574 7.49699L5.97954 5.39279L6.58164 6.15449C6.64314 6.22289 6.72294 6.28079 6.81324 6.31679L9.10764 6.98429C9.25604 7.01669 9.41112 6.99579 9.54564 6.92523C9.68016 6.85468 9.78553 6.739 9.84324 6.59849C9.87521 6.51998 9.89138 6.43593 9.89084 6.35117C9.8903 6.2664 9.87306 6.18257 9.8401 6.10447C9.80714 6.02637 9.7591 5.95554 9.69875 5.89602C9.63839 5.8365 9.56689 5.78946 9.48834 5.75759L9.45564 5.74679L7.46214 5.16209L5.96154 3.36839C5.73 3.12139 5.42268 2.9587 5.08824 2.90609C4.79947 2.86303 4.50442 2.90535 4.2394 3.02784C3.97437 3.15033 3.75095 3.34764 3.59664 3.59549L1.92954 6.46499ZM5.83134 2.74709C6.50904 2.74709 7.05984 2.19869 7.05984 1.52369C7.05954 0.848988 6.50904 0.299988 5.83134 0.299988C5.15364 0.299988 4.60254 0.848988 4.60254 1.52369C4.60224 2.19869 5.15334 2.74709 5.83134 2.74709ZM3.38664 2.93849C3.40952 2.89868 3.4243 2.85474 3.43012 2.80919C3.43595 2.76365 3.4327 2.7174 3.42057 2.67312C3.40844 2.62884 3.38767 2.58739 3.35945 2.55117C3.33122 2.51495 3.29612 2.48468 3.25614 2.46209L2.66154 2.11559C2.58024 2.06954 2.48407 2.05735 2.39385 2.08166C2.30363 2.10597 2.2266 2.16482 2.17944 2.24549L0.345841 5.39669C0.323067 5.43651 0.308369 5.48043 0.302587 5.52593C0.296805 5.57144 0.300054 5.61764 0.312148 5.66189C0.324241 5.70614 0.344941 5.74757 0.373064 5.78381C0.401187 5.82005 0.43618 5.85039 0.476041 5.87309L1.07424 6.21629C1.15452 6.26259 1.24985 6.27526 1.33943 6.25154C1.42902 6.22783 1.50559 6.16964 1.55244 6.08969L3.38664 2.93849Z" fill="black"/>
</svg>
