<svg width="14" height="16" viewBox="0 0 14 16" fill="none" xmlns="http://www.w3.org/2000/svg">
<path d="M4 5V4.25C4 3.45435 4.31607 2.69129 4.87868 2.12868C5.44129 1.56607 6.20435 1.25 7 1.25C7.79565 1.25 8.55871 1.56607 9.12132 2.12868C9.68393 2.69129 10 3.45435 10 4.25V5" stroke="black" stroke-width="2" stroke-linecap="round"/>
<path fill-rule="evenodd" clip-rule="evenodd" d="M0.6895 4.6895C0.25 5.129 0.25 5.8355 0.25 7.25V9.5C0.25 12.3282 0.25 13.7427 1.129 14.621C2.008 15.4992 3.42175 15.5 6.25 15.5H7.75C10.5782 15.5 11.9927 15.5 12.871 14.621C13.7492 13.742 13.75 12.3282 13.75 9.5V7.25C13.75 5.8355 13.75 5.129 13.3105 4.6895C12.871 4.25 12.1645 4.25 10.75 4.25H3.25C1.8355 4.25 1.129 4.25 0.6895 4.6895ZM5.5 8C5.5 7.80109 5.42098 7.61032 5.28033 7.46967C5.13968 7.32902 4.94891 7.25 4.75 7.25C4.55109 7.25 4.36032 7.32902 4.21967 7.46967C4.07902 7.61032 4 7.80109 4 8V9.5C4 9.69891 4.07902 9.88968 4.21967 10.0303C4.36032 10.171 4.55109 10.25 4.75 10.25C4.94891 10.25 5.13968 10.171 5.28033 10.0303C5.42098 9.88968 5.5 9.69891 5.5 9.5V8ZM10 8C10 7.80109 9.92098 7.61032 9.78033 7.46967C9.63968 7.32902 9.44891 7.25 9.25 7.25C9.05109 7.25 8.86032 7.32902 8.71967 7.46967C8.57902 7.61032 8.5 7.80109 8.5 8V9.5C8.5 9.69891 8.57902 9.88968 8.71967 10.0303C8.86032 10.171 9.05109 10.25 9.25 10.25C9.44891 10.25 9.63968 10.171 9.78033 10.0303C9.92098 9.88968 10 9.69891 10 9.5V8Z" fill="black"/>
</svg>
