<svg width="10" height="14" viewBox="0 0 10 14" fill="none" xmlns="http://www.w3.org/2000/svg">
<path d="M3.835 -4.70152e-06C3.57 -4.70152e-06 3.36 0.209995 3.36 0.469995V2.32C3.36 2.38497 3.33419 2.44729 3.28824 2.49324C3.2423 2.53918 3.17998 2.565 3.115 2.565C3.05002 2.565 2.98771 2.53918 2.94176 2.49324C2.89582 2.44729 2.87 2.38497 2.87 2.32V0.489995C2.87 0.229995 2.67 0.0049953 2.415 -4.70152e-06C2.35203 -0.00201548 2.2893 0.00865519 2.23053 0.031373C2.17177 0.0540908 2.11817 0.0883918 2.07292 0.132237C2.02768 0.176083 1.99171 0.228577 1.96716 0.286601C1.94261 0.344624 1.92997 0.406991 1.93 0.469995V2.32C1.93 2.38497 1.90419 2.44729 1.85824 2.49324C1.8123 2.53918 1.74998 2.565 1.685 2.565C1.62003 2.565 1.55771 2.53918 1.51176 2.49324C1.46582 2.44729 1.44 2.38497 1.44 2.32V0.489995C1.44 0.229995 1.24 0.0049953 0.985003 -4.70152e-06C0.922031 -0.00201548 0.859298 0.00865519 0.800532 0.031373C0.741766 0.0540908 0.688168 0.0883918 0.642923 0.132237C0.597678 0.176083 0.561711 0.228577 0.537159 0.286601C0.512607 0.344624 0.499971 0.406991 0.500003 0.469995V3.63C0.499476 3.92374 0.567064 4.2136 0.697458 4.47682C0.827851 4.74004 1.0175 4.96944 1.2515 5.147C1.675 5.457 1.675 6.4555 1.675 6.4555V13.3555C1.675 13.7105 1.965 14.0005 2.32 14.0005H2.48C2.835 14.0005 3.125 13.7105 3.125 13.3555V6.45C3.125 6.45 3.125 5.4315 3.542 5.1465C3.77774 4.96921 3.96897 4.73946 4.10053 4.47547C4.2321 4.21147 4.30039 3.92046 4.3 3.6255V0.469995C4.30107 0.408401 4.28981 0.347216 4.26688 0.290038C4.24396 0.232861 4.20982 0.180846 4.1665 0.137053C4.12317 0.0932611 4.07152 0.0585759 4.0146 0.0350383C3.95767 0.0115007 3.89661 -0.000413982 3.835 -4.70152e-06ZM8.53 -4.70152e-06C9.15 -4.70152e-06 9.65 0.499995 9.65 1.12V7.94499L9.645 7.94349V13.3505C9.645 13.7055 9.355 13.9955 9 13.9955H8.84C8.485 13.9955 8.195 13.7055 8.195 13.3505V7.4185C7.81436 7.24548 7.49165 6.96642 7.26553 6.61473C7.0394 6.26303 6.91944 5.85361 6.92 5.4355V1.61C6.915 0.719995 7.64 -4.70152e-06 8.53 -4.70152e-06Z" fill="black"/>
</svg>
