<svg width="10" height="17" viewBox="0 0 10 17" fill="none" xmlns="http://www.w3.org/2000/svg">
<path d="M8.33333 16.9167C7.98611 16.9167 7.69111 16.7953 7.44833 16.5525C7.20556 16.3097 7.08389 16.0144 7.08333 15.6667C7.08278 15.3189 7.20444 15.0239 7.44833 14.7817C7.69222 14.5394 7.98722 14.4178 8.33333 14.4167C8.67945 14.4155 8.97472 14.5372 9.21917 14.7817C9.46361 15.0261 9.585 15.3211 9.58333 15.6667C9.58167 16.0122 9.46028 16.3075 9.21917 16.5525C8.97806 16.7975 8.68278 16.9189 8.33333 16.9167ZM1.66667 16.5C1.20833 16.5 0.816111 16.3369 0.49 16.0108C0.163889 15.6847 0.000555556 15.2922 0 14.8333V6.49999C0 6.04166 0.163333 5.64943 0.49 5.32332C0.816667 4.99721 1.20889 4.83388 1.66667 4.83332H2.5V16.5H1.66667ZM3.75 16.5V4.83332H6.66667V2.33332H5.83333C5.59722 2.33332 5.39944 2.25332 5.24 2.09332C5.08056 1.93332 5.00056 1.73555 5 1.49999C4.99944 1.26443 5.07944 1.06666 5.24 0.906657C5.40056 0.746657 5.59833 0.666656 5.83333 0.666656H7.5C7.73611 0.666656 7.93417 0.746657 8.09417 0.906657C8.25417 1.06666 8.33389 1.26443 8.33333 1.49999V13.1667C7.63889 13.1667 7.04861 13.4097 6.5625 13.8958C6.07639 14.3819 5.83333 14.9722 5.83333 15.6667C5.83333 15.8194 5.84389 15.9619 5.865 16.0942C5.88611 16.2264 5.92417 16.3617 5.97917 16.5H3.75Z" fill="black"/>
</svg>
