<svg width="17" height="17" viewBox="0 0 17 17" fill="none" xmlns="http://www.w3.org/2000/svg">
<path d="M16.75 3.78566C16.75 3.16051 16.5017 2.56096 16.0596 2.11891C15.6176 1.67686 15.018 1.42852 14.3929 1.42852H13.8036V0.855806C13.8036 0.538696 13.5598 0.26652 13.2426 0.250683C13.163 0.246844 13.0833 0.259222 13.0086 0.287066C12.9338 0.31491 12.8655 0.357642 12.8078 0.412671C12.75 0.467699 12.704 0.53388 12.6726 0.607202C12.6412 0.680525 12.625 0.759462 12.625 0.839232V1.42852H4.375V0.855806C4.375 0.538696 4.13118 0.26652 3.81407 0.250683C3.7344 0.246844 3.65477 0.259222 3.58002 0.287066C3.50527 0.31491 3.43695 0.357642 3.3792 0.412671C3.32145 0.467699 3.27547 0.53388 3.24405 0.607202C3.21264 0.680525 3.19644 0.759462 3.19643 0.839232V1.42852H2.60714C1.98199 1.42852 1.38244 1.67686 0.940391 2.11891C0.498341 2.56096 0.25 3.16051 0.25 3.78566V4.22762C0.25 4.2667 0.265521 4.30417 0.293149 4.3318C0.320778 4.35942 0.358249 4.37495 0.397321 4.37495H16.6027C16.6418 4.37495 16.6792 4.35942 16.7069 4.3318C16.7345 4.30417 16.75 4.2667 16.75 4.22762V3.78566ZM0.25 14.3928C0.25 15.018 0.498341 15.6175 0.940391 16.0596C1.38244 16.5016 1.98199 16.7499 2.60714 16.7499H14.3929C15.018 16.7499 15.6176 16.5016 16.0596 16.0596C16.5017 15.6175 16.75 15.018 16.75 14.3928V5.66401C16.75 5.6347 16.7384 5.6066 16.7176 5.58588C16.6969 5.56516 16.6688 5.55352 16.6395 5.55352H0.360491C0.331187 5.55352 0.303083 5.56516 0.282362 5.58588C0.261641 5.6066 0.25 5.6347 0.25 5.66401V14.3928ZM12.9196 6.73209C13.0945 6.73209 13.2654 6.78393 13.4107 6.88106C13.5561 6.97818 13.6694 7.11624 13.7363 7.27775C13.8032 7.43927 13.8207 7.617 13.7866 7.78846C13.7525 7.95993 13.6683 8.11743 13.5447 8.24105C13.4211 8.36467 13.2636 8.44885 13.0921 8.48296C12.9206 8.51707 12.7429 8.49956 12.5814 8.43266C12.4199 8.36576 12.2818 8.25246 12.1847 8.1071C12.0876 7.96174 12.0357 7.79084 12.0357 7.61602C12.0357 7.38158 12.1288 7.15675 12.2946 6.99098C12.4604 6.82522 12.6852 6.73209 12.9196 6.73209ZM12.9196 9.67852C13.0945 9.67852 13.2654 9.73036 13.4107 9.82749C13.5561 9.92461 13.6694 10.0627 13.7363 10.2242C13.8032 10.3857 13.8207 10.5634 13.7866 10.7349C13.7525 10.9064 13.6683 11.0639 13.5447 11.1875C13.4211 11.3111 13.2636 11.3953 13.0921 11.4294C12.9206 11.4635 12.7429 11.446 12.5814 11.3791C12.4199 11.3122 12.2818 11.1989 12.1847 11.0535C12.0876 10.9082 12.0357 10.7373 12.0357 10.5624C12.0357 10.328 12.1288 10.1032 12.2946 9.93741C12.4604 9.77165 12.6852 9.67852 12.9196 9.67852ZM9.97321 6.73209C10.148 6.73209 10.3189 6.78393 10.4643 6.88106C10.6097 6.97818 10.723 7.11624 10.7899 7.27775C10.8568 7.43927 10.8743 7.617 10.8402 7.78846C10.8061 7.95993 10.7219 8.11743 10.5982 8.24105C10.4746 8.36467 10.3171 8.44885 10.1457 8.48296C9.97419 8.51707 9.79647 8.49956 9.63495 8.43266C9.47343 8.36576 9.33538 8.25246 9.23826 8.1071C9.14113 7.96174 9.08929 7.79084 9.08929 7.61602C9.08929 7.38158 9.18241 7.15675 9.34818 6.99098C9.51395 6.82522 9.73878 6.73209 9.97321 6.73209ZM9.97321 9.67852C10.148 9.67852 10.3189 9.73036 10.4643 9.82749C10.6097 9.92461 10.723 10.0627 10.7899 10.2242C10.8568 10.3857 10.8743 10.5634 10.8402 10.7349C10.8061 10.9064 10.7219 11.0639 10.5982 11.1875C10.4746 11.3111 10.3171 11.3953 10.1457 11.4294C9.97419 11.4635 9.79647 11.446 9.63495 11.3791C9.47343 11.3122 9.33538 11.1989 9.23826 11.0535C9.14113 10.9082 9.08929 10.7373 9.08929 10.5624C9.08929 10.328 9.18241 10.1032 9.34818 9.93741C9.51395 9.77165 9.73878 9.67852 9.97321 9.67852ZM9.97321 12.6249C10.148 12.6249 10.3189 12.6768 10.4643 12.7739C10.6097 12.871 10.723 13.0091 10.7899 13.1706C10.8568 13.3321 10.8743 13.5099 10.8402 13.6813C10.8061 13.8528 10.7219 14.0103 10.5982 14.1339C10.4746 14.2575 10.3171 14.3417 10.1457 14.3758C9.97419 14.4099 9.79647 14.3924 9.63495 14.3255C9.47343 14.2586 9.33538 14.1453 9.23826 14C9.14113 13.8546 9.08929 13.6837 9.08929 13.5089C9.08929 13.2744 9.18241 13.0496 9.34818 12.8838C9.51395 12.7181 9.73878 12.6249 9.97321 12.6249ZM7.02679 9.67852C7.20161 9.67852 7.37251 9.73036 7.51787 9.82749C7.66323 9.92461 7.77653 10.0627 7.84343 10.2242C7.91033 10.3857 7.92784 10.5634 7.89373 10.7349C7.85962 10.9064 7.77544 11.0639 7.65182 11.1875C7.5282 11.3111 7.3707 11.3953 7.19923 11.4294C7.02777 11.4635 6.85004 11.446 6.68852 11.3791C6.527 11.3122 6.38895 11.1989 6.29183 11.0535C6.1947 10.9082 6.14286 10.7373 6.14286 10.5624C6.14286 10.328 6.23599 10.1032 6.40175 9.93741C6.56752 9.77165 6.79235 9.67852 7.02679 9.67852ZM7.02679 12.6249C7.20161 12.6249 7.37251 12.6768 7.51787 12.7739C7.66323 12.871 7.77653 13.0091 7.84343 13.1706C7.91033 13.3321 7.92784 13.5099 7.89373 13.6813C7.85962 13.8528 7.77544 14.0103 7.65182 14.1339C7.5282 14.2575 7.3707 14.3417 7.19923 14.3758C7.02777 14.4099 6.85004 14.3924 6.68852 14.3255C6.527 14.2586 6.38895 14.1453 6.29183 14C6.1947 13.8546 6.14286 13.6837 6.14286 13.5089C6.14286 13.2744 6.23599 13.0496 6.40175 12.8838C6.56752 12.7181 6.79235 12.6249 7.02679 12.6249ZM4.08036 9.67852C4.25518 9.67852 4.42608 9.73036 4.57144 9.82749C4.7168 9.92461 4.8301 10.0627 4.897 10.2242C4.9639 10.3857 4.98141 10.5634 4.9473 10.7349C4.9132 10.9064 4.82901 11.0639 4.70539 11.1875C4.58177 11.3111 4.42427 11.3953 4.2528 11.4294C4.08134 11.4635 3.90361 11.446 3.74209 11.3791C3.58058 11.3122 3.44252 11.1989 3.3454 11.0535C3.24827 10.9082 3.19643 10.7373 3.19643 10.5624C3.19643 10.328 3.28956 10.1032 3.45533 9.93741C3.62109 9.77165 3.84592 9.67852 4.08036 9.67852ZM4.08036 12.6249C4.25518 12.6249 4.42608 12.6768 4.57144 12.7739C4.7168 12.871 4.8301 13.0091 4.897 13.1706C4.9639 13.3321 4.98141 13.5099 4.9473 13.6813C4.9132 13.8528 4.82901 14.0103 4.70539 14.1339C4.58177 14.2575 4.42427 14.3417 4.2528 14.3758C4.08134 14.4099 3.90361 14.3924 3.74209 14.3255C3.58058 14.2586 3.44252 14.1453 3.3454 14C3.24827 13.8546 3.19643 13.6837 3.19643 13.5089C3.19643 13.2744 3.28956 13.0496 3.45533 12.8838C3.62109 12.7181 3.84592 12.6249 4.08036 12.6249Z" fill="#EA4917"/>
</svg>
