<svg width="28" height="25" viewBox="0 0 28 25" fill="none" xmlns="http://www.w3.org/2000/svg">
<path d="M21.236 0.882846C23.3127 0.882845 24.974 1.62451 26.22 3.10784C27.4067 4.65051 28 6.63818 28 9.07084C28 12.3935 27.11 15.3898 25.33 18.0598C23.4907 20.7892 20.702 23.0735 16.964 24.9128L15.985 23.4888C17.765 22.4208 19.3967 20.9078 20.88 18.9498C22.304 17.0512 23.016 15.1228 23.016 13.1648C23.016 12.6308 22.8677 12.1858 22.571 11.8298C22.2743 11.5332 21.8293 11.3848 21.236 11.3848C19.7527 11.3848 18.5067 10.8508 17.498 9.78285C16.43 8.77418 15.896 7.52818 15.896 6.04484C15.896 4.56151 16.43 3.31551 17.498 2.30684C18.5067 1.35751 19.7527 0.882846 21.236 0.882846ZM5.839 0.882847C7.91566 0.882847 9.577 1.62451 10.823 3.10784C12.0097 4.65051 12.603 6.63818 12.603 9.07085C12.603 12.3935 11.713 15.3898 9.933 18.0598C8.09367 20.7892 5.305 23.0735 1.567 24.9128L0.587999 23.4888C2.368 22.4208 3.99967 20.9078 5.483 18.9498C6.907 17.0512 7.619 15.1228 7.619 13.1648C7.619 12.6308 7.47066 12.1858 7.174 11.8298C6.87733 11.5332 6.43233 11.3848 5.839 11.3848C4.35567 11.3848 3.10966 10.8508 2.101 9.78285C1.033 8.77418 0.498999 7.52818 0.498999 6.04484C0.498999 4.56151 1.033 3.31551 2.101 2.30684C3.10966 1.35751 4.35567 0.882847 5.839 0.882847Z" fill="#CBCBCB"/>
</svg>
