<svg width="28" height="28" viewBox="0 0 28 28" fill="none" xmlns="http://www.w3.org/2000/svg">
<path d="M23.3333 0H4.66667C4.05383 0 3.447 0.120707 2.88081 0.355229C2.31462 0.589751 1.80018 0.933495 1.36683 1.36683C0.491665 2.242 0 3.42899 0 4.66667V23.3333C0 24.571 0.491665 25.758 1.36683 26.6332C1.80018 27.0665 2.31462 27.4102 2.88081 27.6448C3.447 27.8793 4.05383 28 4.66667 28H23.3333C24.571 28 25.758 27.5083 26.6332 26.6332C27.5083 25.758 28 24.571 28 23.3333V4.66667C28 4.05383 27.8793 3.447 27.6448 2.88081C27.4102 2.31462 27.0665 1.80018 26.6332 1.36683C26.1998 0.933495 25.6854 0.589751 25.1192 0.355229C24.553 0.120707 23.9462 0 23.3333 0ZM7.41067 9.044V23.3333C7.41067 23.5809 7.31233 23.8183 7.1373 23.9933C6.96227 24.1683 6.72487 24.2667 6.47733 24.2667C6.2298 24.2667 5.9924 24.1683 5.81737 23.9933C5.64233 23.8183 5.544 23.5809 5.544 23.3333V9.044C4.92127 8.82383 4.39642 8.3906 4.06221 7.82088C3.72801 7.25117 3.60596 6.58165 3.71766 5.93065C3.82935 5.27965 4.16759 4.6891 4.67258 4.26337C5.17758 3.83764 5.81683 3.60413 6.47733 3.60413C7.13784 3.60413 7.77709 3.83764 8.28208 4.26337C8.78708 4.6891 9.12532 5.27965 9.23701 5.93065C9.3487 6.58165 9.22666 7.25117 8.89246 7.82088C8.55825 8.3906 8.0334 8.82383 7.41067 9.044ZM14 24.2667C13.3434 24.2616 12.7094 24.0259 12.2089 23.6007C11.7085 23.1756 11.3734 22.5881 11.2622 21.9409C11.151 21.2937 11.2708 20.6281 11.6006 20.0603C11.9305 19.4925 12.4494 19.0586 13.0667 18.8347V4.66667C13.0667 4.41913 13.165 4.18173 13.34 4.0067C13.5151 3.83167 13.7525 3.73333 14 3.73333C14.2475 3.73333 14.4849 3.83167 14.66 4.0067C14.835 4.18173 14.9333 4.41913 14.9333 4.66667V18.8347C15.5506 19.0586 16.0695 19.4925 16.3994 20.0603C16.7292 20.6281 16.849 21.2937 16.7378 21.9409C16.6266 22.5881 16.2915 23.1756 15.7911 23.6007C15.2906 24.0259 14.6566 24.2616 14 24.2667ZM22.4 16.632V23.3333C22.4 23.5809 22.3017 23.8183 22.1266 23.9933C21.9516 24.1683 21.7142 24.2667 21.4667 24.2667C21.2191 24.2667 20.9817 24.1683 20.8067 23.9933C20.6317 23.8183 20.5333 23.5809 20.5333 23.3333V16.632C19.9928 16.4358 19.5258 16.0779 19.1957 15.607C18.8657 15.1361 18.6886 14.575 18.6886 14C18.6886 13.425 18.8657 12.8639 19.1957 12.393C19.5258 11.9221 19.9928 11.5642 20.5333 11.368V4.66667C20.5333 4.41913 20.6317 4.18173 20.8067 4.0067C20.9817 3.83167 21.2191 3.73333 21.4667 3.73333C21.7142 3.73333 21.9516 3.83167 22.1266 4.0067C22.3017 4.18173 22.4 4.41913 22.4 4.66667V11.368C22.9405 11.5642 23.4076 11.9221 23.7376 12.393C24.0677 12.8639 24.2447 13.425 24.2447 14C24.2447 14.575 24.0677 15.1361 23.7376 15.607C23.4076 16.0779 22.9405 16.4358 22.4 16.632Z" fill="#E1574B"/>
</svg>
