<svg width="30" height="30" viewBox="0 0 30 30" fill="none" xmlns="http://www.w3.org/2000/svg">
<path d="M30 24.9075C30 25.2059 29.8815 25.492 29.6705 25.703C29.4595 25.914 29.1734 26.0325 28.875 26.0325H21.225C20.9744 26.9668 20.4226 27.7924 19.6551 28.3812C18.8876 28.9699 17.9473 29.2891 16.98 29.2891C16.0127 29.2891 15.0724 28.9699 14.3049 28.3812C13.5374 27.7924 12.9856 26.9668 12.735 26.0325H1.125C0.826631 26.0325 0.540483 25.914 0.329505 25.703C0.118526 25.492 0 25.2059 0 24.9075C0 24.6091 0.118526 24.323 0.329505 24.112C0.540483 23.901 0.826631 23.7825 1.125 23.7825H12.735C12.9856 22.8482 13.5374 22.0226 14.3049 21.4338C15.0724 20.8451 16.0127 20.5259 16.98 20.5259C17.9473 20.5259 18.8876 20.8451 19.6551 21.4338C20.4226 22.0226 20.9744 22.8482 21.225 23.7825H28.875C29.1734 23.7825 29.4595 23.901 29.6705 24.112C29.8815 24.323 30 24.6091 30 24.9075ZM30 5.0925C30 5.39087 29.8815 5.67702 29.6705 5.888C29.4595 6.09898 29.1734 6.2175 28.875 6.2175H25.2C24.9494 7.15182 24.3976 7.97737 23.6301 8.56616C22.8626 9.15495 21.9223 9.47408 20.955 9.47408C19.9877 9.47408 19.0474 9.15495 18.2799 8.56616C17.5124 7.97737 16.9606 7.15182 16.71 6.2175H1.125C0.977263 6.2175 0.830972 6.1884 0.694481 6.13187C0.55799 6.07533 0.433971 5.99246 0.329505 5.888C0.225039 5.78353 0.142172 5.65951 0.0856354 5.52302C0.0290989 5.38653 0 5.24024 0 5.0925C0 4.94477 0.0290989 4.79847 0.0856354 4.66198C0.142172 4.52549 0.225039 4.40147 0.329505 4.29701C0.433971 4.19254 0.55799 4.10967 0.694481 4.05314C0.830972 3.9966 0.977263 3.9675 1.125 3.9675H16.71C16.9606 3.03319 17.5124 2.20764 18.2799 1.61885C19.0474 1.03006 19.9877 0.710922 20.955 0.710922C21.9223 0.710922 22.8626 1.03006 23.6301 1.61885C24.3976 2.20764 24.9494 3.03319 25.2 3.9675H28.875C29.0233 3.96548 29.1705 3.99321 29.3079 4.04903C29.4453 4.10485 29.5701 4.18764 29.675 4.29251C29.7799 4.39738 29.8627 4.5222 29.9185 4.65961C29.9743 4.79701 30.002 4.94421 30 5.0925ZM30 14.9925C30.002 15.1408 29.9743 15.288 29.9185 15.4254C29.8627 15.5628 29.7799 15.6876 29.675 15.7925C29.5701 15.8974 29.4453 15.9802 29.3079 16.036C29.1705 16.0918 29.0233 16.1195 28.875 16.1175H11.325C11.0744 17.0518 10.5226 17.8774 9.75513 18.4662C8.98764 19.0549 8.04733 19.3741 7.08 19.3741C6.11267 19.3741 5.17236 19.0549 4.40487 18.4662C3.63737 17.8774 3.08556 17.0518 2.835 16.1175H1.125C0.826631 16.1175 0.540483 15.999 0.329505 15.788C0.118526 15.577 0 15.2909 0 14.9925C0 14.6941 0.118526 14.408 0.329505 14.197C0.540483 13.986 0.826631 13.8675 1.125 13.8675H2.835C3.08556 12.9332 3.63737 12.1076 4.40487 11.5188C5.17236 10.9301 6.11267 10.6109 7.08 10.6109C8.04733 10.6109 8.98764 10.9301 9.75513 11.5188C10.5226 12.1076 11.0744 12.9332 11.325 13.8675H28.875C29.1734 13.8675 29.4595 13.986 29.6705 14.197C29.8815 14.408 30 14.6941 30 14.9925Z" fill="#EA4917"/>
</svg>
