<svg width="125" height="124" viewBox="0 0 125 124" fill="none" xmlns="http://www.w3.org/2000/svg">
<g filter="url(#filter0_d_1_4255)">
<path d="M64.6647 19.762C67.8332 17.2107 72.5529 18.2851 74.3048 21.9566C75.4563 24.3697 78.0052 25.7935 80.6637 25.5087C84.7086 25.0755 88.0981 28.531 87.587 32.5667C87.2511 35.2193 88.6255 37.7951 91.016 38.9929C94.653 40.8152 95.6363 45.5547 93.0244 48.6735C91.3077 50.7233 91.0714 53.6333 92.4348 55.9334C94.5092 59.4327 92.774 63.9514 88.8907 65.163C86.3383 65.9594 84.5662 68.2797 84.4697 70.9517C84.3229 75.017 80.4202 77.8803 76.4982 76.8C73.9205 76.09 71.1753 77.0839 69.6495 79.2796C67.3281 82.6202 62.4969 82.919 59.7816 79.8899C57.9969 77.8989 55.1502 77.2509 52.6795 78.2731C48.9206 79.8284 44.6948 77.4678 44.0482 73.4515C43.6232 70.8117 41.5787 68.7275 38.9477 68.2517C34.9446 67.5278 32.6659 63.2574 34.2933 59.5291C35.3629 57.0786 34.7698 54.2199 32.8136 52.3972C29.8374 49.624 30.2292 44.7995 33.6139 42.5429C35.8386 41.0597 36.8852 38.3341 36.225 35.7432C35.2205 31.8012 38.1584 27.9543 42.2258 27.8859C44.8992 27.8409 47.2532 26.1139 48.0986 23.5773C49.3848 19.718 53.9361 18.0702 57.3948 20.2116C59.6681 21.6191 62.5821 21.4389 64.6647 19.762Z" fill="#E14BB7"/>
<path d="M64.6647 19.762C67.8332 17.2107 72.5529 18.2851 74.3048 21.9566C75.4563 24.3697 78.0052 25.7935 80.6637 25.5087C84.7086 25.0755 88.0981 28.531 87.587 32.5667C87.2511 35.2193 88.6255 37.7951 91.016 38.9929C94.653 40.8152 95.6363 45.5547 93.0244 48.6735C91.3077 50.7233 91.0714 53.6333 92.4348 55.9334C94.5092 59.4327 92.774 63.9514 88.8907 65.163C86.3383 65.9594 84.5662 68.2797 84.4697 70.9517C84.3229 75.017 80.4202 77.8803 76.4982 76.8C73.9205 76.09 71.1753 77.0839 69.6495 79.2796C67.3281 82.6202 62.4969 82.919 59.7816 79.8899C57.9969 77.8989 55.1502 77.2509 52.6795 78.2731C48.9206 79.8284 44.6948 77.4678 44.0482 73.4515C43.6232 70.8117 41.5787 68.7275 38.9477 68.2517C34.9446 67.5278 32.6659 63.2574 34.2933 59.5291C35.3629 57.0786 34.7698 54.2199 32.8136 52.3972C29.8374 49.624 30.2292 44.7995 33.6139 42.5429C35.8386 41.0597 36.8852 38.3341 36.225 35.7432C35.2205 31.8012 38.1584 27.9543 42.2258 27.8859C44.8992 27.8409 47.2532 26.1139 48.0986 23.5773C49.3848 19.718 53.9361 18.0702 57.3948 20.2116C59.6681 21.6191 62.5821 21.4389 64.6647 19.762Z" fill="url(#paint0_linear_1_4255)" fill-opacity="0.8" style="mix-blend-mode:hard-light"/>
</g>
<g style="mix-blend-mode:color-dodge">
<path d="M47.3309 44.8013L49.4465 35.5081L51.5131 35.9786L49.3976 45.2718L47.3309 44.8013ZM49.7406 41.5147L50.1451 39.7377L54.7917 40.7955L54.3872 42.5725L49.7406 41.5147ZM50.6216 37.6447L51.0261 35.8677L55.8833 36.9734L55.4788 38.7505L50.6216 37.6447ZM55.0952 46.5689L57.2108 37.2756L59.2774 37.7461L57.1618 47.0393L55.0952 46.5689ZM56.6879 46.9314L57.1015 45.1149L61.6954 46.1607L61.2819 47.9773L56.6879 46.9314ZM61.519 48.0312L67.3203 39.577L69.1895 40.0026L70.7201 50.1259L68.535 49.6284L67.5004 41.2795L68.2507 41.4503L63.6646 48.5197L61.519 48.0312ZM63.9956 46.8228L64.3791 45.1379L69.447 46.2916L69.0634 47.9765L63.9956 46.8228ZM72.9395 50.6311L75.0251 41.4695L77.0917 41.9399L75.0061 51.1016L72.9395 50.6311ZM71.7355 42.479L72.146 40.6756L80.0308 42.4706L79.6202 44.2739L71.7355 42.479ZM49.4844 58.6242L51.6 49.3309L53.6666 49.8014L51.551 59.0946L49.4844 58.6242ZM51.894 55.3375L52.2986 53.5605L56.9452 54.6183L56.5406 56.3953L51.894 55.3375ZM52.775 51.4676L53.1796 49.6905L58.0368 50.7963L57.6322 52.5733L52.775 51.4676ZM57.2486 60.3917L59.3642 51.0984L61.4308 51.5689L59.3153 60.8622L57.2486 60.3917ZM58.8282 60.7513L59.2357 58.9611L64.3299 60.1208L63.9224 61.911L58.8282 60.7513ZM59.7122 56.8681L60.1048 55.1437L64.7382 56.1985L64.3457 57.9229L59.7122 56.8681ZM60.5393 53.2351L60.9438 51.458L65.9722 52.6027L65.5676 54.3798L60.5393 53.2351ZM65.3471 62.2353L67.4627 52.9421L69.5293 53.4125L67.4137 62.7058L65.3471 62.2353ZM66.9267 62.5949L67.3342 60.8047L72.4284 61.9644L72.0209 63.7546L66.9267 62.5949ZM67.8107 58.7117L68.2032 56.9873L72.8367 58.0421L72.4441 59.7665L67.8107 58.7117ZM68.6377 55.0787L69.0423 53.3016L74.0706 54.4463L73.6661 56.2234L68.6377 55.0787Z" fill="#8D8D8D"/>
</g>
<defs>
<filter id="filter0_d_1_4255" x="0.8076" y="0.367055" width="123.689" height="123.619" filterUnits="userSpaceOnUse" color-interpolation-filters="sRGB">
<feFlood flood-opacity="0" result="BackgroundImageFix"/>
<feColorMatrix in="SourceAlpha" type="matrix" values="0 0 0 0 0 0 0 0 0 0 0 0 0 0 0 0 0 0 127 0" result="hardAlpha"/>
<feOffset dy="12"/>
<feGaussianBlur stdDeviation="15"/>
<feComposite in2="hardAlpha" operator="out"/>
<feColorMatrix type="matrix" values="0 0 0 0 0 0 0 0 0 0 0 0 0 0 0 0 0 0 0.4 0"/>
<feBlend mode="normal" in2="BackgroundImageFix" result="effect1_dropShadow_1_4255"/>
<feBlend mode="normal" in="SourceGraphic" in2="effect1_dropShadow_1_4255" result="shape"/>
</filter>
<linearGradient id="paint0_linear_1_4255" x1="70.2788" y1="17.3713" x2="62.0196" y2="53.6518" gradientUnits="userSpaceOnUse">
<stop stop-color="white" stop-opacity="0.5"/>
<stop offset="1" stop-color="white" stop-opacity="0"/>
</linearGradient>
</defs>
</svg>
