<svg width="17" height="17" viewBox="0 0 17 17" fill="none" xmlns="http://www.w3.org/2000/svg">
<path d="M8.5 0.25C3.94386 0.25 0.25 3.94386 0.25 8.5C0.25 13.0561 3.94386 16.75 8.5 16.75C13.0561 16.75 16.75 13.0561 16.75 8.5C16.75 3.94386 13.0561 0.25 8.5 0.25ZM12.3077 9.76923H8.5C8.33169 9.76923 8.17027 9.70237 8.05126 9.58336C7.93225 9.46434 7.86538 9.30293 7.86538 9.13461V3.42308C7.86538 3.25477 7.93225 3.09335 8.05126 2.97434C8.17027 2.85532 8.33169 2.78846 8.5 2.78846C8.66831 2.78846 8.82973 2.85532 8.94874 2.97434C9.06775 3.09335 9.13461 3.25477 9.13461 3.42308V8.5H12.3077C12.476 8.5 12.6374 8.56686 12.7564 8.68587C12.8754 8.80489 12.9423 8.9663 12.9423 9.13461C12.9423 9.30293 12.8754 9.46434 12.7564 9.58336C12.6374 9.70237 12.476 9.76923 12.3077 9.76923Z" fill="#EA4917"/>
</svg>
