<svg width="60" height="43" viewBox="0 0 60 43" fill="none" xmlns="http://www.w3.org/2000/svg">
<path d="M27.682 15.8578H25.5004V20.695H27.682C28.0149 20.7394 28.3537 20.7074 28.672 20.6015C28.9903 20.4957 29.2795 20.3188 29.517 20.0847C29.7546 19.8506 29.9341 19.5656 30.0415 19.252C30.1489 18.9383 30.1814 18.6044 30.1364 18.2764C30.1814 17.9483 30.1489 17.6144 30.0415 17.3008C29.9341 16.9871 29.7546 16.7021 29.517 16.4681C29.2795 16.234 28.9903 16.0571 28.672 15.9512C28.3537 15.8454 28.0149 15.8134 27.682 15.8578ZM27.682 15.8578H25.5004V20.695H27.682C28.0149 20.7394 28.3537 20.7074 28.672 20.6015C28.9903 20.4957 29.2795 20.3188 29.517 20.0847C29.7546 19.8506 29.9341 19.5656 30.0415 19.252C30.1489 18.9383 30.1814 18.6044 30.1364 18.2764C30.1814 17.9483 30.1489 17.6144 30.0415 17.3008C29.9341 16.9871 29.7546 16.7021 29.517 16.4681C29.2795 16.234 28.9903 16.0571 28.672 15.9512C28.3537 15.8454 28.0149 15.8134 27.682 15.8578ZM27.682 15.8578H25.5004V20.695H27.682C28.0149 20.7394 28.3537 20.7074 28.672 20.6015C28.9903 20.4957 29.2795 20.3188 29.517 20.0847C29.7546 19.8506 29.9341 19.5656 30.0415 19.252C30.1489 18.9383 30.1814 18.6044 30.1364 18.2764C30.1814 17.9483 30.1489 17.6144 30.0415 17.3008C29.9341 16.9871 29.7546 16.7021 29.517 16.4681C29.2795 16.234 28.9903 16.0571 28.672 15.9512C28.3537 15.8454 28.0149 15.8134 27.682 15.8578ZM36.1359 22.4418C35.045 22.5761 34.3633 22.9792 34.3633 23.7854C34.3633 24.5917 35.045 24.9948 35.9995 24.9948C36.2794 25.0132 36.56 24.9747 36.8241 24.8817C37.0883 24.7887 37.3301 24.6431 37.5347 24.4541C37.7393 24.2651 37.9023 24.0366 38.0135 23.7829C38.1247 23.5292 38.1818 23.2556 38.1812 22.9792V22.3074L36.1359 22.4418ZM36.1359 22.4418C35.045 22.5761 34.3633 22.9792 34.3633 23.7854C34.3633 24.5917 35.045 24.9948 35.9995 24.9948C36.2794 25.0132 36.56 24.9747 36.8241 24.8817C37.0883 24.7887 37.3301 24.6431 37.5347 24.4541C37.7393 24.2651 37.9023 24.0366 38.0135 23.7829C38.1247 23.5292 38.1818 23.2556 38.1812 22.9792V22.3074L36.1359 22.4418ZM27.682 15.8578H25.5004V20.695H27.682C28.0149 20.7394 28.3537 20.7074 28.672 20.6015C28.9903 20.4957 29.2795 20.3188 29.517 20.0847C29.7546 19.8506 29.9341 19.5656 30.0415 19.252C30.1489 18.9383 30.1814 18.6044 30.1364 18.2764C30.1814 17.9483 30.1489 17.6144 30.0415 17.3008C29.9341 16.9871 29.7546 16.7021 29.517 16.4681C29.2795 16.234 28.9903 16.0571 28.672 15.9512C28.3537 15.8454 28.0149 15.8134 27.682 15.8578ZM55.907 0.00240111H4.09301C3.5507 -0.0163679 3.01027 0.0750604 2.50536 0.270996C2.00046 0.466932 1.54188 0.763182 1.15817 1.14131C0.774456 1.51943 0.47383 1.97133 0.275 2.46889C0.0761696 2.96645 -0.0166097 3.49901 0.00243658 4.03343V38.969C0.00243658 40.0381 0.433407 41.0634 1.20054 41.8193C1.96767 42.5753 3.00813 43 4.09301 43H55.907C56.9919 43 58.0323 42.5753 58.7995 41.8193C59.5666 41.0634 59.9976 40.0381 59.9976 38.969V4.03343C60.0166 3.49901 59.9238 2.96645 59.725 2.46889C59.5262 1.97133 59.2255 1.51943 58.8418 1.14131C58.4581 0.763182 57.9995 0.466932 57.4946 0.270996C56.9897 0.0750604 56.4493 -0.0163679 55.907 0.00240111ZM16.9102 14.3797C17.1423 14.0983 17.4326 13.8689 17.7618 13.7067C18.0909 13.5445 18.4514 13.4533 18.8191 13.4392C18.8038 14.2051 18.5673 14.9508 18.1373 15.589C17.8983 15.8528 17.6035 16.0616 17.2737 16.2009C16.9438 16.3402 16.587 16.4065 16.2284 16.3952C16.1805 15.6615 16.4251 14.9384 16.9102 14.3797ZM20.5917 24.8604C20.0463 25.6666 19.5009 26.3384 18.6827 26.3384C17.8646 26.3384 17.4556 25.9353 16.5011 25.9353C15.5466 25.9353 15.1376 26.3384 14.3195 26.4728C13.5013 26.6072 12.8196 25.5322 12.2742 24.726C11.7288 23.9198 10.3652 20.2919 11.4561 18.2764C11.7116 17.7828 12.1027 17.3698 12.5849 17.0847C13.0671 16.7996 13.6209 16.6538 14.1831 16.664C15.0012 16.664 15.8193 17.2014 16.3647 17.2014C16.9102 17.2014 17.5919 16.5296 18.6827 16.5296H18.8191C19.2849 16.5604 19.737 16.6979 20.1395 16.9311C20.5419 17.1644 20.8835 17.487 21.1371 17.8733C20.7268 18.1362 20.3881 18.4941 20.1504 18.9157C19.9128 19.3373 19.7834 19.8097 19.7736 20.2919C19.7755 20.8604 19.9438 21.4162 20.2582 21.8929C20.5726 22.3695 21.0197 22.7467 21.5461 22.9792C21.3281 23.651 21.0062 24.2855 20.5917 24.8604ZM28.0911 22.173H25.5004V26.3384H23.5914V14.3797H28.0911C28.6155 14.3609 29.1382 14.4488 29.6266 14.638C30.115 14.8272 30.5585 15.1135 30.9296 15.4792C31.3006 15.8448 31.5912 16.2819 31.7832 16.7632C31.9752 17.2445 32.0644 17.7596 32.0453 18.2764C32.0644 18.7932 31.9752 19.3083 31.7832 19.7895C31.5912 20.2708 31.3006 20.7079 30.9296 21.0736C30.5585 21.4392 30.115 21.7256 29.6266 21.9148C29.1382 22.1039 28.6155 22.1918 28.0911 22.173ZM39.9537 26.3384H38.3175V24.8604H38.1812C37.9257 25.354 37.5345 25.7669 37.0523 26.052C36.5701 26.3371 36.0163 26.4829 35.4541 26.4728C35.075 26.486 34.6974 26.4211 34.3452 26.2823C33.993 26.1434 33.6741 25.9338 33.4088 25.6666C33.1334 25.4373 32.916 25.1479 32.774 24.8214C32.632 24.4948 32.5692 24.1401 32.5907 23.7854C32.5907 22.3074 33.8179 21.3668 35.8632 21.2325H38.1812V20.5606C38.182 20.3547 38.1392 20.1508 38.0555 19.9622C37.9717 19.7735 37.8489 19.6041 37.6948 19.465C37.5407 19.3258 37.3589 19.2199 37.1609 19.1541C36.9628 19.0882 36.753 19.0639 36.5449 19.0826C35.4541 19.0826 34.7723 19.4857 34.636 20.2919H32.8634C32.9998 18.6795 34.3633 17.6045 36.5449 17.6045C38.7266 17.6045 39.9537 18.6795 39.9537 20.4263V26.3384ZM45.8169 26.7415C44.9988 28.8914 44.1807 29.5632 42.4081 29.5632H41.59V28.0852H42.2717C43.0899 28.0852 43.4989 27.8165 43.7716 26.8759V26.3384L40.6355 17.6045H42.5444L44.9988 24.726L47.1804 17.6045H49.0894L45.8169 26.7415ZM34.3633 23.7854C34.3633 24.5917 35.045 24.9948 35.9995 24.9948C36.2794 25.0132 36.56 24.9747 36.8241 24.8817C37.0883 24.7887 37.3301 24.6431 37.5347 24.4541C37.7393 24.2651 37.9023 24.0366 38.0135 23.7829C38.1247 23.5292 38.1818 23.2556 38.1812 22.9792V22.3074H36.1359C35.045 22.5761 34.3633 22.9792 34.3633 23.7854ZM27.682 15.8578H25.5004V20.695H27.682C28.0149 20.7394 28.3537 20.7074 28.672 20.6015C28.9903 20.4957 29.2795 20.3188 29.517 20.0847C29.7546 19.8506 29.9341 19.5656 30.0415 19.252C30.1489 18.9383 30.1814 18.6044 30.1364 18.2764C30.1814 17.9483 30.1489 17.6144 30.0415 17.3008C29.9341 16.9871 29.7546 16.7021 29.517 16.4681C29.2795 16.234 28.9903 16.0571 28.672 15.9512C28.3537 15.8454 28.0149 15.8134 27.682 15.8578ZM27.682 15.8578H25.5004V20.695H27.682C28.0149 20.7394 28.3537 20.7074 28.672 20.6015C28.9903 20.4957 29.2795 20.3188 29.517 20.0847C29.7546 19.8506 29.9341 19.5656 30.0415 19.252C30.1489 18.9383 30.1814 18.6044 30.1364 18.2764C30.1814 17.9483 30.1489 17.6144 30.0415 17.3008C29.9341 16.9871 29.7546 16.7021 29.517 16.4681C29.2795 16.234 28.9903 16.0571 28.672 15.9512C28.3537 15.8454 28.0149 15.8134 27.682 15.8578ZM36.1359 22.4418C35.045 22.5761 34.3633 22.9792 34.3633 23.7854C34.3633 24.5917 35.045 24.9948 35.9995 24.9948C36.2794 25.0132 36.56 24.9747 36.8241 24.8817C37.0883 24.7887 37.3301 24.6431 37.5347 24.4541C37.7393 24.2651 37.9023 24.0366 38.0135 23.7829C38.1247 23.5292 38.1818 23.2556 38.1812 22.9792V22.3074L36.1359 22.4418ZM36.1359 22.4418C35.045 22.5761 34.3633 22.9792 34.3633 23.7854C34.3633 24.5917 35.045 24.9948 35.9995 24.9948C36.2794 25.0132 36.56 24.9747 36.8241 24.8817C37.0883 24.7887 37.3301 24.6431 37.5347 24.4541C37.7393 24.2651 37.9023 24.0366 38.0135 23.7829C38.1247 23.5292 38.1818 23.2556 38.1812 22.9792V22.3074L36.1359 22.4418ZM27.682 15.8578H25.5004V20.695H27.682C28.0149 20.7394 28.3537 20.7074 28.672 20.6015C28.9903 20.4957 29.2795 20.3188 29.517 20.0847C29.7546 19.8506 29.9341 19.5656 30.0415 19.252C30.1489 18.9383 30.1814 18.6044 30.1364 18.2764C30.1814 17.9483 30.1489 17.6144 30.0415 17.3008C29.9341 16.9871 29.7546 16.7021 29.517 16.4681C29.2795 16.234 28.9903 16.0571 28.672 15.9512C28.3537 15.8454 28.0149 15.8134 27.682 15.8578Z" fill="black"/>
</svg>
