<svg width="17" height="18" viewBox="0 0 17 18" fill="none" xmlns="http://www.w3.org/2000/svg">
<path d="M13.0222 0.25C13.3302 0.25 13.6255 0.372331 13.8433 0.590082C14.061 0.807832 14.1833 1.10317 14.1833 1.41111V16.5056H15.925C16.079 16.5056 16.2266 16.5667 16.3355 16.6756C16.4444 16.7845 16.5056 16.9321 16.5056 17.0861C16.5056 17.2401 16.4444 17.3878 16.3355 17.4966C16.2266 17.6055 16.079 17.6667 15.925 17.6667H0.830556C0.676583 17.6667 0.528916 17.6055 0.420041 17.4966C0.311165 17.3878 0.25 17.2401 0.25 17.0861C0.25 16.9321 0.311165 16.7845 0.420041 16.6756C0.528916 16.5667 0.676583 16.5056 0.830556 16.5056H2.57222V1.41111C2.57222 1.10317 2.69455 0.807832 2.9123 0.590082C3.13005 0.372331 3.42539 0.25 3.73333 0.25H13.0222ZM10.7 10.7C11.0079 10.7 11.3033 10.5777 11.521 10.3599C11.7388 10.1422 11.8611 9.84684 11.8611 9.53889C11.8611 9.23094 11.7388 8.93561 11.521 8.71786C11.3033 8.50011 11.0079 8.37778 10.7 8.37778C10.3921 8.37778 10.0967 8.50011 9.87897 8.71786C9.66122 8.93561 9.53889 9.23094 9.53889 9.53889C9.53889 9.84684 9.66122 10.1422 9.87897 10.3599C10.0967 10.5777 10.3921 10.7 10.7 10.7Z" fill="#EA4917"/>
</svg>
