<svg width="22" height="10" viewBox="0 0 22 10" fill="none" xmlns="http://www.w3.org/2000/svg">
<path d="M0.73075 9.57691C0.5237 9.57691 0.35015 9.50687 0.2101 9.36681C0.0700333 9.22674 0 9.05318 0 8.84613V8.71343C0 8.09548 0.321017 7.58811 0.96305 7.19133C1.60508 6.79453 2.4514 6.59613 3.502 6.59613C3.69168 6.59613 3.87275 6.60126 4.0452 6.61151C4.21763 6.62177 4.38269 6.64357 4.54038 6.67691C4.39346 6.92866 4.2859 7.19928 4.2177 7.48878C4.14948 7.7783 4.11538 8.08231 4.11538 8.40083V9.57691H0.73075ZM6.81563 9.57691C6.57828 9.57691 6.383 9.49951 6.2298 9.34471C6.0766 9.18989 6 8.99806 6 8.76921V8.47691C6 7.64997 6.45801 6.98876 7.37402 6.49326C8.29006 5.99774 9.49618 5.74998 10.9924 5.74998C12.5026 5.74998 13.7148 5.99774 14.6288 6.49326C15.5429 6.98876 16 7.64997 16 8.47691V8.76921C16 8.99806 15.9226 9.18989 15.7678 9.34471C15.613 9.49951 15.4212 9.57691 15.1923 9.57691H6.81563ZM17.8846 9.57691V8.40083C17.8846 8.08231 17.8479 7.7783 17.7744 7.48878C17.701 7.19928 17.596 6.92866 17.4596 6.67691C17.6173 6.64357 17.7817 6.62177 17.9529 6.61151C18.1241 6.60126 18.3065 6.59613 18.5 6.59613C19.55 6.59613 20.3958 6.79453 21.0375 7.19133C21.6792 7.58811 22 8.09548 22 8.71343V8.84613C22 9.05318 21.93 9.22674 21.7899 9.36681C21.6498 9.50687 21.4763 9.57691 21.2692 9.57691H17.8846ZM11 6.74998C9.8577 6.74998 8.91796 6.90479 8.18077 7.21441C7.44359 7.52402 7.05962 7.91409 7.02885 8.38461V8.57691H14.9712V8.38461C14.9365 7.91024 14.5516 7.51921 13.8163 7.21153C13.0811 6.90383 12.1423 6.74998 11 6.74998ZM3.5 5.65383C3.10385 5.65383 2.77083 5.51448 2.50095 5.23578C2.23108 4.9571 2.09615 4.62208 2.09615 4.23073C2.09615 3.8394 2.23108 3.50438 2.50095 3.22568C2.77083 2.947 3.10385 2.80766 3.5 2.80766C3.89615 2.80766 4.23237 2.947 4.50865 3.22568C4.78493 3.50438 4.92308 3.8394 4.92308 4.23073C4.92308 4.62208 4.78373 4.9571 4.50505 5.23578C4.22637 5.51448 3.89135 5.65383 3.5 5.65383ZM18.5 5.65383C18.1038 5.65383 17.7676 5.51448 17.4914 5.23578C17.2151 4.9571 17.0769 4.62208 17.0769 4.23073C17.0769 3.8394 17.2163 3.50438 17.4949 3.22568C17.7736 2.947 18.1087 2.80766 18.5 2.80766C18.8962 2.80766 19.2292 2.947 19.4991 3.22568C19.7689 3.50438 19.9039 3.8394 19.9039 4.23073C19.9039 4.62208 19.7689 4.9571 19.4991 5.23578C19.2292 5.51448 18.8962 5.65383 18.5 5.65383ZM11 4.99998C10.391 4.99998 9.87338 4.78684 9.4471 4.36056C9.02082 3.93427 8.80768 3.41664 8.80768 2.80766C8.80768 2.19869 9.02082 1.68106 9.4471 1.25478C9.87338 0.828498 10.391 0.615356 11 0.615356C11.609 0.615356 12.1266 0.828498 12.5529 1.25478C12.9792 1.68106 13.1923 2.19869 13.1923 2.80766C13.1923 3.41664 12.9792 3.93427 12.5529 4.36056C12.1266 4.78684 11.609 4.99998 11 4.99998ZM11.0034 1.61536C10.6665 1.61536 10.383 1.7293 10.1529 1.95718C9.92276 2.18505 9.8077 2.46742 9.8077 2.80428C9.8077 3.14115 9.92163 3.42465 10.1495 3.65478C10.3774 3.88492 10.6598 3.99998 10.9966 3.99998C11.3335 3.99998 11.617 3.88604 11.8471 3.65816C12.0772 3.43027 12.1923 3.1479 12.1923 2.81103C12.1923 2.47417 12.0784 2.19067 11.8505 1.96056C11.6226 1.73042 11.3402 1.61536 11.0034 1.61536Z" fill="#A1A1A2"/>
</svg>
