<svg width="1614" height="378" viewBox="0 0 1614 378" fill="none" xmlns="http://www.w3.org/2000/svg">
<path d="M1596.14 51.4217C1522.59 55.1014 1503.17 68.0694 1498.1 79.3169C1493.04 90.5644 1497.44 117.57 1542.09 171.489C1602.22 244.109 1645.62 242.45 1681.83 162.03C1718.03 81.6107 1688.08 46.822 1596.14 51.4217Z" stroke="#4F9B8F" stroke-width="6"/>
<path d="M133.869 309.214C147.411 261.988 143.213 246.31 137.021 240.118C130.83 233.927 112.378 229.468 67.7713 243.116C7.69309 261.497 -0.629485 289.226 43.6422 333.498C87.914 377.769 116.942 368.246 133.869 309.214Z" fill="#E4C477"/>
<path d="M1564.77 189.001C1570.8 167.952 1568.93 160.965 1566.17 158.205C1563.41 155.445 1555.19 153.458 1535.3 159.541C1508.53 167.734 1504.82 180.092 1524.55 199.825C1544.28 219.557 1557.22 215.312 1564.77 189.001Z" fill="#E1574B"/>
</svg>
