<svg width="18" height="18" viewBox="0 0 18 18" fill="none" xmlns="http://www.w3.org/2000/svg">
<path d="M5.20502 3.75002C5.20482 4.14784 5.04659 4.52929 4.76515 4.81046C4.4837 5.09162 4.10209 5.24947 3.70427 5.24927C3.30644 5.24907 2.92499 5.09084 2.64383 4.8094C2.36266 4.52795 2.20482 4.14634 2.20502 3.74852C2.20522 3.35069 2.36344 2.96924 2.64489 2.68808C2.92633 2.40691 3.30794 2.24907 3.70577 2.24927C4.10359 2.24947 4.48504 2.40769 4.76621 2.68914C5.04737 2.97058 5.20522 3.35219 5.20502 3.75002ZM5.25002 6.36002H2.25002V15.75H5.25002V6.36002ZM9.99002 6.36002H7.00502V15.75H9.96002V10.8225C9.96002 8.07752 13.5375 7.82252 13.5375 10.8225V15.75H16.5V9.80252C16.5 5.17502 11.205 5.34752 9.96002 7.62002L9.99002 6.36002Z" fill="#3C3C3C"/>
</svg>
