<svg width="18" height="16" viewBox="0 0 18 16" fill="none" xmlns="http://www.w3.org/2000/svg">
<path d="M8.9997 15.5L8.99973 15.4766C8.75354 15.4763 8.51313 15.4019 8.30979 15.2631L8.30974 15.263C5.24153 13.1802 3.91394 11.7528 3.18227 10.8613C1.62267 8.96054 0.877107 7.01066 0.898138 4.89984C0.922622 2.486 2.85917 0.523438 5.21376 0.523438C6.92604 0.523438 8.1127 1.48782 8.80498 2.29301L8.80505 2.2931C8.82925 2.32097 8.85916 2.34331 8.89274 2.35862C8.92632 2.37394 8.9628 2.38186 8.9997 2.38186C9.03661 2.38186 9.07309 2.37394 9.10667 2.35862C9.14025 2.34331 9.17015 2.32097 9.19435 2.2931L9.19444 2.29301C9.8867 1.48705 11.0734 0.523438 12.7856 0.523438C15.1402 0.523438 17.0768 2.48599 17.1013 4.90024C17.1223 7.01144 16.376 8.96132 14.8171 10.8617C14.0855 11.7532 12.7579 13.1806 9.68966 15.2634L9.68962 15.2634C9.48624 15.4021 9.24584 15.4764 8.99968 15.4766L8.9997 15.5ZM8.9997 15.5C9.25056 15.4998 9.49555 15.4241 9.70283 15.2828L9.17666 2.27773C9.15465 2.30307 9.12747 2.32338 9.09694 2.3373C9.06642 2.35122 9.03325 2.35842 8.9997 2.35842C8.96615 2.35842 8.93299 2.35122 8.90246 2.3373C8.87193 2.32338 8.84475 2.30307 8.82275 2.27773C8.12822 1.46992 6.93564 0.5 5.21376 0.5C2.8458 0.5 0.899311 2.47344 0.874701 4.89961C0.853608 7.0168 1.60165 8.97188 3.16415 10.8762C3.89736 11.7695 5.22666 13.1984 8.29658 15.2824C8.5038 15.4239 8.7488 15.4997 8.9997 15.5Z" fill="black" stroke="black" stroke-width="0.046875"/>
</svg>
