<svg width="28" height="28" viewBox="0 0 28 28" fill="none" xmlns="http://www.w3.org/2000/svg">
<path d="M25.2368 9.38079C22.7726 3.64644 18.8086 -0.715778 16.8033 0.097859C13.3979 1.484 18.832 8.13155 2.1065 14.9285C0.661247 15.5181 0.295655 17.8656 0.900826 19.272C1.50444 20.6753 3.4802 22.0738 4.92545 21.4873C5.17592 21.3847 6.09379 21.0891 6.09379 21.0891C7.12523 22.4752 8.20489 21.6538 8.58915 22.5328L10.3907 26.671C10.7314 27.4519 11.503 28.1753 12.0631 27.9622L15.2523 26.7503C15.9803 26.4734 16.153 25.8231 15.9306 25.3128C15.691 24.7606 14.7078 24.5988 14.4262 23.9547C14.1462 23.3137 13.2298 21.2509 12.9669 20.6006C12.6091 19.7169 13.3699 18.9966 14.476 18.8831C22.0896 18.0866 23.5131 22.791 26.1049 21.7363C28.1071 20.9195 27.6995 15.1105 25.2368 9.38079ZM24.3796 18.6777C23.9331 18.8566 20.9368 16.4966 19.0233 12.0395C17.1082 7.5855 17.3494 3.5142 17.7943 3.33218C18.2392 3.15328 21.1624 6.00334 23.0759 10.4573C24.991 14.9113 24.8246 18.4957 24.3796 18.6777Z" fill="#4F9B8F"/>
</svg>
