<svg width="64" height="41" viewBox="0 0 64 41" fill="none" xmlns="http://www.w3.org/2000/svg">
<path d="M60.5867 0.179932H3.41333C1.5282 0.179932 0 1.73201 0 3.6466V37.5333C0 39.4479 1.5282 40.9999 3.41333 40.9999H60.5867C62.4718 40.9999 64 39.4479 64 37.5333V3.6466C64 1.73201 62.4718 0.179932 60.5867 0.179932Z" fill="black"/>
<path d="M18.8698 36.7246V34.5709C18.8698 33.745 18.3748 33.2067 17.5625 33.2067C17.1358 33.2067 16.6793 33.3506 16.361 33.8134C16.1135 33.4182 15.7636 33.2067 15.2303 33.2067C14.8275 33.1891 14.4429 33.3779 14.2063 33.7094V33.2761H13.5347V36.722H14.2063V34.7503C14.2063 34.1436 14.5596 33.8533 15.0545 33.8533C15.5494 33.8533 15.8319 34.1766 15.8319 34.7503V36.7246H16.5035V34.7503C16.5035 34.1436 16.8568 33.8533 17.3517 33.8533C17.8466 33.8533 18.1291 34.1766 18.1291 34.7503V36.7246H18.8698ZM29.8965 33.3142H28.6592V32.2742H27.9893V33.3142H27.2828V33.9209H27.9893V35.5398C27.9893 36.3293 28.2718 36.7965 29.12 36.7965C29.4414 36.7897 29.7562 36.7034 30.0373 36.5452L29.8249 35.9385C29.6342 36.0595 29.4131 36.1218 29.1883 36.1179C28.835 36.1179 28.6584 35.9021 28.6584 35.5433V33.8931H29.8957V33.3185L29.8965 33.3142ZM36.1873 33.2067C35.8152 33.1983 35.4661 33.3892 35.2683 33.7094V33.2761H34.5967V36.722H35.2683V34.7867C35.2683 34.2121 35.5507 33.8533 36.0107 33.8533C36.1659 33.8597 36.3199 33.8838 36.4698 33.9252L36.6822 33.2787C36.5202 33.2372 36.3543 33.2131 36.1873 33.2067ZM26.6803 33.5655C26.327 33.3142 25.8321 33.2067 25.3022 33.2067C24.454 33.2067 23.9241 33.602 23.9241 34.284C23.9241 34.8586 24.3132 35.181 25.0547 35.2893L25.408 35.3249C25.7971 35.3968 26.0446 35.5407 26.0446 35.7201C26.0446 35.9714 25.7621 36.1534 25.2314 36.1534C24.8261 36.1619 24.4291 36.0359 24.1007 35.7946L23.7474 36.3328C24.2424 36.6916 24.8431 36.7661 25.1981 36.7661C26.188 36.7661 26.7179 36.2999 26.7179 35.6533C26.7179 35.0467 26.2912 34.7563 25.5514 34.648L25.1981 34.6125C24.8798 34.5769 24.6008 34.4686 24.6008 34.2537C24.6008 34.0024 24.8832 33.8204 25.2723 33.8204C25.699 33.8204 26.1205 33.9997 26.333 34.1072L26.6803 33.5655ZM36.9297 35.0016C36.9297 36.0416 37.6013 36.7965 38.697 36.7965C39.1919 36.7965 39.5452 36.689 39.8985 36.4013L39.5452 35.8631C39.295 36.0688 38.9838 36.1827 38.662 36.1863C38.0647 36.1863 37.6013 35.7201 37.6013 35.038C37.6013 34.3559 38.0587 33.8931 38.662 33.8931C38.9838 33.8968 39.295 34.0107 39.5452 34.2164L39.8985 33.6782C39.5452 33.3913 39.1919 33.283 38.697 33.283C37.6363 33.2111 36.9297 33.9651 36.9297 35.0059V35.0016ZM32.1937 33.2067C31.2038 33.2067 30.5323 33.9244 30.5323 35.0016C30.5323 36.0789 31.2388 36.7965 32.2637 36.7965C32.7623 36.8072 33.2492 36.6424 33.6418 36.3302L33.2885 35.8276C33.0046 36.051 32.6578 36.1767 32.2987 36.1863C31.8396 36.1863 31.3446 35.8995 31.2747 35.2893H33.7843V35.0025C33.7843 33.9252 33.1477 33.2076 32.1937 33.2076V33.2067ZM32.1587 33.8533C32.6537 33.8533 33.0069 34.1766 33.0419 34.7148H31.2047C31.3105 34.2121 31.6314 33.8533 32.1587 33.8533ZM23.005 35.0016V33.2787H22.3334V33.712C22.086 33.3888 21.7361 33.2093 21.2378 33.2093C20.2837 33.2093 19.5763 33.9634 19.5763 35.0042C19.5763 36.0451 20.2829 36.7991 21.2378 36.7991C21.7327 36.7991 22.086 36.6197 22.3334 36.2964V36.7298H23.005V35.0016ZM20.2837 35.0016C20.2837 34.3551 20.6729 33.8533 21.3444 33.8533C21.981 33.8533 22.3684 34.356 22.3684 35.0016C22.3684 35.6837 21.9418 36.15 21.3444 36.15C20.6729 36.1855 20.2837 35.6473 20.2837 35.0016ZM46.4026 33.2067C46.0305 33.1983 45.6814 33.3892 45.4835 33.7094V33.2761H44.812V36.722H45.4827V34.7867C45.4827 34.2121 45.7651 33.8533 46.2251 33.8533C46.3803 33.8597 46.5343 33.8838 46.6842 33.9252L46.8967 33.2787C46.7346 33.2372 46.5687 33.2131 46.4017 33.2067H46.4026ZM43.7871 35.0016V33.2787H43.1155V33.712C42.8681 33.3888 42.5182 33.2093 42.0198 33.2093C41.0658 33.2093 40.3584 33.9634 40.3584 35.0042C40.3584 36.0451 41.065 36.7991 42.0198 36.7991C42.5148 36.7991 42.8681 36.6197 43.1155 36.2964V36.7298H43.7871V35.0016ZM41.0658 35.0016C41.0658 34.3551 41.4549 33.8533 42.1265 33.8533C42.7631 33.8533 43.1505 34.356 43.1505 35.0016C43.1505 35.6837 42.7238 36.15 42.1265 36.15C41.4549 36.1855 41.0658 35.6473 41.0658 35.0016ZM50.6087 35.0016V31.9146H49.9371V33.7094C49.6896 33.3862 49.3397 33.2067 48.8414 33.2067C47.8874 33.2067 47.18 33.9608 47.18 35.0016C47.18 36.0425 47.8865 36.7965 48.8414 36.7965C49.3363 36.7965 49.6896 36.6171 49.9371 36.2938V36.7272H50.6087V35.0016ZM47.8874 35.0016C47.8874 34.3551 48.2765 33.8533 48.9481 33.8533C49.5846 33.8533 49.9721 34.356 49.9721 35.0016C49.9721 35.6837 49.5454 36.15 48.9481 36.15C48.2756 36.1864 47.8865 35.6482 47.8865 35.0016H47.8874Z" fill="white"/>
<path d="M38.1671 7.14697H25.903V27.4634H38.1671V7.14697Z" fill="#EA4917"/>
<path d="M27.1403 17.3053C27.1411 13.3457 28.9246 9.60385 31.9821 7.14706C26.7658 2.98174 19.2736 3.5872 14.7715 8.53789C10.2694 13.4886 10.2694 21.122 14.7715 26.0726C19.2736 31.0233 26.7658 31.6288 31.9821 27.4635C28.9246 25.0067 27.1411 21.2648 27.1403 17.3053Z" fill="#EA4917"/>
<path d="M52.5876 17.3052C52.5911 22.2492 49.8139 26.761 45.4362 28.9234C41.0585 31.0857 35.8493 30.5188 32.0222 27.4634C35.0804 25.0072 36.8642 21.265 36.8642 17.3052C36.8642 13.3454 35.0804 9.60317 32.0222 7.14698C35.8493 4.09159 41.0585 3.52462 45.4362 5.68697C49.8139 7.84933 52.5911 12.3611 52.5876 17.3052Z" fill="#EA4917"/>
</svg>
