<svg width="18" height="18" viewBox="0 0 18 18" fill="none" xmlns="http://www.w3.org/2000/svg">
<path d="M9.42188 0.228271C5.81456 0.228271 2.25 2.63296 2.25 6.5249C2.25 8.9999 3.64219 10.4061 4.48594 10.4061C4.83413 10.4061 5.03437 9.43583 5.03437 9.1619C5.03437 8.83508 4.20131 8.13871 4.20131 6.77802C4.20131 3.95146 6.35287 1.94727 9.13725 1.94727C11.5312 1.94727 13.3031 3.30796 13.3031 5.80771C13.3031 7.67465 12.5544 11.1762 10.1284 11.1762C9.25313 11.1762 8.50387 10.5434 8.50387 9.63665C8.50387 8.30746 9.432 7.02102 9.432 5.64965C9.432 3.32258 6.13069 3.74446 6.13069 6.55696C6.13069 7.14758 6.20437 7.80121 6.46819 8.33952C5.98275 10.4281 4.99162 13.5393 4.99162 15.6908C4.99162 16.3551 5.08669 17.0093 5.14969 17.6736C5.26894 17.8075 5.20931 17.7935 5.39213 17.7265C7.164 15.3005 7.101 14.8263 7.90256 11.6515C8.33512 12.4745 9.45281 12.9171 10.3387 12.9171C14.0721 12.9171 15.7494 9.27833 15.7494 5.9984C15.7494 2.50752 12.7327 0.229396 9.42131 0.229396L9.42188 0.228271Z" fill="#3C3C3C"/>
</svg>
