<svg width="35" height="24" viewBox="0 0 35 24" fill="none" xmlns="http://www.w3.org/2000/svg">
<path d="M26.5981 0C22.4079 0 18.9987 3.40925 18.9987 7.59946C18.9987 11.7897 22.4079 15.1989 26.5981 15.1989C27.6674 15.1989 28.6849 14.974 29.6091 14.5743C28.3202 17.4493 26.326 19.8817 24.0045 21.1448C23.2673 21.5461 22.9945 22.4686 23.3959 23.2065C23.671 23.7126 24.1938 24 24.7326 24C24.9772 24 25.2265 23.9406 25.4576 23.8154C30.5218 21.0597 34.1974 14.2401 34.1974 7.59949C34.1974 3.40928 30.7882 2.65048e-05 26.5979 2.65048e-05L26.5981 0Z" fill="#E1574B"/>
<path d="M7.59946 0C3.40925 0 0 3.40925 0 7.59946C0 11.7897 3.40925 15.1989 7.59946 15.1989C8.66877 15.1989 9.68623 14.9747 10.6104 14.5743C9.32085 17.4493 7.32666 19.8817 5.00583 21.1448C4.26861 21.5461 3.99584 22.4686 4.3972 23.2065C4.67302 23.7126 5.19446 24 5.73392 24C5.97954 24 6.22789 23.9406 6.45893 23.8154C11.5231 21.0597 15.1987 14.2401 15.1987 7.59949C15.1987 3.40928 11.7895 2.65048e-05 7.59928 2.65048e-05L7.59946 0Z" fill="#E1574B"/>
</svg>
