<svg width="15" height="18" viewBox="0 0 15 18" fill="none" xmlns="http://www.w3.org/2000/svg">
<path d="M3.45685 3.45854C2.74185 2.74354 2.74185 1.57938 3.45685 0.864375C4.17185 0.149375 5.33602 0.149375 6.05102 0.864375C6.76602 1.57938 6.76602 2.74354 6.05102 3.45854C5.32685 4.18271 4.17185 4.18271 3.45685 3.45854ZM1.99935 13.166V5.83271C1.99935 5.32854 1.58685 4.91604 1.08268 4.91604C0.578516 4.91604 0.166016 5.32854 0.166016 5.83271V13.166C0.166016 15.696 2.21935 17.7494 4.74935 17.7494H9.33268C9.83685 17.7494 10.2493 17.3369 10.2493 16.8327C10.2493 16.3285 9.83685 15.916 9.33268 15.916H4.74935C3.22768 15.916 1.99935 14.6877 1.99935 13.166ZM14.1727 16.2369L10.7168 12.781C10.3777 12.4419 9.91018 12.2494 9.42435 12.2494H7.04102V8.87604C8.04018 9.69188 9.47935 10.4344 10.891 10.7277C11.5052 10.856 12.0827 10.3977 12.0827 9.77438C12.0827 9.28854 11.7252 8.89438 11.2393 8.81188C9.93768 8.59188 8.59935 7.88604 7.80185 7.00604L6.51852 5.58521C6.34435 5.39271 6.12435 5.23688 5.88601 5.12688C5.62018 4.99854 5.31768 4.91604 5.00602 4.91604H4.97852C3.84185 4.91604 2.91602 5.84188 2.91602 6.97854V12.2494C2.91602 13.771 4.14435 14.9994 5.66602 14.9994H10.3135L12.8618 17.5477C13.2193 17.9052 13.8152 17.9052 14.1727 17.5477C14.5393 17.1902 14.5393 16.6035 14.1727 16.2369Z" fill="#EA4917"/>
</svg>
