<svg width="30" height="30" viewBox="0 0 30 30" fill="none" xmlns="http://www.w3.org/2000/svg">
<path d="M15 0.5C7.05652 0.5 0.5 7.05652 0.5 15C0.5 22.9435 7.05652 29.5 15 29.5C22.9435 29.5 29.5 22.9435 29.5 15C29.5 7.05652 22.9435 0.5 15 0.5ZM21.0522 10.9652V19.287C21.0522 20.2957 20.2957 21.0522 19.287 21.0522H18.5304C17.5217 21.0522 16.7652 20.2957 16.7652 19.287V18.5304C16.7652 17.5217 17.5217 16.7652 18.5304 16.7652H19.9174V11.7217L13.3609 13.7391V21.1783C13.3609 22.187 12.6043 22.9435 11.5957 22.9435H10.713C9.70435 22.9435 8.94783 22.187 8.94783 21.1783V20.4217C8.94783 19.413 9.70435 18.6565 10.713 18.6565H12.1V10.0826C12.1 9.83044 12.2261 9.57826 12.4783 9.45217L20.2957 7.05652C20.4217 7.05652 20.6739 7.05652 20.8 7.18261C20.9261 7.3087 21.0522 7.43478 21.0522 7.68696V10.9652Z" fill="#E4C477"/>
</svg>
