<svg width="28" height="25" viewBox="0 0 28 25" fill="none" xmlns="http://www.w3.org/2000/svg">
<path d="M6.764 24.352C4.68733 24.352 3.026 23.6104 1.78 22.127C0.593333 20.5844 0 18.5967 0 16.164C0 12.8414 0.89 9.84502 2.67 7.17502C4.50933 4.44568 7.298 2.16135 11.036 0.322021L12.015 1.74602C10.235 2.81402 8.60333 4.32702 7.12 6.28502C5.696 8.18369 4.984 10.112 4.984 12.07C4.984 12.604 5.13233 13.049 5.429 13.405C5.72567 13.7017 6.17067 13.85 6.764 13.85C8.24733 13.85 9.49333 14.384 10.502 15.452C11.57 16.4607 12.104 17.7067 12.104 19.19C12.104 20.6734 11.57 21.9194 10.502 22.928C9.49333 23.8774 8.24733 24.352 6.764 24.352ZM22.161 24.352C20.0843 24.352 18.423 23.6104 17.177 22.127C15.9903 20.5844 15.397 18.5967 15.397 16.164C15.397 12.8414 16.287 9.84502 18.067 7.17502C19.9063 4.44568 22.695 2.16135 26.433 0.322021L27.412 1.74602C25.632 2.81402 24.0003 4.32702 22.517 6.28502C21.093 8.18369 20.381 10.112 20.381 12.07C20.381 12.604 20.5293 13.049 20.826 13.405C21.1227 13.7017 21.5677 13.85 22.161 13.85C23.6443 13.85 24.8903 14.384 25.899 15.452C26.967 16.4607 27.501 17.7067 27.501 19.19C27.501 20.6734 26.967 21.9194 25.899 22.928C24.8903 23.8774 23.6443 24.352 22.161 24.352Z" fill="#CBCBCB"/>
</svg>
