<svg width="8" height="7" viewBox="0 0 8 7" fill="none" xmlns="http://www.w3.org/2000/svg">
<path d="M7.79343 0.184008C7.85682 0.24441 7.9077 0.316709 7.94315 0.396775C7.9786 0.476842 7.99792 0.563108 8.00003 0.650646C8.00213 0.738184 7.98697 0.825279 7.95541 0.906957C7.92385 0.988635 7.87651 1.0633 7.81609 1.12667L2.88943 6.30001L0.184092 3.46001C0.0620926 3.332 -0.00405793 3.16076 0.000192901 2.98398C0.00444373 2.8072 0.0787476 2.63934 0.206759 2.51734C0.33477 2.39534 0.506002 2.32919 0.682787 2.33344C0.859571 2.33769 1.02743 2.412 1.14943 2.54001L2.88943 4.36667L6.85076 0.206675C6.91116 0.143279 6.98346 0.0924036 7.06353 0.0569541C7.14359 0.0215045 7.22986 0.00217546 7.3174 7.05844e-05C7.40493 -0.00203429 7.49203 0.0131263 7.57371 0.0446867C7.65539 0.076247 7.73005 0.123589 7.79343 0.184008Z" fill="#EA4917"/>
</svg>
