<svg width="14" height="13" viewBox="0 0 14 13" fill="none" xmlns="http://www.w3.org/2000/svg">
<path d="M12.8482 4.76999L11.9362 2.03399C11.8039 1.63564 11.5494 1.28912 11.2089 1.04366C10.8684 0.7982 10.4592 0.666284 10.0395 0.666657H3.96083C3.54109 0.666284 3.13191 0.7982 2.79142 1.04366C2.45093 1.28912 2.19646 1.63564 2.06416 2.03399L1.15216 4.76999C0.909644 4.87147 0.702536 5.04237 0.556874 5.26122C0.411212 5.48007 0.333496 5.7371 0.333496 5.99999V9.33332C0.333496 9.82532 0.602829 10.2507 1.00016 10.482V12C1.00016 12.1768 1.0704 12.3464 1.19542 12.4714C1.32045 12.5964 1.49002 12.6667 1.66683 12.6667H2.3335C2.51031 12.6667 2.67988 12.5964 2.8049 12.4714C2.92992 12.3464 3.00016 12.1768 3.00016 12V10.6667H11.0002V12C11.0002 12.1768 11.0704 12.3464 11.1954 12.4714C11.3204 12.5964 11.49 12.6667 11.6668 12.6667H12.3335C12.5103 12.6667 12.6799 12.5964 12.8049 12.4714C12.9299 12.3464 13.0002 12.1768 13.0002 12V10.482C13.2024 10.366 13.3705 10.1987 13.4876 9.99709C13.6046 9.79543 13.6664 9.56649 13.6668 9.33332V5.99999C13.6668 5.7371 13.5891 5.48007 13.4434 5.26122C13.2978 5.04237 13.0907 4.87147 12.8482 4.76999ZM3.96083 1.99999H10.0388C10.3262 1.99999 10.5808 2.18266 10.6715 2.45599L11.4088 4.66666H2.5915L3.32816 2.45599C3.3724 2.32319 3.45731 2.20767 3.57086 2.12583C3.68442 2.04398 3.82085 1.99996 3.96083 1.99999ZM2.66683 8.66666C2.53546 8.66661 2.40539 8.6407 2.28404 8.59038C2.16269 8.54007 2.05244 8.46635 1.95958 8.37343C1.86673 8.28051 1.79308 8.17021 1.74285 8.04883C1.69262 7.92744 1.66679 7.79736 1.66683 7.66599C1.66687 7.53462 1.69279 7.40455 1.7431 7.28321C1.79341 7.16186 1.86714 7.0516 1.96006 6.95875C2.05298 6.86589 2.16328 6.79224 2.28466 6.74201C2.40604 6.69178 2.53613 6.66595 2.6675 6.66599C2.9328 6.66608 3.1872 6.77156 3.37474 6.95922C3.56228 7.14688 3.66758 7.40135 3.6675 7.66666C3.66741 7.93196 3.56193 8.18637 3.37427 8.3739C3.18661 8.56144 2.93213 8.66675 2.66683 8.66666ZM11.3335 8.66666C11.2021 8.66661 11.0721 8.6407 10.9507 8.59038C10.8294 8.54007 10.7191 8.46635 10.6263 8.37343C10.5334 8.28051 10.4597 8.17021 10.4095 8.04883C10.3593 7.92744 10.3335 7.79736 10.3335 7.66599C10.3335 7.53462 10.3595 7.40455 10.4098 7.28321C10.4601 7.16186 10.5338 7.0516 10.6267 6.95875C10.7196 6.86589 10.8299 6.79224 10.9513 6.74201C11.0727 6.69178 11.2028 6.66595 11.3342 6.66599C11.5995 6.66608 11.8539 6.77156 12.0414 6.95922C12.2289 7.14688 12.3343 7.40135 12.3342 7.66666C12.3341 7.93196 12.2286 8.18637 12.0409 8.3739C11.8533 8.56144 11.5988 8.66675 11.3335 8.66666Z" fill="black"/>
</svg>
