<svg width="62" height="41" viewBox="0 0 62 41" fill="none" xmlns="http://www.w3.org/2000/svg">
<path d="M0 3.48728C0 1.61093 1.48092 0.0898438 3.306 0.0898438H58.694C60.5199 0.0898438 62 1.61056 62 3.48728V36.6924C62 38.5688 60.5191 40.0898 58.694 40.0898H3.306C1.48015 40.0898 0 38.5691 0 36.6924V3.48728ZM43.3597 12.2077C42.4857 11.8709 41.1165 11.5094 39.4063 11.5094C35.0478 11.5094 31.9776 13.7643 31.9515 16.996C31.9269 19.3848 34.1433 20.7175 35.8164 21.5127C37.5334 22.3276 38.1106 22.8473 38.1024 23.575C38.0915 24.6894 36.7313 25.1985 35.4635 25.1985C33.6979 25.1985 32.76 24.9465 31.3114 24.3258L30.743 24.0615L30.1239 27.7833C31.1542 28.2473 33.0594 28.6495 35.0375 28.6703C39.6742 28.6703 42.6842 26.4412 42.7185 22.9903C42.7351 21.0991 41.5599 19.6597 39.0151 18.4732C37.4733 17.7042 36.529 17.1909 36.539 16.4122C36.539 15.7211 37.3383 14.9822 39.0651 14.9822C40.5075 14.9592 41.5524 15.2823 42.3665 15.6191L42.7618 15.811L43.3597 12.2077ZM54.6707 11.8142H51.2623C50.2064 11.8142 49.4163 12.1103 48.9525 13.1929L42.4016 28.4288H47.0335C47.0335 28.4288 47.7909 26.3802 47.9622 25.9305C48.4683 25.9305 52.968 25.9376 53.6113 25.9376C53.7432 26.5196 54.1479 28.4288 54.1479 28.4288H58.2409L54.6707 11.8142ZM49.2315 22.53C49.5963 21.5721 50.9889 17.8826 50.9889 17.8826C50.9629 17.9268 51.351 16.92 51.5738 16.2958L51.872 17.7292C51.872 17.7292 52.7166 21.6977 52.8931 22.5299H49.2315V22.53ZM22.9524 28.4236H27.3616L30.1213 11.7983H25.7103L22.9524 28.4236ZM14.474 20.8429L12.9275 13.2038C12.6605 12.151 11.8861 11.8369 10.9281 11.8002H3.81536L3.75906 12.1461C5.48927 12.5764 7.03646 13.1973 8.39239 13.9696L12.314 28.4092L16.9809 28.4037L23.9253 11.8105H19.2529L14.9344 23.1476L14.4742 20.8437C14.4741 20.8434 14.4741 20.8431 14.474 20.8429Z" fill="#393939"/>
</svg>
