<svg width="48" height="14" viewBox="0 0 48 14" fill="none" xmlns="http://www.w3.org/2000/svg">
<path d="M17.3558 13.54L19.7567 1.05715H23.5954L21.1938 13.54H17.3558ZM35.0453 1.33099C33.9437 0.977313 32.78 0.799841 31.6083 0.80684C27.8199 0.80684 25.1511 2.49778 25.1281 4.92175C25.1073 6.7133 27.0338 7.71254 28.4882 8.30866C29.9807 8.92007 30.4823 9.30984 30.4751 9.85565C30.4658 10.6912 29.283 11.0727 28.1814 11.0727C26.6465 11.0727 25.8316 10.8817 24.5719 10.4187L24.0783 10.2206L23.54 13.0114C24.4354 13.3592 26.0917 13.661 27.8106 13.6763C31.8412 13.6763 34.4575 12.0051 34.4877 9.41683C34.5021 7.9985 33.4817 6.91899 31.2684 6.02926C29.9283 5.45607 29.1076 5.06757 29.1163 4.48355C29.1163 3.96577 29.8111 3.41171 31.3123 3.41171C32.2958 3.39219 33.2731 3.55489 34.1816 3.88937L34.5251 4.03329L35.0453 1.33099ZM44.9072 1.05715H41.9538C41.0391 1.05715 40.3542 1.27879 39.9526 2.08763L34.2757 13.4763H38.3163C38.3163 13.4763 38.9631 11.9618 39.1118 11.6294L43.953 11.6345C44.0658 12.065 44.4128 13.4763 44.4128 13.4763H48L44.9072 1.05715ZM40.2113 9.08185C40.5281 8.36344 41.739 5.59682 41.739 5.59682C41.716 5.62994 42.0537 4.8746 42.247 4.40649L42.5064 5.48157C42.5064 5.48157 43.2408 8.4577 43.3939 9.08185H40.2113ZM14.0985 1.05715L10.3532 9.53976L9.9544 7.81573C9.25737 5.82867 7.08508 3.67601 4.65625 2.59841L8.08105 13.4763L12.1281 13.4725L18.1506 1.05715H14.0798" fill="url(#paint0_linear_262_3132)"/>
<path d="M6.68911 1.05724H0.532977L0.483398 1.31644C5.29362 2.34882 8.47622 4.84286 9.7977 7.83874L8.45323 2.10682C8.22113 1.31772 7.54855 1.08207 6.71571 1.05469" fill="url(#paint1_linear_262_3132)"/>
<defs>
<linearGradient id="paint0_linear_262_3132" x1="4.65625" y1="7.24148" x2="48" y2="7.24148" gradientUnits="userSpaceOnUse">
<stop stop-color="#F6A23D"/>
<stop offset="1" stop-color="#EC5934"/>
</linearGradient>
<linearGradient id="paint1_linear_262_3132" x1="0.483398" y1="4.44672" x2="9.7977" y2="4.44672" gradientUnits="userSpaceOnUse">
<stop stop-color="#F6A23D"/>
<stop offset="1" stop-color="#EC5934"/>
</linearGradient>
</defs>
</svg>
