<svg width="18" height="19" viewBox="0 0 18 19" fill="none" xmlns="http://www.w3.org/2000/svg">
<path d="M2.20301 4.79617L0.962613 4.22887C0.867746 4.18783 0.820312 4.11155 0.820312 4.00002C0.820312 3.88848 0.867746 3.8122 0.962613 3.77117L2.20301 3.20387L2.77031 1.96347C2.81133 1.8686 2.88761 1.82117 2.99916 1.82117C3.1107 1.82117 3.18698 1.8686 3.22801 1.96347L3.79531 3.20387L5.03569 3.77117C5.13057 3.8122 5.17801 3.88848 5.17801 4.00002C5.17801 4.11155 5.13057 4.18783 5.03569 4.22887L3.79531 4.79617L3.22801 6.03657C3.18698 6.13143 3.1107 6.17887 2.99916 6.17887C2.88761 6.17887 2.81133 6.13143 2.77031 6.03657L2.20301 4.79617ZM14.028 2.47117L13.4819 2.22309C13.387 2.18208 13.3395 2.10772 13.3395 2.00002C13.3395 1.89232 13.387 1.81796 13.4819 1.77694L14.028 1.52887L14.2761 0.963467C14.3171 0.8686 14.3915 0.821167 14.4992 0.821167C14.6069 0.821167 14.6812 0.8686 14.7222 0.963467L14.9896 1.52887L15.5357 1.77694C15.6306 1.81796 15.678 1.89232 15.678 2.00002C15.678 2.10772 15.6306 2.18208 15.5357 2.22309L14.9896 2.47117L14.7222 3.03657C14.6812 3.13143 14.6069 3.17887 14.4992 3.17887C14.3915 3.17887 14.3171 3.13143 14.2761 3.03657L14.028 2.47117ZM15.5665 6.47117L15.0011 6.22309C14.9062 6.18208 14.8588 6.10772 14.8588 6.00002C14.8588 5.89232 14.9062 5.81796 15.0011 5.77694L15.5665 5.52887L15.8146 4.96347C15.8556 4.8686 15.9299 4.82117 16.0376 4.82117C16.1453 4.82117 16.2197 4.8686 16.2607 4.96347L16.5088 5.52887L17.0549 5.77694C17.1498 5.81796 17.1972 5.89232 17.1972 6.00002C17.1972 6.10772 17.1498 6.18208 17.0549 6.22309L16.5088 6.47117L16.2607 7.03657C16.2197 7.13143 16.1453 7.17887 16.0376 7.17887C15.9299 7.17887 15.8556 7.13143 15.8146 7.03657L15.5665 6.47117ZM8.99916 11C8.43506 11 7.9607 10.8077 7.57609 10.4231C7.19147 10.0385 6.99916 9.56412 6.99916 9.00002V3.00002C6.99916 2.43592 7.19147 1.96156 7.57609 1.57694C7.9607 1.19233 8.43506 1.00002 8.99916 1.00002C9.56326 1.00002 10.0376 1.19233 10.4222 1.57694C10.8069 1.96156 10.9992 2.43592 10.9992 3.00002V9.00002C10.9992 9.56412 10.8069 10.0385 10.4222 10.4231C10.0376 10.8077 9.56326 11 8.99916 11ZM8.99916 10C9.2825 10 9.52 9.90418 9.71166 9.71252C9.90333 9.52085 9.99916 9.28335 9.99916 9.00002V3.00002C9.99916 2.71668 9.90333 2.47918 9.71166 2.28752C9.52 2.09585 9.2825 2.00002 8.99916 2.00002C8.71583 2.00002 8.47833 2.09585 8.28666 2.28752C8.095 2.47918 7.99916 2.71668 7.99916 3.00002V9.00002C7.99916 9.28335 8.095 9.52085 8.28666 9.71252C8.47833 9.90418 8.71583 10 8.99916 10ZM8.99916 18.5C8.85685 18.5 8.73794 18.4523 8.64244 18.3567C8.54692 18.2612 8.49916 18.1423 8.49916 18V14.9827C7.02608 14.843 5.77351 14.2603 4.74146 13.2346C3.70941 12.209 3.13441 10.9699 3.01646 9.51732C3.00493 9.37502 3.04788 9.25323 3.14531 9.15194C3.24275 9.05066 3.36839 9.00002 3.52224 9.00002C3.64019 9.00002 3.74595 9.04585 3.83954 9.13752C3.93314 9.22918 3.99211 9.34233 4.01646 9.47694C4.13058 10.7462 4.6652 11.8173 5.62031 12.6904C6.57545 13.5635 7.70173 14 8.99916 14C10.2966 14 11.4229 13.5635 12.378 12.6904C13.3331 11.8173 13.8677 10.7462 13.9819 9.47694C14.0062 9.34233 14.0629 9.22918 14.152 9.13752C14.2412 9.04585 14.3511 9.00002 14.4819 9.00002C14.6319 9.00002 14.7556 9.05066 14.853 9.15194C14.9504 9.25323 14.9934 9.37502 14.9819 9.51732C14.8639 10.9699 14.2889 12.209 13.2569 13.2346C12.2248 14.2603 10.9722 14.843 9.49916 14.9827V18C9.49916 18.1423 9.4514 18.2612 9.35589 18.3567C9.26039 18.4523 9.14148 18.5 8.99916 18.5Z" fill="#A1A1A2"/>
</svg>
