<svg width="182" height="29" viewBox="0 0 182 29" fill="none" xmlns="http://www.w3.org/2000/svg">
<path d="M44.3527 22.4483H49.1566V15.3716L55.0416 5.24695H49.6372L46.7789 10.5901L43.9193 5.24695H38.3951L44.3527 15.5716V22.4483Z" fill="white"/>
<path d="M71.2826 7.48847C70.4481 6.68872 69.4654 6.06853 68.3332 5.62918C67.2009 5.18983 65.9614 4.96951 64.6132 4.96951C63.2649 4.96951 62.0254 5.18983 60.8931 5.62918C59.7609 6.06981 58.7782 6.68872 57.9437 7.48847C57.1092 8.28823 56.4626 9.22424 56.0051 10.2952C55.5476 11.3675 55.3188 12.543 55.3188 13.8228C55.3188 15.1027 55.5514 16.2628 56.0166 17.3504C56.4818 18.4379 57.136 19.3816 57.9795 20.1813C58.8216 20.9811 59.8095 21.6051 60.9404 22.0534C62.0726 22.5004 63.3122 22.7258 64.6604 22.7258C66.0086 22.7258 67.2201 22.5055 68.3447 22.0661C69.468 21.6267 70.4469 21.0027 71.2826 20.1941C72.1171 19.3867 72.7637 18.443 73.2212 17.3631C73.6787 16.2832 73.9075 15.1116 73.9075 13.8483C73.9075 12.585 73.6787 11.3892 73.2212 10.3093C72.7637 9.22933 72.1171 8.2895 71.2826 7.48975V7.48847ZM68.4661 16.2947C68.1134 16.9989 67.6073 17.5427 66.9492 17.926C66.2911 18.3093 65.5128 18.5016 64.6132 18.5016C63.9384 18.5016 63.3327 18.3934 62.7947 18.1781C62.2567 17.9616 61.7953 17.6509 61.4107 17.2421C61.026 16.8346 60.7321 16.3418 60.5315 15.7662C60.3308 15.1905 60.2299 14.5423 60.2299 13.8228C60.2299 12.8792 60.4062 12.059 60.7589 11.3637C61.1117 10.6684 61.6177 10.1322 62.2758 9.75656C62.934 9.38088 63.7122 9.1924 64.6119 9.1924C65.2866 9.1924 65.8911 9.30065 66.4291 9.51587C66.9671 9.73236 67.4284 10.0444 67.8131 10.4519C68.1977 10.8594 68.4904 11.3484 68.6923 11.9151C68.8929 12.4831 68.9939 13.1186 68.9939 13.8228C68.9939 14.7665 68.8175 15.5904 68.4635 16.2947H68.4661Z" fill="white"/>
<path d="M86.5455 15.918C86.5455 16.4651 86.433 16.9277 86.208 17.3057C85.983 17.6837 85.6737 17.9733 85.2812 18.1744C84.8875 18.3756 84.4337 18.4768 83.9198 18.4768C83.4059 18.4768 82.9688 18.3769 82.5584 18.1744C82.1494 17.9733 81.8234 17.6798 81.5831 17.2929C81.3427 16.9072 81.2213 16.4395 81.2213 15.8924V5.24695H76.4046V15.4593C76.4046 16.8751 76.7178 18.1309 77.3442 19.2251C77.9705 20.3194 78.8449 21.1766 79.9698 21.7968C81.0935 22.417 82.4101 22.7258 83.9198 22.7258C85.4295 22.7258 86.7411 22.4157 87.8583 21.7968C88.9743 21.1779 89.841 20.3245 90.4597 19.2379C91.0771 18.1514 91.3865 16.9008 91.3865 15.4836V5.24695H86.5455V15.918Z" fill="white"/>
<path d="M99.5286 15.587H99.5951L103.957 22.4484H109.42L104.405 15.2831C104.738 15.1883 105.056 15.0741 105.353 14.9344C106.283 14.4997 107.01 13.8958 107.531 13.1226C108.052 12.3494 108.313 11.4479 108.313 10.417C108.313 9.38608 108.056 8.48466 107.543 7.71146C107.029 6.93827 106.323 6.33433 105.425 5.89964C104.525 5.46496 103.483 5.24698 102.297 5.24698H94.7157V22.4484H99.5286V15.587ZM101.526 8.72572C102.184 8.72572 102.685 8.88729 103.031 9.20913C103.376 9.53097 103.548 9.95796 103.548 10.4901C103.548 11.0222 103.376 11.4479 103.031 11.7711C102.686 12.0929 102.184 12.2545 101.526 12.2545H99.5286V8.72572H101.526Z" fill="white"/>
<path d="M117.081 9.04918C117.376 8.88911 117.77 8.80843 118.266 8.80843C118.888 8.80843 119.461 8.93265 119.988 9.18236C120.514 9.43207 121.04 9.81367 121.566 10.3285L124.58 7.31274C123.862 6.55721 122.957 5.97327 121.866 5.56349C120.773 5.15371 119.59 4.94882 118.314 4.94882C117.038 4.94882 115.898 5.16268 114.941 5.58782C113.984 6.01425 113.242 6.62892 112.717 7.43311C112.19 8.2373 111.927 9.19388 111.927 10.3041C111.927 11.157 112.071 11.8767 112.358 12.4632C112.645 13.0509 113.023 13.5414 113.494 13.9345C113.963 14.3289 114.478 14.6619 115.036 14.9359C115.593 15.21 116.156 15.443 116.722 15.6351C117.288 15.8285 117.806 16.018 118.277 16.2024C118.747 16.3881 119.126 16.5968 119.413 16.8299C119.7 17.0629 119.843 17.3575 119.843 17.7109C119.843 18.0643 119.676 18.3422 119.341 18.5433C119.006 18.7443 118.512 18.8455 117.858 18.8455C117.076 18.8455 116.344 18.6892 115.658 18.3755C114.973 18.0618 114.319 17.6072 113.697 17.0117L110.707 20.0274C111.616 20.961 112.609 21.6396 113.685 22.0661C114.762 22.4925 116.025 22.7051 117.476 22.7051C119.724 22.7051 121.466 22.2261 122.702 21.2696C123.937 20.313 124.555 18.9569 124.555 17.2038C124.555 16.3356 124.412 15.5954 124.125 14.9846C123.838 14.3737 123.459 13.8628 122.989 13.453C122.518 13.0432 122.004 12.7052 121.447 12.4401C120.888 12.175 120.326 11.9458 119.761 11.7524C119.195 11.5591 118.677 11.3747 118.206 11.198C117.735 11.0212 117.357 10.824 117.07 10.6063C116.783 10.3886 116.639 10.112 116.639 9.77398C116.639 9.43591 116.787 9.21053 117.082 9.05046L117.081 9.04918Z" fill="#141416" stroke="white" stroke-width="0.5"/>
<path d="M141.692 7.46778C140.87 6.66803 139.902 6.04784 138.787 5.60849C137.672 5.16913 136.45 4.94882 135.122 4.94882C133.794 4.94882 132.573 5.16913 131.458 5.60849C130.343 6.04912 129.375 6.66803 128.552 7.46778C127.73 8.26753 127.093 9.20355 126.643 10.2746C126.192 11.3468 125.967 12.5223 125.967 13.8021C125.967 15.082 126.196 16.2421 126.654 17.3297C127.112 18.4172 127.757 19.3609 128.588 20.1606C129.417 20.9604 130.39 21.5844 131.504 22.0327C132.62 22.4797 133.841 22.7051 135.169 22.7051C136.497 22.7051 137.69 22.4848 138.798 22.0454C139.905 21.6061 140.869 20.982 141.692 20.1734C142.514 19.366 143.151 18.4223 143.602 17.3424C144.053 16.2625 144.278 15.0909 144.278 13.8276C144.278 12.5643 144.053 11.3685 143.602 10.2886C143.151 9.20864 142.514 8.26881 141.692 7.46906V7.46778ZM138.918 16.274C138.57 16.9782 138.072 17.522 137.424 17.9053C136.775 18.2886 136.009 18.4809 135.122 18.4809C134.458 18.4809 133.861 18.3727 133.331 18.1574C132.801 17.941 132.347 17.6302 131.968 17.2214C131.589 16.8139 131.299 16.3211 131.102 15.7455C130.904 15.1698 130.805 14.5216 130.805 13.8021C130.805 12.8585 130.978 12.0383 131.326 11.343C131.673 10.6477 132.172 10.1115 132.82 9.73587C133.468 9.36019 134.235 9.17171 135.121 9.17171C135.786 9.17171 136.381 9.27996 136.911 9.49518C137.441 9.71167 137.896 10.0237 138.275 10.4312C138.653 10.8387 138.942 11.3277 139.141 11.8944C139.338 12.4624 139.438 13.0979 139.438 13.8021C139.438 14.7458 139.264 15.5697 138.915 16.274H138.918Z" fill="#141416" stroke="white" stroke-width="0.5"/>
<path d="M156.901 14.3341L149.619 5.22629H146.22V22.4277H151.076V13.6237L158.115 22.4277H161.757V5.22629H156.901V14.3341Z" fill="#141416" stroke="white" stroke-width="0.5"/>
<path d="M172.335 12.2833L172.334 16.1427L176.591 16.2733C176.558 16.3514 176.524 16.4295 176.486 16.5051C176.176 17.1325 175.728 17.6152 175.141 17.952C174.554 18.29 173.833 18.459 172.975 18.459C172.118 18.459 171.31 18.2657 170.644 17.8803C169.978 17.4949 169.459 16.9519 169.086 16.2515C168.713 15.5524 168.527 14.7354 168.527 13.8033C168.527 12.8711 168.729 12.058 169.133 11.3665C169.537 10.6751 170.08 10.1398 170.763 9.7621C171.445 9.38437 172.206 9.19486 173.047 9.19486C173.935 9.19486 174.697 9.36388 175.332 9.70192C175.966 10.04 176.577 10.5547 177.164 11.2462L180.376 7.98865C179.599 7.05647 178.588 6.31636 177.343 5.7696C176.098 5.22284 174.69 4.94882 173.121 4.94882C171.82 4.94882 170.599 5.17034 169.456 5.61211C168.314 6.05515 167.311 6.67361 166.447 7.47006C165.582 8.26652 164.909 9.20382 164.425 10.2807C163.941 11.3588 163.699 12.5407 163.699 13.8276C163.699 15.1145 163.929 16.272 164.388 17.3502C164.848 18.4283 165.495 19.3682 166.328 20.1723C167.16 20.9764 168.136 21.6 169.254 22.0418C170.373 22.4836 171.589 22.7051 172.906 22.7051C174.666 22.7051 176.209 22.3273 177.534 21.5706C178.859 20.8151 179.889 19.7126 180.627 18.2657C181.364 16.8188 181.733 15.0658 181.733 13.0068V12.2833H172.335Z" fill="#141416" stroke="white" stroke-width="0.5"/>
<path d="M20.917 24.5845C31.4869 19.1803 33.4837 15.9915 33.4837 14.0047C33.4837 12.0178 31.0498 8.34221 20.917 3.37515C7.26979 -3.31465 0.999035 -0.201135 0.999034 14.0047C0.999034 28.2105 7.70458 31.3397 20.917 24.5845Z" fill="white"/>
<mask id="mask0_49_22" style="mask-type:alpha" maskUnits="userSpaceOnUse" x="0" y="-1" width="34" height="30">
<path d="M20.917 24.5845C31.4869 19.1803 33.4837 15.9915 33.4837 14.0047C33.4837 12.0178 31.0498 8.34221 20.917 3.37515C7.26979 -3.31465 0.999035 -0.201135 0.999034 14.0047C0.999034 28.2105 7.70458 31.3397 20.917 24.5845Z" fill="white" stroke="black" stroke-width="0.113533"/>
</mask>
<g mask="url(#mask0_49_22)">
<rect width="5.18937" height="15.8235" transform="matrix(-0.89831 0.439363 -0.439364 -0.898309 36.2646 18.5298)" fill="white"/>
<rect width="5.18937" height="15.8235" transform="matrix(-0.89831 0.439363 -0.439364 -0.898309 31.6032 20.8098)" fill="white"/>
<rect width="5.18937" height="15.8235" transform="matrix(-0.89831 0.439363 -0.439364 -0.898309 26.9414 23.0897)" fill="white"/>
<rect width="2.59468" height="10.381" rx="0.454132" transform="matrix(-0.89831 0.439363 -0.439364 -0.898309 28.1068 22.5201)" fill="black" stroke="black" stroke-width="0.205112"/>
<rect width="2.59468" height="10.381" rx="0.454132" transform="matrix(-0.89831 0.439363 -0.439364 -0.898309 32.7682 20.2397)" fill="black" stroke="black" stroke-width="0.205112"/>
<rect width="5.18937" height="15.8235" transform="matrix(-0.89831 0.439363 -0.439364 -0.898309 22.2841 25.3678)" fill="white"/>
<rect width="5.18937" height="15.8235" transform="matrix(-0.89831 0.439363 -0.439364 -0.898309 17.6223 27.6477)" fill="white"/>
<rect width="5.18937" height="15.8235" transform="matrix(-0.89831 0.439363 -0.439364 -0.898309 12.9609 29.9276)" fill="white"/>
<rect width="5.18937" height="15.8235" transform="matrix(-0.89831 0.439363 -0.439364 -0.898309 8.30365 32.2057)" fill="white"/>
<rect width="2.59468" height="10.381" rx="0.454132" transform="matrix(-0.89831 0.439363 -0.439364 -0.898309 14.1259 29.3575)" fill="black" stroke="black" stroke-width="0.205112"/>
<rect width="2.59468" height="10.381" rx="0.454132" transform="matrix(-0.89831 0.439363 -0.439364 -0.898309 9.46866 31.6356)" fill="black" stroke="black" stroke-width="0.205112"/>
<rect width="2.59468" height="10.381" rx="0.454132" transform="matrix(-0.89831 0.439363 -0.439364 -0.898309 18.7878 27.0776)" fill="black" stroke="black" stroke-width="0.205112"/>
</g>
</svg>
