<svg width="233" height="284" viewBox="0 0 233 284" fill="none" xmlns="http://www.w3.org/2000/svg">
<path d="M150.615 131.664C200.759 103.433 209.814 87.5914 209.431 77.9611C209.047 68.3307 196.552 50.9835 146.525 28.8599C79.1473 -0.936897 49.381 15.3627 52.1204 84.2196C54.8599 153.077 87.9357 166.952 150.615 131.664Z" fill="#4F9B8F"/>
<path d="M194.335 112.473C173.92 82.2116 163.441 77.2967 157.371 78.0315C151.302 78.7663 140.972 87.5539 129.543 120.317C114.148 164.443 125.977 182.43 169.374 177.176C212.771 171.923 219.853 150.3 194.335 112.473Z" fill="#E4C477"/>
<path d="M121.421 121.181C63.725 126.248 48.8465 137.014 45.1999 146.003C41.5533 154.992 45.8082 176.085 82.4927 217.138C131.9 272.429 165.959 269.842 192.033 205.571C218.107 141.3 193.54 114.846 121.421 121.181Z" stroke="#E1574B"/>
</svg>
