<svg width="20" height="18" viewBox="0 0 20 18" fill="none" xmlns="http://www.w3.org/2000/svg">
<path d="M20 2.79919C19.2645 3.1251 18.4744 3.3453 17.6438 3.44484C18.5008 2.93201 19.142 2.12489 19.4477 1.17407C18.6425 1.65235 17.7612 1.989 16.8422 2.1694C16.2242 1.50954 15.4057 1.07218 14.5136 0.92521C13.6216 0.778242 12.706 0.929894 11.909 1.35662C11.1119 1.78335 10.4781 2.46127 10.1058 3.28515C9.73358 4.10902 9.64374 5.03275 9.85026 5.91291C8.2187 5.83099 6.62259 5.40692 5.16553 4.66822C3.70847 3.92952 2.42301 2.8927 1.39258 1.62505C1.04025 2.23282 0.837664 2.93748 0.837664 3.68795C0.837271 4.36354 1.00364 5.02878 1.32201 5.62465C1.64038 6.22052 2.10091 6.72859 2.66273 7.10379C2.01117 7.08306 1.37397 6.907 0.804193 6.59027V6.64312C0.804127 7.59066 1.13189 8.50904 1.73186 9.24243C2.33184 9.97583 3.16707 10.4791 4.09583 10.6667C3.4914 10.8303 2.85769 10.8544 2.24258 10.7372C2.50462 11.5525 3.01506 12.2655 3.70243 12.7762C4.3898 13.287 5.21969 13.5701 6.07593 13.5858C4.62242 14.7268 2.82735 15.3458 0.979477 15.343C0.652146 15.3431 0.325091 15.324 0 15.2858C1.87569 16.4918 4.05914 17.1318 6.28909 17.1294C13.8378 17.1294 17.9644 10.8773 17.9644 5.45488C17.9644 5.27872 17.96 5.10079 17.9521 4.92463C18.7548 4.34414 19.4476 3.62531 19.9982 2.80183L20 2.79919Z" fill="white"/>
</svg>
