<svg width="20" height="10" viewBox="0 0 20 10" fill="none" xmlns="http://www.w3.org/2000/svg">
<path d="M12.0732 0.390259C10.0213 0.390259 9.07317 1.56709 8.68293 2.26831V9.60977H17.6098C18.3354 9.60977 20 9.01221 20 7.00001C20 5.14331 18.3018 4.2927 17.4634 4.2927C16.6982 4.2927 16.3659 4.58538 16.3659 4.58538C16.3659 4.58538 16.2988 0.390259 12.0732 0.390259ZM6.36585 2.07318C6.18598 2.07318 6.00915 2.07318 5.85366 2.09758V9.60977H6.87805V2.09758C6.71341 2.07318 6.55183 2.07318 6.36585 2.07318ZM5.31707 2.24392C5.04573 2.35062 4.82622 2.49392 4.63415 2.65855V9.60977H5.31707V2.24392ZM7.41463 2.24392V9.60977H8.46341V2.75611C8.45427 2.7805 8.43902 2.7805 8.43902 2.7805C8.43902 2.7805 8.07317 2.45733 7.41463 2.24392ZM3.78049 4.00001C3.69512 4.26831 3.65854 4.46343 3.65854 4.46343C3.65854 4.46343 3.18902 4.39636 2.58537 4.46343V9.60977H3.78049V4.00001ZM1.41463 4.75611C0.658537 5.09757 0 5.7805 0 7.09757C0 8.37196 0.707317 9.0244 1.41463 9.34147V4.75611Z" fill="white"/>
</svg>
