<svg width="20" height="20" viewBox="0 0 20 20" fill="none" xmlns="http://www.w3.org/2000/svg">
<path d="M5.83203 0C2.61643 0 0 2.61797 0 5.83436V14.1672C0 17.3832 2.61797 20 5.83437 20H14.1672C17.3832 20 20 17.382 20 14.1656V5.83202C20 2.61643 17.382 0 14.1656 0H5.83203ZM16 3.19999C16.4416 3.19999 16.8 3.55839 16.8 3.99999C16.8 4.44159 16.4416 4.79999 16 4.79999C15.5584 4.79999 15.2 4.44159 15.2 3.99999C15.2 3.55839 15.5584 3.19999 16 3.19999ZM10 4.79999C12.868 4.79999 15.2 7.13199 15.2 9.99998C15.2 12.868 12.8676 15.2 10 15.2C7.132 15.2 4.8 12.8676 4.8 9.99998C4.8 7.13239 7.132 4.79999 10 4.79999ZM10 6.39999C8.0116 6.39999 6.4 8.01158 6.4 9.99998C6.4 11.9884 8.0116 13.6 10 13.6C11.9884 13.6 13.6 11.9884 13.6 9.99998C13.6 8.01158 11.9884 6.39999 10 6.39999Z" fill="white"/>
</svg>
