<svg width="20" height="20" viewBox="0 0 20 20" fill="none" xmlns="http://www.w3.org/2000/svg">
<path d="M10 0C4.46214 0 0 4.46214 0 10C0 15.5379 4.46214 20 10 20C15.5379 20 20 15.5379 20 10C20 4.46214 15.5379 0 10 0ZM14.0775 14.6935C13.9243 14.6935 13.768 14.6154 13.6148 14.5373C12.1544 13.6929 10.3846 13.2302 8.46154 13.2302C7.38582 13.2302 6.30709 13.3834 5.30649 13.6148C5.15325 13.6148 4.92188 13.6929 4.84675 13.6929C4.46214 13.6929 4.23077 13.3834 4.23077 13.0769C4.23077 12.6923 4.46214 12.4609 4.76863 12.3858C6.0006 12.0763 7.22957 11.9231 8.53966 11.9231C10.6911 11.9231 12.6923 12.4609 14.384 13.4615C14.6154 13.6148 14.7686 13.768 14.7686 14.1526C14.6935 14.4621 14.384 14.6935 14.0775 14.6935ZM15.1532 12.0763C14.9219 12.0763 14.7686 12.0012 14.6154 11.9231C12.9988 10.9225 10.7692 10.3065 8.23017 10.3065C7.0012 10.3065 5.84736 10.4627 5 10.6911C4.76863 10.7692 4.69351 10.7692 4.53726 10.7692C4.07752 10.7692 3.76803 10.3846 3.76803 10C3.76803 9.53726 3.9994 9.3089 4.38402 9.15265C5.53786 8.84615 6.69171 8.61478 8.30829 8.61478C10.9225 8.61478 13.4615 9.23077 15.4627 10.4627C15.7692 10.616 15.9225 10.9225 15.9225 11.232C15.9225 11.6917 15.616 12.0763 15.1532 12.0763ZM16.3852 8.9994C16.1538 8.9994 16.0757 8.92428 15.8474 8.84615C13.9994 7.77043 11.232 7.15445 8.53966 7.15445C7.15445 7.15445 5.76923 7.30769 4.53726 7.61418C4.38401 7.61418 4.23077 7.69231 3.9994 7.69231C3.46154 7.77043 3.07692 7.30769 3.07692 6.76983C3.07692 6.23197 3.38341 5.92248 3.76803 5.84736C5.23137 5.38462 6.76983 5.23137 8.53966 5.23137C11.4603 5.23137 14.5373 5.84736 16.845 7.15445C17.1544 7.30769 17.3858 7.61418 17.3858 8.07692C17.3077 8.61478 16.9231 8.9994 16.3852 8.9994Z" fill="white"/>
</svg>
