<svg width="18" height="20" viewBox="0 0 18 20" fill="none" xmlns="http://www.w3.org/2000/svg">
<path d="M9.43971 0.0168759C10.5304 0 11.6148 0.0100005 12.698 0C12.7636 1.27569 13.2224 2.57514 14.1562 3.47706C15.0881 4.40148 16.4063 4.82463 17.6889 4.96776V8.32357C16.4869 8.28419 15.2794 8.03418 14.1887 7.51665C13.7137 7.30164 13.2712 7.02475 12.838 6.74161C12.8324 9.17674 12.848 11.6087 12.8224 14.0339C12.7574 15.1989 12.373 16.3584 11.6954 17.3184C10.6054 18.9166 8.71342 19.9586 6.7702 19.9911C5.57827 20.0592 4.38758 19.7342 3.3719 19.1354C1.68869 18.1428 0.50426 16.3259 0.331752 14.3758C0.310022 13.9628 0.306685 13.549 0.321751 13.1357C0.471759 11.55 1.25617 10.033 2.47373 9.00111C3.8538 7.79917 5.78703 7.22664 7.59712 7.5654C7.61399 8.79984 7.56462 10.033 7.56462 11.2675C6.7377 11 5.7714 11.075 5.04886 11.5769C4.52024 11.9251 4.12076 12.4375 3.91193 13.0351C3.73942 13.4576 3.7888 13.927 3.7988 14.3758C3.99694 15.7433 5.312 16.8928 6.71582 16.7684C7.6465 16.7584 8.53841 16.2184 9.02344 15.4277C9.18032 15.1508 9.35596 14.8677 9.36533 14.542C9.44721 13.0513 9.41471 11.5669 9.42471 10.0762C9.43159 6.71661 9.41471 3.36643 9.44034 0.0175009L9.43971 0.0168759Z" fill="white"/>
</svg>
