<svg width="80" height="80" viewBox="0 0 80 80" fill="none" xmlns="http://www.w3.org/2000/svg">
<g filter="url(#filter0_i_1_8464)">
<path d="M58.26 14.2401L51.25 21.2501V30.0001H57.5L65.76 21.7401C66.5535 22.1712 67.4309 22.4251 68.3319 22.4846C69.2329 22.544 70.136 22.4075 70.9792 22.0845C71.8224 21.7614 72.5856 21.2595 73.2163 20.6133C73.8469 19.9671 74.3301 19.1919 74.6325 18.3411C74.9348 17.4903 75.0493 16.584 74.9679 15.6847C74.8865 14.7855 74.6112 13.9145 74.161 13.1318C73.7107 12.3491 73.0963 11.6732 72.3598 11.1507C71.6234 10.6282 70.7825 10.2715 69.895 10.1051C69.7286 9.21765 69.3719 8.37675 68.8494 7.64032C68.3269 6.90388 67.6511 6.28941 66.8684 5.83918C66.0857 5.38896 65.2147 5.11367 64.3154 5.03228C63.4161 4.95089 62.5099 5.06532 61.6591 5.36769C60.8082 5.67007 60.033 6.15321 59.3868 6.78387C58.7406 7.41452 58.2387 8.17771 57.9157 9.02091C57.5926 9.8641 57.4561 10.7673 57.5156 11.6683C57.575 12.5693 57.829 13.4467 58.26 14.2401Z" fill="url(#paint0_radial_1_8464)"/>
</g>
<g filter="url(#filter1_i_1_8464)">
<path d="M21.7401 14.2401L28.7501 21.2501V30.0001H22.5001L14.2401 21.7401C13.4467 22.1712 12.5693 22.4251 11.6683 22.4846C10.7673 22.544 9.8641 22.4075 9.02091 22.0845C8.17771 21.7614 7.41452 21.2595 6.78387 20.6133C6.15321 19.9671 5.67007 19.1919 5.36769 18.3411C5.06532 17.4903 4.95089 16.584 5.03228 15.6847C5.11367 14.7855 5.38896 13.9145 5.83918 13.1318C6.28941 12.3491 6.90388 11.6732 7.64032 11.1507C8.37675 10.6282 9.21765 10.2715 10.1051 10.1051C10.2715 9.21765 10.6282 8.37675 11.1507 7.64032C11.6732 6.90388 12.3491 6.28941 13.1318 5.83918C13.9145 5.38896 14.7855 5.11367 15.6847 5.03228C16.584 4.95089 17.4903 5.06532 18.3411 5.36769C19.1919 5.67007 19.9671 6.15321 20.6133 6.78387C21.2595 7.41452 21.7614 8.17771 22.0845 9.02091C22.4075 9.8641 22.544 10.7673 22.4846 11.6683C22.4251 12.5693 22.1712 13.4467 21.7401 14.2401Z" fill="url(#paint1_linear_1_8464)"/>
</g>
<path d="M15 16.2496C16.25 14.9996 21.765 14.2246 21.765 14.2246L28.75 21.2496L32.5 33.7496C32.5 33.7496 18.015 19.7221 15 16.2496Z" fill="url(#paint2_linear_1_8464)"/>
<path d="M16.25 17.5C19.7018 17.5 22.5 14.7018 22.5 11.25C22.5 7.79822 19.7018 5 16.25 5C12.7982 5 10 7.79822 10 11.25C10 14.7018 12.7982 17.5 16.25 17.5Z" fill="url(#paint3_radial_1_8464)"/>
<g filter="url(#filter2_f_1_8464)">
<path d="M11.875 18.75C13.6009 18.75 15 17.3509 15 15.625C15 13.8991 13.6009 12.5 11.875 12.5C10.1491 12.5 8.75 13.8991 8.75 15.625C8.75 17.3509 10.1491 18.75 11.875 18.75Z" fill="#EAE0E7"/>
</g>
<path d="M21.7401 14.2401L28.7501 21.2501V30.0001H22.5001L14.2401 21.7401C13.4467 22.1712 12.5693 22.4251 11.6683 22.4846C10.7673 22.544 9.8641 22.4075 9.02091 22.0845C8.17771 21.7614 7.41452 21.2595 6.78387 20.6133C6.15321 19.9671 5.67007 19.1919 5.36769 18.3411C5.06532 17.4903 4.95089 16.584 5.03228 15.6847C5.11367 14.7855 5.38896 13.9145 5.83918 13.1318C6.28941 12.3491 6.90388 11.6732 7.64032 11.1507C8.37675 10.6282 9.21765 10.2715 10.1051 10.1051C10.2715 9.21765 10.6282 8.37675 11.1507 7.64032C11.6732 6.90388 12.3491 6.28941 13.1318 5.83918C13.9145 5.38896 14.7855 5.11367 15.6847 5.03228C16.584 4.95089 17.4903 5.06532 18.3411 5.36769C19.1919 5.67007 19.9671 6.15321 20.6133 6.78387C21.2595 7.41452 21.7614 8.17771 22.0845 9.02091C22.4075 9.8641 22.544 10.7673 22.4846 11.6683C22.4251 12.5693 22.1712 13.4467 21.7401 14.2401Z" fill="url(#paint4_linear_1_8464)"/>
<g filter="url(#filter3_i_1_8464)">
<path d="M65.76 58.26L58.75 51.25H50V57.5L58.26 65.76C57.829 66.5535 57.575 67.4309 57.5156 68.3319C57.4561 69.2329 57.5926 70.136 57.9157 70.9792C58.2387 71.8224 58.7406 72.5856 59.3868 73.2163C60.033 73.8469 60.8082 74.3301 61.6591 74.6325C62.5099 74.9348 63.4161 75.0493 64.3154 74.9679C65.2147 74.8865 66.0857 74.6112 66.8684 74.161C67.6511 73.7107 68.3269 73.0963 68.8494 72.3598C69.3719 71.6234 69.7286 70.7825 69.895 69.895C70.7825 69.7286 71.6234 69.3719 72.3598 68.8494C73.0963 68.3269 73.7107 67.6511 74.161 66.8684C74.6112 66.0857 74.8865 65.2147 74.9679 64.3154C75.0493 63.4161 74.9348 62.5099 74.6325 61.6591C74.3301 60.8082 73.8469 60.033 73.2163 59.3868C72.5856 58.7406 71.8224 58.2387 70.9792 57.9157C70.136 57.5926 69.2329 57.4561 68.3319 57.5156C67.4309 57.575 66.5535 57.829 65.76 58.26Z" fill="url(#paint5_linear_1_8464)"/>
</g>
<path d="M63.75 65C65 63.75 65.775 58.235 65.775 58.235L58.75 51.25L46.25 47.5C46.25 47.5 60.2775 61.985 63.75 65Z" fill="url(#paint6_linear_1_8464)"/>
<path d="M62.5 63.75C62.5 60.2982 65.2982 57.5 68.75 57.5C72.2018 57.5 75 60.2982 75 63.75C75 67.2018 72.2018 70 68.75 70C65.2982 70 62.5 67.2018 62.5 63.75Z" fill="url(#paint7_radial_1_8464)"/>
<g filter="url(#filter4_f_1_8464)">
<path d="M61.25 68.125C61.25 66.3991 62.6491 65 64.375 65C66.1009 65 67.5 66.3991 67.5 68.125C67.5 69.8509 66.1009 71.25 64.375 71.25C62.6491 71.25 61.25 69.8509 61.25 68.125Z" fill="#EAE0E7"/>
</g>
<g filter="url(#filter5_i_1_8464)">
<path d="M10.89 69.17C7.64 69.17 5 66.5925 5 63.39C5 60.1875 7.64 57.585 10.89 57.585C12.135 57.585 13.2775 57.96 14.2425 58.61L25.315 47.5L32.5 54.5825L21.43 65.6925C22.19 66.6675 22.6475 67.8675 22.6475 69.1925C22.65 72.4 20.0075 75 16.7575 75C15.2064 75.0046 13.717 74.3931 12.6167 73.2998C11.5164 72.2066 10.8953 70.7211 10.89 69.17Z" fill="url(#paint8_radial_1_8464)"/>
</g>
<g filter="url(#filter6_f_1_8464)">
<path d="M63.75 17.5L56.25 25" stroke="#F1ECF2" stroke-width="0.375"/>
</g>
<path d="M10.89 69.17C7.64 69.17 5 66.5925 5 63.39C5 60.1875 7.64 57.585 10.89 57.585C12.135 57.585 13.2775 57.96 14.2425 58.61L25.315 47.5L32.5 54.5825L21.43 65.6925C22.19 66.6675 22.6475 67.8675 22.6475 69.1925C22.65 72.4 20.0075 75 16.7575 75C15.2064 75.0046 13.717 74.3931 12.6167 73.2998C11.5164 72.2066 10.8953 70.7211 10.89 69.17Z" fill="url(#paint9_linear_1_8464)"/>
<g filter="url(#filter7_i_1_8464)">
<path d="M40 15.0996C26.2 15.0996 15 26.2996 15 40.0996C15 49.3496 20.025 51.8246 27.5 52.4746V61.2496C27.5 62.2442 27.8951 63.198 28.5983 63.9013C29.3016 64.6045 30.2554 64.9996 31.25 64.9996H31.4C32.3548 64.9996 33.2705 64.6203 33.9456 63.9452C34.6207 63.2701 35 62.3544 35 61.3996V58.7496C35 58.4181 35.1317 58.1001 35.3661 57.8657C35.6005 57.6313 35.9185 57.4996 36.25 57.4996C36.5815 57.4996 36.8995 57.6313 37.1339 57.8657C37.3683 58.1001 37.5 58.4181 37.5 58.7496V62.4996C37.5 63.1626 37.7634 63.7985 38.2322 64.2674C38.7011 64.7362 39.337 64.9996 40 64.9996C40.663 64.9996 41.2989 64.7362 41.7678 64.2674C42.2366 63.7985 42.5 63.1626 42.5 62.4996V58.7496C42.5 58.4181 42.6317 58.1001 42.8661 57.8657C43.1005 57.6313 43.4185 57.4996 43.75 57.4996C44.0815 57.4996 44.3995 57.6313 44.6339 57.8657C44.8683 58.1001 45 58.4181 45 58.7496V61.3996C45 63.3871 46.6125 64.9996 48.6 64.9996H48.75C49.7446 64.9996 50.6984 64.6045 51.4016 63.9013C52.1049 63.198 52.5 62.2442 52.5 61.2496V52.4746C59.975 51.8496 65 49.3496 65 40.0996C65 26.2746 53.8 15.0996 40 15.0996Z" fill="url(#paint10_radial_1_8464)"/>
</g>
<path d="M40 15.0996C26.2 15.0996 15 26.2996 15 40.0996C15 49.3496 20.025 51.8246 27.5 52.4746V61.2496C27.5 62.2442 27.8951 63.198 28.5983 63.9013C29.3016 64.6045 30.2554 64.9996 31.25 64.9996H31.4C32.3548 64.9996 33.2705 64.6203 33.9456 63.9452C34.6207 63.2701 35 62.3544 35 61.3996V58.7496C35 58.4181 35.1317 58.1001 35.3661 57.8657C35.6005 57.6313 35.9185 57.4996 36.25 57.4996C36.5815 57.4996 36.8995 57.6313 37.1339 57.8657C37.3683 58.1001 37.5 58.4181 37.5 58.7496V62.4996C37.5 63.1626 37.7634 63.7985 38.2322 64.2674C38.7011 64.7362 39.337 64.9996 40 64.9996C40.663 64.9996 41.2989 64.7362 41.7678 64.2674C42.2366 63.7985 42.5 63.1626 42.5 62.4996V58.7496C42.5 58.4181 42.6317 58.1001 42.8661 57.8657C43.1005 57.6313 43.4185 57.4996 43.75 57.4996C44.0815 57.4996 44.3995 57.6313 44.6339 57.8657C44.8683 58.1001 45 58.4181 45 58.7496V61.3996C45 63.3871 46.6125 64.9996 48.6 64.9996H48.75C49.7446 64.9996 50.6984 64.6045 51.4016 63.9013C52.1049 63.198 52.5 62.2442 52.5 61.2496V52.4746C59.975 51.8496 65 49.3496 65 40.0996C65 26.2746 53.8 15.0996 40 15.0996Z" fill="url(#paint11_linear_1_8464)"/>
<path fill-rule="evenodd" clip-rule="evenodd" d="M39.115 64.84C39.665 63.5325 40 61.845 40 60C40 55.8575 38.32 52.5 36.25 52.5C34.18 52.5 32.5 55.8575 32.5 60C32.5 61.685 32.7775 63.24 33.2475 64.49C33.7819 64.1705 34.2243 63.7178 34.5314 63.1762C34.8386 62.6346 35 62.0226 35 61.4V58.75C35 58.4185 35.1317 58.1005 35.3661 57.8661C35.6005 57.6317 35.9185 57.5 36.25 57.5C36.5815 57.5 36.8995 57.6317 37.1339 57.8661C37.3683 58.1005 37.5 58.4185 37.5 58.75V62.5C37.4996 63.0079 37.654 63.5039 37.9425 63.9219C38.231 64.34 38.64 64.6602 39.115 64.84Z" fill="url(#paint12_radial_1_8464)"/>
<g opacity="0.5" filter="url(#filter8_f_1_8464)">
<path d="M33.75 57.5C33.75 56.8096 33.1904 56.25 32.5 56.25C31.8096 56.25 31.25 56.8096 31.25 57.5V62.5C31.25 63.1904 31.8096 63.75 32.5 63.75C33.1904 63.75 33.75 63.1904 33.75 62.5V57.5Z" fill="white"/>
</g>
<g opacity="0.5" filter="url(#filter9_f_1_8464)">
<path d="M41.25 55C41.25 54.3096 40.6904 53.75 40 53.75C39.3096 53.75 38.75 54.3096 38.75 55V62.5C38.75 63.1904 39.3096 63.75 40 63.75C40.6904 63.75 41.25 63.1904 41.25 62.5V55Z" fill="white"/>
</g>
<g opacity="0.64" filter="url(#filter10_f_1_8464)">
<path d="M51.875 53.4375C51.875 52.2294 50.8956 51.25 49.6875 51.25C48.4794 51.25 47.5 52.2294 47.5 53.4375V61.5625C47.5 62.7706 48.4794 63.75 49.6875 63.75C50.8956 63.75 51.875 62.7706 51.875 61.5625V53.4375Z" fill="white"/>
</g>
<path fill-rule="evenodd" clip-rule="evenodd" d="M46.7525 64.49C47.2225 63.24 47.5 61.685 47.5 60C47.5 55.8575 45.82 52.5 43.75 52.5C41.68 52.5 40 55.8575 40 60C40 61.845 40.3325 63.5325 40.885 64.84C41.36 64.6602 41.769 64.34 42.0575 63.9219C42.346 63.5039 42.5004 63.0079 42.5 62.5V58.75C42.5 58.4185 42.6317 58.1005 42.8661 57.8661C43.1005 57.6317 43.4185 57.5 43.75 57.5C44.0815 57.5 44.3995 57.6317 44.6339 57.8661C44.8683 58.1005 45 58.4185 45 58.75V61.4C45 62.7125 45.7025 63.8625 46.7525 64.49Z" fill="url(#paint13_radial_1_8464)"/>
<path d="M35 41.9425C35 46.45 31.3625 47.5 26.8875 47.5C22.4125 47.5 18.75 46.45 18.75 41.9425C18.75 37.4375 22.3875 33.75 26.8875 33.75C31.3875 33.75 35 37.4125 35 41.9425Z" fill="url(#paint14_radial_1_8464)"/>
<path d="M60.95 41.9326C60.95 46.4476 57.375 47.5001 52.975 47.5001C48.575 47.5001 45 46.4501 45 41.9326C45 37.4176 48.575 33.7501 52.975 33.7501C57.375 33.7251 60.95 37.3926 60.95 41.9326Z" fill="url(#paint15_radial_1_8464)"/>
<path d="M41.4377 50H38.5627C37.8452 50 37.3152 49.175 37.5627 48.395L38.0902 46.58C38.3577 45.6375 39.1327 45 39.9902 45C40.8452 45 41.6002 45.6375 41.8877 46.5575L42.4377 48.3725C42.6827 49.15 42.1727 50 41.4377 50Z" fill="url(#paint16_radial_1_8464)"/>
<g filter="url(#filter11_f_1_8464)">
<path d="M65.625 15C67.3509 15 68.75 13.0412 68.75 10.625C68.75 8.20875 67.3509 6.25 65.625 6.25C63.8991 6.25 62.5 8.20875 62.5 10.625C62.5 13.0412 63.8991 15 65.625 15Z" fill="#F7F5F8"/>
</g>
<g filter="url(#filter12_f_1_8464)">
<path d="M71.25 17.5C72.6307 17.5 73.75 16.3807 73.75 15C73.75 13.6193 72.6307 12.5 71.25 12.5C69.8693 12.5 68.75 13.6193 68.75 15C68.75 16.3807 69.8693 17.5 71.25 17.5Z" fill="#F6F4F7"/>
</g>
<defs>
<filter id="filter0_i_1_8464" x="51.25" y="4.91309" width="23.8369" height="25.0869" filterUnits="userSpaceOnUse" color-interpolation-filters="sRGB">
<feFlood flood-opacity="0" result="BackgroundImageFix"/>
<feBlend mode="normal" in="SourceGraphic" in2="BackgroundImageFix" result="shape"/>
<feColorMatrix in="SourceAlpha" type="matrix" values="0 0 0 0 0 0 0 0 0 0 0 0 0 0 0 0 0 0 127 0" result="hardAlpha"/>
<feOffset dx="0.09375" dy="-0.09375"/>
<feGaussianBlur stdDeviation="0.1875"/>
<feComposite in2="hardAlpha" operator="arithmetic" k2="-1" k3="1"/>
<feColorMatrix type="matrix" values="0 0 0 0 0.748624 0 0 0 0 0.67744 0 0 0 0 0.811898 0 0 0 1 0"/>
<feBlend mode="normal" in2="shape" result="effect1_innerShadow_1_8464"/>
</filter>
<filter id="filter1_i_1_8464" x="5.00684" y="4.91309" width="23.8369" height="25.0869" filterUnits="userSpaceOnUse" color-interpolation-filters="sRGB">
<feFlood flood-opacity="0" result="BackgroundImageFix"/>
<feBlend mode="normal" in="SourceGraphic" in2="BackgroundImageFix" result="shape"/>
<feColorMatrix in="SourceAlpha" type="matrix" values="0 0 0 0 0 0 0 0 0 0 0 0 0 0 0 0 0 0 127 0" result="hardAlpha"/>
<feOffset dx="0.09375" dy="-0.09375"/>
<feGaussianBlur stdDeviation="0.1875"/>
<feComposite in2="hardAlpha" operator="arithmetic" k2="-1" k3="1"/>
<feColorMatrix type="matrix" values="0 0 0 0 0.778564 0 0 0 0 0.701532 0 0 0 0 0.771562 0 0 0 1 0"/>
<feBlend mode="normal" in2="shape" result="effect1_innerShadow_1_8464"/>
</filter>
<filter id="filter2_f_1_8464" x="8.375" y="12.125" width="7" height="7" filterUnits="userSpaceOnUse" color-interpolation-filters="sRGB">
<feFlood flood-opacity="0" result="BackgroundImageFix"/>
<feBlend mode="normal" in="SourceGraphic" in2="BackgroundImageFix" result="shape"/>
<feGaussianBlur stdDeviation="0.1875" result="effect1_foregroundBlur_1_8464"/>
</filter>
<filter id="filter3_i_1_8464" x="50" y="51.1562" width="25.0869" height="23.8369" filterUnits="userSpaceOnUse" color-interpolation-filters="sRGB">
<feFlood flood-opacity="0" result="BackgroundImageFix"/>
<feBlend mode="normal" in="SourceGraphic" in2="BackgroundImageFix" result="shape"/>
<feColorMatrix in="SourceAlpha" type="matrix" values="0 0 0 0 0 0 0 0 0 0 0 0 0 0 0 0 0 0 127 0" result="hardAlpha"/>
<feOffset dx="0.09375" dy="-0.09375"/>
<feGaussianBlur stdDeviation="0.1875"/>
<feComposite in2="hardAlpha" operator="arithmetic" k2="-1" k3="1"/>
<feColorMatrix type="matrix" values="0 0 0 0 0.798011 0 0 0 0 0.68505 0 0 0 0 0.882731 0 0 0 1 0"/>
<feBlend mode="normal" in2="shape" result="effect1_innerShadow_1_8464"/>
</filter>
<filter id="filter4_f_1_8464" x="60.875" y="64.625" width="7" height="7" filterUnits="userSpaceOnUse" color-interpolation-filters="sRGB">
<feFlood flood-opacity="0" result="BackgroundImageFix"/>
<feBlend mode="normal" in="SourceGraphic" in2="BackgroundImageFix" result="shape"/>
<feGaussianBlur stdDeviation="0.1875" result="effect1_foregroundBlur_1_8464"/>
</filter>
<filter id="filter5_i_1_8464" x="5" y="47.4062" width="27.5938" height="27.5938" filterUnits="userSpaceOnUse" color-interpolation-filters="sRGB">
<feFlood flood-opacity="0" result="BackgroundImageFix"/>
<feBlend mode="normal" in="SourceGraphic" in2="BackgroundImageFix" result="shape"/>
<feColorMatrix in="SourceAlpha" type="matrix" values="0 0 0 0 0 0 0 0 0 0 0 0 0 0 0 0 0 0 127 0" result="hardAlpha"/>
<feOffset dx="0.09375" dy="-0.09375"/>
<feGaussianBlur stdDeviation="0.1875"/>
<feComposite in2="hardAlpha" operator="arithmetic" k2="-1" k3="1"/>
<feColorMatrix type="matrix" values="0 0 0 0 0.789604 0 0 0 0 0.632853 0 0 0 0 0.886898 0 0 0 1 0"/>
<feBlend mode="normal" in2="shape" result="effect1_innerShadow_1_8464"/>
</filter>
<filter id="filter6_f_1_8464" x="55.7422" y="16.9922" width="8.51562" height="8.51562" filterUnits="userSpaceOnUse" color-interpolation-filters="sRGB">
<feFlood flood-opacity="0" result="BackgroundImageFix"/>
<feBlend mode="normal" in="SourceGraphic" in2="BackgroundImageFix" result="shape"/>
<feGaussianBlur stdDeviation="0.1875" result="effect1_foregroundBlur_1_8464"/>
</filter>
<filter id="filter7_i_1_8464" x="15" y="14.7246" width="50.375" height="50.2754" filterUnits="userSpaceOnUse" color-interpolation-filters="sRGB">
<feFlood flood-opacity="0" result="BackgroundImageFix"/>
<feBlend mode="normal" in="SourceGraphic" in2="BackgroundImageFix" result="shape"/>
<feColorMatrix in="SourceAlpha" type="matrix" values="0 0 0 0 0 0 0 0 0 0 0 0 0 0 0 0 0 0 127 0" result="hardAlpha"/>
<feOffset dx="0.375" dy="-0.375"/>
<feGaussianBlur stdDeviation="0.5625"/>
<feComposite in2="hardAlpha" operator="arithmetic" k2="-1" k3="1"/>
<feColorMatrix type="matrix" values="0 0 0 0 0.801456 0 0 0 0 0.658291 0 0 0 0 0.911898 0 0 0 1 0"/>
<feBlend mode="normal" in2="shape" result="effect1_innerShadow_1_8464"/>
</filter>
<filter id="filter8_f_1_8464" x="30.875" y="55.875" width="3.25" height="8.25" filterUnits="userSpaceOnUse" color-interpolation-filters="sRGB">
<feFlood flood-opacity="0" result="BackgroundImageFix"/>
<feBlend mode="normal" in="SourceGraphic" in2="BackgroundImageFix" result="shape"/>
<feGaussianBlur stdDeviation="0.1875" result="effect1_foregroundBlur_1_8464"/>
</filter>
<filter id="filter9_f_1_8464" x="38.375" y="53.375" width="3.25" height="10.75" filterUnits="userSpaceOnUse" color-interpolation-filters="sRGB">
<feFlood flood-opacity="0" result="BackgroundImageFix"/>
<feBlend mode="normal" in="SourceGraphic" in2="BackgroundImageFix" result="shape"/>
<feGaussianBlur stdDeviation="0.1875" result="effect1_foregroundBlur_1_8464"/>
</filter>
<filter id="filter10_f_1_8464" x="47.125" y="50.875" width="5.125" height="13.25" filterUnits="userSpaceOnUse" color-interpolation-filters="sRGB">
<feFlood flood-opacity="0" result="BackgroundImageFix"/>
<feBlend mode="normal" in="SourceGraphic" in2="BackgroundImageFix" result="shape"/>
<feGaussianBlur stdDeviation="0.1875" result="effect1_foregroundBlur_1_8464"/>
</filter>
<filter id="filter11_f_1_8464" x="62.125" y="5.875" width="7" height="9.5" filterUnits="userSpaceOnUse" color-interpolation-filters="sRGB">
<feFlood flood-opacity="0" result="BackgroundImageFix"/>
<feBlend mode="normal" in="SourceGraphic" in2="BackgroundImageFix" result="shape"/>
<feGaussianBlur stdDeviation="0.1875" result="effect1_foregroundBlur_1_8464"/>
</filter>
<filter id="filter12_f_1_8464" x="68.375" y="12.125" width="5.75" height="5.75" filterUnits="userSpaceOnUse" color-interpolation-filters="sRGB">
<feFlood flood-opacity="0" result="BackgroundImageFix"/>
<feBlend mode="normal" in="SourceGraphic" in2="BackgroundImageFix" result="shape"/>
<feGaussianBlur stdDeviation="0.1875" result="effect1_foregroundBlur_1_8464"/>
</filter>
<radialGradient id="paint0_radial_1_8464" cx="0" cy="0" r="1" gradientUnits="userSpaceOnUse" gradientTransform="translate(68.3125 11.9451) scale(17.5533 18.6078)">
<stop stop-color="#EAE6EC"/>
<stop offset="0.64" stop-color="#E2DCE3"/>
<stop offset="0.989" stop-color="#DAD1D1"/>
</radialGradient>
<linearGradient id="paint1_linear_1_8464" x1="22.5001" y1="5.00015" x2="8.75015" y2="25.0001" gradientUnits="userSpaceOnUse">
<stop stop-color="#ECE5E6"/>
<stop offset="0.566" stop-color="#E4D8E0"/>
<stop offset="0.988" stop-color="#CFB4CD"/>
</linearGradient>
<linearGradient id="paint2_linear_1_8464" x1="23.75" y1="19.9996" x2="21.25" y2="22.4996" gradientUnits="userSpaceOnUse">
<stop stop-color="#F0EEEF"/>
<stop offset="1" stop-color="#F3EEF0" stop-opacity="0"/>
</linearGradient>
<radialGradient id="paint3_radial_1_8464" cx="0" cy="0" r="1" gradientUnits="userSpaceOnUse" gradientTransform="translate(20 8.75) rotate(143.13) scale(6.25)">
<stop stop-color="white"/>
<stop offset="1" stop-color="#F7F4F6" stop-opacity="0"/>
</radialGradient>
<linearGradient id="paint4_linear_1_8464" x1="10.5126" y1="16.6076" x2="2.28015" y2="12.4901" gradientUnits="userSpaceOnUse">
<stop stop-color="#E5C9C5" stop-opacity="0"/>
<stop offset="1" stop-color="#FFD099"/>
</linearGradient>
<linearGradient id="paint5_linear_1_8464" x1="75" y1="57.5" x2="55" y2="71.25" gradientUnits="userSpaceOnUse">
<stop stop-color="#ECE5E6"/>
<stop offset="0.566" stop-color="#E0D1EE"/>
<stop offset="0.988" stop-color="#CEB6E1"/>
</linearGradient>
<linearGradient id="paint6_linear_1_8464" x1="60" y1="56.25" x2="57.5" y2="58.75" gradientUnits="userSpaceOnUse">
<stop stop-color="#F0EEEF"/>
<stop offset="1" stop-color="#F3EEF0" stop-opacity="0"/>
</linearGradient>
<radialGradient id="paint7_radial_1_8464" cx="0" cy="0" r="1" gradientUnits="userSpaceOnUse" gradientTransform="translate(65 53.75) rotate(126.87) scale(6.25)">
<stop stop-color="white"/>
<stop offset="1" stop-color="#F7F4F6" stop-opacity="0"/>
</radialGradient>
<radialGradient id="paint8_radial_1_8464" cx="0" cy="0" r="1" gradientUnits="userSpaceOnUse" gradientTransform="translate(12.63 67.25) rotate(-44.723) scale(17.4117 17.6689)">
<stop stop-color="#D8C5DE"/>
<stop offset="0.989" stop-color="#BDA1CB"/>
</radialGradient>
<linearGradient id="paint9_linear_1_8464" x1="16.25" y1="63.75" x2="7.5" y2="52.5" gradientUnits="userSpaceOnUse">
<stop stop-color="#E5C9C5" stop-opacity="0"/>
<stop offset="1" stop-color="#FFD099"/>
</linearGradient>
<radialGradient id="paint10_radial_1_8464" cx="0" cy="0" r="1" gradientUnits="userSpaceOnUse" gradientTransform="translate(48.0356 26.6787) rotate(125.602) scale(46.012 46.047)">
<stop offset="0.213" stop-color="#F2F0F4"/>
<stop offset="0.743" stop-color="#D1BBE0"/>
</radialGradient>
<linearGradient id="paint11_linear_1_8464" x1="26.6075" y1="38.2671" x2="9.6575" y2="29.3296" gradientUnits="userSpaceOnUse">
<stop stop-color="#E5C9C5" stop-opacity="0"/>
<stop offset="1" stop-color="#FFD099"/>
</linearGradient>
<radialGradient id="paint12_radial_1_8464" cx="0" cy="0" r="1" gradientUnits="userSpaceOnUse" gradientTransform="translate(36.25 60) rotate(90) scale(5 2.40048)">
<stop stop-color="#7A6E85"/>
<stop offset="1" stop-color="#B29EC2" stop-opacity="0"/>
</radialGradient>
<radialGradient id="paint13_radial_1_8464" cx="0" cy="0" r="1" gradientUnits="userSpaceOnUse" gradientTransform="translate(43.75 60) rotate(90) scale(5 2.40048)">
<stop stop-color="#7A6E85"/>
<stop offset="1" stop-color="#B29EC2" stop-opacity="0"/>
</radialGradient>
<radialGradient id="paint14_radial_1_8464" cx="0" cy="0" r="1" gradientUnits="userSpaceOnUse" gradientTransform="translate(24.403 42.3369) rotate(-48.572) scale(10.9884 13.0693)">
<stop offset="0.445" stop-color="#3D2C36"/>
<stop offset="1" stop-color="#1A1016"/>
</radialGradient>
<radialGradient id="paint15_radial_1_8464" cx="0" cy="0" r="1" gradientUnits="userSpaceOnUse" gradientTransform="translate(50.55 42.3376) rotate(-49.1016) scale(10.9 12.932)">
<stop offset="0.445" stop-color="#3D2C36"/>
<stop offset="1" stop-color="#1A1016"/>
</radialGradient>
<radialGradient id="paint16_radial_1_8464" cx="0" cy="0" r="1" gradientUnits="userSpaceOnUse" gradientTransform="translate(39.2402 48.1225) rotate(-53.2508) scale(3.7391 4.29736)">
<stop offset="0.445" stop-color="#3D2C36"/>
<stop offset="1" stop-color="#1A1016"/>
</radialGradient>
</defs>
</svg>
