<svg width="80" height="80" viewBox="0 0 80 80" fill="none" xmlns="http://www.w3.org/2000/svg">
<g filter="url(#filter0_iii_1_8311)">
<path d="M5.27441 14.6504C5.27441 12.164 6.26213 9.77942 8.02029 8.02126C9.77844 6.26311 12.163 5.27539 14.6494 5.27539H65.3494C67.8358 5.27539 70.2204 6.26311 71.9785 8.02126C73.7367 9.77942 74.7244 12.164 74.7244 14.6504V65.3504C74.7244 67.8368 73.7367 70.2214 71.9785 71.9795C70.2204 73.7377 67.8358 74.7254 65.3494 74.7254H14.6494C12.163 74.7254 9.77844 73.7377 8.02029 71.9795C6.26213 70.2214 5.27441 67.8368 5.27441 65.3504V14.6504Z" fill="url(#paint0_linear_1_8311)"/>
</g>
<g filter="url(#filter1_f_1_8311)">
<path d="M23.4512 38.918C29.7334 38.918 34.8262 33.8252 34.8262 27.543C34.8262 21.2607 29.7334 16.168 23.4512 16.168C17.1689 16.168 12.0762 21.2607 12.0762 27.543C12.0762 33.8252 17.1689 38.918 23.4512 38.918Z" fill="url(#paint1_linear_1_8311)"/>
</g>
<path d="M23.4519 36.0737C28.1629 36.0737 31.9819 32.2547 31.9819 27.5437C31.9819 22.8327 28.1629 19.0137 23.4519 19.0137C18.7409 19.0137 14.9219 22.8327 14.9219 27.5437C14.9219 32.2547 18.7409 36.0737 23.4519 36.0737Z" fill="url(#paint2_linear_1_8311)"/>
<g filter="url(#filter2_f_1_8311)">
<path d="M23.4551 34.5655C27.3335 34.5655 30.4776 31.4214 30.4776 27.543C30.4776 23.6646 27.3335 20.5205 23.4551 20.5205C19.5767 20.5205 16.4326 23.6646 16.4326 27.543C16.4326 31.4214 19.5767 34.5655 23.4551 34.5655Z" fill="url(#paint3_radial_1_8311)"/>
</g>
<g filter="url(#filter3_i_1_8311)">
<path d="M28.7465 22.0463L28.7448 22.0446C28.2234 21.5232 27.3781 21.5232 26.8568 22.0446L22.5063 26.395C21.985 26.9164 21.985 27.7617 22.5063 28.283L22.5081 28.2848C23.0294 28.8061 23.8747 28.8061 24.3961 28.2848L28.7465 23.9343C29.2679 23.413 29.2679 22.5677 28.7465 22.0463Z" fill="#D8CEE4"/>
</g>
<g filter="url(#filter4_f_1_8311)">
<path d="M68.0049 57.0127C68.0049 50.7305 62.9121 45.6377 56.6299 45.6377C50.3476 45.6377 45.2549 50.7305 45.2549 57.0127C45.2549 63.2949 50.3476 68.3877 56.6299 68.3877C62.9121 68.3877 68.0049 63.2949 68.0049 57.0127Z" fill="url(#paint4_linear_1_8311)"/>
</g>
<path d="M56.6262 48.483C51.9153 48.483 48.0963 52.302 48.0963 57.013C48.0963 61.724 51.9153 65.543 56.6262 65.543C61.3372 65.543 65.1562 61.724 65.1562 57.013C65.1562 52.302 61.3372 48.483 56.6262 48.483Z" fill="url(#paint5_radial_1_8311)"/>
<g filter="url(#filter5_f_1_8311)">
<path d="M56.3907 64.0352C60.2691 64.0352 63.4132 60.8912 63.4132 57.0127C63.4132 53.1343 60.2691 49.9902 56.3907 49.9902C52.5122 49.9902 49.3682 53.1343 49.3682 57.0127C49.3682 60.8912 52.5122 64.0352 56.3907 64.0352Z" fill="url(#paint6_radial_1_8311)"/>
</g>
<g filter="url(#filter6_i_1_8311)">
<path d="M51.1333 51.7193L51.1315 51.7211C50.6101 52.2424 50.6101 53.0877 51.1315 53.609L55.482 57.9595C56.0033 58.4809 56.8486 58.4809 57.3699 57.9595L57.3717 57.9577C57.8931 57.4364 57.8931 56.5911 57.3717 56.0698L53.0212 51.7193C52.4999 51.1979 51.6546 51.1979 51.1333 51.7193Z" fill="#D8CEE4"/>
</g>
<g filter="url(#filter7_f_1_8311)">
<path d="M56.6299 38.918C62.9121 38.918 68.0049 33.8252 68.0049 27.543C68.0049 21.2607 62.9121 16.168 56.6299 16.168C50.3476 16.168 45.2549 21.2607 45.2549 27.543C45.2549 33.8252 50.3476 38.918 56.6299 38.918Z" fill="url(#paint7_linear_1_8311)"/>
</g>
<path d="M56.6296 36.0727C61.3406 36.0727 65.1596 32.2537 65.1596 27.5427C65.1596 22.8317 61.3406 19.0127 56.6296 19.0127C51.9186 19.0127 48.0996 22.8317 48.0996 27.5427C48.0996 32.2537 51.9186 36.0727 56.6296 36.0727Z" fill="url(#paint8_linear_1_8311)"/>
<g filter="url(#filter8_f_1_8311)">
<path d="M56.625 34.5655C60.5035 34.5655 63.6475 31.4214 63.6475 27.543C63.6475 23.6646 60.5035 20.5205 56.625 20.5205C52.7466 20.5205 49.6025 23.6646 49.6025 27.543C49.6025 31.4214 52.7466 34.5655 56.625 34.5655Z" fill="url(#paint9_radial_1_8311)"/>
</g>
<g filter="url(#filter9_f_1_8311)">
<path d="M23.4492 45.6377C17.167 45.6377 12.0742 50.7305 12.0742 57.0127C12.0742 63.2949 17.167 68.3877 23.4492 68.3877C29.7315 68.3877 34.8242 63.2949 34.8242 57.0127C34.8242 50.7305 29.7315 45.6377 23.4492 45.6377Z" fill="url(#paint10_linear_1_8311)"/>
</g>
<path d="M23.4544 48.483C18.7434 48.483 14.9244 52.302 14.9244 57.013C14.9244 61.724 18.7434 65.543 23.4544 65.543C28.1654 65.543 31.9844 61.724 31.9844 57.013C31.9844 52.302 28.1654 48.483 23.4544 48.483Z" fill="url(#paint11_radial_1_8311)"/>
<g filter="url(#filter10_i_1_8311)">
<path d="M57.7871 27.5455V27.543C57.7871 26.8057 57.1894 26.208 56.4521 26.208H50.2996C49.5623 26.208 48.9646 26.8057 48.9646 27.543V27.5455C48.9646 28.2828 49.5623 28.8805 50.2996 28.8805H56.4521C57.1894 28.8805 57.7871 28.2828 57.7871 27.5455Z" fill="#D8CEE4"/>
</g>
<g filter="url(#filter11_i_1_8311)">
<path d="M25.265 12.0005C25.265 11.161 24.5851 10.4805 23.7463 10.4805C22.9075 10.4805 22.2275 11.161 22.2275 12.0005V14.023C22.2275 14.8624 22.9075 15.543 23.7463 15.543C24.5851 15.543 25.265 14.8624 25.265 14.023V12.0005Z" fill="#A09DA6"/>
</g>
<g filter="url(#filter12_i_1_8311)">
<path d="M17.2003 13.2082C16.7392 12.5067 15.7972 12.3115 15.0963 12.7722C14.3954 13.233 14.2009 14.1751 14.662 14.8766L15.7729 16.5667C16.234 17.2682 17.176 17.4634 17.877 17.0027C18.5779 16.542 18.7723 15.5998 18.3112 14.8983L17.2003 13.2082Z" fill="#A09DA6"/>
</g>
<g filter="url(#filter13_i_1_8311)">
<path d="M30.2938 13.2082C30.7549 12.5067 31.6969 12.3115 32.3979 12.7722C33.0988 13.233 33.2932 14.1751 32.8321 14.8766L31.7212 16.5667C31.2601 17.2682 30.3181 17.4634 29.6172 17.0027C28.9163 16.542 28.7218 15.5998 29.1829 14.8983L30.2938 13.2082Z" fill="#A09DA6"/>
</g>
<g filter="url(#filter14_i_1_8311)">
<path d="M58.1479 12.0005C58.1479 11.161 57.4679 10.4805 56.6291 10.4805C55.7903 10.4805 55.1104 11.161 55.1104 12.0005V14.023C55.1104 14.8624 55.7903 15.543 56.6291 15.543C57.4679 15.543 58.1479 14.8624 58.1479 14.023V12.0005Z" fill="#A09DA6"/>
</g>
<g filter="url(#filter15_i_1_8311)">
<path d="M50.0851 13.2092C49.624 12.5077 48.682 12.3125 47.981 12.7732C47.2801 13.2339 47.0857 14.1761 47.5468 14.8776L48.6577 16.5677C49.1188 17.2692 50.0608 17.4644 50.7617 17.0037C51.4627 16.5429 51.6571 15.6008 51.196 14.8993L50.0851 13.2092Z" fill="#A09DA6"/>
</g>
<g filter="url(#filter16_f_1_8311)">
<path d="M23.2139 64.0352C27.0923 64.0352 30.2364 60.8912 30.2364 57.0127C30.2364 53.1343 27.0923 49.9902 23.2139 49.9902C19.3355 49.9902 16.1914 53.1343 16.1914 57.0127C16.1914 60.8912 19.3355 64.0352 23.2139 64.0352Z" fill="url(#paint12_radial_1_8311)"/>
</g>
<g filter="url(#filter17_i_1_8311)">
<path d="M63.1766 13.2082C63.6377 12.5067 64.5797 12.3115 65.2807 12.7722C65.9816 13.233 66.176 14.1751 65.7149 14.8766L64.604 16.5667C64.1429 17.2682 63.2009 17.4634 62.5 17.0027C61.7991 16.542 61.6046 15.5998 62.0657 14.8983L63.1766 13.2082Z" fill="#A09DA6"/>
</g>
<g filter="url(#filter18_i_1_8311)">
<path d="M58.1479 41.5434C58.1479 40.704 57.4679 40.0234 56.6291 40.0234C55.7903 40.0234 55.1104 40.704 55.1104 41.5434V43.5659C55.1104 44.4054 55.7903 45.0859 56.6291 45.0859C57.4679 45.0859 58.1479 44.4054 58.1479 43.5659V41.5434Z" fill="#A09DA6"/>
</g>
<g filter="url(#filter19_i_1_8311)">
<path d="M50.0851 42.7492C49.624 42.0477 48.682 41.8525 47.981 42.3133C47.2801 42.774 47.0857 43.7161 47.5468 44.4176L48.6577 46.1077C49.1188 46.8092 50.0608 47.0044 50.7617 46.5437C51.4627 46.083 51.6571 45.1408 51.196 44.4393L50.0851 42.7492Z" fill="#A09DA6"/>
</g>
<g filter="url(#filter20_i_1_8311)">
<path d="M63.1766 42.7502C63.6377 42.0487 64.5797 41.8535 65.2807 42.3142C65.9816 42.775 66.176 43.7171 65.7149 44.4186L64.604 46.1087C64.1429 46.8102 63.2009 47.0054 62.5 46.5447C61.7991 46.084 61.6046 45.1418 62.0657 44.4403L63.1766 42.7502Z" fill="#A09DA6"/>
</g>
<g filter="url(#filter21_i_1_8311)">
<path d="M24.973 41.5434C24.973 40.704 24.2931 40.0234 23.4543 40.0234C22.6155 40.0234 21.9355 40.704 21.9355 41.5434V43.5659C21.9355 44.4054 22.6155 45.0859 23.4543 45.0859C24.2931 45.0859 24.973 44.4054 24.973 43.5659V41.5434Z" fill="#A09DA6"/>
</g>
<g filter="url(#filter22_i_1_8311)">
<path d="M16.9083 42.7492C16.4472 42.0477 15.5052 41.8525 14.8043 42.3133C14.1034 42.774 13.9089 43.7161 14.37 44.4176L15.4809 46.1077C15.942 46.8092 16.8841 47.0044 17.585 46.5437C18.2859 46.083 18.4803 45.1408 18.0192 44.4393L16.9083 42.7492Z" fill="#A09DA6"/>
</g>
<g filter="url(#filter23_i_1_8311)">
<path d="M29.9989 42.7492C30.46 42.0477 31.402 41.8525 32.1029 42.3133C32.8039 42.774 32.9983 43.7161 32.5372 44.4176L31.4263 46.1077C30.9652 46.8092 30.0232 47.0044 29.3223 46.5437C28.6213 46.083 28.4269 45.1408 28.888 44.4393L29.9989 42.7492Z" fill="#A09DA6"/>
</g>
<g filter="url(#filter24_i_1_8311)">
<path d="M22.2979 57.016V57.0185C22.2979 57.7558 22.8956 58.3535 23.6329 58.3535H29.7853C30.5226 58.3535 31.1203 57.7558 31.1203 57.0185V57.016C31.1203 56.2787 30.5226 55.681 29.7853 55.681H23.6329C22.8956 55.681 22.2979 56.2787 22.2979 57.016Z" fill="#D8CEE4"/>
</g>
<defs>
<filter id="filter0_iii_1_8311" x="4.52441" y="4.52539" width="71.2002" height="70.9502" filterUnits="userSpaceOnUse" color-interpolation-filters="sRGB">
<feFlood flood-opacity="0" result="BackgroundImageFix"/>
<feBlend mode="normal" in="SourceGraphic" in2="BackgroundImageFix" result="shape"/>
<feColorMatrix in="SourceAlpha" type="matrix" values="0 0 0 0 0 0 0 0 0 0 0 0 0 0 0 0 0 0 127 0" result="hardAlpha"/>
<feOffset dx="-0.75" dy="0.75"/>
<feGaussianBlur stdDeviation="0.75"/>
<feComposite in2="hardAlpha" operator="arithmetic" k2="-1" k3="1"/>
<feColorMatrix type="matrix" values="0 0 0 0 0.964706 0 0 0 0 0.94902 0 0 0 0 0.988235 0 0 0 1 0"/>
<feBlend mode="normal" in2="shape" result="effect1_innerShadow_1_8311"/>
<feColorMatrix in="SourceAlpha" type="matrix" values="0 0 0 0 0 0 0 0 0 0 0 0 0 0 0 0 0 0 127 0" result="hardAlpha"/>
<feOffset dy="-0.75"/>
<feGaussianBlur stdDeviation="0.75"/>
<feComposite in2="hardAlpha" operator="arithmetic" k2="-1" k3="1"/>
<feColorMatrix type="matrix" values="0 0 0 0 0.792157 0 0 0 0 0.694118 0 0 0 0 0.894118 0 0 0 1 0"/>
<feBlend mode="normal" in2="effect1_innerShadow_1_8311" result="effect2_innerShadow_1_8311"/>
<feColorMatrix in="SourceAlpha" type="matrix" values="0 0 0 0 0 0 0 0 0 0 0 0 0 0 0 0 0 0 127 0" result="hardAlpha"/>
<feOffset dx="1" dy="0.75"/>
<feGaussianBlur stdDeviation="0.75"/>
<feComposite in2="hardAlpha" operator="arithmetic" k2="-1" k3="1"/>
<feColorMatrix type="matrix" values="0 0 0 0 0.780392 0 0 0 0 0.764706 0 0 0 0 0.8 0 0 0 1 0"/>
<feBlend mode="normal" in2="effect2_innerShadow_1_8311" result="effect3_innerShadow_1_8311"/>
</filter>
<filter id="filter1_f_1_8311" x="11.5762" y="15.668" width="23.75" height="23.75" filterUnits="userSpaceOnUse" color-interpolation-filters="sRGB">
<feFlood flood-opacity="0" result="BackgroundImageFix"/>
<feBlend mode="normal" in="SourceGraphic" in2="BackgroundImageFix" result="shape"/>
<feGaussianBlur stdDeviation="0.25" result="effect1_foregroundBlur_1_8311"/>
</filter>
<filter id="filter2_f_1_8311" x="15.4326" y="19.5205" width="16.0449" height="16.0449" filterUnits="userSpaceOnUse" color-interpolation-filters="sRGB">
<feFlood flood-opacity="0" result="BackgroundImageFix"/>
<feBlend mode="normal" in="SourceGraphic" in2="BackgroundImageFix" result="shape"/>
<feGaussianBlur stdDeviation="0.5" result="effect1_foregroundBlur_1_8311"/>
</filter>
<filter id="filter3_i_1_8311" x="21.4902" y="21.6533" width="7.64746" height="7.02246" filterUnits="userSpaceOnUse" color-interpolation-filters="sRGB">
<feFlood flood-opacity="0" result="BackgroundImageFix"/>
<feBlend mode="normal" in="SourceGraphic" in2="BackgroundImageFix" result="shape"/>
<feColorMatrix in="SourceAlpha" type="matrix" values="0 0 0 0 0 0 0 0 0 0 0 0 0 0 0 0 0 0 127 0" result="hardAlpha"/>
<feOffset dx="-0.625"/>
<feGaussianBlur stdDeviation="0.5"/>
<feComposite in2="hardAlpha" operator="arithmetic" k2="-1" k3="1"/>
<feColorMatrix type="matrix" values="0 0 0 0 0.764706 0 0 0 0 0.741176 0 0 0 0 0.8 0 0 0 1 0"/>
<feBlend mode="normal" in2="shape" result="effect1_innerShadow_1_8311"/>
</filter>
<filter id="filter4_f_1_8311" x="44.7549" y="45.1377" width="23.75" height="23.75" filterUnits="userSpaceOnUse" color-interpolation-filters="sRGB">
<feFlood flood-opacity="0" result="BackgroundImageFix"/>
<feBlend mode="normal" in="SourceGraphic" in2="BackgroundImageFix" result="shape"/>
<feGaussianBlur stdDeviation="0.25" result="effect1_foregroundBlur_1_8311"/>
</filter>
<filter id="filter5_f_1_8311" x="48.3682" y="48.9902" width="16.0449" height="16.0449" filterUnits="userSpaceOnUse" color-interpolation-filters="sRGB">
<feFlood flood-opacity="0" result="BackgroundImageFix"/>
<feBlend mode="normal" in="SourceGraphic" in2="BackgroundImageFix" result="shape"/>
<feGaussianBlur stdDeviation="0.5" result="effect1_foregroundBlur_1_8311"/>
</filter>
<filter id="filter6_i_1_8311" x="50.1152" y="51.3281" width="7.64746" height="7.02246" filterUnits="userSpaceOnUse" color-interpolation-filters="sRGB">
<feFlood flood-opacity="0" result="BackgroundImageFix"/>
<feBlend mode="normal" in="SourceGraphic" in2="BackgroundImageFix" result="shape"/>
<feColorMatrix in="SourceAlpha" type="matrix" values="0 0 0 0 0 0 0 0 0 0 0 0 0 0 0 0 0 0 127 0" result="hardAlpha"/>
<feOffset dx="-0.625"/>
<feGaussianBlur stdDeviation="0.5"/>
<feComposite in2="hardAlpha" operator="arithmetic" k2="-1" k3="1"/>
<feColorMatrix type="matrix" values="0 0 0 0 0.764706 0 0 0 0 0.741176 0 0 0 0 0.8 0 0 0 1 0"/>
<feBlend mode="normal" in2="shape" result="effect1_innerShadow_1_8311"/>
</filter>
<filter id="filter7_f_1_8311" x="44.7549" y="15.668" width="23.75" height="23.75" filterUnits="userSpaceOnUse" color-interpolation-filters="sRGB">
<feFlood flood-opacity="0" result="BackgroundImageFix"/>
<feBlend mode="normal" in="SourceGraphic" in2="BackgroundImageFix" result="shape"/>
<feGaussianBlur stdDeviation="0.25" result="effect1_foregroundBlur_1_8311"/>
</filter>
<filter id="filter8_f_1_8311" x="48.6025" y="19.5205" width="16.0449" height="16.0449" filterUnits="userSpaceOnUse" color-interpolation-filters="sRGB">
<feFlood flood-opacity="0" result="BackgroundImageFix"/>
<feBlend mode="normal" in="SourceGraphic" in2="BackgroundImageFix" result="shape"/>
<feGaussianBlur stdDeviation="0.5" result="effect1_foregroundBlur_1_8311"/>
</filter>
<filter id="filter9_f_1_8311" x="11.5742" y="45.1377" width="23.75" height="23.75" filterUnits="userSpaceOnUse" color-interpolation-filters="sRGB">
<feFlood flood-opacity="0" result="BackgroundImageFix"/>
<feBlend mode="normal" in="SourceGraphic" in2="BackgroundImageFix" result="shape"/>
<feGaussianBlur stdDeviation="0.25" result="effect1_foregroundBlur_1_8311"/>
</filter>
<filter id="filter10_i_1_8311" x="48.3398" y="26.208" width="9.44727" height="2.67285" filterUnits="userSpaceOnUse" color-interpolation-filters="sRGB">
<feFlood flood-opacity="0" result="BackgroundImageFix"/>
<feBlend mode="normal" in="SourceGraphic" in2="BackgroundImageFix" result="shape"/>
<feColorMatrix in="SourceAlpha" type="matrix" values="0 0 0 0 0 0 0 0 0 0 0 0 0 0 0 0 0 0 127 0" result="hardAlpha"/>
<feOffset dx="-0.625"/>
<feGaussianBlur stdDeviation="0.5"/>
<feComposite in2="hardAlpha" operator="arithmetic" k2="-1" k3="1"/>
<feColorMatrix type="matrix" values="0 0 0 0 0.764706 0 0 0 0 0.741176 0 0 0 0 0.8 0 0 0 1 0"/>
<feBlend mode="normal" in2="shape" result="effect1_innerShadow_1_8311"/>
</filter>
<filter id="filter11_i_1_8311" x="21.2275" y="10.4805" width="4.03711" height="5.5625" filterUnits="userSpaceOnUse" color-interpolation-filters="sRGB">
<feFlood flood-opacity="0" result="BackgroundImageFix"/>
<feBlend mode="normal" in="SourceGraphic" in2="BackgroundImageFix" result="shape"/>
<feColorMatrix in="SourceAlpha" type="matrix" values="0 0 0 0 0 0 0 0 0 0 0 0 0 0 0 0 0 0 127 0" result="hardAlpha"/>
<feOffset dx="-1" dy="0.5"/>
<feGaussianBlur stdDeviation="0.5"/>
<feComposite in2="hardAlpha" operator="arithmetic" k2="-1" k3="1"/>
<feColorMatrix type="matrix" values="0 0 0 0 0.552941 0 0 0 0 0.537255 0 0 0 0 0.588235 0 0 0 1 0"/>
<feBlend mode="normal" in2="shape" result="effect1_innerShadow_1_8311"/>
</filter>
<filter id="filter12_i_1_8311" x="13.4121" y="12.5225" width="5.14941" height="5.72949" filterUnits="userSpaceOnUse" color-interpolation-filters="sRGB">
<feFlood flood-opacity="0" result="BackgroundImageFix"/>
<feBlend mode="normal" in="SourceGraphic" in2="BackgroundImageFix" result="shape"/>
<feColorMatrix in="SourceAlpha" type="matrix" values="0 0 0 0 0 0 0 0 0 0 0 0 0 0 0 0 0 0 127 0" result="hardAlpha"/>
<feOffset dx="-1" dy="1"/>
<feGaussianBlur stdDeviation="0.5"/>
<feComposite in2="hardAlpha" operator="arithmetic" k2="-1" k3="1"/>
<feColorMatrix type="matrix" values="0 0 0 0 0.552941 0 0 0 0 0.537255 0 0 0 0 0.588235 0 0 0 1 0"/>
<feBlend mode="normal" in2="shape" result="effect1_innerShadow_1_8311"/>
</filter>
<filter id="filter13_i_1_8311" x="27.9326" y="12.5225" width="5.14941" height="4.72949" filterUnits="userSpaceOnUse" color-interpolation-filters="sRGB">
<feFlood flood-opacity="0" result="BackgroundImageFix"/>
<feBlend mode="normal" in="SourceGraphic" in2="BackgroundImageFix" result="shape"/>
<feColorMatrix in="SourceAlpha" type="matrix" values="0 0 0 0 0 0 0 0 0 0 0 0 0 0 0 0 0 0 127 0" result="hardAlpha"/>
<feOffset dx="-1.25"/>
<feGaussianBlur stdDeviation="0.5"/>
<feComposite in2="hardAlpha" operator="arithmetic" k2="-1" k3="1"/>
<feColorMatrix type="matrix" values="0 0 0 0 0.552941 0 0 0 0 0.537255 0 0 0 0 0.588235 0 0 0 1 0"/>
<feBlend mode="normal" in2="shape" result="effect1_innerShadow_1_8311"/>
</filter>
<filter id="filter14_i_1_8311" x="54.1104" y="10.4805" width="4.03711" height="5.5625" filterUnits="userSpaceOnUse" color-interpolation-filters="sRGB">
<feFlood flood-opacity="0" result="BackgroundImageFix"/>
<feBlend mode="normal" in="SourceGraphic" in2="BackgroundImageFix" result="shape"/>
<feColorMatrix in="SourceAlpha" type="matrix" values="0 0 0 0 0 0 0 0 0 0 0 0 0 0 0 0 0 0 127 0" result="hardAlpha"/>
<feOffset dx="-1" dy="0.5"/>
<feGaussianBlur stdDeviation="0.5"/>
<feComposite in2="hardAlpha" operator="arithmetic" k2="-1" k3="1"/>
<feColorMatrix type="matrix" values="0 0 0 0 0.552941 0 0 0 0 0.537255 0 0 0 0 0.588235 0 0 0 1 0"/>
<feBlend mode="normal" in2="shape" result="effect1_innerShadow_1_8311"/>
</filter>
<filter id="filter15_i_1_8311" x="46.2969" y="12.5234" width="5.14941" height="5.72949" filterUnits="userSpaceOnUse" color-interpolation-filters="sRGB">
<feFlood flood-opacity="0" result="BackgroundImageFix"/>
<feBlend mode="normal" in="SourceGraphic" in2="BackgroundImageFix" result="shape"/>
<feColorMatrix in="SourceAlpha" type="matrix" values="0 0 0 0 0 0 0 0 0 0 0 0 0 0 0 0 0 0 127 0" result="hardAlpha"/>
<feOffset dx="-1" dy="1"/>
<feGaussianBlur stdDeviation="0.5"/>
<feComposite in2="hardAlpha" operator="arithmetic" k2="-1" k3="1"/>
<feColorMatrix type="matrix" values="0 0 0 0 0.552941 0 0 0 0 0.537255 0 0 0 0 0.588235 0 0 0 1 0"/>
<feBlend mode="normal" in2="shape" result="effect1_innerShadow_1_8311"/>
</filter>
<filter id="filter16_f_1_8311" x="15.1914" y="48.9902" width="16.0449" height="16.0449" filterUnits="userSpaceOnUse" color-interpolation-filters="sRGB">
<feFlood flood-opacity="0" result="BackgroundImageFix"/>
<feBlend mode="normal" in="SourceGraphic" in2="BackgroundImageFix" result="shape"/>
<feGaussianBlur stdDeviation="0.5" result="effect1_foregroundBlur_1_8311"/>
</filter>
<filter id="filter17_i_1_8311" x="60.8154" y="12.5225" width="5.14941" height="4.72949" filterUnits="userSpaceOnUse" color-interpolation-filters="sRGB">
<feFlood flood-opacity="0" result="BackgroundImageFix"/>
<feBlend mode="normal" in="SourceGraphic" in2="BackgroundImageFix" result="shape"/>
<feColorMatrix in="SourceAlpha" type="matrix" values="0 0 0 0 0 0 0 0 0 0 0 0 0 0 0 0 0 0 127 0" result="hardAlpha"/>
<feOffset dx="-1.25"/>
<feGaussianBlur stdDeviation="0.5"/>
<feComposite in2="hardAlpha" operator="arithmetic" k2="-1" k3="1"/>
<feColorMatrix type="matrix" values="0 0 0 0 0.552941 0 0 0 0 0.537255 0 0 0 0 0.588235 0 0 0 1 0"/>
<feBlend mode="normal" in2="shape" result="effect1_innerShadow_1_8311"/>
</filter>
<filter id="filter18_i_1_8311" x="54.1104" y="40.0234" width="4.03711" height="5.5625" filterUnits="userSpaceOnUse" color-interpolation-filters="sRGB">
<feFlood flood-opacity="0" result="BackgroundImageFix"/>
<feBlend mode="normal" in="SourceGraphic" in2="BackgroundImageFix" result="shape"/>
<feColorMatrix in="SourceAlpha" type="matrix" values="0 0 0 0 0 0 0 0 0 0 0 0 0 0 0 0 0 0 127 0" result="hardAlpha"/>
<feOffset dx="-1" dy="0.5"/>
<feGaussianBlur stdDeviation="0.5"/>
<feComposite in2="hardAlpha" operator="arithmetic" k2="-1" k3="1"/>
<feColorMatrix type="matrix" values="0 0 0 0 0.552941 0 0 0 0 0.537255 0 0 0 0 0.588235 0 0 0 1 0"/>
<feBlend mode="normal" in2="shape" result="effect1_innerShadow_1_8311"/>
</filter>
<filter id="filter19_i_1_8311" x="46.2969" y="42.0635" width="5.14941" height="5.72949" filterUnits="userSpaceOnUse" color-interpolation-filters="sRGB">
<feFlood flood-opacity="0" result="BackgroundImageFix"/>
<feBlend mode="normal" in="SourceGraphic" in2="BackgroundImageFix" result="shape"/>
<feColorMatrix in="SourceAlpha" type="matrix" values="0 0 0 0 0 0 0 0 0 0 0 0 0 0 0 0 0 0 127 0" result="hardAlpha"/>
<feOffset dx="-1" dy="1"/>
<feGaussianBlur stdDeviation="0.5"/>
<feComposite in2="hardAlpha" operator="arithmetic" k2="-1" k3="1"/>
<feColorMatrix type="matrix" values="0 0 0 0 0.552941 0 0 0 0 0.537255 0 0 0 0 0.588235 0 0 0 1 0"/>
<feBlend mode="normal" in2="shape" result="effect1_innerShadow_1_8311"/>
</filter>
<filter id="filter20_i_1_8311" x="60.8154" y="42.0645" width="5.14941" height="4.72949" filterUnits="userSpaceOnUse" color-interpolation-filters="sRGB">
<feFlood flood-opacity="0" result="BackgroundImageFix"/>
<feBlend mode="normal" in="SourceGraphic" in2="BackgroundImageFix" result="shape"/>
<feColorMatrix in="SourceAlpha" type="matrix" values="0 0 0 0 0 0 0 0 0 0 0 0 0 0 0 0 0 0 127 0" result="hardAlpha"/>
<feOffset dx="-1.25"/>
<feGaussianBlur stdDeviation="0.5"/>
<feComposite in2="hardAlpha" operator="arithmetic" k2="-1" k3="1"/>
<feColorMatrix type="matrix" values="0 0 0 0 0.552941 0 0 0 0 0.537255 0 0 0 0 0.588235 0 0 0 1 0"/>
<feBlend mode="normal" in2="shape" result="effect1_innerShadow_1_8311"/>
</filter>
<filter id="filter21_i_1_8311" x="20.9355" y="40.0234" width="4.03711" height="5.5625" filterUnits="userSpaceOnUse" color-interpolation-filters="sRGB">
<feFlood flood-opacity="0" result="BackgroundImageFix"/>
<feBlend mode="normal" in="SourceGraphic" in2="BackgroundImageFix" result="shape"/>
<feColorMatrix in="SourceAlpha" type="matrix" values="0 0 0 0 0 0 0 0 0 0 0 0 0 0 0 0 0 0 127 0" result="hardAlpha"/>
<feOffset dx="-1" dy="0.5"/>
<feGaussianBlur stdDeviation="0.5"/>
<feComposite in2="hardAlpha" operator="arithmetic" k2="-1" k3="1"/>
<feColorMatrix type="matrix" values="0 0 0 0 0.552941 0 0 0 0 0.537255 0 0 0 0 0.588235 0 0 0 1 0"/>
<feBlend mode="normal" in2="shape" result="effect1_innerShadow_1_8311"/>
</filter>
<filter id="filter22_i_1_8311" x="13.1201" y="42.0635" width="5.14941" height="5.72949" filterUnits="userSpaceOnUse" color-interpolation-filters="sRGB">
<feFlood flood-opacity="0" result="BackgroundImageFix"/>
<feBlend mode="normal" in="SourceGraphic" in2="BackgroundImageFix" result="shape"/>
<feColorMatrix in="SourceAlpha" type="matrix" values="0 0 0 0 0 0 0 0 0 0 0 0 0 0 0 0 0 0 127 0" result="hardAlpha"/>
<feOffset dx="-1" dy="1"/>
<feGaussianBlur stdDeviation="0.5"/>
<feComposite in2="hardAlpha" operator="arithmetic" k2="-1" k3="1"/>
<feColorMatrix type="matrix" values="0 0 0 0 0.552941 0 0 0 0 0.537255 0 0 0 0 0.588235 0 0 0 1 0"/>
<feBlend mode="normal" in2="shape" result="effect1_innerShadow_1_8311"/>
</filter>
<filter id="filter23_i_1_8311" x="27.6377" y="42.0635" width="5.14941" height="4.72949" filterUnits="userSpaceOnUse" color-interpolation-filters="sRGB">
<feFlood flood-opacity="0" result="BackgroundImageFix"/>
<feBlend mode="normal" in="SourceGraphic" in2="BackgroundImageFix" result="shape"/>
<feColorMatrix in="SourceAlpha" type="matrix" values="0 0 0 0 0 0 0 0 0 0 0 0 0 0 0 0 0 0 127 0" result="hardAlpha"/>
<feOffset dx="-1.25"/>
<feGaussianBlur stdDeviation="0.5"/>
<feComposite in2="hardAlpha" operator="arithmetic" k2="-1" k3="1"/>
<feColorMatrix type="matrix" values="0 0 0 0 0.552941 0 0 0 0 0.537255 0 0 0 0 0.588235 0 0 0 1 0"/>
<feBlend mode="normal" in2="shape" result="effect1_innerShadow_1_8311"/>
</filter>
<filter id="filter24_i_1_8311" x="21.6729" y="55.6807" width="9.44727" height="2.67285" filterUnits="userSpaceOnUse" color-interpolation-filters="sRGB">
<feFlood flood-opacity="0" result="BackgroundImageFix"/>
<feBlend mode="normal" in="SourceGraphic" in2="BackgroundImageFix" result="shape"/>
<feColorMatrix in="SourceAlpha" type="matrix" values="0 0 0 0 0 0 0 0 0 0 0 0 0 0 0 0 0 0 127 0" result="hardAlpha"/>
<feOffset dx="-0.625"/>
<feGaussianBlur stdDeviation="0.5"/>
<feComposite in2="hardAlpha" operator="arithmetic" k2="-1" k3="1"/>
<feColorMatrix type="matrix" values="0 0 0 0 0.764706 0 0 0 0 0.741176 0 0 0 0 0.8 0 0 0 1 0"/>
<feBlend mode="normal" in2="shape" result="effect1_innerShadow_1_8311"/>
</filter>
<linearGradient id="paint0_linear_1_8311" x1="68.1869" y1="8.09289" x2="37.0194" y2="71.3754" gradientUnits="userSpaceOnUse">
<stop stop-color="#E7E1F0"/>
<stop offset="1" stop-color="#D1C2E2"/>
</linearGradient>
<linearGradient id="paint1_linear_1_8311" x1="31.9812" y1="22.7605" x2="13.6287" y2="33.7055" gradientUnits="userSpaceOnUse">
<stop stop-color="#ADB1C9"/>
<stop offset="1" stop-color="#A09BB4"/>
</linearGradient>
<linearGradient id="paint2_linear_1_8311" x1="17.3344" y1="33.2737" x2="30.1744" y2="22.1587" gradientUnits="userSpaceOnUse">
<stop stop-color="#2C6DB8"/>
<stop offset="1" stop-color="#53A5E4"/>
</linearGradient>
<radialGradient id="paint3_radial_1_8311" cx="0" cy="0" r="1" gradientUnits="userSpaceOnUse" gradientTransform="translate(19.4059 30.3428) rotate(-41.711) scale(10.6197)">
<stop stop-color="#3A82C7"/>
<stop offset="1" stop-color="#3893D7"/>
</radialGradient>
<linearGradient id="paint4_linear_1_8311" x1="66.8849" y1="62.3102" x2="51.8049" y2="54.9877" gradientUnits="userSpaceOnUse">
<stop stop-color="#ADB1C9"/>
<stop offset="1" stop-color="#A09BB4"/>
</linearGradient>
<radialGradient id="paint5_radial_1_8311" cx="0" cy="0" r="1" gradientUnits="userSpaceOnUse" gradientTransform="translate(63.3464 51.7127) rotate(139.325) scale(14.5433)">
<stop offset="0.377" stop-color="#57A9EB"/>
<stop offset="1" stop-color="#386ABC"/>
</radialGradient>
<radialGradient id="paint6_radial_1_8311" cx="0" cy="0" r="1" gradientUnits="userSpaceOnUse" gradientTransform="translate(52.3391 59.8144) rotate(-39.265) scale(11.4366)">
<stop stop-color="#3B7AC6"/>
<stop offset="1" stop-color="#3996DF"/>
</radialGradient>
<linearGradient id="paint7_linear_1_8311" x1="65.3349" y1="33.0155" x2="45.2549" y2="24.1405" gradientUnits="userSpaceOnUse">
<stop stop-color="#B0AEC8"/>
<stop offset="1" stop-color="#A5A2B8"/>
</linearGradient>
<linearGradient id="paint8_linear_1_8311" x1="50.5121" y1="33.2727" x2="61.9721" y2="23.6227" gradientUnits="userSpaceOnUse">
<stop stop-color="#2A6AB5"/>
<stop offset="1" stop-color="#52A8E7"/>
</linearGradient>
<radialGradient id="paint9_radial_1_8311" cx="0" cy="0" r="1" gradientUnits="userSpaceOnUse" gradientTransform="translate(62.1398 23.7099) rotate(141.823) scale(14.3598)">
<stop stop-color="#3898DE"/>
<stop offset="1" stop-color="#3B7FC5"/>
</radialGradient>
<linearGradient id="paint10_linear_1_8311" x1="31.2042" y1="59.8977" x2="14.8317" y2="51.1952" gradientUnits="userSpaceOnUse">
<stop stop-color="#ABA7C8"/>
<stop offset="1" stop-color="#A6A2B9"/>
</linearGradient>
<radialGradient id="paint11_radial_1_8311" cx="0" cy="0" r="1" gradientUnits="userSpaceOnUse" gradientTransform="translate(30.175 51.7125) rotate(139.325) scale(14.5433)">
<stop stop-color="#4CA1E5"/>
<stop offset="1" stop-color="#3867B9"/>
</radialGradient>
<radialGradient id="paint12_radial_1_8311" cx="0" cy="0" r="1" gradientUnits="userSpaceOnUse" gradientTransform="translate(19.1641 59.8129) rotate(-39.265) scale(11.4366)">
<stop stop-color="#3B7AC6"/>
<stop offset="1" stop-color="#3996DF"/>
</radialGradient>
</defs>
</svg>
