<svg width="80" height="80" viewBox="0 0 80 80" fill="none" xmlns="http://www.w3.org/2000/svg">
<g filter="url(#filter0_i_1_8369)">
<path d="M42.4746 7.47559H41.2246V6.22559C41.2246 5.52559 40.6746 4.97559 39.9746 4.97559C39.2746 4.97559 38.7246 5.52559 38.7246 6.22559V7.47559H37.4746C36.7746 7.47559 36.2246 8.02559 36.2246 8.72559C36.2246 9.42559 36.7746 9.97559 37.4746 9.97559H38.7246V19.4756C38.7246 20.1756 39.2746 20.7256 39.9746 20.7256C40.6746 20.7256 41.2246 20.1756 41.2246 19.4756V9.97559H42.4746C43.1746 9.97559 43.7246 9.42559 43.7246 8.72559C43.7246 8.05059 43.1496 7.47559 42.4746 7.47559Z" fill="#8F6058"/>
</g>
<path d="M55 44.9756H25V28.8006L39.975 17.4756L55 28.8006V44.9756Z" fill="url(#paint0_linear_1_8369)"/>
<path d="M55 44.9756H25V28.8006L39.975 17.4756L55 28.8006V44.9756Z" fill="url(#paint1_radial_1_8369)"/>
<path d="M55 44.9756H25V28.8006L39.975 17.4756L55 28.8006V44.9756Z" fill="url(#paint2_linear_1_8369)"/>
<path d="M55 44.9756H25V28.8006L39.975 17.4756L55 28.8006V44.9756Z" fill="url(#paint3_linear_1_8369)"/>
<path d="M55 44.9756H25V28.8006L39.975 17.4756L55 28.8006V44.9756Z" fill="url(#paint4_linear_1_8369)"/>
<path d="M55 44.9756H25V28.8006L39.975 17.4756L55 28.8006V44.9756Z" fill="url(#paint5_radial_1_8369)"/>
<g filter="url(#filter1_i_1_8369)">
<path d="M25.45 29.6005L38.075 20.5755C39.225 19.7505 40.775 19.7505 41.925 20.5755L54.55 29.6005C54.861 29.821 55.2268 29.9515 55.6071 29.9778C55.9874 30.004 56.3676 29.925 56.706 29.7494C57.0444 29.5737 57.3278 29.3083 57.5252 28.9821C57.7226 28.656 57.8263 28.2817 57.825 27.9005C57.825 27.2255 57.5 26.6005 56.95 26.2005L42.225 15.7005C41.5712 15.2249 40.7835 14.9687 39.975 14.9688C39.1665 14.9688 38.3788 15.2249 37.725 15.7005L23 26.2005C22.45 26.6005 22.125 27.2255 22.125 27.9005C22.175 29.6005 24.075 30.5755 25.45 29.6005Z" fill="url(#paint6_linear_1_8369)"/>
</g>
<path d="M25.45 29.6005L38.075 20.5755C39.225 19.7505 40.775 19.7505 41.925 20.5755L54.55 29.6005C54.861 29.821 55.2268 29.9515 55.6071 29.9778C55.9874 30.004 56.3676 29.925 56.706 29.7494C57.0444 29.5737 57.3278 29.3083 57.5252 28.9821C57.7226 28.656 57.8263 28.2817 57.825 27.9005C57.825 27.2255 57.5 26.6005 56.95 26.2005L42.225 15.7005C41.5712 15.2249 40.7835 14.9687 39.975 14.9688C39.1665 14.9688 38.3788 15.2249 37.725 15.7005L23 26.2005C22.45 26.6005 22.125 27.2255 22.125 27.9005C22.175 29.6005 24.075 30.5755 25.45 29.6005Z" fill="url(#paint7_linear_1_8369)"/>
<path d="M25.45 29.6005L38.075 20.5755C39.225 19.7505 40.775 19.7505 41.925 20.5755L54.55 29.6005C54.861 29.821 55.2268 29.9515 55.6071 29.9778C55.9874 30.004 56.3676 29.925 56.706 29.7494C57.0444 29.5737 57.3278 29.3083 57.5252 28.9821C57.7226 28.656 57.8263 28.2817 57.825 27.9005C57.825 27.2255 57.5 26.6005 56.95 26.2005L42.225 15.7005C41.5712 15.2249 40.7835 14.9687 39.975 14.9688C39.1665 14.9688 38.3788 15.2249 37.725 15.7005L23 26.2005C22.45 26.6005 22.125 27.2255 22.125 27.9005C22.175 29.6005 24.075 30.5755 25.45 29.6005Z" fill="url(#paint8_linear_1_8369)"/>
<path d="M70 74.9756H10V56.2256L39.975 37.4756L70 56.2256V74.9756Z" fill="url(#paint9_linear_1_8369)"/>
<path d="M70 74.9756H10V56.2256L39.975 37.4756L70 56.2256V74.9756Z" fill="url(#paint10_linear_1_8369)"/>
<path d="M70 74.9756H10V56.2256L39.975 37.4756L70 56.2256V74.9756Z" fill="url(#paint11_linear_1_8369)"/>
<path d="M70 74.9756H10V56.2256L39.975 37.4756L70 56.2256V74.9756Z" fill="url(#paint12_radial_1_8369)"/>
<path d="M70 74.9756H10V56.2256L39.975 37.4756L70 56.2256V74.9756Z" fill="url(#paint13_linear_1_8369)"/>
<path d="M70 74.9756H10V56.2256L39.975 37.4756L70 56.2256V74.9756Z" fill="url(#paint14_linear_1_8369)"/>
<path d="M70 74.9756H10V56.2256L39.975 37.4756L70 56.2256V74.9756Z" fill="url(#paint15_radial_1_8369)"/>
<g filter="url(#filter2_ii_1_8369)">
<path d="M43.95 39.9756H36.05C35.475 39.9756 35 39.5006 35 38.9256V32.4756C35 29.7256 37.25 27.4756 40 27.4756C42.75 27.4756 45 29.7256 45 32.4756V38.9256C45 39.5006 44.525 39.9756 43.95 39.9756Z" fill="url(#paint16_linear_1_8369)"/>
</g>
<g filter="url(#filter3_i_1_8369)">
<path d="M45 54.9756C45 52.2256 42.75 49.9756 40 49.9756C37.25 49.9756 35 52.2256 35 54.9756V69.9756H45V54.9756Z" fill="url(#paint17_linear_1_8369)"/>
<path d="M45 54.9756C45 52.2256 42.75 49.9756 40 49.9756C37.25 49.9756 35 52.2256 35 54.9756V69.9756H45V54.9756Z" fill="url(#paint18_linear_1_8369)"/>
</g>
<g filter="url(#filter4_ii_1_8369)">
<path d="M30.0014 61.3996C30.0014 59.2246 28.2514 57.4746 26.0764 57.4746C23.9014 57.4746 22.1514 59.2246 22.1514 61.3996V72.7421H29.9764V61.3996H30.0014Z" fill="url(#paint19_linear_1_8369)"/>
</g>
<g filter="url(#filter5_ii_1_8369)">
<path d="M57.8492 61.4256C57.8492 59.2506 56.0742 57.4756 53.8992 57.4756C51.7242 57.4756 49.9492 59.2506 49.9492 61.4256V72.7431H57.8492V61.4256Z" fill="url(#paint20_linear_1_8369)"/>
</g>
<g filter="url(#filter6_i_1_8369)">
<path d="M4.99863 57.6977C4.99863 56.9977 5.34863 56.3727 5.94863 55.9977L36.5736 36.8727C38.6986 35.5477 41.3736 35.5477 43.4736 36.8727L74.0486 55.9977C74.2719 56.1372 74.4655 56.3193 74.6183 56.5337C74.7712 56.748 74.8803 56.9904 74.9395 57.2469C74.9987 57.5034 75.0068 57.7691 74.9633 58.0287C74.9199 58.2884 74.8257 58.5369 74.6861 58.7602C74.5466 58.9834 74.3645 59.177 74.1501 59.3298C73.9358 59.4827 73.6934 59.5918 73.4369 59.651C73.1804 59.7102 72.9147 59.7183 72.6551 59.6749C72.3954 59.6314 72.1469 59.5372 71.9236 59.3977L44.1486 42.0977C40.5736 40.0977 39.1986 40.1227 35.8736 42.0977L8.04863 59.6727C6.72363 60.5227 4.97363 59.5477 4.97363 57.9727V57.6977H4.99863Z" fill="url(#paint21_linear_1_8369)"/>
</g>
<path d="M5.95141 55.9977L36.5764 36.8727C38.7014 35.5477 41.3764 35.5477 43.4764 36.8727L74.0514 55.9977C74.2747 56.1372 74.4682 56.3193 74.6211 56.5337C74.7739 56.748 74.8831 56.9904 74.9423 57.2469C75.0015 57.5034 75.0096 57.7691 74.9661 58.0287C74.9226 58.2884 74.8284 58.5369 74.6889 58.7602C74.5494 58.9834 74.3672 59.177 74.1529 59.3298C73.9386 59.4827 73.6962 59.5918 73.4397 59.651C73.1832 59.7102 72.9175 59.7183 72.6578 59.6749C72.3982 59.6314 72.1497 59.5372 71.9264 59.3977L44.1514 42.0977C40.5764 40.0977 39.2014 40.1227 35.8764 42.0977L8.05141 59.6727C6.72641 60.5227 4.94141 59.5352 4.94141 57.9602C4.94141 56.7602 5.50391 56.2777 5.95141 55.9977Z" fill="url(#paint22_linear_1_8369)"/>
<path d="M5.95141 55.9977L36.5764 36.8727C38.7014 35.5477 41.3764 35.5477 43.4764 36.8727L74.0514 55.9977C74.2747 56.1372 74.4682 56.3193 74.6211 56.5337C74.7739 56.748 74.8831 56.9904 74.9423 57.2469C75.0015 57.5034 75.0096 57.7691 74.9661 58.0287C74.9226 58.2884 74.8284 58.5369 74.6889 58.7602C74.5494 58.9834 74.3672 59.177 74.1529 59.3298C73.9386 59.4827 73.6962 59.5918 73.4397 59.651C73.1832 59.7102 72.9175 59.7183 72.6578 59.6749C72.3982 59.6314 72.1497 59.5372 71.9264 59.3977L44.1514 42.0977C40.5764 40.0977 39.2014 40.1227 35.8764 42.0977L8.05141 59.6727C6.72641 60.5227 4.94141 59.5352 4.94141 57.9602C4.94141 56.7602 5.50391 56.2777 5.95141 55.9977Z" fill="url(#paint23_linear_1_8369)"/>
<g filter="url(#filter7_f_1_8369)">
<path d="M24.8242 27.7083L38.9142 17.6533C39.3388 17.3499 39.8478 17.1871 40.3696 17.1875C40.8915 17.1879 41.4001 17.3517 41.8242 17.6558L55.8392 27.7058" stroke="url(#paint24_linear_1_8369)" stroke-linecap="round"/>
</g>
<g filter="url(#filter8_i_1_8369)">
<path d="M74.9998 74.9482H4.9248V73.2982C4.9248 71.4482 6.4248 69.9482 8.2748 69.9482H71.6498C73.4998 69.9482 74.9998 71.4482 74.9998 73.2982V74.9482Z" fill="url(#paint25_linear_1_8369)"/>
</g>
<path d="M74.9998 74.9482H4.9248V73.2982C4.9248 71.4482 6.4248 69.9482 8.2748 69.9482H71.6498C73.4998 69.9482 74.9998 71.4482 74.9998 73.2982V74.9482Z" fill="url(#paint26_linear_1_8369)"/>
<path d="M74.9998 74.9482H4.9248V73.2982C4.9248 71.4482 6.4248 69.9482 8.2748 69.9482H71.6498C73.4998 69.9482 74.9998 71.4482 74.9998 73.2982V74.9482Z" fill="url(#paint27_linear_1_8369)"/>
<g filter="url(#filter9_f_1_8369)">
<path d="M7.75781 57.2669L40.1078 37.2969L72.4578 57.2669" stroke="url(#paint28_linear_1_8369)" stroke-linecap="round"/>
</g>
<g filter="url(#filter10_f_1_8369)">
<path d="M40.1074 5.99609V14.1411" stroke="#A0776E" stroke-width="0.75" stroke-linecap="round"/>
</g>
<g filter="url(#filter11_f_1_8369)">
<path d="M37.5244 8.5625H42.6894" stroke="#A0776E" stroke-width="0.75" stroke-linecap="round"/>
</g>
<defs>
<filter id="filter0_i_1_8369" x="36.2246" y="4.97559" width="8.125" height="15.75" filterUnits="userSpaceOnUse" color-interpolation-filters="sRGB">
<feFlood flood-opacity="0" result="BackgroundImageFix"/>
<feBlend mode="normal" in="SourceGraphic" in2="BackgroundImageFix" result="shape"/>
<feColorMatrix in="SourceAlpha" type="matrix" values="0 0 0 0 0 0 0 0 0 0 0 0 0 0 0 0 0 0 127 0" result="hardAlpha"/>
<feOffset dx="0.625"/>
<feGaussianBlur stdDeviation="0.625"/>
<feComposite in2="hardAlpha" operator="arithmetic" k2="-1" k3="1"/>
<feColorMatrix type="matrix" values="0 0 0 0 0.45098 0 0 0 0 0.227451 0 0 0 0 0.278431 0 0 0 1 0"/>
<feBlend mode="normal" in2="shape" result="effect1_innerShadow_1_8369"/>
</filter>
<filter id="filter1_i_1_8369" x="22.125" y="13.9688" width="36.2002" height="16.0195" filterUnits="userSpaceOnUse" color-interpolation-filters="sRGB">
<feFlood flood-opacity="0" result="BackgroundImageFix"/>
<feBlend mode="normal" in="SourceGraphic" in2="BackgroundImageFix" result="shape"/>
<feColorMatrix in="SourceAlpha" type="matrix" values="0 0 0 0 0 0 0 0 0 0 0 0 0 0 0 0 0 0 127 0" result="hardAlpha"/>
<feOffset dx="0.5" dy="-1"/>
<feGaussianBlur stdDeviation="0.625"/>
<feComposite in2="hardAlpha" operator="arithmetic" k2="-1" k3="1"/>
<feColorMatrix type="matrix" values="0 0 0 0 0.505882 0 0 0 0 0.301961 0 0 0 0 0.262745 0 0 0 1 0"/>
<feBlend mode="normal" in2="shape" result="effect1_innerShadow_1_8369"/>
</filter>
<filter id="filter2_ii_1_8369" x="33.75" y="27.4756" width="11.75" height="13.125" filterUnits="userSpaceOnUse" color-interpolation-filters="sRGB">
<feFlood flood-opacity="0" result="BackgroundImageFix"/>
<feBlend mode="normal" in="SourceGraphic" in2="BackgroundImageFix" result="shape"/>
<feColorMatrix in="SourceAlpha" type="matrix" values="0 0 0 0 0 0 0 0 0 0 0 0 0 0 0 0 0 0 127 0" result="hardAlpha"/>
<feOffset dx="0.5"/>
<feGaussianBlur stdDeviation="1.25"/>
<feComposite in2="hardAlpha" operator="arithmetic" k2="-1" k3="1"/>
<feColorMatrix type="matrix" values="0 0 0 0 0.380392 0 0 0 0 1 0 0 0 0 1 0 0 0 1 0"/>
<feBlend mode="normal" in2="shape" result="effect1_innerShadow_1_8369"/>
<feColorMatrix in="SourceAlpha" type="matrix" values="0 0 0 0 0 0 0 0 0 0 0 0 0 0 0 0 0 0 127 0" result="hardAlpha"/>
<feOffset dx="-1.25" dy="0.625"/>
<feGaussianBlur stdDeviation="1.25"/>
<feComposite in2="hardAlpha" operator="arithmetic" k2="-1" k3="1"/>
<feColorMatrix type="matrix" values="0 0 0 0 0.0352941 0 0 0 0 0.415686 0 0 0 0 0.631373 0 0 0 1 0"/>
<feBlend mode="normal" in2="effect1_innerShadow_1_8369" result="effect2_innerShadow_1_8369"/>
</filter>
<filter id="filter3_i_1_8369" x="33.75" y="49.9756" width="11.25" height="20.625" filterUnits="userSpaceOnUse" color-interpolation-filters="sRGB">
<feFlood flood-opacity="0" result="BackgroundImageFix"/>
<feBlend mode="normal" in="SourceGraphic" in2="BackgroundImageFix" result="shape"/>
<feColorMatrix in="SourceAlpha" type="matrix" values="0 0 0 0 0 0 0 0 0 0 0 0 0 0 0 0 0 0 127 0" result="hardAlpha"/>
<feOffset dx="-1.25" dy="0.625"/>
<feGaussianBlur stdDeviation="0.9375"/>
<feComposite in2="hardAlpha" operator="arithmetic" k2="-1" k3="1"/>
<feColorMatrix type="matrix" values="0 0 0 0 0.12549 0 0 0 0 0.105882 0 0 0 0 0.145098 0 0 0 1 0"/>
<feBlend mode="normal" in2="shape" result="effect1_innerShadow_1_8369"/>
</filter>
<filter id="filter4_ii_1_8369" x="21.5264" y="57.4746" width="8.97461" height="15.8926" filterUnits="userSpaceOnUse" color-interpolation-filters="sRGB">
<feFlood flood-opacity="0" result="BackgroundImageFix"/>
<feBlend mode="normal" in="SourceGraphic" in2="BackgroundImageFix" result="shape"/>
<feColorMatrix in="SourceAlpha" type="matrix" values="0 0 0 0 0 0 0 0 0 0 0 0 0 0 0 0 0 0 127 0" result="hardAlpha"/>
<feOffset dx="0.5"/>
<feGaussianBlur stdDeviation="1.25"/>
<feComposite in2="hardAlpha" operator="arithmetic" k2="-1" k3="1"/>
<feColorMatrix type="matrix" values="0 0 0 0 0.380392 0 0 0 0 1 0 0 0 0 1 0 0 0 1 0"/>
<feBlend mode="normal" in2="shape" result="effect1_innerShadow_1_8369"/>
<feColorMatrix in="SourceAlpha" type="matrix" values="0 0 0 0 0 0 0 0 0 0 0 0 0 0 0 0 0 0 127 0" result="hardAlpha"/>
<feOffset dx="-0.625" dy="0.625"/>
<feGaussianBlur stdDeviation="1"/>
<feComposite in2="hardAlpha" operator="arithmetic" k2="-1" k3="1"/>
<feColorMatrix type="matrix" values="0 0 0 0 0.0509804 0 0 0 0 0.486275 0 0 0 0 0.772549 0 0 0 1 0"/>
<feBlend mode="normal" in2="effect1_innerShadow_1_8369" result="effect2_innerShadow_1_8369"/>
</filter>
<filter id="filter5_ii_1_8369" x="49.3242" y="57.4756" width="9.02539" height="15.8926" filterUnits="userSpaceOnUse" color-interpolation-filters="sRGB">
<feFlood flood-opacity="0" result="BackgroundImageFix"/>
<feBlend mode="normal" in="SourceGraphic" in2="BackgroundImageFix" result="shape"/>
<feColorMatrix in="SourceAlpha" type="matrix" values="0 0 0 0 0 0 0 0 0 0 0 0 0 0 0 0 0 0 127 0" result="hardAlpha"/>
<feOffset dx="0.5"/>
<feGaussianBlur stdDeviation="1.25"/>
<feComposite in2="hardAlpha" operator="arithmetic" k2="-1" k3="1"/>
<feColorMatrix type="matrix" values="0 0 0 0 0.380392 0 0 0 0 1 0 0 0 0 1 0 0 0 1 0"/>
<feBlend mode="normal" in2="shape" result="effect1_innerShadow_1_8369"/>
<feColorMatrix in="SourceAlpha" type="matrix" values="0 0 0 0 0 0 0 0 0 0 0 0 0 0 0 0 0 0 127 0" result="hardAlpha"/>
<feOffset dx="-0.625" dy="0.625"/>
<feGaussianBlur stdDeviation="1"/>
<feComposite in2="hardAlpha" operator="arithmetic" k2="-1" k3="1"/>
<feColorMatrix type="matrix" values="0 0 0 0 0.0509804 0 0 0 0 0.486275 0 0 0 0 0.772549 0 0 0 1 0"/>
<feBlend mode="normal" in2="effect1_innerShadow_1_8369" result="effect2_innerShadow_1_8369"/>
</filter>
<filter id="filter6_i_1_8369" x="4.97363" y="34.8789" width="70.5176" height="25.1084" filterUnits="userSpaceOnUse" color-interpolation-filters="sRGB">
<feFlood flood-opacity="0" result="BackgroundImageFix"/>
<feBlend mode="normal" in="SourceGraphic" in2="BackgroundImageFix" result="shape"/>
<feColorMatrix in="SourceAlpha" type="matrix" values="0 0 0 0 0 0 0 0 0 0 0 0 0 0 0 0 0 0 127 0" result="hardAlpha"/>
<feOffset dx="0.5" dy="-1"/>
<feGaussianBlur stdDeviation="0.625"/>
<feComposite in2="hardAlpha" operator="arithmetic" k2="-1" k3="1"/>
<feColorMatrix type="matrix" values="0 0 0 0 0.505882 0 0 0 0 0.301961 0 0 0 0 0.262745 0 0 0 1 0"/>
<feBlend mode="normal" in2="shape" result="effect1_innerShadow_1_8369"/>
</filter>
<filter id="filter7_f_1_8369" x="22.3242" y="14.6875" width="36.0146" height="15.5205" filterUnits="userSpaceOnUse" color-interpolation-filters="sRGB">
<feFlood flood-opacity="0" result="BackgroundImageFix"/>
<feBlend mode="normal" in="SourceGraphic" in2="BackgroundImageFix" result="shape"/>
<feGaussianBlur stdDeviation="1" result="effect1_foregroundBlur_1_8369"/>
</filter>
<filter id="filter8_i_1_8369" x="4.9248" y="69.9482" width="70.7002" height="5.625" filterUnits="userSpaceOnUse" color-interpolation-filters="sRGB">
<feFlood flood-opacity="0" result="BackgroundImageFix"/>
<feBlend mode="normal" in="SourceGraphic" in2="BackgroundImageFix" result="shape"/>
<feColorMatrix in="SourceAlpha" type="matrix" values="0 0 0 0 0 0 0 0 0 0 0 0 0 0 0 0 0 0 127 0" result="hardAlpha"/>
<feOffset dx="0.625" dy="0.625"/>
<feGaussianBlur stdDeviation="0.625"/>
<feComposite in2="hardAlpha" operator="arithmetic" k2="-1" k3="1"/>
<feColorMatrix type="matrix" values="0 0 0 0 0.352941 0 0 0 0 0.298039 0 0 0 0 0.286275 0 0 0 1 0"/>
<feBlend mode="normal" in2="shape" result="effect1_innerShadow_1_8369"/>
</filter>
<filter id="filter9_f_1_8369" x="5.25781" y="34.709" width="69.7002" height="25.0576" filterUnits="userSpaceOnUse" color-interpolation-filters="sRGB">
<feFlood flood-opacity="0" result="BackgroundImageFix"/>
<feBlend mode="normal" in="SourceGraphic" in2="BackgroundImageFix" result="shape"/>
<feGaussianBlur stdDeviation="1" result="effect1_foregroundBlur_1_8369"/>
</filter>
<filter id="filter10_f_1_8369" x="38.7324" y="4.62109" width="2.75" height="10.8945" filterUnits="userSpaceOnUse" color-interpolation-filters="sRGB">
<feFlood flood-opacity="0" result="BackgroundImageFix"/>
<feBlend mode="normal" in="SourceGraphic" in2="BackgroundImageFix" result="shape"/>
<feGaussianBlur stdDeviation="0.5" result="effect1_foregroundBlur_1_8369"/>
</filter>
<filter id="filter11_f_1_8369" x="36.1494" y="7.1875" width="7.91504" height="2.75" filterUnits="userSpaceOnUse" color-interpolation-filters="sRGB">
<feFlood flood-opacity="0" result="BackgroundImageFix"/>
<feBlend mode="normal" in="SourceGraphic" in2="BackgroundImageFix" result="shape"/>
<feGaussianBlur stdDeviation="0.5" result="effect1_foregroundBlur_1_8369"/>
</filter>
<linearGradient id="paint0_linear_1_8369" x1="49.4475" y1="40.7106" x2="31.55" y2="26.1281" gradientUnits="userSpaceOnUse">
<stop stop-color="#EEC096"/>
<stop offset="0.981" stop-color="#E9B188"/>
</linearGradient>
<radialGradient id="paint1_radial_1_8369" cx="0" cy="0" r="1" gradientUnits="userSpaceOnUse" gradientTransform="translate(25 43.5256) rotate(-40.3173) scale(22.2824 25.102)">
<stop stop-color="#E1A470"/>
<stop offset="1" stop-color="#E1A470" stop-opacity="0"/>
</radialGradient>
<linearGradient id="paint2_linear_1_8369" x1="25" y1="37.5606" x2="27.4475" y2="37.5606" gradientUnits="userSpaceOnUse">
<stop stop-color="#9F7350"/>
<stop offset="1" stop-color="#9F7350" stop-opacity="0"/>
</linearGradient>
<linearGradient id="paint3_linear_1_8369" x1="47.4875" y1="23.4656" x2="46.2075" y2="25.2381" gradientUnits="userSpaceOnUse">
<stop stop-color="#A56A60"/>
<stop offset="1" stop-color="#A56A60" stop-opacity="0"/>
</linearGradient>
<linearGradient id="paint4_linear_1_8369" x1="55" y1="39.3256" x2="52.985" y2="39.3256" gradientUnits="userSpaceOnUse">
<stop stop-color="#FFE7B9"/>
<stop offset="1" stop-color="#FFE7B9" stop-opacity="0"/>
</linearGradient>
<radialGradient id="paint5_radial_1_8369" cx="0" cy="0" r="1" gradientUnits="userSpaceOnUse" gradientTransform="translate(40 39.5256) rotate(-94.75) scale(6.39434 14.1348)">
<stop stop-color="#E3B384"/>
<stop offset="1" stop-color="#E3B384" stop-opacity="0"/>
</radialGradient>
<linearGradient id="paint6_linear_1_8369" x1="32.5625" y1="29.988" x2="50.22" y2="14.9705" gradientUnits="userSpaceOnUse">
<stop stop-color="#764742"/>
<stop offset="1" stop-color="#B68473"/>
</linearGradient>
<linearGradient id="paint7_linear_1_8369" x1="30.5625" y1="20.443" x2="31.4975" y2="21.7255" gradientUnits="userSpaceOnUse">
<stop stop-color="#735B52"/>
<stop offset="1" stop-color="#735B52" stop-opacity="0"/>
</linearGradient>
<linearGradient id="paint8_linear_1_8369" x1="23.07" y1="30.2905" x2="25.75" y2="28.218" gradientUnits="userSpaceOnUse">
<stop offset="0.214" stop-color="#593D48"/>
<stop offset="1" stop-color="#593D48" stop-opacity="0"/>
</linearGradient>
<linearGradient id="paint9_linear_1_8369" x1="41.8975" y1="45.5506" x2="33.39" y2="76.6106" gradientUnits="userSpaceOnUse">
<stop stop-color="#EAAF8A"/>
<stop offset="1" stop-color="#E3A46D"/>
</linearGradient>
<linearGradient id="paint10_linear_1_8369" x1="34.5325" y1="72.4181" x2="34.5325" y2="64.8631" gradientUnits="userSpaceOnUse">
<stop stop-color="#C89D78"/>
<stop offset="1" stop-color="#C89D78" stop-opacity="0"/>
</linearGradient>
<linearGradient id="paint11_linear_1_8369" x1="70" y1="66.2231" x2="67.015" y2="66.2231" gradientUnits="userSpaceOnUse">
<stop stop-color="#FDD2AB"/>
<stop offset="1" stop-color="#FDD2AB" stop-opacity="0"/>
</linearGradient>
<radialGradient id="paint12_radial_1_8369" cx="0" cy="0" r="1" gradientUnits="userSpaceOnUse" gradientTransform="translate(69.725 56.2256) rotate(180) scale(2.9297 5.10605)">
<stop offset="0.293" stop-color="#A27166"/>
<stop offset="1" stop-color="#A27166" stop-opacity="0"/>
</radialGradient>
<linearGradient id="paint13_linear_1_8369" x1="56.93" y1="48.9456" x2="55.395" y2="51.4006" gradientUnits="userSpaceOnUse">
<stop stop-color="#AB716C"/>
<stop offset="1" stop-color="#AB716C" stop-opacity="0"/>
</linearGradient>
<linearGradient id="paint14_linear_1_8369" x1="10" y1="68.1006" x2="13.3575" y2="68.1006" gradientUnits="userSpaceOnUse">
<stop stop-color="#9C704F"/>
<stop offset="1" stop-color="#9C704F" stop-opacity="0"/>
</linearGradient>
<radialGradient id="paint15_radial_1_8369" cx="0" cy="0" r="1" gradientUnits="userSpaceOnUse" gradientTransform="translate(9.7575 57.8031) rotate(90) scale(2.68015 1.44643)">
<stop offset="0.315" stop-color="#5E3D34"/>
<stop offset="1" stop-color="#5E3D34" stop-opacity="0"/>
</radialGradient>
<linearGradient id="paint16_linear_1_8369" x1="35.525" y1="39.9756" x2="43.9875" y2="24.4931" gradientUnits="userSpaceOnUse">
<stop stop-color="#56C7F5"/>
<stop offset="1" stop-color="#2F95DB"/>
</linearGradient>
<linearGradient id="paint17_linear_1_8369" x1="35" y1="61.5931" x2="45" y2="61.5931" gradientUnits="userSpaceOnUse">
<stop stop-color="#4E3960"/>
<stop offset="1" stop-color="#382E40"/>
</linearGradient>
<linearGradient id="paint18_linear_1_8369" x1="35" y1="63.3556" x2="35.5675" y2="63.3556" gradientUnits="userSpaceOnUse">
<stop stop-color="#3E2651"/>
<stop offset="1" stop-color="#3E2651" stop-opacity="0"/>
</linearGradient>
<linearGradient id="paint19_linear_1_8369" x1="22.5639" y1="69.9746" x2="31.9914" y2="56.4321" gradientUnits="userSpaceOnUse">
<stop stop-color="#56C7F5"/>
<stop offset="1" stop-color="#2F95DB"/>
</linearGradient>
<linearGradient id="paint20_linear_1_8369" x1="50.3642" y1="69.9756" x2="59.7717" y2="56.3756" gradientUnits="userSpaceOnUse">
<stop stop-color="#56C7F5"/>
<stop offset="1" stop-color="#2F95DB"/>
</linearGradient>
<linearGradient id="paint21_linear_1_8369" x1="25.4461" y1="59.9877" x2="54.1411" y2="30.1627" gradientUnits="userSpaceOnUse">
<stop stop-color="#764742"/>
<stop offset="1" stop-color="#B68473"/>
</linearGradient>
<linearGradient id="paint22_linear_1_8369" x1="21.5264" y1="44.6677" x2="22.9139" y2="46.9902" gradientUnits="userSpaceOnUse">
<stop stop-color="#735B52"/>
<stop offset="1" stop-color="#735B52" stop-opacity="0"/>
</linearGradient>
<linearGradient id="paint23_linear_1_8369" x1="6.83141" y1="60.4727" x2="34.7864" y2="33.8327" gradientUnits="userSpaceOnUse">
<stop stop-color="#593D48"/>
<stop offset="1" stop-color="#593D48" stop-opacity="0"/>
</linearGradient>
<linearGradient id="paint24_linear_1_8369" x1="28.9642" y1="22.7083" x2="42.5567" y2="22.7083" gradientUnits="userSpaceOnUse">
<stop offset="0.754" stop-color="#94665F"/>
<stop offset="0.907" stop-color="#B28070"/>
</linearGradient>
<linearGradient id="paint25_linear_1_8369" x1="14.6473" y1="72.4482" x2="70.3298" y2="72.4482" gradientUnits="userSpaceOnUse">
<stop stop-color="#765755"/>
<stop offset="1" stop-color="#9A5E5E"/>
</linearGradient>
<linearGradient id="paint26_linear_1_8369" x1="65.1948" y1="69.9482" x2="65.0998" y2="72.4482" gradientUnits="userSpaceOnUse">
<stop stop-color="#996752"/>
<stop offset="1" stop-color="#996752" stop-opacity="0"/>
</linearGradient>
<linearGradient id="paint27_linear_1_8369" x1="75.8773" y1="74.1807" x2="72.8948" y2="74.1807" gradientUnits="userSpaceOnUse">
<stop stop-color="#B78D82"/>
<stop offset="1" stop-color="#B78D82" stop-opacity="0"/>
</linearGradient>
<linearGradient id="paint28_linear_1_8369" x1="16.3953" y1="48.2669" x2="44.7528" y2="48.2669" gradientUnits="userSpaceOnUse">
<stop offset="0.597" stop-color="#94665F"/>
<stop offset="0.907" stop-color="#B28070"/>
</linearGradient>
</defs>
</svg>
