<svg width="80" height="80" viewBox="0 0 80 80" fill="none" xmlns="http://www.w3.org/2000/svg">
<g filter="url(#filter0_ii_1_8224)">
<path d="M29.2194 32.6575C29.8669 28.92 32.4594 25.7025 35.1094 23.5825C36.2494 22.67 37.8594 22.815 38.9819 23.7525C40.9494 25.3975 40.5394 28.76 38.7994 30.6425C38.4219 31.0525 38.0494 31.5 37.6944 31.9925C34.2569 36.7575 38.3969 41.5225 41.4444 42.93C43.8269 44.395 47.0319 43.75 48.2819 43.4375C49.5319 43.125 53.6719 42.03 54.3744 45C55.0769 47.97 53.5919 50.47 50.3119 51.095C47.0294 51.72 43.9044 51.3275 42.5769 58.125C41.2494 64.9225 38.2819 70.9375 31.4069 73.595C24.5319 76.25 16.6394 75.47 10.7819 69.61C6.17193 64.6875 3.67193 54.8425 8.43693 47.03C13.7494 39.3 20.3894 38.75 22.5769 38.3625C24.7644 37.9725 28.0844 38.05 29.2169 32.66L29.2194 32.6575Z" fill="url(#paint0_linear_1_8224)"/>
</g>
<path d="M18.0069 45.4701C20.3644 42.2451 25.3069 41.4851 27.6519 41.5826C27.7467 41.5867 27.8408 41.5652 27.9244 41.5203C28.008 41.4754 28.078 41.4089 28.1269 41.3276C29.2319 39.4726 30.3694 38.2901 31.7569 38.0476C32.7144 37.9576 34.3519 37.9301 35.5069 40.1176C36.6644 42.3051 38.4619 44.4676 39.2169 45.2726C43.0244 46.8626 45.7669 46.4226 47.7169 45.9001C47.9173 45.8444 48.1269 45.8293 48.3333 45.8556C48.5396 45.882 48.7387 45.9493 48.9187 46.0537C49.0987 46.158 49.256 46.2972 49.3815 46.4632C49.507 46.6291 49.5981 46.8184 49.6494 47.0201C49.8919 47.9801 49.1994 48.9401 48.2394 49.1776C45.8709 49.7628 43.6928 50.9474 41.9144 52.6176C37.9294 56.3676 39.7644 60.7426 36.6019 65.1951C34.6919 67.8826 29.3344 72.9301 26.0144 70.1951C24.4369 68.8951 24.6294 65.7951 25.3069 63.5551C25.6269 62.4976 25.4919 61.2876 24.7319 60.4851L18.5144 53.9451C17.3694 52.5001 15.5394 48.8451 18.0069 45.4701Z" fill="url(#paint1_linear_1_8224)"/>
<g filter="url(#filter1_ii_1_8224)">
<path d="M59.4088 16.8809L64.0363 21.5109L39.1813 46.3634C38.9938 46.5504 38.7398 46.6554 38.475 46.6554C38.2102 46.6554 37.9562 46.5504 37.7688 46.3634L34.5538 43.1484C34.3667 42.9609 34.2617 42.7069 34.2617 42.4421C34.2617 42.1773 34.3667 41.9233 34.5538 41.7359L59.4088 16.8809Z" fill="url(#paint2_linear_1_8224)"/>
<path d="M59.4088 16.8809L64.0363 21.5109L39.1813 46.3634C38.9938 46.5504 38.7398 46.6554 38.475 46.6554C38.2102 46.6554 37.9562 46.5504 37.7688 46.3634L34.5538 43.1484C34.3667 42.9609 34.2617 42.7069 34.2617 42.4421C34.2617 42.1773 34.3667 41.9233 34.5538 41.7359L59.4088 16.8809Z" fill="url(#paint3_linear_1_8224)"/>
</g>
<g filter="url(#filter2_ii_1_8224)">
<path d="M72.304 16.8555C74.3115 16.8555 75.9415 14.9555 75.9415 12.9455C75.9414 12.325 75.7826 11.7148 75.4801 11.173C75.1776 10.6312 74.7415 10.1757 74.2134 9.85C73.6852 9.52428 73.0825 9.33909 72.4625 9.31205C71.8426 9.28501 71.226 9.41701 70.6715 9.6955L60.5165 13.8605C60.1371 14.0164 59.8019 14.2633 59.5404 14.5794C59.279 14.8955 59.0993 15.2711 59.0173 15.673C58.9353 16.0749 58.9534 16.4909 59.0701 16.8841C59.1868 17.2774 59.3985 17.6359 59.6865 17.928L63.6265 21.923C64.5165 22.8255 66.0915 22.7405 66.7715 21.668C67.4265 20.638 68.1965 19.193 68.9165 17.143C69.0765 16.6805 69.6365 16.458 70.1065 16.583C70.839 16.778 71.709 16.8555 72.304 16.8555Z" fill="#CD338B"/>
<path d="M72.304 16.8555C74.3115 16.8555 75.9415 14.9555 75.9415 12.9455C75.9414 12.325 75.7826 11.7148 75.4801 11.173C75.1776 10.6312 74.7415 10.1757 74.2134 9.85C73.6852 9.52428 73.0825 9.33909 72.4625 9.31205C71.8426 9.28501 71.226 9.41701 70.6715 9.6955L60.5165 13.8605C60.1371 14.0164 59.8019 14.2633 59.5404 14.5794C59.279 14.8955 59.0993 15.2711 59.0173 15.673C58.9353 16.0749 58.9534 16.4909 59.0701 16.8841C59.1868 17.2774 59.3985 17.6359 59.6865 17.928L63.6265 21.923C64.5165 22.8255 66.0915 22.7405 66.7715 21.668C67.4265 20.638 68.1965 19.193 68.9165 17.143C69.0765 16.6805 69.6365 16.458 70.1065 16.583C70.839 16.778 71.709 16.8555 72.304 16.8555Z" fill="url(#paint4_radial_1_8224)"/>
</g>
<g filter="url(#filter3_i_1_8224)">
<path d="M29.5246 45.4809C29.6446 45.3622 29.7868 45.2683 29.943 45.2045C30.0993 45.1408 30.2666 45.1085 30.4354 45.1094C30.6042 45.1103 30.7711 45.1445 30.9267 45.2099C31.0823 45.2754 31.2234 45.3709 31.3421 45.4909L35.3396 49.5334C35.5608 49.7796 35.6788 50.1015 35.669 50.4323C35.6591 50.7631 35.5223 51.0775 35.2868 51.3101C35.0513 51.5427 34.7353 51.6756 34.4044 51.6814C34.0734 51.6871 33.753 51.5652 33.5096 51.3409L29.5121 47.2984C29.273 47.0558 29.1397 46.7282 29.1416 46.3876C29.1435 46.0469 29.2803 45.7209 29.5221 45.4809H29.5246Z" fill="url(#paint5_linear_1_8224)"/>
</g>
<g filter="url(#filter4_i_1_8224)">
<path d="M24.3665 50.6352C24.4864 50.5165 24.6286 50.4226 24.7849 50.3588C24.9412 50.2951 25.1085 50.2628 25.2773 50.2637C25.446 50.2646 25.613 50.2988 25.7686 50.3642C25.9241 50.4297 26.0653 50.5252 26.184 50.6452L30.184 54.6877C30.4125 54.9326 30.5365 55.2569 30.5298 55.5919C30.5231 55.9268 30.3861 56.2459 30.148 56.4814C29.9098 56.717 29.5892 56.8504 29.2543 56.8535C28.9193 56.8565 28.5963 56.7289 28.354 56.4977L24.354 52.4552C24.235 52.335 24.141 52.1925 24.0773 52.0359C24.0135 51.8793 23.9813 51.7117 23.9825 51.5426C23.9836 51.3735 24.0181 51.2063 24.084 51.0506C24.1499 50.8949 24.2459 50.7537 24.3665 50.6352Z" fill="url(#paint6_linear_1_8224)"/>
</g>
<g filter="url(#filter5_d_1_8224)">
<path d="M16.9968 56.9606C17.2325 56.7276 17.5512 56.5978 17.8826 56.5996C18.2141 56.6015 18.5312 56.735 18.7643 56.9706L23.8293 62.0956C24.0615 62.3312 24.1909 62.6493 24.189 62.9802C24.1872 63.311 24.0542 63.6276 23.8193 63.8606L22.1193 65.5431C21.8837 65.7754 21.5656 65.9047 21.2347 65.9029C20.9039 65.901 20.5873 65.768 20.3543 65.5331L15.2868 60.4081C15.0538 60.1724 14.9239 59.8538 14.9258 59.5223C14.9277 59.1908 15.0611 58.8737 15.2968 58.6406L16.9968 56.9606Z" fill="url(#paint7_linear_1_8224)"/>
<path d="M16.9968 56.9606C17.2325 56.7276 17.5512 56.5978 17.8826 56.5996C18.2141 56.6015 18.5312 56.735 18.7643 56.9706L23.8293 62.0956C24.0615 62.3312 24.1909 62.6493 24.189 62.9802C24.1872 63.311 24.0542 63.6276 23.8193 63.8606L22.1193 65.5431C21.8837 65.7754 21.5656 65.9047 21.2347 65.9029C20.9039 65.901 20.5873 65.768 20.3543 65.5331L15.2868 60.4081C15.0538 60.1724 14.9239 59.8538 14.9258 59.5223C14.9277 59.1908 15.0611 58.8737 15.2968 58.6406L16.9968 56.9606Z" fill="url(#paint8_linear_1_8224)"/>
</g>
<path d="M61.0248 13.7977C61.8174 13.7977 62.4598 13.1553 62.4598 12.3627C62.4598 11.5702 61.8174 10.9277 61.0248 10.9277C60.2323 10.9277 59.5898 11.5702 59.5898 12.3627C59.5898 13.1553 60.2323 13.7977 61.0248 13.7977Z" fill="url(#paint9_radial_1_8224)"/>
<path d="M65.2621 12.0409C66.0547 12.0409 66.6972 11.3984 66.6972 10.6059C66.6972 9.81337 66.0547 9.1709 65.2621 9.1709C64.4696 9.1709 63.8271 9.81337 63.8271 10.6059C63.8271 11.3984 64.4696 12.0409 65.2621 12.0409Z" fill="url(#paint10_radial_1_8224)"/>
<path d="M69.7368 10.1854C70.5293 10.1854 71.1718 9.54296 71.1718 8.75043C71.1718 7.9579 70.5293 7.31543 69.7368 7.31543C68.9442 7.31543 68.3018 7.9579 68.3018 8.75043C68.3018 9.54296 68.9442 10.1854 69.7368 10.1854Z" fill="url(#paint11_radial_1_8224)"/>
<defs>
<filter id="filter0_ii_1_8224" x="5.61914" y="22.9688" width="49.2258" height="52.382" filterUnits="userSpaceOnUse" color-interpolation-filters="sRGB">
<feFlood flood-opacity="0" result="BackgroundImageFix"/>
<feBlend mode="normal" in="SourceGraphic" in2="BackgroundImageFix" result="shape"/>
<feColorMatrix in="SourceAlpha" type="matrix" values="0 0 0 0 0 0 0 0 0 0 0 0 0 0 0 0 0 0 127 0" result="hardAlpha"/>
<feOffset dx="-0.25" dy="0.25"/>
<feGaussianBlur stdDeviation="0.125"/>
<feComposite in2="hardAlpha" operator="arithmetic" k2="-1" k3="1"/>
<feColorMatrix type="matrix" values="0 0 0 0 0.890196 0 0 0 0 0.368627 0 0 0 0 0.564706 0 0 0 1 0"/>
<feBlend mode="normal" in2="shape" result="effect1_innerShadow_1_8224"/>
<feColorMatrix in="SourceAlpha" type="matrix" values="0 0 0 0 0 0 0 0 0 0 0 0 0 0 0 0 0 0 127 0" result="hardAlpha"/>
<feOffset dx="0.3" dy="0.3"/>
<feGaussianBlur stdDeviation="0.15"/>
<feComposite in2="hardAlpha" operator="arithmetic" k2="-1" k3="1"/>
<feColorMatrix type="matrix" values="0 0 0 0 0.815686 0 0 0 0 0.156863 0 0 0 0 0.231373 0 0 0 1 0"/>
<feBlend mode="normal" in2="effect1_innerShadow_1_8224" result="effect2_innerShadow_1_8224"/>
</filter>
<filter id="filter1_ii_1_8224" x="34.0117" y="16.8809" width="30.2744" height="29.7744" filterUnits="userSpaceOnUse" color-interpolation-filters="sRGB">
<feFlood flood-opacity="0" result="BackgroundImageFix"/>
<feBlend mode="normal" in="SourceGraphic" in2="BackgroundImageFix" result="shape"/>
<feColorMatrix in="SourceAlpha" type="matrix" values="0 0 0 0 0 0 0 0 0 0 0 0 0 0 0 0 0 0 127 0" result="hardAlpha"/>
<feOffset dx="0.4"/>
<feGaussianBlur stdDeviation="0.125"/>
<feComposite in2="hardAlpha" operator="arithmetic" k2="-1" k3="1"/>
<feColorMatrix type="matrix" values="0 0 0 0 0.329412 0 0 0 0 0.258824 0 0 0 0 0.513726 0 0 0 1 0"/>
<feBlend mode="normal" in2="shape" result="effect1_innerShadow_1_8224"/>
<feColorMatrix in="SourceAlpha" type="matrix" values="0 0 0 0 0 0 0 0 0 0 0 0 0 0 0 0 0 0 127 0" result="hardAlpha"/>
<feOffset dx="-0.4"/>
<feGaussianBlur stdDeviation="0.125"/>
<feComposite in2="hardAlpha" operator="arithmetic" k2="-1" k3="1"/>
<feColorMatrix type="matrix" values="0 0 0 0 0.384314 0 0 0 0 0.309804 0 0 0 0 0.568627 0 0 0 1 0"/>
<feBlend mode="normal" in2="effect1_innerShadow_1_8224" result="effect2_innerShadow_1_8224"/>
</filter>
<filter id="filter2_ii_1_8224" x="58.8168" y="9.15859" width="17.2746" height="13.5334" filterUnits="userSpaceOnUse" color-interpolation-filters="sRGB">
<feFlood flood-opacity="0" result="BackgroundImageFix"/>
<feBlend mode="normal" in="SourceGraphic" in2="BackgroundImageFix" result="shape"/>
<feColorMatrix in="SourceAlpha" type="matrix" values="0 0 0 0 0 0 0 0 0 0 0 0 0 0 0 0 0 0 127 0" result="hardAlpha"/>
<feOffset dx="0.15" dy="0.15"/>
<feGaussianBlur stdDeviation="0.15"/>
<feComposite in2="hardAlpha" operator="arithmetic" k2="-1" k3="1"/>
<feColorMatrix type="matrix" values="0 0 0 0 0.788235 0 0 0 0 0.196078 0 0 0 0 0.478431 0 0 0 1 0"/>
<feBlend mode="normal" in2="shape" result="effect1_innerShadow_1_8224"/>
<feColorMatrix in="SourceAlpha" type="matrix" values="0 0 0 0 0 0 0 0 0 0 0 0 0 0 0 0 0 0 127 0" result="hardAlpha"/>
<feOffset dx="-0.15" dy="-0.15"/>
<feGaussianBlur stdDeviation="0.15"/>
<feComposite in2="hardAlpha" operator="arithmetic" k2="-1" k3="1"/>
<feColorMatrix type="matrix" values="0 0 0 0 0.788235 0 0 0 0 0.196078 0 0 0 0 0.478431 0 0 0 1 0"/>
<feBlend mode="normal" in2="effect1_innerShadow_1_8224" result="effect2_innerShadow_1_8224"/>
</filter>
<filter id="filter3_i_1_8224" x="29.1416" y="45.0094" width="6.62832" height="6.67227" filterUnits="userSpaceOnUse" color-interpolation-filters="sRGB">
<feFlood flood-opacity="0" result="BackgroundImageFix"/>
<feBlend mode="normal" in="SourceGraphic" in2="BackgroundImageFix" result="shape"/>
<feColorMatrix in="SourceAlpha" type="matrix" values="0 0 0 0 0 0 0 0 0 0 0 0 0 0 0 0 0 0 127 0" result="hardAlpha"/>
<feOffset dx="0.1" dy="-0.1"/>
<feGaussianBlur stdDeviation="0.05"/>
<feComposite in2="hardAlpha" operator="arithmetic" k2="-1" k3="1"/>
<feColorMatrix type="matrix" values="0 0 0 0 0.592157 0 0 0 0 0.517647 0 0 0 0 0.65098 0 0 0 1 0"/>
<feBlend mode="normal" in2="shape" result="effect1_innerShadow_1_8224"/>
</filter>
<filter id="filter4_i_1_8224" x="23.9824" y="50.1637" width="6.64785" height="6.68984" filterUnits="userSpaceOnUse" color-interpolation-filters="sRGB">
<feFlood flood-opacity="0" result="BackgroundImageFix"/>
<feBlend mode="normal" in="SourceGraphic" in2="BackgroundImageFix" result="shape"/>
<feColorMatrix in="SourceAlpha" type="matrix" values="0 0 0 0 0 0 0 0 0 0 0 0 0 0 0 0 0 0 127 0" result="hardAlpha"/>
<feOffset dx="0.1" dy="-0.1"/>
<feGaussianBlur stdDeviation="0.05"/>
<feComposite in2="hardAlpha" operator="arithmetic" k2="-1" k3="1"/>
<feColorMatrix type="matrix" values="0 0 0 0 0.592157 0 0 0 0 0.517647 0 0 0 0 0.65098 0 0 0 1 0"/>
<feBlend mode="normal" in2="shape" result="effect1_innerShadow_1_8224"/>
</filter>
<filter id="filter5_d_1_8224" x="14.4758" y="56.4496" width="9.86367" height="9.90371" filterUnits="userSpaceOnUse" color-interpolation-filters="sRGB">
<feFlood flood-opacity="0" result="BackgroundImageFix"/>
<feColorMatrix in="SourceAlpha" type="matrix" values="0 0 0 0 0 0 0 0 0 0 0 0 0 0 0 0 0 0 127 0" result="hardAlpha"/>
<feOffset dx="-0.15" dy="0.15"/>
<feGaussianBlur stdDeviation="0.15"/>
<feComposite in2="hardAlpha" operator="out"/>
<feColorMatrix type="matrix" values="0 0 0 0 0.8 0 0 0 0 0.141176 0 0 0 0 0.282353 0 0 0 1 0"/>
<feBlend mode="normal" in2="BackgroundImageFix" result="effect1_dropShadow_1_8224"/>
<feBlend mode="normal" in="SourceGraphic" in2="effect1_dropShadow_1_8224" result="shape"/>
</filter>
<linearGradient id="paint0_linear_1_8224" x1="23.9044" y1="61.25" x2="51.4069" y2="59.0625" gradientUnits="userSpaceOnUse">
<stop stop-color="#D53556"/>
<stop offset="1" stop-color="#D83391"/>
</linearGradient>
<linearGradient id="paint1_linear_1_8224" x1="14.6094" y1="47.7351" x2="31.2494" y2="53.5951" gradientUnits="userSpaceOnUse">
<stop stop-color="#FFEBFF"/>
<stop offset="1" stop-color="#FFE8FF"/>
</linearGradient>
<linearGradient id="paint2_linear_1_8224" x1="60.8588" y1="20.1584" x2="35.5463" y2="44.8459" gradientUnits="userSpaceOnUse">
<stop stop-color="#635C95"/>
<stop offset="1" stop-color="#605193"/>
</linearGradient>
<linearGradient id="paint3_linear_1_8224" x1="62.4588" y1="20.0409" x2="61.1313" y2="21.3284" gradientUnits="userSpaceOnUse">
<stop offset="0.22" stop-color="#57337D"/>
<stop offset="1" stop-color="#645D97" stop-opacity="0"/>
</linearGradient>
<radialGradient id="paint4_radial_1_8224" cx="0" cy="0" r="1" gradientUnits="userSpaceOnUse" gradientTransform="translate(64.139 15.9255) rotate(-19.0125) scale(12.1884 7.36056)">
<stop offset="0.903" stop-color="#E663A0" stop-opacity="0"/>
<stop offset="1" stop-color="#E663A0"/>
</radialGradient>
<linearGradient id="paint5_linear_1_8224" x1="29.7471" y1="46.2109" x2="34.6096" y2="50.9784" gradientUnits="userSpaceOnUse">
<stop stop-color="#9C8BAA"/>
<stop offset="1" stop-color="#A08EAF"/>
</linearGradient>
<linearGradient id="paint6_linear_1_8224" x1="24.589" y1="51.3677" x2="29.4515" y2="56.1327" gradientUnits="userSpaceOnUse">
<stop stop-color="#9C8BAA"/>
<stop offset="1" stop-color="#A08EAF"/>
</linearGradient>
<linearGradient id="paint7_linear_1_8224" x1="21.7168" y1="59.2206" x2="17.8118" y2="63.3606" gradientUnits="userSpaceOnUse">
<stop stop-color="#A394B1"/>
<stop offset="1" stop-color="#9178A2"/>
</linearGradient>
<linearGradient id="paint8_linear_1_8224" x1="21.2893" y1="58.9456" x2="20.3893" y2="59.9231" gradientUnits="userSpaceOnUse">
<stop stop-color="#AD9FB8"/>
<stop offset="1" stop-color="#AD9FB8" stop-opacity="0"/>
</linearGradient>
<radialGradient id="paint9_radial_1_8224" cx="0" cy="0" r="1" gradientUnits="userSpaceOnUse" gradientTransform="translate(61.9535 12.1101) rotate(157.319) scale(1.41827 1.41828)">
<stop offset="0.194" stop-color="#C3B9C9"/>
<stop offset="1" stop-color="#B7A7C0"/>
</radialGradient>
<radialGradient id="paint10_radial_1_8224" cx="0" cy="0" r="1" gradientUnits="userSpaceOnUse" gradientTransform="translate(66.1904 10.351) rotate(157.319) scale(1.41828)">
<stop offset="0.194" stop-color="#C3B9C9"/>
<stop offset="1" stop-color="#B7A7C0"/>
</radialGradient>
<radialGradient id="paint11_radial_1_8224" cx="0" cy="0" r="1" gradientUnits="userSpaceOnUse" gradientTransform="translate(70.6636 8.49836) rotate(157.319) scale(1.41828)">
<stop offset="0.194" stop-color="#C3B9C9"/>
<stop offset="1" stop-color="#B7A7C0"/>
</radialGradient>
</defs>
</svg>
