<svg width="80" height="80" viewBox="0 0 80 80" fill="none" xmlns="http://www.w3.org/2000/svg">
<g filter="url(#filter0_i_1_8417)">
<path d="M19.3096 46.5195L24.0621 42.707L46.6121 66.8995C47.1578 67.485 47.4485 68.2633 47.4204 69.0631C47.3923 69.8629 47.0475 70.6188 46.4621 71.1645C45.8766 71.7102 45.0984 72.001 44.2985 71.9728C43.4987 71.9447 42.7428 71.6 42.1971 71.0145L19.3096 46.5195Z" fill="url(#paint0_linear_1_8417)"/>
</g>
<g filter="url(#filter1_i_1_8417)">
<path d="M27.0127 39.3025L32.0302 35.71L54.5802 59.905C55.1259 60.4908 55.4165 61.2693 55.3881 62.0694C55.3598 62.8695 55.0147 63.6255 54.4289 64.1712C53.8431 64.7169 53.0646 65.0075 52.2645 64.9792C51.4644 64.9508 50.7084 64.6058 50.1627 64.02L27.0127 39.3025Z" fill="url(#paint1_linear_1_8417)"/>
</g>
<g filter="url(#filter2_i_1_8417)">
<path d="M34.627 32.2327L39.5045 28.5752L62.0545 52.7702C62.6001 53.3557 62.8909 54.1339 62.8628 54.9338C62.8346 55.7336 62.4899 56.4895 61.9045 57.0352C61.319 57.5809 60.5407 57.8716 59.7409 57.8435C58.941 57.8154 58.1851 57.4707 57.6395 56.8852L34.627 32.2352V32.2327Z" fill="url(#paint2_linear_1_8417)"/>
</g>
<g filter="url(#filter3_f_1_8417)">
<path d="M37.9357 28.7612C37.7112 28.5213 37.3347 28.5087 37.0947 28.7332C36.8547 28.9577 36.8421 29.3342 37.0666 29.5742L60.7133 54.8533C60.9378 55.0933 61.3143 55.1058 61.5543 54.8813C61.7943 54.6569 61.8068 54.2803 61.5823 54.0404L37.9357 28.7612Z" fill="url(#paint3_linear_1_8417)"/>
</g>
<g filter="url(#filter4_f_1_8417)">
<path d="M30.59 36.146C30.3655 35.906 29.989 35.8935 29.749 36.1179C29.509 36.3424 29.4964 36.719 29.7209 36.9589L53.3676 62.238C53.5921 62.478 53.9686 62.4906 54.2086 62.2661C54.4486 62.0416 54.4611 61.6651 54.2366 61.4251L30.59 36.146Z" fill="url(#paint4_linear_1_8417)"/>
</g>
<g filter="url(#filter5_f_1_8417)">
<path d="M22.5773 43.0581C22.3528 42.8181 21.9763 42.8056 21.7363 43.0301C21.4963 43.2545 21.4837 43.6311 21.7082 43.871L45.3549 69.1502C45.5794 69.3901 45.9559 69.4027 46.1959 69.1782C46.4359 68.9537 46.4484 68.5772 46.2239 68.3372L22.5773 43.0581Z" fill="url(#paint5_linear_1_8417)"/>
</g>
<path d="M36.0589 36.2337L8.95879 60.2756C7.37647 61.6794 7.23172 64.1001 8.63549 65.6824L8.63714 65.6843C10.0409 67.2666 12.4616 67.4114 14.0439 66.0076L41.144 41.9656C42.7263 40.5619 42.8711 38.1412 41.4673 36.5588L41.4657 36.557C40.0619 34.9747 37.6412 34.8299 36.0589 36.2337Z" fill="url(#paint6_linear_1_8417)"/>
<path d="M36.0589 36.2337L8.95879 60.2756C7.37647 61.6794 7.23172 64.1001 8.63549 65.6824L8.63714 65.6843C10.0409 67.2666 12.4616 67.4114 14.0439 66.0076L41.144 41.9656C42.7263 40.5619 42.8711 38.1412 41.4673 36.5588L41.4657 36.557C40.0619 34.9747 37.6412 34.8299 36.0589 36.2337Z" fill="url(#paint7_radial_1_8417)"/>
<path d="M36.0589 36.2337L8.95879 60.2756C7.37647 61.6794 7.23172 64.1001 8.63549 65.6824L8.63714 65.6843C10.0409 67.2666 12.4616 67.4114 14.0439 66.0076L41.144 41.9656C42.7263 40.5619 42.8711 38.1412 41.4673 36.5588L41.4657 36.557C40.0619 34.9747 37.6412 34.8299 36.0589 36.2337Z" fill="url(#paint8_linear_1_8417)"/>
<path fill-rule="evenodd" clip-rule="evenodd" d="M39.4821 33.1324C42.5031 30.5493 46.4223 29.264 50.3863 29.5565C54.3504 29.849 58.0385 31.6955 60.6477 34.694C63.2569 37.6926 64.5761 41.6004 64.318 45.5669C64.0599 49.5333 62.2454 53.2373 59.2696 55.8724L43.4696 69.6224C40.4537 72.2464 36.519 73.5649 32.5311 73.2878C28.5431 73.0107 24.8286 71.1607 22.2046 68.1449C19.5806 65.1291 18.2621 61.1944 18.5392 57.2064C18.8163 53.2184 20.6662 49.5039 23.6821 46.8799L39.4821 33.1324ZM54.7096 39.8599C53.4783 38.4458 51.7359 37.5785 49.8654 37.4486C47.9949 37.3188 46.1494 37.937 44.7346 39.1674L28.9346 52.9174C28.2136 53.5209 27.6202 54.2622 27.1891 55.0977C26.758 55.9333 26.4978 56.8465 26.4238 57.7838C26.3498 58.7211 26.4634 59.6638 26.758 60.5567C27.0526 61.4496 27.5223 62.2747 28.1396 62.984C28.7569 63.6932 29.5094 64.2722 30.3531 64.6871C31.1969 65.1021 32.1149 65.3446 33.0534 65.4006C33.992 65.4565 34.9323 65.3248 35.8194 65.013C36.7064 64.7012 37.5224 64.2157 38.2196 63.5849L54.0196 49.8374C55.4333 48.6058 56.3002 46.8632 56.4295 44.9927C56.5589 43.1222 55.9403 41.2744 54.7096 39.8599Z" fill="url(#paint9_linear_1_8417)"/>
<path fill-rule="evenodd" clip-rule="evenodd" d="M39.4821 33.1324C42.5031 30.5493 46.4223 29.264 50.3863 29.5565C54.3504 29.849 58.0385 31.6955 60.6477 34.694C63.2569 37.6926 64.5761 41.6004 64.318 45.5669C64.0599 49.5333 62.2454 53.2373 59.2696 55.8724L43.4696 69.6224C40.4537 72.2464 36.519 73.5649 32.5311 73.2878C28.5431 73.0107 24.8286 71.1607 22.2046 68.1449C19.5806 65.1291 18.2621 61.1944 18.5392 57.2064C18.8163 53.2184 20.6662 49.5039 23.6821 46.8799L39.4821 33.1324ZM54.7096 39.8599C53.4783 38.4458 51.7359 37.5785 49.8654 37.4486C47.9949 37.3188 46.1494 37.937 44.7346 39.1674L28.9346 52.9174C28.2136 53.5209 27.6202 54.2622 27.1891 55.0977C26.758 55.9333 26.4978 56.8465 26.4238 57.7838C26.3498 58.7211 26.4634 59.6638 26.758 60.5567C27.0526 61.4496 27.5223 62.2747 28.1396 62.984C28.7569 63.6932 29.5094 64.2722 30.3531 64.6871C31.1969 65.1021 32.1149 65.3446 33.0534 65.4006C33.992 65.4565 34.9323 65.3248 35.8194 65.013C36.7064 64.7012 37.5224 64.2157 38.2196 63.5849L54.0196 49.8374C55.4333 48.6058 56.3002 46.8632 56.4295 44.9927C56.5589 43.1222 55.9403 41.2744 54.7096 39.8599Z" fill="url(#paint10_radial_1_8417)"/>
<g filter="url(#filter6_i_1_8417)">
<path d="M17.5373 46.4499C18.1798 47.1424 19.2623 47.1799 19.9499 46.5374L24.0099 42.7499C24.3414 42.4412 24.5367 42.0135 24.5529 41.5608C24.5691 41.1082 24.4047 40.6676 24.0961 40.3361C23.7875 40.0046 23.3598 39.8093 22.9071 39.7931C22.4544 39.7769 22.0139 39.9412 21.6824 40.2499L17.6223 44.0349C17.4581 44.1878 17.3255 44.3716 17.2323 44.5757C17.1391 44.7799 17.0871 45.0004 17.0792 45.2247C17.0713 45.449 17.1077 45.6727 17.1863 45.8829C17.2649 46.0931 17.3842 46.2858 17.5373 46.4499Z" fill="url(#paint11_linear_1_8417)"/>
<path d="M17.5373 46.4499C18.1798 47.1424 19.2623 47.1799 19.9499 46.5374L24.0099 42.7499C24.3414 42.4412 24.5367 42.0135 24.5529 41.5608C24.5691 41.1082 24.4047 40.6676 24.0961 40.3361C23.7875 40.0046 23.3598 39.8093 22.9071 39.7931C22.4544 39.7769 22.0139 39.9412 21.6824 40.2499L17.6223 44.0349C17.4581 44.1878 17.3255 44.3716 17.2323 44.5757C17.1391 44.7799 17.0871 45.0004 17.0792 45.2247C17.0713 45.449 17.1077 45.6727 17.1863 45.8829C17.2649 46.0931 17.3842 46.2858 17.5373 46.4499Z" fill="url(#paint12_radial_1_8417)"/>
</g>
<g filter="url(#filter7_i_1_8417)">
<path d="M25.5051 39.4575C26.1501 40.1475 27.2301 40.1825 27.9201 39.5426L31.9801 35.7576C32.3116 35.4486 32.5068 35.0206 32.5228 34.5677C32.5387 34.1148 32.3741 33.6741 32.0651 33.3425C31.7561 33.011 31.3281 32.8158 30.8752 32.7999C30.4223 32.7839 29.9816 32.9486 29.6501 33.2576L25.5901 37.0426C25.4258 37.1955 25.2933 37.3792 25.2001 37.5834C25.1069 37.7876 25.0548 38.0081 25.047 38.2324C25.0391 38.4567 25.0755 38.6804 25.1541 38.8906C25.2327 39.1008 25.352 39.2935 25.5051 39.4575Z" fill="url(#paint13_linear_1_8417)"/>
<path d="M25.5051 39.4575C26.1501 40.1475 27.2301 40.1825 27.9201 39.5426L31.9801 35.7576C32.3116 35.4486 32.5068 35.0206 32.5228 34.5677C32.5387 34.1148 32.3741 33.6741 32.0651 33.3425C31.7561 33.011 31.3281 32.8158 30.8752 32.7999C30.4223 32.7839 29.9816 32.9486 29.6501 33.2576L25.5901 37.0426C25.4258 37.1955 25.2933 37.3792 25.2001 37.5834C25.1069 37.7876 25.0548 38.0081 25.047 38.2324C25.0391 38.4567 25.0755 38.6804 25.1541 38.8906C25.2327 39.1008 25.352 39.2935 25.5051 39.4575Z" fill="url(#paint14_radial_1_8417)"/>
</g>
<g filter="url(#filter8_i_1_8417)">
<path d="M32.9846 32.3218C33.6271 33.0118 34.7096 33.0468 35.3996 32.4068L39.4596 28.6218C39.7911 28.3128 39.9863 27.8848 40.0023 27.4319C40.0182 26.979 39.8536 26.5383 39.5446 26.2068C39.2356 25.8753 38.8076 25.6801 38.3547 25.6641C37.9018 25.6482 37.4611 25.8128 37.1296 26.1218L33.0696 29.9068C32.9053 30.0597 32.7728 30.2435 32.6796 30.4477C32.5864 30.6518 32.5343 30.8724 32.5264 31.0967C32.5186 31.321 32.555 31.5446 32.6336 31.7549C32.7122 31.9651 32.8315 32.1577 32.9846 32.3218Z" fill="url(#paint15_linear_1_8417)"/>
<path d="M32.9846 32.3218C33.6271 33.0118 34.7096 33.0468 35.3996 32.4068L39.4596 28.6218C39.7911 28.3128 39.9863 27.8848 40.0023 27.4319C40.0182 26.979 39.8536 26.5383 39.5446 26.2068C39.2356 25.8753 38.8076 25.6801 38.3547 25.6641C37.9018 25.6482 37.4611 25.8128 37.1296 26.1218L33.0696 29.9068C32.9053 30.0597 32.7728 30.2435 32.6796 30.4477C32.5864 30.6518 32.5343 30.8724 32.5264 31.0967C32.5186 31.321 32.555 31.5446 32.6336 31.7549C32.7122 31.9651 32.8315 32.1577 32.9846 32.3218Z" fill="url(#paint16_radial_1_8417)"/>
</g>
<g filter="url(#filter9_f_1_8417)">
<path d="M59.7138 36.8176L59.7122 36.8157C55.6174 32.1098 48.4829 31.6144 43.777 35.7093L27.8198 49.5944C23.1139 53.6892 22.6185 60.8236 26.7133 65.5295L26.715 65.5314C30.8098 70.2373 37.9442 70.7327 42.6502 66.6379L58.6074 52.7528C63.3133 48.658 63.8087 41.5236 59.7138 36.8176Z" stroke="url(#paint17_linear_1_8417)" stroke-width="2.5"/>
</g>
<path d="M28.9381 52.9144L61.7531 24.3744L56.5031 18.3369L23.6856 46.8794L28.9356 52.9169L28.9381 52.9144ZM28.2456 62.8919C27.0152 61.4771 26.397 59.6316 26.5268 57.7611C26.6567 55.8906 27.524 54.1457 28.9381 52.9144L23.6881 46.8794C22.1947 48.1787 20.9719 49.7593 20.0895 51.5311C19.207 53.303 18.6822 55.2313 18.545 57.2059C18.4078 59.1806 18.6609 61.1629 19.2899 63.0397C19.9188 64.9166 20.9113 66.6511 22.2106 68.1444L28.2456 62.8919Z" fill="url(#paint18_linear_1_8417)"/>
<path d="M28.9381 52.9144L61.7531 24.3744L56.5031 18.3369L23.6856 46.8794L28.9356 52.9169L28.9381 52.9144ZM28.2456 62.8919C27.0152 61.4771 26.397 59.6316 26.5268 57.7611C26.6567 55.8906 27.524 54.1457 28.9381 52.9144L23.6881 46.8794C22.1947 48.1787 20.9719 49.7593 20.0895 51.5311C19.207 53.303 18.6822 55.2313 18.545 57.2059C18.4078 59.1806 18.6609 61.1629 19.2899 63.0397C19.9188 64.9166 20.9113 66.6511 22.2106 68.1444L28.2456 62.8919Z" fill="url(#paint19_linear_1_8417)"/>
<path d="M28.9381 52.9144L61.7531 24.3744L56.5031 18.3369L23.6856 46.8794L28.9356 52.9169L28.9381 52.9144ZM28.2456 62.8919C27.0152 61.4771 26.397 59.6316 26.5268 57.7611C26.6567 55.8906 27.524 54.1457 28.9381 52.9144L23.6881 46.8794C22.1947 48.1787 20.9719 49.7593 20.0895 51.5311C19.207 53.303 18.6822 55.2313 18.545 57.2059C18.4078 59.1806 18.6609 61.1629 19.2899 63.0397C19.9188 64.9166 20.9113 66.6511 22.2106 68.1444L28.2456 62.8919Z" fill="url(#paint20_linear_1_8417)"/>
<path d="M28.9381 52.9144L61.7531 24.3744L56.5031 18.3369L23.6856 46.8794L28.9356 52.9169L28.9381 52.9144ZM28.2456 62.8919C27.0152 61.4771 26.397 59.6316 26.5268 57.7611C26.6567 55.8906 27.524 54.1457 28.9381 52.9144L23.6881 46.8794C22.1947 48.1787 20.9719 49.7593 20.0895 51.5311C19.207 53.303 18.6822 55.2313 18.545 57.2059C18.4078 59.1806 18.6609 61.1629 19.2899 63.0397C19.9188 64.9166 20.9113 66.6511 22.2106 68.1444L28.2456 62.8919Z" fill="url(#paint21_radial_1_8417)"/>
<g filter="url(#filter10_i_1_8417)">
<path d="M9.56422 60.1901C8.56119 59.0923 6.85854 59.0151 5.76124 60.0177C4.66395 61.0203 4.58753 62.723 5.59056 63.8208L10.6141 69.3189C11.6171 70.4167 13.3197 70.4939 14.417 69.4914C15.5143 68.4888 15.5908 66.7861 14.5877 65.6883L9.56422 60.1901Z" fill="url(#paint22_linear_1_8417)"/>
<path d="M9.56422 60.1901C8.56119 59.0923 6.85854 59.0151 5.76124 60.0177C4.66395 61.0203 4.58753 62.723 5.59056 63.8208L10.6141 69.3189C11.6171 70.4167 13.3197 70.4939 14.417 69.4914C15.5143 68.4888 15.5908 66.7861 14.5877 65.6883L9.56422 60.1901Z" fill="url(#paint23_radial_1_8417)"/>
<path d="M9.56422 60.1901C8.56119 59.0923 6.85854 59.0151 5.76124 60.0177C4.66395 61.0203 4.58753 62.723 5.59056 63.8208L10.6141 69.3189C11.6171 70.4167 13.3197 70.4939 14.417 69.4914C15.5143 68.4888 15.5908 66.7861 14.5877 65.6883L9.56422 60.1901Z" fill="url(#paint24_radial_1_8417)"/>
</g>
<path d="M72.1177 26.587L72.1277 26.597C66.7427 24.362 59.5377 26.252 55.2927 29.992C55.2477 30.0295 54.9427 30.177 54.9077 30.2045L49.7002 24.2345C51.4652 22.867 53.8052 20.6695 54.5827 15.7045C55.3127 11.0495 55.0827 8.32953 54.8977 7.25953C54.7597 6.76145 54.7946 6.23129 54.9967 5.7556C55.1988 5.27992 55.5563 4.88682 56.0106 4.64048C56.465 4.39415 56.9895 4.30913 57.4984 4.39932C58.0073 4.4895 58.4706 4.74956 58.8127 5.13703L74.5227 22.892C74.8559 23.2664 75.0569 23.7399 75.0945 24.2397C75.1322 24.7395 75.0044 25.2378 74.731 25.6578C74.4576 26.0779 74.0537 26.3964 73.5815 26.5643C73.1092 26.7322 72.5949 26.7402 72.1177 26.587Z" fill="url(#paint25_linear_1_8417)"/>
<path d="M72.1177 26.587L72.1277 26.597C66.7427 24.362 59.5377 26.252 55.2927 29.992C55.2477 30.0295 54.9427 30.177 54.9077 30.2045L49.7002 24.2345C51.4652 22.867 53.8052 20.6695 54.5827 15.7045C55.3127 11.0495 55.0827 8.32953 54.8977 7.25953C54.7597 6.76145 54.7946 6.23129 54.9967 5.7556C55.1988 5.27992 55.5563 4.88682 56.0106 4.64048C56.465 4.39415 56.9895 4.30913 57.4984 4.39932C58.0073 4.4895 58.4706 4.74956 58.8127 5.13703L74.5227 22.892C74.8559 23.2664 75.0569 23.7399 75.0945 24.2397C75.1322 24.7395 75.0044 25.2378 74.731 25.6578C74.4576 26.0779 74.0537 26.3964 73.5815 26.5643C73.1092 26.7322 72.5949 26.7402 72.1177 26.587Z" fill="url(#paint26_radial_1_8417)"/>
<path d="M72.1177 26.587L72.1277 26.597C66.7427 24.362 59.5377 26.252 55.2927 29.992C55.2477 30.0295 54.9427 30.177 54.9077 30.2045L49.7002 24.2345C51.4652 22.867 53.8052 20.6695 54.5827 15.7045C55.3127 11.0495 55.0827 8.32953 54.8977 7.25953C54.7597 6.76145 54.7946 6.23129 54.9967 5.7556C55.1988 5.27992 55.5563 4.88682 56.0106 4.64048C56.465 4.39415 56.9895 4.30913 57.4984 4.39932C58.0073 4.4895 58.4706 4.74956 58.8127 5.13703L74.5227 22.892C74.8559 23.2664 75.0569 23.7399 75.0945 24.2397C75.1322 24.7395 75.0044 25.2378 74.731 25.6578C74.4576 26.0779 74.0537 26.3964 73.5815 26.5643C73.1092 26.7322 72.5949 26.7402 72.1177 26.587Z" fill="url(#paint27_radial_1_8417)"/>
<path d="M72.1177 26.587L72.1277 26.597C66.7427 24.362 59.5377 26.252 55.2927 29.992C55.2477 30.0295 54.9427 30.177 54.9077 30.2045L49.7002 24.2345C51.4652 22.867 53.8052 20.6695 54.5827 15.7045C55.3127 11.0495 55.0827 8.32953 54.8977 7.25953C54.7597 6.76145 54.7946 6.23129 54.9967 5.7556C55.1988 5.27992 55.5563 4.88682 56.0106 4.64048C56.465 4.39415 56.9895 4.30913 57.4984 4.39932C58.0073 4.4895 58.4706 4.74956 58.8127 5.13703L74.5227 22.892C74.8559 23.2664 75.0569 23.7399 75.0945 24.2397C75.1322 24.7395 75.0044 25.2378 74.731 25.6578C74.4576 26.0779 74.0537 26.3964 73.5815 26.5643C73.1092 26.7322 72.5949 26.7402 72.1177 26.587Z" fill="url(#paint28_linear_1_8417)"/>
<path d="M72.1177 26.587L72.1277 26.597C66.7427 24.362 59.5377 26.252 55.2927 29.992C55.2477 30.0295 54.9427 30.177 54.9077 30.2045L49.7002 24.2345C51.4652 22.867 53.8052 20.6695 54.5827 15.7045C55.3127 11.0495 55.0827 8.32953 54.8977 7.25953C54.7597 6.76145 54.7946 6.23129 54.9967 5.7556C55.1988 5.27992 55.5563 4.88682 56.0106 4.64048C56.465 4.39415 56.9895 4.30913 57.4984 4.39932C58.0073 4.4895 58.4706 4.74956 58.8127 5.13703L74.5227 22.892C74.8559 23.2664 75.0569 23.7399 75.0945 24.2397C75.1322 24.7395 75.0044 25.2378 74.731 25.6578C74.4576 26.0779 74.0537 26.3964 73.5815 26.5643C73.1092 26.7322 72.5949 26.7402 72.1177 26.587Z" fill="url(#paint29_radial_1_8417)"/>
<g filter="url(#filter11_f_1_8417)">
<path d="M27.1297 50.8421L59.9472 22.2996L58.3047 20.4121L25.4897 48.9546L27.1297 50.8421ZM26.1672 64.6971C24.4573 62.7318 23.598 60.1678 23.7785 57.569C23.959 54.9702 25.1645 52.5521 27.1297 50.8421L25.4872 48.9546C23.0228 51.1001 21.5114 54.1366 21.2854 57.3963C21.0594 60.6561 22.1374 63.8721 24.2822 66.3371L26.1672 64.6971Z" fill="url(#paint30_linear_1_8417)"/>
</g>
<defs>
<filter id="filter0_i_1_8417" x="19.3096" y="42.082" width="28.1123" height="29.8926" filterUnits="userSpaceOnUse" color-interpolation-filters="sRGB">
<feFlood flood-opacity="0" result="BackgroundImageFix"/>
<feBlend mode="normal" in="SourceGraphic" in2="BackgroundImageFix" result="shape"/>
<feColorMatrix in="SourceAlpha" type="matrix" values="0 0 0 0 0 0 0 0 0 0 0 0 0 0 0 0 0 0 127 0" result="hardAlpha"/>
<feOffset dy="-0.625"/>
<feGaussianBlur stdDeviation="0.625"/>
<feComposite in2="hardAlpha" operator="arithmetic" k2="-1" k3="1"/>
<feColorMatrix type="matrix" values="0 0 0 0 0.807843 0 0 0 0 0.415686 0 0 0 0 0.305882 0 0 0 1 0"/>
<feBlend mode="normal" in2="shape" result="effect1_innerShadow_1_8417"/>
</filter>
<filter id="filter1_i_1_8417" x="27.0127" y="35.085" width="28.377" height="29.8965" filterUnits="userSpaceOnUse" color-interpolation-filters="sRGB">
<feFlood flood-opacity="0" result="BackgroundImageFix"/>
<feBlend mode="normal" in="SourceGraphic" in2="BackgroundImageFix" result="shape"/>
<feColorMatrix in="SourceAlpha" type="matrix" values="0 0 0 0 0 0 0 0 0 0 0 0 0 0 0 0 0 0 127 0" result="hardAlpha"/>
<feOffset dy="-0.625"/>
<feGaussianBlur stdDeviation="0.625"/>
<feComposite in2="hardAlpha" operator="arithmetic" k2="-1" k3="1"/>
<feColorMatrix type="matrix" values="0 0 0 0 0.807843 0 0 0 0 0.415686 0 0 0 0 0.305882 0 0 0 1 0"/>
<feBlend mode="normal" in2="shape" result="effect1_innerShadow_1_8417"/>
</filter>
<filter id="filter2_i_1_8417" x="34.627" y="27.9502" width="28.2373" height="29.8955" filterUnits="userSpaceOnUse" color-interpolation-filters="sRGB">
<feFlood flood-opacity="0" result="BackgroundImageFix"/>
<feBlend mode="normal" in="SourceGraphic" in2="BackgroundImageFix" result="shape"/>
<feColorMatrix in="SourceAlpha" type="matrix" values="0 0 0 0 0 0 0 0 0 0 0 0 0 0 0 0 0 0 127 0" result="hardAlpha"/>
<feOffset dy="-0.625"/>
<feGaussianBlur stdDeviation="0.625"/>
<feComposite in2="hardAlpha" operator="arithmetic" k2="-1" k3="1"/>
<feColorMatrix type="matrix" values="0 0 0 0 0.807843 0 0 0 0 0.415686 0 0 0 0 0.305882 0 0 0 1 0"/>
<feBlend mode="normal" in2="shape" result="effect1_innerShadow_1_8417"/>
</filter>
<filter id="filter3_f_1_8417" x="35.4062" y="27.0723" width="27.8369" height="29.4697" filterUnits="userSpaceOnUse" color-interpolation-filters="sRGB">
<feFlood flood-opacity="0" result="BackgroundImageFix"/>
<feBlend mode="normal" in="SourceGraphic" in2="BackgroundImageFix" result="shape"/>
<feGaussianBlur stdDeviation="0.75" result="effect1_foregroundBlur_1_8417"/>
</filter>
<filter id="filter4_f_1_8417" x="28.0605" y="34.457" width="27.8369" height="29.4697" filterUnits="userSpaceOnUse" color-interpolation-filters="sRGB">
<feFlood flood-opacity="0" result="BackgroundImageFix"/>
<feBlend mode="normal" in="SourceGraphic" in2="BackgroundImageFix" result="shape"/>
<feGaussianBlur stdDeviation="0.75" result="effect1_foregroundBlur_1_8417"/>
</filter>
<filter id="filter5_f_1_8417" x="20.0479" y="41.3691" width="27.8369" height="29.4697" filterUnits="userSpaceOnUse" color-interpolation-filters="sRGB">
<feFlood flood-opacity="0" result="BackgroundImageFix"/>
<feBlend mode="normal" in="SourceGraphic" in2="BackgroundImageFix" result="shape"/>
<feGaussianBlur stdDeviation="0.75" result="effect1_foregroundBlur_1_8417"/>
</filter>
<filter id="filter6_i_1_8417" x="17.0781" y="39.792" width="7.97559" height="7.45312" filterUnits="userSpaceOnUse" color-interpolation-filters="sRGB">
<feFlood flood-opacity="0" result="BackgroundImageFix"/>
<feBlend mode="normal" in="SourceGraphic" in2="BackgroundImageFix" result="shape"/>
<feColorMatrix in="SourceAlpha" type="matrix" values="0 0 0 0 0 0 0 0 0 0 0 0 0 0 0 0 0 0 127 0" result="hardAlpha"/>
<feOffset dx="0.5" dy="0.25"/>
<feGaussianBlur stdDeviation="0.5"/>
<feComposite in2="hardAlpha" operator="arithmetic" k2="-1" k3="1"/>
<feColorMatrix type="matrix" values="0 0 0 0 0.854902 0 0 0 0 0.835294 0 0 0 0 0.854902 0 0 0 1 0"/>
<feBlend mode="normal" in2="shape" result="effect1_innerShadow_1_8417"/>
</filter>
<filter id="filter7_i_1_8417" x="25.0459" y="32.7988" width="7.97754" height="7.45117" filterUnits="userSpaceOnUse" color-interpolation-filters="sRGB">
<feFlood flood-opacity="0" result="BackgroundImageFix"/>
<feBlend mode="normal" in="SourceGraphic" in2="BackgroundImageFix" result="shape"/>
<feColorMatrix in="SourceAlpha" type="matrix" values="0 0 0 0 0 0 0 0 0 0 0 0 0 0 0 0 0 0 127 0" result="hardAlpha"/>
<feOffset dx="0.5" dy="0.25"/>
<feGaussianBlur stdDeviation="0.5"/>
<feComposite in2="hardAlpha" operator="arithmetic" k2="-1" k3="1"/>
<feColorMatrix type="matrix" values="0 0 0 0 0.854902 0 0 0 0 0.835294 0 0 0 0 0.854902 0 0 0 1 0"/>
<feBlend mode="normal" in2="shape" result="effect1_innerShadow_1_8417"/>
</filter>
<filter id="filter8_i_1_8417" x="32.5254" y="25.6631" width="7.97754" height="7.45117" filterUnits="userSpaceOnUse" color-interpolation-filters="sRGB">
<feFlood flood-opacity="0" result="BackgroundImageFix"/>
<feBlend mode="normal" in="SourceGraphic" in2="BackgroundImageFix" result="shape"/>
<feColorMatrix in="SourceAlpha" type="matrix" values="0 0 0 0 0 0 0 0 0 0 0 0 0 0 0 0 0 0 127 0" result="hardAlpha"/>
<feOffset dx="0.5" dy="0.25"/>
<feGaussianBlur stdDeviation="0.5"/>
<feComposite in2="hardAlpha" operator="arithmetic" k2="-1" k3="1"/>
<feColorMatrix type="matrix" values="0 0 0 0 0.854902 0 0 0 0 0.835294 0 0 0 0 0.854902 0 0 0 1 0"/>
<feBlend mode="normal" in2="shape" result="effect1_innerShadow_1_8417"/>
</filter>
<filter id="filter9_f_1_8417" x="20.8145" y="29.8096" width="44.7988" height="42.7275" filterUnits="userSpaceOnUse" color-interpolation-filters="sRGB">
<feFlood flood-opacity="0" result="BackgroundImageFix"/>
<feBlend mode="normal" in="SourceGraphic" in2="BackgroundImageFix" result="shape"/>
<feGaussianBlur stdDeviation="0.9375" result="effect1_foregroundBlur_1_8417"/>
</filter>
<filter id="filter10_i_1_8417" x="4.38574" y="59.3135" width="10.9072" height="11.3818" filterUnits="userSpaceOnUse" color-interpolation-filters="sRGB">
<feFlood flood-opacity="0" result="BackgroundImageFix"/>
<feBlend mode="normal" in="SourceGraphic" in2="BackgroundImageFix" result="shape"/>
<feColorMatrix in="SourceAlpha" type="matrix" values="0 0 0 0 0 0 0 0 0 0 0 0 0 0 0 0 0 0 127 0" result="hardAlpha"/>
<feOffset dx="-0.5" dy="0.5"/>
<feGaussianBlur stdDeviation="0.5"/>
<feComposite in2="hardAlpha" operator="arithmetic" k2="-1" k3="1"/>
<feColorMatrix type="matrix" values="0 0 0 0 0.745098 0 0 0 0 0.623529 0 0 0 0 0.811765 0 0 0 1 0"/>
<feBlend mode="normal" in2="shape" result="effect1_innerShadow_1_8417"/>
</filter>
<filter id="filter11_f_1_8417" x="20.0059" y="19.1621" width="41.1914" height="48.4248" filterUnits="userSpaceOnUse" color-interpolation-filters="sRGB">
<feFlood flood-opacity="0" result="BackgroundImageFix"/>
<feBlend mode="normal" in="SourceGraphic" in2="BackgroundImageFix" result="shape"/>
<feGaussianBlur stdDeviation="0.625" result="effect1_foregroundBlur_1_8417"/>
</filter>
<linearGradient id="paint0_linear_1_8417" x1="23.0921" y1="43.1995" x2="36.1396" y2="68.5895" gradientUnits="userSpaceOnUse">
<stop stop-color="#B88525"/>
<stop offset="0.919" stop-color="#CF6A2C"/>
</linearGradient>
<linearGradient id="paint1_linear_1_8417" x1="31.0577" y1="36.205" x2="44.1052" y2="61.595" gradientUnits="userSpaceOnUse">
<stop stop-color="#B88525"/>
<stop offset="0.919" stop-color="#CF6A2C"/>
</linearGradient>
<linearGradient id="paint2_linear_1_8417" x1="38.5345" y1="29.0702" x2="51.582" y2="54.4602" gradientUnits="userSpaceOnUse">
<stop stop-color="#B88525"/>
<stop offset="1" stop-color="#CE7F27"/>
</linearGradient>
<linearGradient id="paint3_linear_1_8417" x1="37.0947" y1="28.7332" x2="58.4936" y2="51.4044" gradientUnits="userSpaceOnUse">
<stop stop-color="#C79D4B"/>
<stop offset="1" stop-color="#DA9C57"/>
</linearGradient>
<linearGradient id="paint4_linear_1_8417" x1="29.749" y1="36.1179" x2="51.1462" y2="58.7874" gradientUnits="userSpaceOnUse">
<stop stop-color="#C79D4B"/>
<stop offset="1" stop-color="#DA9C57"/>
</linearGradient>
<linearGradient id="paint5_linear_1_8417" x1="21.7345" y1="43.0318" x2="43.1317" y2="65.7012" gradientUnits="userSpaceOnUse">
<stop stop-color="#C79D4B"/>
<stop offset="1" stop-color="#DA9C57"/>
</linearGradient>
<linearGradient id="paint6_linear_1_8417" x1="23.0702" y1="49.929" x2="27.6014" y2="55.24" gradientUnits="userSpaceOnUse">
<stop stop-color="#C8792D"/>
<stop offset="1" stop-color="#C56D79"/>
</linearGradient>
<radialGradient id="paint7_radial_1_8417" cx="0" cy="0" r="1" gradientUnits="userSpaceOnUse" gradientTransform="translate(20.3353 58.0534) rotate(100.257) scale(8.33634 4.57744)">
<stop offset="0.515" stop-color="#C1622E"/>
<stop offset="1" stop-color="#C1622E" stop-opacity="0"/>
</radialGradient>
<linearGradient id="paint8_linear_1_8417" x1="21.8985" y1="48.2881" x2="23.3818" y2="49.9299" gradientUnits="userSpaceOnUse">
<stop offset="0.188" stop-color="#DCA77B"/>
<stop offset="1" stop-color="#C97839" stop-opacity="0"/>
</linearGradient>
<linearGradient id="paint9_linear_1_8417" x1="60.7446" y1="34.6099" x2="24.9321" y2="68.9749" gradientUnits="userSpaceOnUse">
<stop stop-color="#D7AE30"/>
<stop offset="1" stop-color="#DB7F28"/>
</linearGradient>
<radialGradient id="paint10_radial_1_8417" cx="0" cy="0" r="1" gradientUnits="userSpaceOnUse" gradientTransform="translate(41.4779 40.0205) rotate(105.871) scale(36.409 45.5282)">
<stop offset="0.788" stop-color="#CF6262" stop-opacity="0"/>
<stop offset="0.971" stop-color="#CF6262"/>
</radialGradient>
<linearGradient id="paint11_linear_1_8417" x1="18.4574" y1="46.9949" x2="24.5548" y2="41.1774" gradientUnits="userSpaceOnUse">
<stop stop-color="#B29ABB"/>
<stop offset="1" stop-color="#B1A3A5"/>
</linearGradient>
<radialGradient id="paint12_radial_1_8417" cx="0" cy="0" r="1" gradientUnits="userSpaceOnUse" gradientTransform="translate(22.5199 42.0749) rotate(137.246) scale(2.81954 1.01362)">
<stop stop-color="#C2B6BD"/>
<stop offset="1" stop-color="#C2B6BD" stop-opacity="0"/>
</radialGradient>
<linearGradient id="paint13_linear_1_8417" x1="26.4251" y1="40" x2="32.5226" y2="34.1825" gradientUnits="userSpaceOnUse">
<stop stop-color="#B29ABB"/>
<stop offset="1" stop-color="#B1A3A5"/>
</linearGradient>
<radialGradient id="paint14_radial_1_8417" cx="0" cy="0" r="1" gradientUnits="userSpaceOnUse" gradientTransform="translate(30.4876 35.0825) rotate(137.246) scale(2.81954 1.01362)">
<stop stop-color="#C2B6BD"/>
<stop offset="1" stop-color="#C2B6BD" stop-opacity="0"/>
</radialGradient>
<linearGradient id="paint15_linear_1_8417" x1="33.9046" y1="32.8643" x2="40.0021" y2="27.0468" gradientUnits="userSpaceOnUse">
<stop stop-color="#B29ABB"/>
<stop offset="1" stop-color="#B1A3A5"/>
</linearGradient>
<radialGradient id="paint16_radial_1_8417" cx="0" cy="0" r="1" gradientUnits="userSpaceOnUse" gradientTransform="translate(37.9671 27.9468) rotate(137.246) scale(2.81954 1.01362)">
<stop stop-color="#C2B6BD"/>
<stop offset="1" stop-color="#C2B6BD" stop-opacity="0"/>
</radialGradient>
<linearGradient id="paint17_linear_1_8417" x1="59.7138" y1="36.8176" x2="26.715" y2="65.5314" gradientUnits="userSpaceOnUse">
<stop stop-color="#F3D663"/>
<stop offset="0.369" stop-color="#EAA760" stop-opacity="0"/>
<stop offset="0.688" stop-color="#EAA760" stop-opacity="0"/>
<stop offset="1" stop-color="#EAA760"/>
</linearGradient>
<linearGradient id="paint18_linear_1_8417" x1="56.8356" y1="24.5919" x2="25.9756" y2="51.1169" gradientUnits="userSpaceOnUse">
<stop offset="0.489" stop-color="#CCA837"/>
<stop offset="1" stop-color="#CCA837" stop-opacity="0"/>
</linearGradient>
<linearGradient id="paint19_linear_1_8417" x1="56.8356" y1="24.5919" x2="25.9756" y2="51.1169" gradientUnits="userSpaceOnUse">
<stop offset="0.489" stop-color="#CCA837"/>
<stop offset="1" stop-color="#CCA837" stop-opacity="0"/>
</linearGradient>
<linearGradient id="paint20_linear_1_8417" x1="31.3506" y1="39.3269" x2="32.7806" y2="40.9744" gradientUnits="userSpaceOnUse">
<stop stop-color="#DAB570"/>
<stop offset="1" stop-color="#DAB570" stop-opacity="0"/>
</linearGradient>
<radialGradient id="paint21_radial_1_8417" cx="0" cy="0" r="1" gradientUnits="userSpaceOnUse" gradientTransform="translate(43.3109 58.0494) rotate(-173.577) scale(26.3445 64.805)">
<stop offset="0.872" stop-color="#DAB570" stop-opacity="0"/>
<stop offset="1" stop-color="#DAB570"/>
</radialGradient>
<linearGradient id="paint22_linear_1_8417" x1="5.76217" y1="60.0169" x2="14.418" y2="69.4905" gradientUnits="userSpaceOnUse">
<stop offset="0.196" stop-color="#BAAAC7"/>
<stop offset="1" stop-color="#C09CDB"/>
</linearGradient>
<radialGradient id="paint23_radial_1_8417" cx="0" cy="0" r="1" gradientUnits="userSpaceOnUse" gradientTransform="translate(13.0569 67.8489) rotate(-132.511) scale(13.0851 12.2626)">
<stop offset="0.586" stop-color="#D9D2DF" stop-opacity="0"/>
<stop offset="1" stop-color="#D9D2DF"/>
</radialGradient>
<radialGradient id="paint24_radial_1_8417" cx="0" cy="0" r="1" gradientUnits="userSpaceOnUse" gradientTransform="translate(11.7968 64.7537) rotate(46.053) scale(7.30715 3.84002)">
<stop stop-color="#D0BDDD"/>
<stop offset="1" stop-color="#BD9CD8" stop-opacity="0"/>
</radialGradient>
<linearGradient id="paint25_linear_1_8417" x1="64.1102" y1="18.0195" x2="52.8427" y2="27.537" gradientUnits="userSpaceOnUse">
<stop stop-color="#C9A640"/>
<stop offset="1" stop-color="#CEA939"/>
</linearGradient>
<radialGradient id="paint26_radial_1_8417" cx="0" cy="0" r="1" gradientUnits="userSpaceOnUse" gradientTransform="translate(49.7002 13.842) rotate(30.9859) scale(9.42909 11.8646)">
<stop offset="0.341" stop-color="#DCC579"/>
<stop offset="1" stop-color="#DCC579" stop-opacity="0"/>
</radialGradient>
<radialGradient id="paint27_radial_1_8417" cx="0" cy="0" r="1" gradientUnits="userSpaceOnUse" gradientTransform="translate(66.713 26.6696) rotate(-100.466) scale(9.54445 11.4661)">
<stop offset="0.141" stop-color="#C58F37"/>
<stop offset="1" stop-color="#C58F37" stop-opacity="0"/>
</radialGradient>
<linearGradient id="paint28_linear_1_8417" x1="69.7052" y1="16.022" x2="65.4077" y2="19.772" gradientUnits="userSpaceOnUse">
<stop offset="0.14" stop-color="#E0C93A"/>
<stop offset="1" stop-color="#C9A540" stop-opacity="0"/>
</linearGradient>
<radialGradient id="paint29_radial_1_8417" cx="0" cy="0" r="1" gradientUnits="userSpaceOnUse" gradientTransform="translate(67.8677 16.607) rotate(47.7874) scale(7.38365 1.38118)">
<stop offset="0.16" stop-color="#EDD261"/>
<stop offset="1" stop-color="#D9BE3E" stop-opacity="0"/>
</radialGradient>
<linearGradient id="paint30_linear_1_8417" x1="52.4972" y1="27.5371" x2="27.8797" y2="47.4771" gradientUnits="userSpaceOnUse">
<stop stop-color="#D9B244" stop-opacity="0"/>
<stop offset="0.44" stop-color="#D9B244"/>
<stop offset="1" stop-color="#D9B244" stop-opacity="0"/>
</linearGradient>
</defs>
</svg>
