<svg width="80" height="80" viewBox="0 0 80 80" fill="none" xmlns="http://www.w3.org/2000/svg">
<g filter="url(#filter0_i_1_8178)">
<path d="M5.1748 72.265C5.1748 72.928 5.4382 73.5639 5.90704 74.0327C6.37588 74.5016 7.01176 74.765 7.6748 74.765H72.3248C72.9878 74.765 73.6237 74.5016 74.0926 74.0327C74.5614 73.5639 74.8248 72.928 74.8248 72.265V22.46H5.1748V72.265Z" fill="url(#paint0_linear_1_8178)"/>
<path d="M5.1748 72.265C5.1748 72.928 5.4382 73.5639 5.90704 74.0327C6.37588 74.5016 7.01176 74.765 7.6748 74.765H72.3248C72.9878 74.765 73.6237 74.5016 74.0926 74.0327C74.5614 73.5639 74.8248 72.928 74.8248 72.265V22.46H5.1748V72.265Z" fill="url(#paint1_linear_1_8178)"/>
<path d="M5.1748 72.265C5.1748 72.928 5.4382 73.5639 5.90704 74.0327C6.37588 74.5016 7.01176 74.765 7.6748 74.765H72.3248C72.9878 74.765 73.6237 74.5016 74.0926 74.0327C74.5614 73.5639 74.8248 72.928 74.8248 72.265V22.46H5.1748V72.265Z" fill="url(#paint2_linear_1_8178)"/>
</g>
<g filter="url(#filter1_i_1_8178)">
<path d="M7.63672 22.46H22.5567V69.375C22.5567 70.038 22.2933 70.6739 21.8245 71.1427C21.3556 71.6116 20.7198 71.875 20.0567 71.875H10.1367C9.47368 71.875 8.83779 71.6116 8.36895 71.1427C7.90011 70.6739 7.63672 70.038 7.63672 69.375V22.46Z" fill="url(#paint3_linear_1_8178)"/>
<path d="M7.63672 22.46H22.5567V69.375C22.5567 70.038 22.2933 70.6739 21.8245 71.1427C21.3556 71.6116 20.7198 71.875 20.0567 71.875H10.1367C9.47368 71.875 8.83779 71.6116 8.36895 71.1427C7.90011 70.6739 7.63672 70.038 7.63672 69.375V22.46Z" fill="url(#paint4_linear_1_8178)"/>
<path d="M7.63672 22.46H22.5567V69.375C22.5567 70.038 22.2933 70.6739 21.8245 71.1427C21.3556 71.6116 20.7198 71.875 20.0567 71.875H10.1367C9.47368 71.875 8.83779 71.6116 8.36895 71.1427C7.90011 70.6739 7.63672 70.038 7.63672 69.375V22.46Z" fill="url(#paint5_radial_1_8178)"/>
</g>
<g filter="url(#filter2_i_1_8178)">
<path d="M24.25 22.46H39.175V69.375C39.175 70.038 38.9116 70.6739 38.4428 71.1427C37.9739 71.6116 37.338 71.875 36.675 71.875H26.75C26.087 71.875 25.4511 71.6116 24.9822 71.1427C24.5134 70.6739 24.25 70.038 24.25 69.375V22.46Z" fill="url(#paint6_linear_1_8178)"/>
<path d="M24.25 22.46H39.175V69.375C39.175 70.038 38.9116 70.6739 38.4428 71.1427C37.9739 71.6116 37.338 71.875 36.675 71.875H26.75C26.087 71.875 25.4511 71.6116 24.9822 71.1427C24.5134 70.6739 24.25 70.038 24.25 69.375V22.46Z" fill="url(#paint7_linear_1_8178)"/>
<path d="M24.25 22.46H39.175V69.375C39.175 70.038 38.9116 70.6739 38.4428 71.1427C37.9739 71.6116 37.338 71.875 36.675 71.875H26.75C26.087 71.875 25.4511 71.6116 24.9822 71.1427C24.5134 70.6739 24.25 70.038 24.25 69.375V22.46Z" fill="url(#paint8_radial_1_8178)"/>
</g>
<g filter="url(#filter3_i_1_8178)">
<path d="M40.8652 22.46H55.7902V69.375C55.7902 70.038 55.5268 70.6739 55.058 71.1427C54.5892 71.6116 53.9533 71.875 53.2902 71.875H43.3652C42.7022 71.875 42.0663 71.6116 41.5975 71.1427C41.1286 70.6739 40.8652 70.038 40.8652 69.375V22.46Z" fill="url(#paint9_linear_1_8178)"/>
<path d="M40.8652 22.46H55.7902V69.375C55.7902 70.038 55.5268 70.6739 55.058 71.1427C54.5892 71.6116 53.9533 71.875 53.2902 71.875H43.3652C42.7022 71.875 42.0663 71.6116 41.5975 71.1427C41.1286 70.6739 40.8652 70.038 40.8652 69.375V22.46Z" fill="url(#paint10_linear_1_8178)"/>
<path d="M40.8652 22.46H55.7902V69.375C55.7902 70.038 55.5268 70.6739 55.058 71.1427C54.5892 71.6116 53.9533 71.875 53.2902 71.875H43.3652C42.7022 71.875 42.0663 71.6116 41.5975 71.1427C41.1286 70.6739 40.8652 70.038 40.8652 69.375V22.46Z" fill="url(#paint11_radial_1_8178)"/>
</g>
<g filter="url(#filter4_i_1_8178)">
<path d="M57.4805 22.46H72.403V69.375C72.403 70.038 72.1396 70.6739 71.6707 71.1427C71.2019 71.6116 70.566 71.875 69.903 71.875H59.9805C59.3174 71.875 58.6815 71.6116 58.2127 71.1427C57.7439 70.6739 57.4805 70.038 57.4805 69.375V22.46Z" fill="url(#paint12_linear_1_8178)"/>
<path d="M57.4805 22.46H72.403V69.375C72.403 70.038 72.1396 70.6739 71.6707 71.1427C71.2019 71.6116 70.566 71.875 69.903 71.875H59.9805C59.3174 71.875 58.6815 71.6116 58.2127 71.1427C57.7439 70.6739 57.4805 70.038 57.4805 69.375V22.46Z" fill="url(#paint13_radial_1_8178)"/>
<path d="M57.4805 22.46H72.403V69.375C72.403 70.038 72.1396 70.6739 71.6707 71.1427C71.2019 71.6116 70.566 71.875 69.903 71.875H59.9805C59.3174 71.875 58.6815 71.6116 58.2127 71.1427C57.7439 70.6739 57.4805 70.038 57.4805 69.375V22.46Z" fill="url(#paint14_linear_1_8178)"/>
<path d="M57.4805 22.46H72.403V69.375C72.403 70.038 72.1396 70.6739 71.6707 71.1427C71.2019 71.6116 70.566 71.875 69.903 71.875H59.9805C59.3174 71.875 58.6815 71.6116 58.2127 71.1427C57.7439 70.6739 57.4805 70.038 57.4805 69.375V22.46Z" fill="url(#paint15_linear_1_8178)"/>
</g>
<g filter="url(#filter5_f_1_8178)">
<path d="M17.0977 22.46H25.3152V50.6825C25.3152 52.025 24.3077 53.1125 23.0652 53.1125H19.3477C18.1052 53.1125 17.0977 52.025 17.0977 50.6825V22.46Z" fill="#C8BBD7"/>
</g>
<g filter="url(#filter6_f_1_8178)">
<path d="M33.8672 22.46H42.0847V50.6825C42.0847 52.025 41.0797 53.1125 39.8372 53.1125H36.1147C34.8747 53.1125 33.8672 52.025 33.8672 50.6825V22.46Z" fill="#C8BBD7"/>
</g>
<g filter="url(#filter7_f_1_8178)">
<path d="M50.6387 22.4609H58.8562V50.6834C58.8562 52.0259 57.8487 53.1134 56.6062 53.1134H52.8862C51.6437 53.1134 50.6387 52.0259 50.6387 50.6834V22.4609Z" fill="#C8BBD7"/>
</g>
<g filter="url(#filter8_ii_1_8178)">
<path d="M5.1748 7.69531C5.1748 7.03227 5.4382 6.39639 5.90704 5.92755C6.37588 5.4587 7.01176 5.19531 7.6748 5.19531H72.3248C72.9878 5.19531 73.6237 5.4587 74.0926 5.92755C74.5614 6.39639 74.8248 7.03227 74.8248 7.69531V22.4603H5.1748V7.69531Z" fill="url(#paint16_linear_1_8178)"/>
</g>
<path d="M5.1748 7.69531C5.1748 7.03227 5.4382 6.39639 5.90704 5.92755C6.37588 5.4587 7.01176 5.19531 7.6748 5.19531H72.3248C72.9878 5.19531 73.6237 5.4587 74.0926 5.92755C74.5614 6.39639 74.8248 7.03227 74.8248 7.69531V22.4603H5.1748V7.69531Z" fill="url(#paint17_linear_1_8178)"/>
<g filter="url(#filter9_i_1_8178)">
<path d="M19.043 22.46H28.183V51.485C28.183 52.148 27.9196 52.7839 27.4507 53.2527C26.9819 53.7216 26.346 53.985 25.683 53.985H21.543C20.8799 53.985 20.244 53.7216 19.7752 53.2527C19.3064 52.7839 19.043 52.148 19.043 51.485V22.46Z" fill="url(#paint18_linear_1_8178)"/>
<path d="M19.043 22.46H28.183V51.485C28.183 52.148 27.9196 52.7839 27.4507 53.2527C26.9819 53.7216 26.346 53.985 25.683 53.985H21.543C20.8799 53.985 20.244 53.7216 19.7752 53.2527C19.3064 52.7839 19.043 52.148 19.043 51.485V22.46Z" fill="url(#paint19_linear_1_8178)"/>
<path d="M19.043 22.46H28.183V51.485C28.183 52.148 27.9196 52.7839 27.4507 53.2527C26.9819 53.7216 26.346 53.985 25.683 53.985H21.543C20.8799 53.985 20.244 53.7216 19.7752 53.2527C19.3064 52.7839 19.043 52.148 19.043 51.485V22.46Z" fill="url(#paint20_linear_1_8178)"/>
</g>
<g filter="url(#filter10_i_1_8178)">
<path d="M35.4297 22.46H44.5697V51.485C44.5697 52.148 44.3063 52.7839 43.8375 53.2527C43.3686 53.7216 42.7327 53.985 42.0697 53.985H37.9297C37.2666 53.985 36.6308 53.7216 36.1619 53.2527C35.6931 52.7839 35.4297 52.148 35.4297 51.485V22.46Z" fill="url(#paint21_linear_1_8178)"/>
<path d="M35.4297 22.46H44.5697V51.485C44.5697 52.148 44.3063 52.7839 43.8375 53.2527C43.3686 53.7216 42.7327 53.985 42.0697 53.985H37.9297C37.2666 53.985 36.6308 53.7216 36.1619 53.2527C35.6931 52.7839 35.4297 52.148 35.4297 51.485V22.46Z" fill="url(#paint22_linear_1_8178)"/>
<path d="M35.4297 22.46H44.5697V51.485C44.5697 52.148 44.3063 52.7839 43.8375 53.2527C43.3686 53.7216 42.7327 53.985 42.0697 53.985H37.9297C37.2666 53.985 36.6308 53.7216 36.1619 53.2527C35.6931 52.7839 35.4297 52.148 35.4297 51.485V22.46Z" fill="url(#paint23_linear_1_8178)"/>
</g>
<g filter="url(#filter11_i_1_8178)">
<path d="M51.8174 22.46H60.9574V51.485C60.9574 52.148 60.694 52.7839 60.2252 53.2527C59.7563 53.7216 59.1204 53.985 58.4574 53.985H54.3174C53.6543 53.985 53.0185 53.7216 52.5496 53.2527C52.0808 52.7839 51.8174 52.148 51.8174 51.485V22.46Z" fill="url(#paint24_linear_1_8178)"/>
<path d="M51.8174 22.46H60.9574V51.485C60.9574 52.148 60.694 52.7839 60.2252 53.2527C59.7563 53.7216 59.1204 53.985 58.4574 53.985H54.3174C53.6543 53.985 53.0185 53.7216 52.5496 53.2527C52.0808 52.7839 51.8174 52.148 51.8174 51.485V22.46Z" fill="url(#paint25_linear_1_8178)"/>
<path d="M51.8174 22.46H60.9574V51.485C60.9574 52.148 60.694 52.7839 60.2252 53.2527C59.7563 53.7216 59.1204 53.985 58.4574 53.985H54.3174C53.6543 53.985 53.0185 53.7216 52.5496 53.2527C52.0808 52.7839 51.8174 52.148 51.8174 51.485V22.46Z" fill="url(#paint26_linear_1_8178)"/>
</g>
<defs>
<filter id="filter0_i_1_8178" x="5.1748" y="22.21" width="69.9004" height="52.5547" filterUnits="userSpaceOnUse" color-interpolation-filters="sRGB">
<feFlood flood-opacity="0" result="BackgroundImageFix"/>
<feBlend mode="normal" in="SourceGraphic" in2="BackgroundImageFix" result="shape"/>
<feColorMatrix in="SourceAlpha" type="matrix" values="0 0 0 0 0 0 0 0 0 0 0 0 0 0 0 0 0 0 127 0" result="hardAlpha"/>
<feOffset dx="0.25" dy="-0.25"/>
<feGaussianBlur stdDeviation="0.625"/>
<feComposite in2="hardAlpha" operator="arithmetic" k2="-1" k3="1"/>
<feColorMatrix type="matrix" values="0 0 0 0 0.592157 0 0 0 0 0.552941 0 0 0 0 0.635294 0 0 0 1 0"/>
<feBlend mode="normal" in2="shape" result="effect1_innerShadow_1_8178"/>
</filter>
<filter id="filter1_i_1_8178" x="7.63672" y="22.46" width="15.4199" height="49.415" filterUnits="userSpaceOnUse" color-interpolation-filters="sRGB">
<feFlood flood-opacity="0" result="BackgroundImageFix"/>
<feBlend mode="normal" in="SourceGraphic" in2="BackgroundImageFix" result="shape"/>
<feColorMatrix in="SourceAlpha" type="matrix" values="0 0 0 0 0 0 0 0 0 0 0 0 0 0 0 0 0 0 127 0" result="hardAlpha"/>
<feOffset dx="0.5"/>
<feGaussianBlur stdDeviation="0.625"/>
<feComposite in2="hardAlpha" operator="arithmetic" k2="-1" k3="1"/>
<feColorMatrix type="matrix" values="0 0 0 0 0.678431 0 0 0 0 0.654902 0 0 0 0 0.701961 0 0 0 1 0"/>
<feBlend mode="normal" in2="shape" result="effect1_innerShadow_1_8178"/>
</filter>
<filter id="filter2_i_1_8178" x="24.25" y="22.46" width="15.4248" height="49.415" filterUnits="userSpaceOnUse" color-interpolation-filters="sRGB">
<feFlood flood-opacity="0" result="BackgroundImageFix"/>
<feBlend mode="normal" in="SourceGraphic" in2="BackgroundImageFix" result="shape"/>
<feColorMatrix in="SourceAlpha" type="matrix" values="0 0 0 0 0 0 0 0 0 0 0 0 0 0 0 0 0 0 127 0" result="hardAlpha"/>
<feOffset dx="0.5"/>
<feGaussianBlur stdDeviation="0.625"/>
<feComposite in2="hardAlpha" operator="arithmetic" k2="-1" k3="1"/>
<feColorMatrix type="matrix" values="0 0 0 0 0.678431 0 0 0 0 0.654902 0 0 0 0 0.701961 0 0 0 1 0"/>
<feBlend mode="normal" in2="shape" result="effect1_innerShadow_1_8178"/>
</filter>
<filter id="filter3_i_1_8178" x="40.8652" y="22.46" width="15.4248" height="49.415" filterUnits="userSpaceOnUse" color-interpolation-filters="sRGB">
<feFlood flood-opacity="0" result="BackgroundImageFix"/>
<feBlend mode="normal" in="SourceGraphic" in2="BackgroundImageFix" result="shape"/>
<feColorMatrix in="SourceAlpha" type="matrix" values="0 0 0 0 0 0 0 0 0 0 0 0 0 0 0 0 0 0 127 0" result="hardAlpha"/>
<feOffset dx="0.5"/>
<feGaussianBlur stdDeviation="0.625"/>
<feComposite in2="hardAlpha" operator="arithmetic" k2="-1" k3="1"/>
<feColorMatrix type="matrix" values="0 0 0 0 0.678431 0 0 0 0 0.654902 0 0 0 0 0.701961 0 0 0 1 0"/>
<feBlend mode="normal" in2="shape" result="effect1_innerShadow_1_8178"/>
</filter>
<filter id="filter4_i_1_8178" x="57.4805" y="22.46" width="15.4229" height="49.415" filterUnits="userSpaceOnUse" color-interpolation-filters="sRGB">
<feFlood flood-opacity="0" result="BackgroundImageFix"/>
<feBlend mode="normal" in="SourceGraphic" in2="BackgroundImageFix" result="shape"/>
<feColorMatrix in="SourceAlpha" type="matrix" values="0 0 0 0 0 0 0 0 0 0 0 0 0 0 0 0 0 0 127 0" result="hardAlpha"/>
<feOffset dx="0.5"/>
<feGaussianBlur stdDeviation="0.625"/>
<feComposite in2="hardAlpha" operator="arithmetic" k2="-1" k3="1"/>
<feColorMatrix type="matrix" values="0 0 0 0 0.678431 0 0 0 0 0.654902 0 0 0 0 0.701961 0 0 0 1 0"/>
<feBlend mode="normal" in2="shape" result="effect1_innerShadow_1_8178"/>
</filter>
<filter id="filter5_f_1_8178" x="15.2227" y="20.585" width="11.9678" height="34.4023" filterUnits="userSpaceOnUse" color-interpolation-filters="sRGB">
<feFlood flood-opacity="0" result="BackgroundImageFix"/>
<feBlend mode="normal" in="SourceGraphic" in2="BackgroundImageFix" result="shape"/>
<feGaussianBlur stdDeviation="0.9375" result="effect1_foregroundBlur_1_8178"/>
</filter>
<filter id="filter6_f_1_8178" x="31.9922" y="20.585" width="11.9678" height="34.4023" filterUnits="userSpaceOnUse" color-interpolation-filters="sRGB">
<feFlood flood-opacity="0" result="BackgroundImageFix"/>
<feBlend mode="normal" in="SourceGraphic" in2="BackgroundImageFix" result="shape"/>
<feGaussianBlur stdDeviation="0.9375" result="effect1_foregroundBlur_1_8178"/>
</filter>
<filter id="filter7_f_1_8178" x="48.7637" y="20.5859" width="11.9678" height="34.4023" filterUnits="userSpaceOnUse" color-interpolation-filters="sRGB">
<feFlood flood-opacity="0" result="BackgroundImageFix"/>
<feBlend mode="normal" in="SourceGraphic" in2="BackgroundImageFix" result="shape"/>
<feGaussianBlur stdDeviation="0.9375" result="effect1_foregroundBlur_1_8178"/>
</filter>
<filter id="filter8_ii_1_8178" x="3.9248" y="5.19531" width="71.5254" height="17.8896" filterUnits="userSpaceOnUse" color-interpolation-filters="sRGB">
<feFlood flood-opacity="0" result="BackgroundImageFix"/>
<feBlend mode="normal" in="SourceGraphic" in2="BackgroundImageFix" result="shape"/>
<feColorMatrix in="SourceAlpha" type="matrix" values="0 0 0 0 0 0 0 0 0 0 0 0 0 0 0 0 0 0 127 0" result="hardAlpha"/>
<feOffset dx="-1.25" dy="0.625"/>
<feGaussianBlur stdDeviation="0.625"/>
<feComposite in2="hardAlpha" operator="arithmetic" k2="-1" k3="1"/>
<feColorMatrix type="matrix" values="0 0 0 0 0.4 0 0 0 0 0.360784 0 0 0 0 0.447059 0 0 0 1 0"/>
<feBlend mode="normal" in2="shape" result="effect1_innerShadow_1_8178"/>
<feColorMatrix in="SourceAlpha" type="matrix" values="0 0 0 0 0 0 0 0 0 0 0 0 0 0 0 0 0 0 127 0" result="hardAlpha"/>
<feOffset dx="1.25" dy="0.625"/>
<feGaussianBlur stdDeviation="0.3125"/>
<feComposite in2="hardAlpha" operator="arithmetic" k2="-1" k3="1"/>
<feColorMatrix type="matrix" values="0 0 0 0 0.254902 0 0 0 0 0.239216 0 0 0 0 0.27451 0 0 0 1 0"/>
<feBlend mode="normal" in2="effect1_innerShadow_1_8178" result="effect2_innerShadow_1_8178"/>
</filter>
<filter id="filter9_i_1_8178" x="19.043" y="21.835" width="10.0146" height="32.1504" filterUnits="userSpaceOnUse" color-interpolation-filters="sRGB">
<feFlood flood-opacity="0" result="BackgroundImageFix"/>
<feBlend mode="normal" in="SourceGraphic" in2="BackgroundImageFix" result="shape"/>
<feColorMatrix in="SourceAlpha" type="matrix" values="0 0 0 0 0 0 0 0 0 0 0 0 0 0 0 0 0 0 127 0" result="hardAlpha"/>
<feOffset dx="0.875" dy="-0.625"/>
<feGaussianBlur stdDeviation="0.4375"/>
<feComposite in2="hardAlpha" operator="arithmetic" k2="-1" k3="1"/>
<feColorMatrix type="matrix" values="0 0 0 0 0.235294 0 0 0 0 0.188235 0 0 0 0 0.278431 0 0 0 1 0"/>
<feBlend mode="normal" in2="shape" result="effect1_innerShadow_1_8178"/>
</filter>
<filter id="filter10_i_1_8178" x="35.4297" y="21.835" width="10.0146" height="32.1504" filterUnits="userSpaceOnUse" color-interpolation-filters="sRGB">
<feFlood flood-opacity="0" result="BackgroundImageFix"/>
<feBlend mode="normal" in="SourceGraphic" in2="BackgroundImageFix" result="shape"/>
<feColorMatrix in="SourceAlpha" type="matrix" values="0 0 0 0 0 0 0 0 0 0 0 0 0 0 0 0 0 0 127 0" result="hardAlpha"/>
<feOffset dx="0.875" dy="-0.625"/>
<feGaussianBlur stdDeviation="0.4375"/>
<feComposite in2="hardAlpha" operator="arithmetic" k2="-1" k3="1"/>
<feColorMatrix type="matrix" values="0 0 0 0 0.235294 0 0 0 0 0.188235 0 0 0 0 0.278431 0 0 0 1 0"/>
<feBlend mode="normal" in2="shape" result="effect1_innerShadow_1_8178"/>
</filter>
<filter id="filter11_i_1_8178" x="51.8174" y="21.835" width="10.0146" height="32.1504" filterUnits="userSpaceOnUse" color-interpolation-filters="sRGB">
<feFlood flood-opacity="0" result="BackgroundImageFix"/>
<feBlend mode="normal" in="SourceGraphic" in2="BackgroundImageFix" result="shape"/>
<feColorMatrix in="SourceAlpha" type="matrix" values="0 0 0 0 0 0 0 0 0 0 0 0 0 0 0 0 0 0 127 0" result="hardAlpha"/>
<feOffset dx="0.875" dy="-0.625"/>
<feGaussianBlur stdDeviation="0.4375"/>
<feComposite in2="hardAlpha" operator="arithmetic" k2="-1" k3="1"/>
<feColorMatrix type="matrix" values="0 0 0 0 0.235294 0 0 0 0 0.188235 0 0 0 0 0.278431 0 0 0 1 0"/>
<feBlend mode="normal" in2="shape" result="effect1_innerShadow_1_8178"/>
</filter>
<linearGradient id="paint0_linear_1_8178" x1="54.2773" y1="45.9375" x2="75.9948" y2="45.9375" gradientUnits="userSpaceOnUse">
<stop stop-color="#948F99"/>
<stop offset="1" stop-color="#C3BFC7"/>
</linearGradient>
<linearGradient id="paint1_linear_1_8178" x1="75.2098" y1="59.505" x2="73.5898" y2="59.505" gradientUnits="userSpaceOnUse">
<stop offset="0.286" stop-color="#CAC7CE"/>
<stop offset="1" stop-color="#CAC7CE" stop-opacity="0"/>
</linearGradient>
<linearGradient id="paint2_linear_1_8178" x1="37.7148" y1="74.765" x2="37.7148" y2="69.1425" gradientUnits="userSpaceOnUse">
<stop stop-color="#A088B8"/>
<stop offset="1" stop-color="#A092B0" stop-opacity="0"/>
</linearGradient>
<linearGradient id="paint3_linear_1_8178" x1="15.0967" y1="22.46" x2="15.0967" y2="69.5125" gradientUnits="userSpaceOnUse">
<stop stop-color="#C3B8CF"/>
<stop offset="0.571" stop-color="#E3D6F2"/>
</linearGradient>
<linearGradient id="paint4_linear_1_8178" x1="15.6292" y1="72.385" x2="15.6292" y2="69.05" gradientUnits="userSpaceOnUse">
<stop offset="0.083" stop-color="#B9A1D1"/>
<stop offset="1" stop-color="#E1D1F2" stop-opacity="0"/>
</linearGradient>
<radialGradient id="paint5_radial_1_8178" cx="0" cy="0" r="1" gradientUnits="userSpaceOnUse" gradientTransform="translate(23.9767 41.8075) rotate(180) scale(11.2118 35.566)">
<stop stop-color="#ECE3F6"/>
<stop offset="1" stop-color="#ECE3F6" stop-opacity="0"/>
</radialGradient>
<linearGradient id="paint6_linear_1_8178" x1="31.7125" y1="22.46" x2="31.7125" y2="69.5125" gradientUnits="userSpaceOnUse">
<stop stop-color="#C3B8CF"/>
<stop offset="0.571" stop-color="#E3D6F2"/>
</linearGradient>
<linearGradient id="paint7_linear_1_8178" x1="32.245" y1="72.385" x2="32.245" y2="69.05" gradientUnits="userSpaceOnUse">
<stop offset="0.083" stop-color="#B9A1D1"/>
<stop offset="1" stop-color="#E1D1F2" stop-opacity="0"/>
</linearGradient>
<radialGradient id="paint8_radial_1_8178" cx="0" cy="0" r="1" gradientUnits="userSpaceOnUse" gradientTransform="translate(40.5925 41.8075) rotate(180) scale(11.2119 35.566)">
<stop stop-color="#ECE3F6"/>
<stop offset="1" stop-color="#ECE3F6" stop-opacity="0"/>
</radialGradient>
<linearGradient id="paint9_linear_1_8178" x1="48.3277" y1="22.46" x2="48.3277" y2="69.5125" gradientUnits="userSpaceOnUse">
<stop stop-color="#C3B8CF"/>
<stop offset="0.571" stop-color="#E3D6F2"/>
</linearGradient>
<linearGradient id="paint10_linear_1_8178" x1="48.8602" y1="72.385" x2="48.8602" y2="69.05" gradientUnits="userSpaceOnUse">
<stop offset="0.083" stop-color="#B9A1D1"/>
<stop offset="1" stop-color="#E1D1F2" stop-opacity="0"/>
</linearGradient>
<radialGradient id="paint11_radial_1_8178" cx="0" cy="0" r="1" gradientUnits="userSpaceOnUse" gradientTransform="translate(57.2077 41.8075) rotate(180) scale(11.2118 35.566)">
<stop stop-color="#ECE3F6"/>
<stop offset="1" stop-color="#ECE3F6" stop-opacity="0"/>
</radialGradient>
<linearGradient id="paint12_linear_1_8178" x1="64.943" y1="22.46" x2="64.943" y2="69.5125" gradientUnits="userSpaceOnUse">
<stop stop-color="#C3B8CF"/>
<stop offset="0.571" stop-color="#E3D6F2"/>
</linearGradient>
<radialGradient id="paint13_radial_1_8178" cx="0" cy="0" r="1" gradientUnits="userSpaceOnUse" gradientTransform="translate(73.823 41.8075) rotate(180) scale(11.2118 35.566)">
<stop stop-color="#ECE3F6"/>
<stop offset="1" stop-color="#ECE3F6" stop-opacity="0"/>
</radialGradient>
<linearGradient id="paint14_linear_1_8178" x1="73.543" y1="59.8775" x2="69.468" y2="59.8775" gradientUnits="userSpaceOnUse">
<stop stop-color="#F5EFFD"/>
<stop offset="1" stop-color="#E2D5F0" stop-opacity="0"/>
</linearGradient>
<linearGradient id="paint15_linear_1_8178" x1="65.4755" y1="72.385" x2="65.4755" y2="69.05" gradientUnits="userSpaceOnUse">
<stop offset="0.083" stop-color="#B9A1D1"/>
<stop offset="1" stop-color="#E1D1F2" stop-opacity="0"/>
</linearGradient>
<linearGradient id="paint16_linear_1_8178" x1="39.9998" y1="6.50531" x2="39.9998" y2="22.4603" gradientUnits="userSpaceOnUse">
<stop stop-color="#473856"/>
<stop offset="1" stop-color="#41374B"/>
</linearGradient>
<linearGradient id="paint17_linear_1_8178" x1="49.2673" y1="22.4603" x2="49.2673" y2="21.2603" gradientUnits="userSpaceOnUse">
<stop stop-color="#372646"/>
<stop offset="1" stop-color="#372646" stop-opacity="0"/>
</linearGradient>
<linearGradient id="paint18_linear_1_8178" x1="23.613" y1="22.46" x2="23.613" y2="53.985" gradientUnits="userSpaceOnUse">
<stop offset="0.334" stop-color="#58426C"/>
<stop offset="1" stop-color="#443C4B"/>
</linearGradient>
<linearGradient id="paint19_linear_1_8178" x1="28.5105" y1="47.1825" x2="26.6105" y2="47.1825" gradientUnits="userSpaceOnUse">
<stop offset="0.488" stop-color="#5A4D68"/>
<stop offset="1" stop-color="#5A4D68" stop-opacity="0"/>
</linearGradient>
<linearGradient id="paint20_linear_1_8178" x1="23.613" y1="21.9775" x2="23.613" y2="24.665" gradientUnits="userSpaceOnUse">
<stop offset="0.172" stop-color="#42285C"/>
<stop offset="1" stop-color="#5A436E" stop-opacity="0"/>
</linearGradient>
<linearGradient id="paint21_linear_1_8178" x1="39.9997" y1="22.46" x2="39.9997" y2="53.985" gradientUnits="userSpaceOnUse">
<stop offset="0.334" stop-color="#58426C"/>
<stop offset="1" stop-color="#443C4B"/>
</linearGradient>
<linearGradient id="paint22_linear_1_8178" x1="44.8972" y1="47.1825" x2="42.9972" y2="47.1825" gradientUnits="userSpaceOnUse">
<stop offset="0.488" stop-color="#5A4D68"/>
<stop offset="1" stop-color="#5A4D68" stop-opacity="0"/>
</linearGradient>
<linearGradient id="paint23_linear_1_8178" x1="39.9997" y1="21.9775" x2="39.9997" y2="24.665" gradientUnits="userSpaceOnUse">
<stop offset="0.172" stop-color="#42285C"/>
<stop offset="1" stop-color="#5A436E" stop-opacity="0"/>
</linearGradient>
<linearGradient id="paint24_linear_1_8178" x1="56.3874" y1="22.46" x2="56.3874" y2="53.985" gradientUnits="userSpaceOnUse">
<stop offset="0.334" stop-color="#58426C"/>
<stop offset="1" stop-color="#443C4B"/>
</linearGradient>
<linearGradient id="paint25_linear_1_8178" x1="61.2849" y1="47.1825" x2="59.3849" y2="47.1825" gradientUnits="userSpaceOnUse">
<stop offset="0.488" stop-color="#5A4D68"/>
<stop offset="1" stop-color="#5A4D68" stop-opacity="0"/>
</linearGradient>
<linearGradient id="paint26_linear_1_8178" x1="56.3874" y1="21.9775" x2="56.3874" y2="24.665" gradientUnits="userSpaceOnUse">
<stop offset="0.172" stop-color="#42285C"/>
<stop offset="1" stop-color="#5A436E" stop-opacity="0"/>
</linearGradient>
</defs>
</svg>
