<svg width="80" height="80" viewBox="0 0 80 80" fill="none" xmlns="http://www.w3.org/2000/svg">
<g filter="url(#filter0_i_1_8247)">
<path d="M55.833 44.1796C66.1414 44.1796 74.498 35.823 74.498 25.5146C74.498 15.2062 66.1414 6.84961 55.833 6.84961C45.5246 6.84961 37.168 15.2062 37.168 25.5146C37.168 35.823 45.5246 44.1796 55.833 44.1796Z" fill="url(#paint0_radial_1_8247)"/>
<path d="M55.833 44.1796C66.1414 44.1796 74.498 35.823 74.498 25.5146C74.498 15.2062 66.1414 6.84961 55.833 6.84961C45.5246 6.84961 37.168 15.2062 37.168 25.5146C37.168 35.823 45.5246 44.1796 55.833 44.1796Z" fill="url(#paint1_radial_1_8247)"/>
<path d="M55.833 44.1796C66.1414 44.1796 74.498 35.823 74.498 25.5146C74.498 15.2062 66.1414 6.84961 55.833 6.84961C45.5246 6.84961 37.168 15.2062 37.168 25.5146C37.168 35.823 45.5246 44.1796 55.833 44.1796Z" fill="url(#paint2_radial_1_8247)"/>
</g>
<path d="M43.8589 11.1992C41.9189 12.8176 40.3276 14.813 39.1815 17.0645C38.0354 19.316 37.3583 21.7767 37.1912 24.2976C37.0242 26.8185 37.3706 29.3471 38.2096 31.7301C39.0486 34.1132 40.3626 36.3011 42.0721 38.1613C43.7816 40.0216 45.8509 41.5154 48.1548 42.5523C50.4586 43.5892 52.9489 44.1476 55.4749 44.1937C58.0009 44.2398 60.51 43.7726 62.8501 42.8204C65.1902 41.8682 67.3127 40.4509 69.0889 38.6542L43.8589 11.1992Z" fill="url(#paint3_linear_1_8247)"/>
<path d="M41.2791 8.84758C41.665 8.48721 42.1181 8.20638 42.6125 8.02114C43.1069 7.8359 43.633 7.74988 44.1607 7.76799C44.6884 7.7861 45.2074 7.90798 45.6879 8.12668C46.1685 8.34537 46.6013 8.6566 46.9616 9.04258L71.6791 35.5176C72.3753 36.3019 72.7374 37.3271 72.6883 38.3747C72.6391 39.4222 72.1826 40.4091 71.4161 41.1247C70.6495 41.8404 69.6337 42.2282 68.5852 42.2054C67.5368 42.1825 66.5387 41.7509 65.8041 41.0026L41.0866 14.5251C40.3595 13.7459 39.9717 12.7098 40.0082 11.6447C40.0448 10.5796 40.5028 9.57261 41.2816 8.84508L41.2791 8.84758Z" fill="url(#paint4_linear_1_8247)"/>
<path d="M41.2791 8.84758C41.665 8.48721 42.1181 8.20638 42.6125 8.02114C43.1069 7.8359 43.633 7.74988 44.1607 7.76799C44.6884 7.7861 45.2074 7.90798 45.6879 8.12668C46.1685 8.34537 46.6013 8.6566 46.9616 9.04258L71.6791 35.5176C72.3753 36.3019 72.7374 37.3271 72.6883 38.3747C72.6391 39.4222 72.1826 40.4091 71.4161 41.1247C70.6495 41.8404 69.6337 42.2282 68.5852 42.2054C67.5368 42.1825 66.5387 41.7509 65.8041 41.0026L41.0866 14.5251C40.3595 13.7459 39.9717 12.7098 40.0082 11.6447C40.0448 10.5796 40.5028 9.57261 41.2816 8.84508L41.2791 8.84758Z" fill="url(#paint5_radial_1_8247)"/>
<g filter="url(#filter1_i_1_8247)">
<path d="M37.2188 27.3994L52.7713 43.9469L14.4088 72.0294C13.2656 72.8639 11.8563 73.2506 10.4473 73.1163C9.03834 72.982 7.72742 72.336 6.76249 71.3006C5.79755 70.2651 5.2455 68.912 5.21073 67.497C5.17596 66.0821 5.66089 64.7035 6.57381 63.6219L37.2188 27.4019V27.3994Z" fill="url(#paint6_linear_1_8247)"/>
<path d="M37.2188 27.3994L52.7713 43.9469L14.4088 72.0294C13.2656 72.8639 11.8563 73.2506 10.4473 73.1163C9.03834 72.982 7.72742 72.336 6.76249 71.3006C5.79755 70.2651 5.2455 68.912 5.21073 67.497C5.17596 66.0821 5.66089 64.7035 6.57381 63.6219L37.2188 27.4019V27.3994Z" fill="url(#paint7_radial_1_8247)"/>
</g>
<g filter="url(#filter2_f_1_8247)">
<path d="M34.4787 48.7045C36.4048 48.7045 37.9662 47.1431 37.9662 45.217C37.9662 43.2909 36.4048 41.7295 34.4787 41.7295C32.5526 41.7295 30.9912 43.2909 30.9912 45.217C30.9912 47.1431 32.5526 48.7045 34.4787 48.7045Z" fill="#8A858F"/>
</g>
<g filter="url(#filter3_ii_1_8247)">
<path d="M34.7512 48.7045C36.6773 48.7045 38.2387 47.1431 38.2387 45.217C38.2387 43.2909 36.6773 41.7295 34.7512 41.7295C32.8251 41.7295 31.2637 43.2909 31.2637 45.217C31.2637 47.1431 32.8251 48.7045 34.7512 48.7045Z" fill="url(#paint8_linear_1_8247)"/>
</g>
<defs>
<filter id="filter0_i_1_8247" x="37.168" y="6.84961" width="38.5801" height="38.5801" filterUnits="userSpaceOnUse" color-interpolation-filters="sRGB">
<feFlood flood-opacity="0" result="BackgroundImageFix"/>
<feBlend mode="normal" in="SourceGraphic" in2="BackgroundImageFix" result="shape"/>
<feColorMatrix in="SourceAlpha" type="matrix" values="0 0 0 0 0 0 0 0 0 0 0 0 0 0 0 0 0 0 127 0" result="hardAlpha"/>
<feOffset dx="1.25" dy="1.25"/>
<feGaussianBlur stdDeviation="1.25"/>
<feComposite in2="hardAlpha" operator="arithmetic" k2="-1" k3="1"/>
<feColorMatrix type="matrix" values="0 0 0 0 0.301961 0 0 0 0 0.290196 0 0 0 0 0.317647 0 0 0 1 0"/>
<feBlend mode="normal" in2="shape" result="effect1_innerShadow_1_8247"/>
</filter>
<filter id="filter1_i_1_8247" x="5.20898" y="27.3994" width="50.6875" height="47.6182" filterUnits="userSpaceOnUse" color-interpolation-filters="sRGB">
<feFlood flood-opacity="0" result="BackgroundImageFix"/>
<feBlend mode="normal" in="SourceGraphic" in2="BackgroundImageFix" result="shape"/>
<feColorMatrix in="SourceAlpha" type="matrix" values="0 0 0 0 0 0 0 0 0 0 0 0 0 0 0 0 0 0 127 0" result="hardAlpha"/>
<feOffset dx="3.125" dy="1.875"/>
<feGaussianBlur stdDeviation="2.5"/>
<feComposite in2="hardAlpha" operator="arithmetic" k2="-1" k3="1"/>
<feColorMatrix type="matrix" values="0 0 0 0 0.490196 0 0 0 0 0.490196 0 0 0 0 0.494118 0 0 0 1 0"/>
<feBlend mode="normal" in2="shape" result="effect1_innerShadow_1_8247"/>
</filter>
<filter id="filter2_f_1_8247" x="30.6162" y="41.3545" width="7.72461" height="7.72461" filterUnits="userSpaceOnUse" color-interpolation-filters="sRGB">
<feFlood flood-opacity="0" result="BackgroundImageFix"/>
<feBlend mode="normal" in="SourceGraphic" in2="BackgroundImageFix" result="shape"/>
<feGaussianBlur stdDeviation="0.1875" result="effect1_foregroundBlur_1_8247"/>
</filter>
<filter id="filter3_ii_1_8247" x="30.8887" y="41.7295" width="7.72461" height="6.97461" filterUnits="userSpaceOnUse" color-interpolation-filters="sRGB">
<feFlood flood-opacity="0" result="BackgroundImageFix"/>
<feBlend mode="normal" in="SourceGraphic" in2="BackgroundImageFix" result="shape"/>
<feColorMatrix in="SourceAlpha" type="matrix" values="0 0 0 0 0 0 0 0 0 0 0 0 0 0 0 0 0 0 127 0" result="hardAlpha"/>
<feOffset dx="-0.375"/>
<feGaussianBlur stdDeviation="0.1875"/>
<feComposite in2="hardAlpha" operator="arithmetic" k2="-1" k3="1"/>
<feColorMatrix type="matrix" values="0 0 0 0 0.862745 0 0 0 0 0.847059 0 0 0 0 0.882353 0 0 0 1 0"/>
<feBlend mode="normal" in2="shape" result="effect1_innerShadow_1_8247"/>
<feColorMatrix in="SourceAlpha" type="matrix" values="0 0 0 0 0 0 0 0 0 0 0 0 0 0 0 0 0 0 127 0" result="hardAlpha"/>
<feOffset dx="0.375"/>
<feGaussianBlur stdDeviation="0.3125"/>
<feComposite in2="hardAlpha" operator="arithmetic" k2="-1" k3="1"/>
<feColorMatrix type="matrix" values="0 0 0 0 0.584314 0 0 0 0 0.572549 0 0 0 0 0.6 0 0 0 1 0"/>
<feBlend mode="normal" in2="effect1_innerShadow_1_8247" result="effect2_innerShadow_1_8247"/>
</filter>
<radialGradient id="paint0_radial_1_8247" cx="0" cy="0" r="1" gradientUnits="userSpaceOnUse" gradientTransform="translate(54.9836 44.1782) rotate(-88.24) scale(27.5948 27.5948)">
<stop offset="0.189" stop-color="#512F70"/>
<stop offset="1" stop-color="#372D44"/>
</radialGradient>
<radialGradient id="paint1_radial_1_8247" cx="0" cy="0" r="1" gradientUnits="userSpaceOnUse" gradientTransform="translate(66.0795 19.4101) rotate(140.631) scale(15.765 12.2978)">
<stop offset="0.125" stop-color="#6C6476"/>
<stop offset="1" stop-color="#6C6476" stop-opacity="0"/>
</radialGradient>
<radialGradient id="paint2_radial_1_8247" cx="0" cy="0" r="1" gradientUnits="userSpaceOnUse" gradientTransform="translate(54.828 18.7846) rotate(82.6375) scale(25.6053 25.4268)">
<stop offset="0.911" stop-color="#513071" stop-opacity="0"/>
<stop offset="1" stop-color="#72538F"/>
</radialGradient>
<linearGradient id="paint3_linear_1_8247" x1="56.0814" y1="28.8617" x2="53.8939" y2="30.8942" gradientUnits="userSpaceOnUse">
<stop stop-color="#382A4B"/>
<stop offset="1" stop-color="#382A4B" stop-opacity="0"/>
</linearGradient>
<linearGradient id="paint4_linear_1_8247" x1="38.7391" y1="10.6601" x2="66.5516" y2="40.6601" gradientUnits="userSpaceOnUse">
<stop stop-color="#848286"/>
<stop offset="1" stop-color="#A89FB0"/>
</linearGradient>
<radialGradient id="paint5_radial_1_8247" cx="0" cy="0" r="1" gradientUnits="userSpaceOnUse" gradientTransform="translate(60.7691 25.0226) rotate(133.811) scale(5.75546 33.0882)">
<stop offset="0.161" stop-color="#C9C8CB"/>
<stop offset="1" stop-color="#A7A0AF" stop-opacity="0"/>
</radialGradient>
<linearGradient id="paint6_linear_1_8247" x1="36.4738" y1="54.8769" x2="23.7388" y2="42.3769" gradientUnits="userSpaceOnUse">
<stop stop-color="#ADA3B3"/>
<stop offset="1" stop-color="#949198"/>
</linearGradient>
<radialGradient id="paint7_radial_1_8247" cx="0" cy="0" r="1" gradientUnits="userSpaceOnUse" gradientTransform="translate(49.2063 37.8469) rotate(142.272) scale(48.0055 6.28078)">
<stop stop-color="#AEA6B5"/>
<stop offset="1" stop-color="#AEA6B5" stop-opacity="0"/>
</radialGradient>
<linearGradient id="paint8_linear_1_8247" x1="32.7237" y1="42.377" x2="37.4112" y2="48.3145" gradientUnits="userSpaceOnUse">
<stop stop-color="#C0BAC6"/>
<stop offset="1" stop-color="#CDC4D4"/>
</linearGradient>
</defs>
</svg>
