<svg width="80" height="80" viewBox="0 0 80 80" fill="none" xmlns="http://www.w3.org/2000/svg">
<path d="M14.8506 35.3457H64.7331V50.7957C64.7331 64.5707 53.5681 75.7382 39.7931 75.7382C26.0181 75.7382 14.8506 64.5732 14.8506 50.7982V35.3482V35.3457Z" fill="url(#paint0_linear_1_8037)"/>
<path d="M14.8506 35.3457H64.7331V50.7957C64.7331 64.5707 53.5681 75.7382 39.7931 75.7382C26.0181 75.7382 14.8506 64.5732 14.8506 50.7982V35.3482V35.3457Z" fill="url(#paint1_linear_1_8037)"/>
<path d="M14.8506 35.3457H64.7331V50.7957C64.7331 64.5707 53.5681 75.7382 39.7931 75.7382C26.0181 75.7382 14.8506 64.5732 14.8506 50.7982V35.3482V35.3457Z" fill="url(#paint2_radial_1_8037)"/>
<path d="M24.6345 70.6084C22.9393 69.309 21.4169 67.7985 20.1045 66.1134V49.2559H24.6345V70.6084Z" fill="url(#paint3_linear_1_8037)"/>
<path d="M42.0579 75.6384C40.5501 75.7743 39.0332 75.7743 37.5254 75.6384V49.2559H42.0579V75.6384Z" fill="url(#paint4_linear_1_8037)"/>
<path d="M59.4807 66.1124C58.1676 67.7977 56.6444 69.3083 54.9482 70.6074V49.2549H59.4807V66.1124Z" fill="url(#paint5_linear_1_8037)"/>
<path d="M59.4812 66.1127C58.2011 67.7557 56.7214 69.2329 55.0762 70.5102C54.9925 70.269 54.9502 70.0155 54.9512 69.7602V63.2777C54.9512 62.677 55.1898 62.1009 55.6146 61.6761C56.0394 61.2513 56.6155 61.0127 57.2162 61.0127C57.8169 61.0127 58.393 61.2513 58.8178 61.6761C59.2426 62.1009 59.4812 62.677 59.4812 63.2777V66.1127Z" fill="#F3B050"/>
<path d="M24.5095 70.5102C22.8644 69.2328 21.3847 67.7556 20.1045 66.1127V63.2777C20.1045 62.677 20.3431 62.1009 20.7679 61.6761C21.1927 61.2513 21.7688 61.0127 22.3695 61.0127C22.9702 61.0127 23.5463 61.2513 23.9711 61.6761C24.3959 62.1009 24.6345 62.677 24.6345 63.2777V69.7627C24.6352 70.0171 24.5929 70.2698 24.5095 70.5102Z" fill="url(#paint6_linear_1_8037)"/>
<path d="M54.9507 46.7552C54.9507 46.1545 55.1894 45.5784 55.6141 45.1536C56.0389 44.7289 56.615 44.4902 57.2157 44.4902C57.8165 44.4902 58.3926 44.7289 58.8173 45.1536C59.2421 45.5784 59.4807 46.1545 59.4807 46.7552V53.2377C59.4807 53.8388 59.242 54.4152 58.817 54.8402C58.392 55.2652 57.8155 55.504 57.2145 55.504C56.6134 55.504 56.037 55.2652 55.612 54.8402C55.187 54.4152 54.9482 53.8388 54.9482 53.2377L54.9507 46.7552Z" fill="#F1B14C"/>
<path d="M20.1045 46.7552C20.1045 46.4578 20.1631 46.1633 20.2769 45.8885C20.3907 45.6137 20.5576 45.364 20.7679 45.1536C20.9782 44.9433 21.2279 44.7765 21.5027 44.6626C21.7775 44.5488 22.072 44.4902 22.3695 44.4902C22.6669 44.4902 22.9615 44.5488 23.2363 44.6626C23.5111 44.7765 23.7608 44.9433 23.9711 45.1536C24.1814 45.364 24.3483 45.6137 24.4621 45.8885C24.5759 46.1633 24.6345 46.4578 24.6345 46.7552V53.2377C24.6345 53.5352 24.5759 53.8297 24.4621 54.1045C24.3483 54.3793 24.1814 54.629 23.9711 54.8393C23.7608 55.0497 23.5111 55.2165 23.2363 55.3303C22.9615 55.4441 22.6669 55.5027 22.3695 55.5027C22.072 55.5027 21.7775 55.4441 21.5027 55.3303C21.2279 55.2165 20.9782 55.0497 20.7679 54.8393C20.5576 54.629 20.3907 54.3793 20.2769 54.1045C20.1631 53.8297 20.1045 53.5352 20.1045 53.2377V46.7552Z" fill="url(#paint7_linear_1_8037)"/>
<path d="M37.5244 54.1754C37.5244 53.5744 37.7632 52.998 38.1882 52.5729C38.6132 52.1479 39.1896 51.9092 39.7907 51.9092C40.3917 51.9092 40.9681 52.1479 41.3931 52.5729C41.8182 52.998 42.0569 53.5744 42.0569 54.1754V60.6604C42.0569 61.2615 41.8182 61.8379 41.3931 62.2629C40.9681 62.6879 40.3917 62.9267 39.7907 62.9267C39.1896 62.9267 38.6132 62.6879 38.1882 62.2629C37.7632 61.8379 37.5244 61.2615 37.5244 60.6604V54.1754Z" fill="url(#paint8_linear_1_8037)"/>
<path d="M42.0579 75.6377C40.5501 75.7736 39.0332 75.7736 37.5254 75.6377V70.8952C37.5254 70.2941 37.7642 69.7177 38.1892 69.2927C38.6142 68.8677 39.1906 68.6289 39.7916 68.6289C40.3927 68.6289 40.9691 68.8677 41.3941 69.2927C41.8191 69.7177 42.0579 70.2941 42.0579 70.8952V75.6377Z" fill="#DB8F4F"/>
<g filter="url(#filter0_i_1_8037)">
<path d="M39.7518 54.0401C50.5282 54.0401 59.2643 45.5794 59.2643 35.1426C59.2643 24.7058 50.5282 16.2451 39.7518 16.2451C28.9753 16.2451 20.2393 24.7058 20.2393 35.1426C20.2393 45.5794 28.9753 54.0401 39.7518 54.0401Z" fill="url(#paint9_radial_1_8037)"/>
<path d="M39.7518 54.0401C50.5282 54.0401 59.2643 45.5794 59.2643 35.1426C59.2643 24.7058 50.5282 16.2451 39.7518 16.2451C28.9753 16.2451 20.2393 24.7058 20.2393 35.1426C20.2393 45.5794 28.9753 54.0401 39.7518 54.0401Z" fill="url(#paint10_radial_1_8037)"/>
<path d="M39.7518 54.0401C50.5282 54.0401 59.2643 45.5794 59.2643 35.1426C59.2643 24.7058 50.5282 16.2451 39.7518 16.2451C28.9753 16.2451 20.2393 24.7058 20.2393 35.1426C20.2393 45.5794 28.9753 54.0401 39.7518 54.0401Z" fill="url(#paint11_radial_1_8037)"/>
</g>
<g filter="url(#filter1_f_1_8037)">
<path d="M19.209 29.1507C19.639 27.7207 20.169 26.4007 20.714 25.2432L27.029 31.9632C28.054 31.7232 29.179 31.9982 29.9865 32.7932L32.629 35.3932C33.2307 35.9853 33.5726 36.7921 33.5793 37.6363C33.5861 38.4804 33.2573 39.2927 32.6652 39.8944C32.0731 40.4961 31.2663 40.838 30.4221 40.8448C29.578 40.8516 28.7657 40.5228 28.164 39.9307L25.5215 37.3307C25.1228 36.9391 24.8343 36.4494 24.6851 35.9109C24.5358 35.3724 24.5312 34.8041 24.6715 34.2632L19.209 29.1507Z" fill="#D3A1AC"/>
</g>
<g filter="url(#filter2_f_1_8037)">
<path d="M57.5021 24.8753C57.0721 23.4453 56.5421 22.1253 55.9971 20.9678L46.3421 31.1178C45.8186 30.9949 45.2725 31.0069 44.7548 31.1525C44.2372 31.2981 43.7649 31.5726 43.3821 31.9503L40.7421 34.5503C40.1567 35.1458 39.8288 35.9475 39.8291 36.7826C39.8294 37.6176 40.1579 38.4191 40.7438 39.0142C41.3297 39.6092 42.1259 39.9502 42.9609 39.9635C43.7959 39.9768 44.6026 39.6614 45.2071 39.0853L47.8471 36.4853C48.6871 35.6603 48.9721 34.4803 48.6971 33.4178L57.5021 24.8753Z" fill="url(#paint12_linear_1_8037)"/>
</g>
<g filter="url(#filter3_i_1_8037)">
<path d="M14.8564 51.2803C15.1139 64.8303 26.1814 75.7378 39.7939 75.7378C53.4064 75.7378 64.4714 64.8328 64.7314 51.2803C62.7064 63.0578 52.3114 72.0278 39.7939 72.0278C27.2739 72.0278 16.8789 63.0578 14.8564 51.2803Z" fill="url(#paint13_radial_1_8037)"/>
</g>
<g filter="url(#filter4_i_1_8037)">
<path fill-rule="evenodd" clip-rule="evenodd" d="M64.7335 35.1427C64.7335 48.4927 53.1385 59.0402 39.7535 59.0402C26.3685 59.0402 14.8535 48.2927 14.8535 34.9452C14.8535 21.5977 26.3685 10.3477 39.7535 10.3477C53.1385 10.3477 64.7335 20.8952 64.7335 35.1427ZM39.7535 54.0402C50.5285 54.0402 59.266 45.5802 59.266 35.1427C59.266 24.7077 50.531 16.2477 39.7535 16.2477C28.9785 16.2477 20.241 24.7077 20.241 35.1427C20.241 45.5802 28.9785 54.0402 39.7535 54.0402Z" fill="url(#paint14_linear_1_8037)"/>
<path fill-rule="evenodd" clip-rule="evenodd" d="M64.7335 35.1427C64.7335 48.4927 53.1385 59.0402 39.7535 59.0402C26.3685 59.0402 14.8535 48.2927 14.8535 34.9452C14.8535 21.5977 26.3685 10.3477 39.7535 10.3477C53.1385 10.3477 64.7335 20.8952 64.7335 35.1427ZM39.7535 54.0402C50.5285 54.0402 59.266 45.5802 59.266 35.1427C59.266 24.7077 50.531 16.2477 39.7535 16.2477C28.9785 16.2477 20.241 24.7077 20.241 35.1427C20.241 45.5802 28.9785 54.0402 39.7535 54.0402Z" fill="url(#paint15_radial_1_8037)"/>
<path fill-rule="evenodd" clip-rule="evenodd" d="M64.7335 35.1427C64.7335 48.4927 53.1385 59.0402 39.7535 59.0402C26.3685 59.0402 14.8535 48.2927 14.8535 34.9452C14.8535 21.5977 26.3685 10.3477 39.7535 10.3477C53.1385 10.3477 64.7335 20.8952 64.7335 35.1427ZM39.7535 54.0402C50.5285 54.0402 59.266 45.5802 59.266 35.1427C59.266 24.7077 50.531 16.2477 39.7535 16.2477C28.9785 16.2477 20.241 24.7077 20.241 35.1427C20.241 45.5802 28.9785 54.0402 39.7535 54.0402Z" fill="url(#paint16_radial_1_8037)"/>
<path fill-rule="evenodd" clip-rule="evenodd" d="M64.7335 35.1427C64.7335 48.4927 53.1385 59.0402 39.7535 59.0402C26.3685 59.0402 14.8535 48.2927 14.8535 34.9452C14.8535 21.5977 26.3685 10.3477 39.7535 10.3477C53.1385 10.3477 64.7335 20.8952 64.7335 35.1427ZM39.7535 54.0402C50.5285 54.0402 59.266 45.5802 59.266 35.1427C59.266 24.7077 50.531 16.2477 39.7535 16.2477C28.9785 16.2477 20.241 24.7077 20.241 35.1427C20.241 45.5802 28.9785 54.0402 39.7535 54.0402Z" fill="url(#paint17_radial_1_8037)"/>
<path fill-rule="evenodd" clip-rule="evenodd" d="M64.7335 35.1427C64.7335 48.4927 53.1385 59.0402 39.7535 59.0402C26.3685 59.0402 14.8535 48.2927 14.8535 34.9452C14.8535 21.5977 26.3685 10.3477 39.7535 10.3477C53.1385 10.3477 64.7335 20.8952 64.7335 35.1427ZM39.7535 54.0402C50.5285 54.0402 59.266 45.5802 59.266 35.1427C59.266 24.7077 50.531 16.2477 39.7535 16.2477C28.9785 16.2477 20.241 24.7077 20.241 35.1427C20.241 45.5802 28.9785 54.0402 39.7535 54.0402Z" fill="url(#paint18_radial_1_8037)"/>
<path fill-rule="evenodd" clip-rule="evenodd" d="M64.7335 35.1427C64.7335 48.4927 53.1385 59.0402 39.7535 59.0402C26.3685 59.0402 14.8535 48.2927 14.8535 34.9452C14.8535 21.5977 26.3685 10.3477 39.7535 10.3477C53.1385 10.3477 64.7335 20.8952 64.7335 35.1427ZM39.7535 54.0402C50.5285 54.0402 59.266 45.5802 59.266 35.1427C59.266 24.7077 50.531 16.2477 39.7535 16.2477C28.9785 16.2477 20.241 24.7077 20.241 35.1427C20.241 45.5802 28.9785 54.0402 39.7535 54.0402Z" fill="url(#paint19_radial_1_8037)"/>
</g>
<g filter="url(#filter5_f_1_8037)">
<path d="M39.999 55.0376C51.481 55.0376 60.789 46.0228 60.789 34.9026C60.789 23.7823 51.481 14.7676 39.999 14.7676C28.517 14.7676 19.209 23.7823 19.209 34.9026C19.209 46.0228 28.517 55.0376 39.999 55.0376Z" stroke="url(#paint20_linear_1_8037)"/>
</g>
<g filter="url(#filter6_ii_1_8037)">
<path d="M70.1459 7.07525C70.3898 6.83165 70.6794 6.63848 70.9979 6.50677C71.3165 6.37506 71.6579 6.30739 72.0027 6.30762C72.3474 6.30785 72.6887 6.37598 73.0071 6.50812C73.3255 6.64026 73.6148 6.83382 73.8584 7.07775C74.102 7.32168 74.2952 7.6112 74.4269 7.92979C74.5586 8.24837 74.6263 8.58978 74.626 8.93452C74.6258 9.27926 74.5577 9.62057 74.4255 9.93898C74.2934 10.2574 74.0998 10.5466 73.8559 10.7903L50.0634 33.0428L47.8584 30.7978L70.1459 7.07525Z" fill="url(#paint21_linear_1_8037)"/>
</g>
<path d="M70.1459 7.07525C70.3898 6.83165 70.6794 6.63848 70.9979 6.50677C71.3165 6.37506 71.6579 6.30739 72.0027 6.30762C72.3474 6.30785 72.6887 6.37598 73.0071 6.50812C73.3255 6.64026 73.6148 6.83382 73.8584 7.07775C74.102 7.32168 74.2952 7.6112 74.4269 7.92979C74.5586 8.24837 74.6263 8.58978 74.626 8.93452C74.6258 9.27926 74.5577 9.62057 74.4255 9.93898C74.2934 10.2574 74.0998 10.5466 73.8559 10.7903L50.0634 33.0428L47.8584 30.7978L70.1459 7.07525Z" fill="url(#paint22_radial_1_8037)"/>
<g filter="url(#filter7_ii_1_8037)">
<path d="M9.43718 7.07545C9.19542 6.82237 8.9055 6.6202 8.58445 6.48081C8.26341 6.34143 7.91773 6.26765 7.56776 6.26383C7.21778 6.26 6.87057 6.3262 6.54656 6.45854C6.22255 6.59087 5.92827 6.78666 5.68103 7.03439C5.4338 7.28213 5.2386 7.5768 5.10693 7.90108C4.97525 8.22536 4.90975 8.5727 4.91428 8.92267C4.91882 9.27264 4.99329 9.61816 5.13332 9.93892C5.27335 10.2597 5.47612 10.5492 5.72968 10.7905L29.5197 33.043L31.7272 30.798L9.43718 7.07545Z" fill="#FEC0A1"/>
</g>
<path d="M9.43718 7.07545C9.19542 6.82237 8.9055 6.6202 8.58445 6.48081C8.26341 6.34143 7.91773 6.26765 7.56776 6.26383C7.21778 6.26 6.87057 6.3262 6.54656 6.45854C6.22255 6.59087 5.92827 6.78666 5.68103 7.03439C5.4338 7.28213 5.2386 7.5768 5.10693 7.90108C4.97525 8.22536 4.90975 8.5727 4.91428 8.92267C4.91882 9.27264 4.99329 9.61816 5.13332 9.93892C5.27335 10.2597 5.47612 10.5492 5.72968 10.7905L29.5197 33.043L31.7272 30.798L9.43718 7.07545Z" fill="url(#paint23_radial_1_8037)"/>
<path d="M9.43718 7.07545C9.19542 6.82237 8.9055 6.6202 8.58445 6.48081C8.26341 6.34143 7.91773 6.26765 7.56776 6.26383C7.21778 6.26 6.87057 6.3262 6.54656 6.45854C6.22255 6.59087 5.92827 6.78666 5.68103 7.03439C5.4338 7.28213 5.2386 7.5768 5.10693 7.90108C4.97525 8.22536 4.90975 8.5727 4.91428 8.92267C4.91882 9.27264 4.99329 9.61816 5.13332 9.93892C5.27335 10.2597 5.47612 10.5492 5.72968 10.7905L29.5197 33.043L31.7272 30.798L9.43718 7.07545Z" fill="url(#paint24_radial_1_8037)"/>
<g filter="url(#filter8_i_1_8037)">
<path d="M33.2047 30.0508C32.603 29.4584 31.7906 29.1293 30.9462 29.1358C30.1018 29.1424 29.2946 29.4841 28.7022 30.0858C28.1098 30.6875 27.7806 31.5 27.7872 32.3443C27.7938 33.1887 28.1355 33.9959 28.7372 34.5883L31.3797 37.1883C31.9842 37.7644 32.791 38.0798 33.6259 38.0665C34.4609 38.0532 35.2572 37.7123 35.843 37.1172C36.4289 36.5222 36.7574 35.7207 36.7577 34.8856C36.758 34.0506 36.4301 33.2488 35.8447 32.6533L33.2047 30.0508Z" fill="#FDB595"/>
</g>
<path d="M33.2047 30.0508C32.603 29.4584 31.7906 29.1293 30.9462 29.1358C30.1018 29.1424 29.2946 29.4841 28.7022 30.0858C28.1098 30.6875 27.7806 31.5 27.7872 32.3443C27.7938 33.1887 28.1355 33.9959 28.7372 34.5883L31.3797 37.1883C31.9842 37.7644 32.791 38.0798 33.6259 38.0665C34.4609 38.0532 35.2572 37.7123 35.843 37.1172C36.4289 36.5222 36.7574 35.7207 36.7577 34.8856C36.758 34.0506 36.4301 33.2488 35.8447 32.6533L33.2047 30.0508Z" fill="url(#paint25_radial_1_8037)"/>
<path d="M33.2047 30.0508C32.603 29.4584 31.7906 29.1293 30.9462 29.1358C30.1018 29.1424 29.2946 29.4841 28.7022 30.0858C28.1098 30.6875 27.7806 31.5 27.7872 32.3443C27.7938 33.1887 28.1355 33.9959 28.7372 34.5883L31.3797 37.1883C31.9842 37.7644 32.791 38.0798 33.6259 38.0665C34.4609 38.0532 35.2572 37.7123 35.843 37.1172C36.4289 36.5222 36.7574 35.7207 36.7577 34.8856C36.758 34.0506 36.4301 33.2488 35.8447 32.6533L33.2047 30.0508Z" fill="url(#paint26_linear_1_8037)"/>
<path d="M33.2047 30.0508C32.603 29.4584 31.7906 29.1293 30.9462 29.1358C30.1018 29.1424 29.2946 29.4841 28.7022 30.0858C28.1098 30.6875 27.7806 31.5 27.7872 32.3443C27.7938 33.1887 28.1355 33.9959 28.7372 34.5883L31.3797 37.1883C31.9842 37.7644 32.791 38.0798 33.6259 38.0665C34.4609 38.0532 35.2572 37.7123 35.843 37.1172C36.4289 36.5222 36.7574 35.7207 36.7577 34.8856C36.758 34.0506 36.4301 33.2488 35.8447 32.6533L33.2047 30.0508Z" fill="url(#paint27_radial_1_8037)"/>
<g filter="url(#filter9_i_1_8037)">
<path d="M46.3797 30.0509C46.9814 29.4588 47.7937 29.13 48.6379 29.1368C49.482 29.1436 50.2889 29.4855 50.881 30.0872C51.4731 30.6889 51.8019 31.5012 51.7951 32.3453C51.7883 33.1895 51.4464 33.9963 50.8447 34.5884L48.2022 37.1884C47.5977 37.7645 46.791 38.0799 45.956 38.0666C45.1211 38.0533 44.3248 37.7124 43.7389 37.1173C43.153 36.5223 42.8245 35.7208 42.8242 34.8857C42.8239 34.0507 43.1518 33.2489 43.7372 32.6534L46.3797 30.0509Z" fill="#FFBB98"/>
</g>
<path d="M46.3797 30.0509C46.9814 29.4588 47.7937 29.13 48.6379 29.1368C49.482 29.1436 50.2889 29.4855 50.881 30.0872C51.4731 30.6889 51.8019 31.5012 51.7951 32.3453C51.7883 33.1895 51.4464 33.9963 50.8447 34.5884L48.2022 37.1884C47.5977 37.7645 46.791 38.0799 45.956 38.0666C45.1211 38.0533 44.3248 37.7124 43.7389 37.1173C43.153 36.5223 42.8245 35.7208 42.8242 34.8857C42.8239 34.0507 43.1518 33.2489 43.7372 32.6534L46.3797 30.0509Z" fill="url(#paint28_radial_1_8037)"/>
<path d="M46.3797 30.0509C46.9814 29.4588 47.7937 29.13 48.6379 29.1368C49.482 29.1436 50.2889 29.4855 50.881 30.0872C51.4731 30.6889 51.8019 31.5012 51.7951 32.3453C51.7883 33.1895 51.4464 33.9963 50.8447 34.5884L48.2022 37.1884C47.5977 37.7645 46.791 38.0799 45.956 38.0666C45.1211 38.0533 44.3248 37.7124 43.7389 37.1173C43.153 36.5223 42.8245 35.7208 42.8242 34.8857C42.8239 34.0507 43.1518 33.2489 43.7372 32.6534L46.3797 30.0509Z" fill="url(#paint29_radial_1_8037)"/>
<g filter="url(#filter10_f_1_8037)">
<path d="M35.5674 33.5002L32.3837 30.4379C32.0364 30.1038 31.4841 30.1145 31.15 30.4618C30.816 30.8091 30.8267 31.3614 31.174 31.6955L34.3577 34.7579C34.705 35.0919 35.2573 35.0812 35.5914 34.7339C35.9254 34.3866 35.9147 33.8343 35.5674 33.5002Z" fill="#FFE2AF"/>
</g>
<defs>
<filter id="filter0_i_1_8037" x="19.6143" y="16.2451" width="39.6504" height="38.4199" filterUnits="userSpaceOnUse" color-interpolation-filters="sRGB">
<feFlood flood-opacity="0" result="BackgroundImageFix"/>
<feBlend mode="normal" in="SourceGraphic" in2="BackgroundImageFix" result="shape"/>
<feColorMatrix in="SourceAlpha" type="matrix" values="0 0 0 0 0 0 0 0 0 0 0 0 0 0 0 0 0 0 127 0" result="hardAlpha"/>
<feOffset dx="-0.625" dy="0.625"/>
<feGaussianBlur stdDeviation="1.25"/>
<feComposite in2="hardAlpha" operator="arithmetic" k2="-1" k3="1"/>
<feColorMatrix type="matrix" values="0 0 0 0 0.866667 0 0 0 0 0.662745 0 0 0 0 0.690196 0 0 0 1 0"/>
<feBlend mode="normal" in2="shape" result="effect1_innerShadow_1_8037"/>
</filter>
<filter id="filter1_f_1_8037" x="15.459" y="21.4932" width="21.8701" height="23.1016" filterUnits="userSpaceOnUse" color-interpolation-filters="sRGB">
<feFlood flood-opacity="0" result="BackgroundImageFix"/>
<feBlend mode="normal" in="SourceGraphic" in2="BackgroundImageFix" result="shape"/>
<feGaussianBlur stdDeviation="1.875" result="effect1_foregroundBlur_1_8037"/>
</filter>
<filter id="filter2_f_1_8037" x="36.0791" y="17.2178" width="25.1729" height="26.4961" filterUnits="userSpaceOnUse" color-interpolation-filters="sRGB">
<feFlood flood-opacity="0" result="BackgroundImageFix"/>
<feBlend mode="normal" in="SourceGraphic" in2="BackgroundImageFix" result="shape"/>
<feGaussianBlur stdDeviation="1.875" result="effect1_foregroundBlur_1_8037"/>
</filter>
<filter id="filter3_i_1_8037" x="14.8564" y="51.0303" width="49.875" height="24.707" filterUnits="userSpaceOnUse" color-interpolation-filters="sRGB">
<feFlood flood-opacity="0" result="BackgroundImageFix"/>
<feBlend mode="normal" in="SourceGraphic" in2="BackgroundImageFix" result="shape"/>
<feColorMatrix in="SourceAlpha" type="matrix" values="0 0 0 0 0 0 0 0 0 0 0 0 0 0 0 0 0 0 127 0" result="hardAlpha"/>
<feOffset dy="-0.25"/>
<feGaussianBlur stdDeviation="0.375"/>
<feComposite in2="hardAlpha" operator="arithmetic" k2="-1" k3="1"/>
<feColorMatrix type="matrix" values="0 0 0 0 0.701961 0 0 0 0 0.533333 0 0 0 0 0.839216 0 0 0 1 0"/>
<feBlend mode="normal" in2="shape" result="effect1_innerShadow_1_8037"/>
</filter>
<filter id="filter4_i_1_8037" x="14.8535" y="10.0977" width="50.1299" height="48.9424" filterUnits="userSpaceOnUse" color-interpolation-filters="sRGB">
<feFlood flood-opacity="0" result="BackgroundImageFix"/>
<feBlend mode="normal" in="SourceGraphic" in2="BackgroundImageFix" result="shape"/>
<feColorMatrix in="SourceAlpha" type="matrix" values="0 0 0 0 0 0 0 0 0 0 0 0 0 0 0 0 0 0 127 0" result="hardAlpha"/>
<feOffset dx="0.25" dy="-0.25"/>
<feGaussianBlur stdDeviation="0.625"/>
<feComposite in2="hardAlpha" operator="arithmetic" k2="-1" k3="1"/>
<feColorMatrix type="matrix" values="0 0 0 0 0.631373 0 0 0 0 0.54902 0 0 0 0 0.556863 0 0 0 1 0"/>
<feBlend mode="normal" in2="shape" result="effect1_innerShadow_1_8037"/>
</filter>
<filter id="filter5_f_1_8037" x="17.709" y="13.2676" width="44.5801" height="43.2695" filterUnits="userSpaceOnUse" color-interpolation-filters="sRGB">
<feFlood flood-opacity="0" result="BackgroundImageFix"/>
<feBlend mode="normal" in="SourceGraphic" in2="BackgroundImageFix" result="shape"/>
<feGaussianBlur stdDeviation="0.5" result="effect1_foregroundBlur_1_8037"/>
</filter>
<filter id="filter6_ii_1_8037" x="47.4834" y="5.93262" width="27.5176" height="27.4854" filterUnits="userSpaceOnUse" color-interpolation-filters="sRGB">
<feFlood flood-opacity="0" result="BackgroundImageFix"/>
<feBlend mode="normal" in="SourceGraphic" in2="BackgroundImageFix" result="shape"/>
<feColorMatrix in="SourceAlpha" type="matrix" values="0 0 0 0 0 0 0 0 0 0 0 0 0 0 0 0 0 0 127 0" result="hardAlpha"/>
<feOffset dx="0.375" dy="0.375"/>
<feGaussianBlur stdDeviation="0.75"/>
<feComposite in2="hardAlpha" operator="arithmetic" k2="-1" k3="1"/>
<feColorMatrix type="matrix" values="0 0 0 0 0.831373 0 0 0 0 0.588235 0 0 0 0 0.427451 0 0 0 1 0"/>
<feBlend mode="normal" in2="shape" result="effect1_innerShadow_1_8037"/>
<feColorMatrix in="SourceAlpha" type="matrix" values="0 0 0 0 0 0 0 0 0 0 0 0 0 0 0 0 0 0 127 0" result="hardAlpha"/>
<feOffset dx="-0.375" dy="-0.375"/>
<feGaussianBlur stdDeviation="0.75"/>
<feComposite in2="hardAlpha" operator="arithmetic" k2="-1" k3="1"/>
<feColorMatrix type="matrix" values="0 0 0 0 0.94902 0 0 0 0 0.682353 0 0 0 0 0.576471 0 0 0 1 0"/>
<feBlend mode="normal" in2="effect1_innerShadow_1_8037" result="effect2_innerShadow_1_8037"/>
</filter>
<filter id="filter7_ii_1_8037" x="4.28906" y="5.63867" width="28.0635" height="28.0293" filterUnits="userSpaceOnUse" color-interpolation-filters="sRGB">
<feFlood flood-opacity="0" result="BackgroundImageFix"/>
<feBlend mode="normal" in="SourceGraphic" in2="BackgroundImageFix" result="shape"/>
<feColorMatrix in="SourceAlpha" type="matrix" values="0 0 0 0 0 0 0 0 0 0 0 0 0 0 0 0 0 0 127 0" result="hardAlpha"/>
<feOffset dx="0.625" dy="-0.625"/>
<feGaussianBlur stdDeviation="0.75"/>
<feComposite in2="hardAlpha" operator="arithmetic" k2="-1" k3="1"/>
<feColorMatrix type="matrix" values="0 0 0 0 0.858824 0 0 0 0 0.556863 0 0 0 0 0.490196 0 0 0 1 0"/>
<feBlend mode="normal" in2="shape" result="effect1_innerShadow_1_8037"/>
<feColorMatrix in="SourceAlpha" type="matrix" values="0 0 0 0 0 0 0 0 0 0 0 0 0 0 0 0 0 0 127 0" result="hardAlpha"/>
<feOffset dx="-0.625" dy="0.625"/>
<feGaussianBlur stdDeviation="0.75"/>
<feComposite in2="hardAlpha" operator="arithmetic" k2="-1" k3="1"/>
<feColorMatrix type="matrix" values="0 0 0 0 1 0 0 0 0 0.917647 0 0 0 0 0.72549 0 0 0 1 0"/>
<feBlend mode="normal" in2="effect1_innerShadow_1_8037" result="effect2_innerShadow_1_8037"/>
</filter>
<filter id="filter8_i_1_8037" x="27.7871" y="28.5107" width="9.5957" height="9.55664" filterUnits="userSpaceOnUse" color-interpolation-filters="sRGB">
<feFlood flood-opacity="0" result="BackgroundImageFix"/>
<feBlend mode="normal" in="SourceGraphic" in2="BackgroundImageFix" result="shape"/>
<feColorMatrix in="SourceAlpha" type="matrix" values="0 0 0 0 0 0 0 0 0 0 0 0 0 0 0 0 0 0 127 0" result="hardAlpha"/>
<feOffset dx="0.625" dy="-0.625"/>
<feGaussianBlur stdDeviation="1.25"/>
<feComposite in2="hardAlpha" operator="arithmetic" k2="-1" k3="1"/>
<feColorMatrix type="matrix" values="0 0 0 0 0.862745 0 0 0 0 0.545098 0 0 0 0 0.501961 0 0 0 1 0"/>
<feBlend mode="normal" in2="shape" result="effect1_innerShadow_1_8037"/>
</filter>
<filter id="filter9_i_1_8037" x="42.8242" y="28.1367" width="9.9707" height="9.93066" filterUnits="userSpaceOnUse" color-interpolation-filters="sRGB">
<feFlood flood-opacity="0" result="BackgroundImageFix"/>
<feBlend mode="normal" in="SourceGraphic" in2="BackgroundImageFix" result="shape"/>
<feColorMatrix in="SourceAlpha" type="matrix" values="0 0 0 0 0 0 0 0 0 0 0 0 0 0 0 0 0 0 127 0" result="hardAlpha"/>
<feOffset dx="1" dy="-1"/>
<feGaussianBlur stdDeviation="1.25"/>
<feComposite in2="hardAlpha" operator="arithmetic" k2="-1" k3="1"/>
<feColorMatrix type="matrix" values="0 0 0 0 0.839216 0 0 0 0 0.533333 0 0 0 0 0.411765 0 0 0 1 0"/>
<feBlend mode="normal" in2="shape" result="effect1_innerShadow_1_8037"/>
</filter>
<filter id="filter10_f_1_8037" x="29.4062" y="28.6943" width="7.92871" height="7.80762" filterUnits="userSpaceOnUse" color-interpolation-filters="sRGB">
<feFlood flood-opacity="0" result="BackgroundImageFix"/>
<feBlend mode="normal" in="SourceGraphic" in2="BackgroundImageFix" result="shape"/>
<feGaussianBlur stdDeviation="0.75" result="effect1_foregroundBlur_1_8037"/>
</filter>
<linearGradient id="paint0_linear_1_8037" x1="57.8031" y1="59.8707" x2="25.4981" y2="59.8707" gradientUnits="userSpaceOnUse">
<stop stop-color="#F1469C"/>
<stop offset="1" stop-color="#CB235C"/>
</linearGradient>
<linearGradient id="paint1_linear_1_8037" x1="13.7756" y1="47.2757" x2="30.4881" y2="47.2757" gradientUnits="userSpaceOnUse">
<stop offset="0.104" stop-color="#C8615D"/>
<stop offset="1" stop-color="#C8615D" stop-opacity="0"/>
</linearGradient>
<radialGradient id="paint2_radial_1_8037" cx="0" cy="0" r="1" gradientUnits="userSpaceOnUse" gradientTransform="translate(39.7931 35.3457) rotate(90) scale(25.5228 25.7682)">
<stop offset="0.85" stop-color="#DB2156"/>
<stop offset="1" stop-color="#DB2156" stop-opacity="0"/>
</radialGradient>
<linearGradient id="paint3_linear_1_8037" x1="21.412" y1="59.4884" x2="24.6345" y2="59.4884" gradientUnits="userSpaceOnUse">
<stop stop-color="#B497BF"/>
<stop offset="1" stop-color="#C19ED7"/>
</linearGradient>
<linearGradient id="paint4_linear_1_8037" x1="38.8354" y1="61.9484" x2="42.0579" y2="61.9484" gradientUnits="userSpaceOnUse">
<stop stop-color="#BA97D9"/>
<stop offset="1" stop-color="#CCA9ED"/>
</linearGradient>
<linearGradient id="paint5_linear_1_8037" x1="56.2582" y1="59.4874" x2="60.0082" y2="59.4874" gradientUnits="userSpaceOnUse">
<stop stop-color="#CAB4E1"/>
<stop offset="1" stop-color="#E5D1F9"/>
</linearGradient>
<linearGradient id="paint6_linear_1_8037" x1="20.1045" y1="69.0952" x2="23.7745" y2="71.4427" gradientUnits="userSpaceOnUse">
<stop stop-color="#CE9051"/>
<stop offset="1" stop-color="#CD8A4C"/>
</linearGradient>
<linearGradient id="paint7_linear_1_8037" x1="20.1045" y1="53.8627" x2="24.0695" y2="56.0502" gradientUnits="userSpaceOnUse">
<stop stop-color="#CE9051"/>
<stop offset="1" stop-color="#CD8A4C"/>
</linearGradient>
<linearGradient id="paint8_linear_1_8037" x1="39.7919" y1="58.4729" x2="39.7919" y2="62.9254" gradientUnits="userSpaceOnUse">
<stop offset="0.246" stop-color="#E5A148"/>
<stop offset="1" stop-color="#D88E50"/>
</linearGradient>
<radialGradient id="paint9_radial_1_8037" cx="0" cy="0" r="1" gradientUnits="userSpaceOnUse" gradientTransform="translate(25.9668 20.0876) rotate(45.8882) scale(34.249 30.855)">
<stop offset="0.158" stop-color="#FFE4D8"/>
<stop offset="1" stop-color="#FED8D0"/>
</radialGradient>
<radialGradient id="paint10_radial_1_8037" cx="0" cy="0" r="1" gradientUnits="userSpaceOnUse" gradientTransform="translate(39.7518 26.0951) rotate(90) scale(27.944 32.7445)">
<stop offset="0.674" stop-color="#FFE4E3" stop-opacity="0"/>
<stop offset="1" stop-color="#FFE4E3"/>
</radialGradient>
<radialGradient id="paint11_radial_1_8037" cx="0" cy="0" r="1" gradientUnits="userSpaceOnUse" gradientTransform="translate(38.5441 31.8207) rotate(53.625) scale(23.8966 24.6746)">
<stop offset="0.809" stop-color="#F9D6D5" stop-opacity="0"/>
<stop offset="0.975" stop-color="#D2ABA8"/>
</radialGradient>
<linearGradient id="paint12_linear_1_8037" x1="42.9546" y1="36.8878" x2="57.9721" y2="20.2778" gradientUnits="userSpaceOnUse">
<stop stop-color="#DAA9B3"/>
<stop offset="1" stop-color="#D6ADA7"/>
</linearGradient>
<radialGradient id="paint13_radial_1_8037" cx="0" cy="0" r="1" gradientUnits="userSpaceOnUse" gradientTransform="translate(30.489 74.4649) rotate(-71.168) scale(22.7978 46.4887)">
<stop offset="0.188" stop-color="#B791D7"/>
<stop offset="1" stop-color="#D3C4E2"/>
</radialGradient>
<linearGradient id="paint14_linear_1_8037" x1="39.7935" y1="10.3477" x2="39.7935" y2="59.0402" gradientUnits="userSpaceOnUse">
<stop stop-color="#CBC2C8"/>
<stop offset="1" stop-color="#D4C9DE"/>
</linearGradient>
<radialGradient id="paint15_radial_1_8037" cx="0" cy="0" r="1" gradientUnits="userSpaceOnUse" gradientTransform="translate(37.5135 35.7952) rotate(-24.9946) scale(27.894 28.5765)">
<stop offset="0.868" stop-color="#D9C9D6" stop-opacity="0"/>
<stop offset="0.98" stop-color="#F7EEF3"/>
</radialGradient>
<radialGradient id="paint16_radial_1_8037" cx="0" cy="0" r="1" gradientUnits="userSpaceOnUse" gradientTransform="translate(23.526 18.6802) rotate(40.6011) scale(4.32656 13.2379)">
<stop stop-color="#DFD1CA"/>
<stop offset="1" stop-color="#DFD1CA" stop-opacity="0"/>
</radialGradient>
<radialGradient id="paint17_radial_1_8037" cx="0" cy="0" r="1" gradientUnits="userSpaceOnUse" gradientTransform="translate(20.666 24.6861) rotate(127.776) scale(4.7497 20.7261)">
<stop stop-color="#9B7D91"/>
<stop offset="1" stop-color="#B29EAF" stop-opacity="0"/>
</radialGradient>
<radialGradient id="paint18_radial_1_8037" cx="0" cy="0" r="1" gradientUnits="userSpaceOnUse" gradientTransform="translate(57.7388 21.2144) rotate(-132.51) scale(3.05572 9.42665)">
<stop offset="0.009" stop-color="#A69690"/>
<stop offset="1" stop-color="#B9ACA8" stop-opacity="0"/>
</radialGradient>
<radialGradient id="paint19_radial_1_8037" cx="0" cy="0" r="1" gradientUnits="userSpaceOnUse" gradientTransform="translate(41.651 32.0177) rotate(-71.5649) scale(19.3467 21.4236)">
<stop offset="0.816" stop-color="#B2969F"/>
<stop offset="0.972" stop-color="#B2969F" stop-opacity="0"/>
</radialGradient>
<linearGradient id="paint20_linear_1_8037" x1="22.7815" y1="47.3826" x2="34.7515" y2="34.9026" gradientUnits="userSpaceOnUse">
<stop stop-color="#E6DCE6"/>
<stop offset="1" stop-color="#E6DCE6" stop-opacity="0"/>
</linearGradient>
<linearGradient id="paint21_linear_1_8037" x1="59.6634" y1="17.9303" x2="62.4784" y2="21.4953" gradientUnits="userSpaceOnUse">
<stop stop-color="#EBB589"/>
<stop offset="1" stop-color="#F5AD8E"/>
</linearGradient>
<radialGradient id="paint22_radial_1_8037" cx="0" cy="0" r="1" gradientUnits="userSpaceOnUse" gradientTransform="translate(74.0172 7.67241) rotate(136.302) scale(3.88155 4.60735)">
<stop stop-color="#FFE6B8"/>
<stop offset="1" stop-color="#FFC7A6" stop-opacity="0"/>
</radialGradient>
<radialGradient id="paint23_radial_1_8037" cx="0" cy="0" r="1" gradientUnits="userSpaceOnUse" gradientTransform="translate(21.4887 21.5976) rotate(-135.931) scale(22.0729 15.0402)">
<stop offset="0.878" stop-color="#D7AE81" stop-opacity="0"/>
<stop offset="0.975" stop-color="#D7AE81"/>
</radialGradient>
<radialGradient id="paint24_radial_1_8037" cx="0" cy="0" r="1" gradientUnits="userSpaceOnUse" gradientTransform="translate(28.2902 32.5392) rotate(-115.301) scale(4.7528 9.27572)">
<stop offset="0.272" stop-color="#E39472"/>
<stop offset="1" stop-color="#E39472" stop-opacity="0"/>
</radialGradient>
<radialGradient id="paint25_radial_1_8037" cx="0" cy="0" r="1" gradientUnits="userSpaceOnUse" gradientTransform="translate(33.5997 38.1008) rotate(-92.6474) scale(3.38286 4.73981)">
<stop stop-color="#DB8583"/>
<stop offset="1" stop-color="#DB8583" stop-opacity="0"/>
</radialGradient>
<linearGradient id="paint26_linear_1_8037" x1="35.3972" y1="30.5058" x2="33.3647" y2="32.6133" gradientUnits="userSpaceOnUse">
<stop stop-color="#FFDDA8"/>
<stop offset="1" stop-color="#FFDDA8" stop-opacity="0"/>
</linearGradient>
<radialGradient id="paint27_radial_1_8037" cx="0" cy="0" r="1" gradientUnits="userSpaceOnUse" gradientTransform="translate(35.3201 36.205) rotate(-134.519) scale(9.9168 10.0847)">
<stop offset="0.697" stop-color="#E2A46F" stop-opacity="0"/>
<stop offset="1" stop-color="#E2A46F"/>
</radialGradient>
<radialGradient id="paint28_radial_1_8037" cx="0" cy="0" r="1" gradientUnits="userSpaceOnUse" gradientTransform="translate(45.3922 39.1684) rotate(-81.7537) scale(4.34796 4.52958)">
<stop stop-color="#DA8181"/>
<stop offset="1" stop-color="#D58B6A" stop-opacity="0"/>
</radialGradient>
<radialGradient id="paint29_radial_1_8037" cx="0" cy="0" r="1" gradientUnits="userSpaceOnUse" gradientTransform="translate(50.3165 30.998) rotate(135.641) scale(3.75065 4.33)">
<stop offset="0.115" stop-color="#FFE5B0"/>
<stop offset="1" stop-color="#FDC596" stop-opacity="0"/>
</radialGradient>
</defs>
</svg>
