<svg width="80" height="80" viewBox="0 0 80 80" fill="none" xmlns="http://www.w3.org/2000/svg">
<path d="M40.3228 50.276V50.3135L40.0303 50.2935L39.7378 50.3135V50.2735C35.3203 49.9585 28.9328 49.0435 21.4953 40.841C16.9253 35.001 16.5703 28.4785 16.5703 25.391V8.75098H63.4878V25.391C63.4878 28.4785 63.1353 35.001 58.5628 40.841C51.1278 49.046 44.7378 49.9585 40.3228 50.2735V50.276Z" fill="url(#paint0_linear_1_8289)"/>
<path d="M40.3228 50.276V50.3135L40.0303 50.2935L39.7378 50.3135V50.2735C35.3203 49.9585 28.9328 49.0435 21.4953 40.841C16.9253 35.001 16.5703 28.4785 16.5703 25.391V8.75098H63.4878V25.391C63.4878 28.4785 63.1353 35.001 58.5628 40.841C51.1278 49.046 44.7378 49.9585 40.3228 50.2735V50.276Z" fill="url(#paint1_radial_1_8289)"/>
<path d="M40.3228 50.276V50.3135L40.0303 50.2935L39.7378 50.3135V50.2735C35.3203 49.9585 28.9328 49.0435 21.4953 40.841C16.9253 35.001 16.5703 28.4785 16.5703 25.391V8.75098H63.4878V25.391C63.4878 28.4785 63.1353 35.001 58.5628 40.841C51.1278 49.046 44.7378 49.9585 40.3228 50.2735V50.276Z" fill="url(#paint2_linear_1_8289)"/>
<g filter="url(#filter0_i_1_8289)">
<path d="M28.2521 48.5947H51.8096L57.8896 72.3872C57.965 72.6825 57.972 72.9911 57.9099 73.2895C57.8478 73.5879 57.7184 73.8682 57.5315 74.1089C57.3445 74.3496 57.1051 74.5444 56.8313 74.6785C56.5576 74.8125 56.2569 74.8822 55.9521 74.8822H24.1471C23.8424 74.8825 23.5416 74.8131 23.2678 74.6794C22.994 74.5456 22.7544 74.3511 22.5672 74.1107C22.3801 73.8702 22.2503 73.5901 22.1879 73.2919C22.1255 72.9936 22.1321 72.6851 22.2071 72.3897L28.2521 48.5947Z" fill="url(#paint3_linear_1_8289)"/>
<path d="M28.2521 48.5947H51.8096L57.8896 72.3872C57.965 72.6825 57.972 72.9911 57.9099 73.2895C57.8478 73.5879 57.7184 73.8682 57.5315 74.1089C57.3445 74.3496 57.1051 74.5444 56.8313 74.6785C56.5576 74.8125 56.2569 74.8822 55.9521 74.8822H24.1471C23.8424 74.8825 23.5416 74.8131 23.2678 74.6794C22.994 74.5456 22.7544 74.3511 22.5672 74.1107C22.3801 73.8702 22.2503 73.5901 22.1879 73.2919C22.1255 72.9936 22.1321 72.6851 22.2071 72.3897L28.2521 48.5947Z" fill="url(#paint4_linear_1_8289)"/>
</g>
<path d="M28.2521 48.5947H51.8096L57.8896 72.3872C57.965 72.6825 57.972 72.9911 57.9099 73.2895C57.8478 73.5879 57.7184 73.8682 57.5315 74.1089C57.3445 74.3496 57.1051 74.5444 56.8313 74.6785C56.5576 74.8125 56.2569 74.8822 55.9521 74.8822H24.1471C23.8424 74.8825 23.5416 74.8131 23.2678 74.6794C22.994 74.5456 22.7544 74.3511 22.5672 74.1107C22.3801 73.8702 22.2503 73.5901 22.1879 73.2919C22.1255 72.9936 22.1321 72.6851 22.2071 72.3897L28.2521 48.5947Z" fill="url(#paint5_linear_1_8289)"/>
<path fill-rule="evenodd" clip-rule="evenodd" d="M38.8008 49.533V9.35547H41.3008V49.5305L38.8008 49.533Z" fill="url(#paint6_radial_1_8289)"/>
<path fill-rule="evenodd" clip-rule="evenodd" d="M38.8008 49.533V9.35547H41.3008V49.5305L38.8008 49.533Z" fill="url(#paint7_linear_1_8289)"/>
<path fill-rule="evenodd" clip-rule="evenodd" d="M38.8008 49.533V9.35547H41.3008V49.5305L38.8008 49.533Z" fill="url(#paint8_linear_1_8289)"/>
<g filter="url(#filter1_i_1_8289)">
<path fill-rule="evenodd" clip-rule="evenodd" d="M25.0059 9.57031H27.5059V24.1803C27.5059 30.3253 27.5134 39.1928 37.0684 47.2878L35.4534 49.1953C25.0059 40.3453 25.0059 30.4703 25.0059 24.1953V9.57031Z" fill="url(#paint9_linear_1_8289)"/>
</g>
<path fill-rule="evenodd" clip-rule="evenodd" d="M55.0928 9.57031H52.5928V24.1803C52.5928 30.3253 52.5853 39.1928 43.0303 47.2878L44.6478 49.1953C55.0928 40.3453 55.0928 30.4703 55.0928 24.1953V9.57031Z" fill="url(#paint10_linear_1_8289)"/>
<path d="M63.4879 5.11816H16.6104C15.2518 5.11816 14.1504 6.21954 14.1504 7.57816V7.58066C14.1504 8.93928 15.2518 10.0407 16.6104 10.0407H63.4879C64.8465 10.0407 65.9479 8.93928 65.9479 7.58066V7.57816C65.9479 6.21954 64.8465 5.11816 63.4879 5.11816Z" fill="url(#paint11_linear_1_8289)"/>
<path d="M63.4879 5.11816H16.6104C15.2518 5.11816 14.1504 6.21954 14.1504 7.57816V7.58066C14.1504 8.93928 15.2518 10.0407 16.6104 10.0407H63.4879C64.8465 10.0407 65.9479 8.93928 65.9479 7.58066V7.57816C65.9479 6.21954 64.8465 5.11816 63.4879 5.11816Z" fill="url(#paint12_radial_1_8289)"/>
<path d="M51.765 46.7783H28.2325C27.2288 46.7783 26.415 47.5915 26.415 48.5946C26.415 49.5977 27.2288 50.4108 28.2325 50.4108H51.765C52.7688 50.4108 53.5825 49.5977 53.5825 48.5946C53.5825 47.5915 52.7688 46.7783 51.765 46.7783Z" fill="url(#paint13_linear_1_8289)"/>
<path d="M51.765 46.7783H28.2325C27.2288 46.7783 26.415 47.5915 26.415 48.5946C26.415 49.5977 27.2288 50.4108 28.2325 50.4108H51.765C52.7688 50.4108 53.5825 49.5977 53.5825 48.5946C53.5825 47.5915 52.7688 46.7783 51.765 46.7783Z" fill="url(#paint14_radial_1_8289)"/>
<path d="M51.765 46.7783H28.2325C27.2288 46.7783 26.415 47.5915 26.415 48.5946C26.415 49.5977 27.2288 50.4108 28.2325 50.4108H51.765C52.7688 50.4108 53.5825 49.5977 53.5825 48.5946C53.5825 47.5915 52.7688 46.7783 51.765 46.7783Z" fill="url(#paint15_radial_1_8289)"/>
<defs>
<filter id="filter0_i_1_8289" x="21.8955" y="47.3447" width="36.0566" height="27.5371" filterUnits="userSpaceOnUse" color-interpolation-filters="sRGB">
<feFlood flood-opacity="0" result="BackgroundImageFix"/>
<feBlend mode="normal" in="SourceGraphic" in2="BackgroundImageFix" result="shape"/>
<feColorMatrix in="SourceAlpha" type="matrix" values="0 0 0 0 0 0 0 0 0 0 0 0 0 0 0 0 0 0 127 0" result="hardAlpha"/>
<feOffset dx="-0.25" dy="-1.25"/>
<feGaussianBlur stdDeviation="1.25"/>
<feComposite in2="hardAlpha" operator="arithmetic" k2="-1" k3="1"/>
<feColorMatrix type="matrix" values="0 0 0 0 0.760784 0 0 0 0 0.458824 0 0 0 0 0.309804 0 0 0 1 0"/>
<feBlend mode="normal" in2="shape" result="effect1_innerShadow_1_8289"/>
</filter>
<filter id="filter1_i_1_8289" x="24.7559" y="9.57031" width="12.3125" height="39.875" filterUnits="userSpaceOnUse" color-interpolation-filters="sRGB">
<feFlood flood-opacity="0" result="BackgroundImageFix"/>
<feBlend mode="normal" in="SourceGraphic" in2="BackgroundImageFix" result="shape"/>
<feColorMatrix in="SourceAlpha" type="matrix" values="0 0 0 0 0 0 0 0 0 0 0 0 0 0 0 0 0 0 127 0" result="hardAlpha"/>
<feOffset dx="-0.375" dy="0.25"/>
<feGaussianBlur stdDeviation="0.125"/>
<feComposite in2="hardAlpha" operator="arithmetic" k2="-1" k3="1"/>
<feColorMatrix type="matrix" values="0 0 0 0 0.270588 0 0 0 0 0.203922 0 0 0 0 0.329412 0 0 0 1 0"/>
<feBlend mode="normal" in2="shape" result="effect1_innerShadow_1_8289"/>
</filter>
<linearGradient id="paint0_linear_1_8289" x1="40.0303" y1="33.4385" x2="40.0303" y2="50.3135" gradientUnits="userSpaceOnUse">
<stop stop-color="#BE7846"/>
<stop offset="1" stop-color="#AA5961"/>
</linearGradient>
<radialGradient id="paint1_radial_1_8289" cx="0" cy="0" r="1" gradientUnits="userSpaceOnUse" gradientTransform="translate(53.6428 18.4385) rotate(90) scale(24.8437 25.1418)">
<stop offset="0.192" stop-color="#E69F62"/>
<stop offset="1" stop-color="#E69F62" stop-opacity="0"/>
</radialGradient>
<linearGradient id="paint2_linear_1_8289" x1="40.0303" y1="9.22098" x2="40.0303" y2="11.5635" gradientUnits="userSpaceOnUse">
<stop stop-color="#C07041"/>
<stop offset="1" stop-color="#C07041" stop-opacity="0"/>
</linearGradient>
<linearGradient id="paint3_linear_1_8289" x1="32.9421" y1="65.3122" x2="50.5971" y2="65.3122" gradientUnits="userSpaceOnUse">
<stop stop-color="#CB8349"/>
<stop offset="0.686" stop-color="#E7A672"/>
</linearGradient>
<linearGradient id="paint4_linear_1_8289" x1="23.4096" y1="62.9697" x2="31.0671" y2="64.7647" gradientUnits="userSpaceOnUse">
<stop stop-color="#B17E59"/>
<stop offset="1" stop-color="#BF7D4B" stop-opacity="0"/>
</linearGradient>
<linearGradient id="paint5_linear_1_8289" x1="41.3796" y1="75.4697" x2="41.3796" y2="72.9697" gradientUnits="userSpaceOnUse">
<stop stop-color="#BF6466"/>
<stop offset="1" stop-color="#BF6466" stop-opacity="0"/>
</linearGradient>
<radialGradient id="paint6_radial_1_8289" cx="0" cy="0" r="1" gradientUnits="userSpaceOnUse" gradientTransform="translate(41.3008 28.828) rotate(90) scale(29.7657 3.59435)">
<stop offset="0.238" stop-color="#4F3965"/>
<stop offset="1" stop-color="#3C1157"/>
</radialGradient>
<linearGradient id="paint7_linear_1_8289" x1="38.7008" y1="46.818" x2="39.2108" y2="46.818" gradientUnits="userSpaceOnUse">
<stop offset="0.308" stop-color="#442F54"/>
<stop offset="1" stop-color="#442F54" stop-opacity="0"/>
</linearGradient>
<linearGradient id="paint8_linear_1_8289" x1="41.4258" y1="48.3605" x2="40.9083" y2="48.3605" gradientUnits="userSpaceOnUse">
<stop offset="0.222" stop-color="#5D4F6A"/>
<stop offset="1" stop-color="#5D4F6A" stop-opacity="0"/>
</linearGradient>
<linearGradient id="paint9_linear_1_8289" x1="31.0384" y1="9.57031" x2="31.0384" y2="47.5778" gradientUnits="userSpaceOnUse">
<stop offset="0.6" stop-color="#51455E"/>
<stop offset="1" stop-color="#43255B"/>
</linearGradient>
<linearGradient id="paint10_linear_1_8289" x1="49.0628" y1="9.57031" x2="49.0628" y2="49.1953" gradientUnits="userSpaceOnUse">
<stop offset="0.214" stop-color="#60506B"/>
<stop offset="0.776" stop-color="#48285C"/>
</linearGradient>
<linearGradient id="paint11_linear_1_8289" x1="40.0504" y1="5.11816" x2="40.0504" y2="10.4707" gradientUnits="userSpaceOnUse">
<stop stop-color="#E1B177"/>
<stop offset="1" stop-color="#F4AD93"/>
</linearGradient>
<radialGradient id="paint12_radial_1_8289" cx="0" cy="0" r="1" gradientUnits="userSpaceOnUse" gradientTransform="translate(52.7054 6.56316) rotate(90) scale(2.57812 31.5105)">
<stop offset="0.212" stop-color="#FFD8A2"/>
<stop offset="1" stop-color="#FFD8A2" stop-opacity="0"/>
</radialGradient>
<linearGradient id="paint13_linear_1_8289" x1="40" y1="46.7783" x2="40" y2="50.4108" gradientUnits="userSpaceOnUse">
<stop stop-color="#2B1D37"/>
<stop offset="1" stop-color="#5A316F"/>
</linearGradient>
<radialGradient id="paint14_radial_1_8289" cx="0" cy="0" r="1" gradientUnits="userSpaceOnUse" gradientTransform="translate(47.04 48.1258) rotate(90) scale(1.75782 14.0625)">
<stop offset="0.156" stop-color="#746681"/>
<stop offset="1" stop-color="#746681" stop-opacity="0"/>
</radialGradient>
<radialGradient id="paint15_radial_1_8289" cx="0" cy="0" r="1" gradientUnits="userSpaceOnUse" gradientTransform="translate(27 48.2833) rotate(90) scale(2.1289 15.921)">
<stop stop-color="#49454D"/>
<stop offset="1" stop-color="#49454D" stop-opacity="0"/>
</radialGradient>
</defs>
</svg>
