<svg width="80" height="80" viewBox="0 0 80 80" fill="none" xmlns="http://www.w3.org/2000/svg">
<path d="M47.2301 26.835C45.5763 26.8332 43.9653 27.3606 42.6326 28.34C41.922 29.0279 40.9717 29.4125 39.9826 29.4125C38.9936 29.4125 38.0433 29.0279 37.3326 28.34C35.9993 27.3601 34.3873 26.8327 32.7326 26.835C28.4651 26.835 24.9951 30.24 24.9951 34.435V46.8525H54.9701V34.435C54.9701 30.24 51.5026 26.835 47.2301 26.835Z" fill="url(#paint0_linear_1_8265)"/>
<g filter="url(#filter0_f_1_8265)">
<path d="M33.4646 38.895C36.7948 38.895 39.4946 36.1952 39.4946 32.865C39.4946 29.5347 36.7948 26.835 33.4646 26.835C30.1343 26.835 27.4346 29.5347 27.4346 32.865C27.4346 36.1952 30.1343 38.895 33.4646 38.895Z" fill="url(#paint1_radial_1_8265)" fill-opacity="0.75"/>
</g>
<g filter="url(#filter1_f_1_8265)">
<path d="M49.0258 38.8929C52.0841 38.8929 54.5633 36.4371 54.5633 33.4079C54.5633 30.3786 52.0841 27.9229 49.0258 27.9229C45.9675 27.9229 43.4883 30.3786 43.4883 33.4079C43.4883 36.4371 45.9675 38.8929 49.0258 38.8929Z" fill="url(#paint2_radial_1_8265)" fill-opacity="0.75"/>
</g>
<path d="M54.9898 34.1846H24.7773C24.711 34.1846 24.6475 34.2109 24.6006 34.2578C24.5537 34.3047 24.5273 34.3683 24.5273 34.4346V36.6846H55.2398V34.4346C55.2398 34.3683 55.2135 34.3047 55.1666 34.2578C55.1197 34.2109 55.0561 34.1846 54.9898 34.1846Z" fill="url(#paint3_linear_1_8265)"/>
<path d="M54.9898 34.1846H24.7773C24.711 34.1846 24.6475 34.2109 24.6006 34.2578C24.5537 34.3047 24.5273 34.3683 24.5273 34.4346V36.6846H55.2398V34.4346C55.2398 34.3683 55.2135 34.3047 55.1666 34.2578C55.1197 34.2109 55.0561 34.1846 54.9898 34.1846Z" fill="url(#paint4_linear_1_8265)"/>
<path d="M66.3076 42.0998H74.9251C74.9251 35.5748 71.5076 30.2998 64.9826 30.2998C60.4326 30.2998 63.6326 32.8998 61.6826 36.6998L17.8326 36.6748C17.8326 34.0498 18.1576 30.2998 13.5826 30.2998C7.05762 30.2998 4.05762 35.5748 4.05762 42.0998H6.83262L13.5826 41.7123C20.9076 47.8873 27.2201 52.0623 40.0326 52.0623C50.3826 52.0623 58.9826 48.2998 66.3076 42.0998Z" fill="url(#paint5_linear_1_8265)"/>
<path d="M66.3076 42.0998H74.9251C74.9251 35.5748 71.5076 30.2998 64.9826 30.2998C60.4326 30.2998 63.6326 32.8998 61.6826 36.6998L17.8326 36.6748C17.8326 34.0498 18.1576 30.2998 13.5826 30.2998C7.05762 30.2998 4.05762 35.5748 4.05762 42.0998H6.83262L13.5826 41.7123C20.9076 47.8873 27.2201 52.0623 40.0326 52.0623C50.3826 52.0623 58.9826 48.2998 66.3076 42.0998Z" fill="url(#paint6_radial_1_8265)"/>
<path opacity="0.5" d="M66.3076 42.0998H74.9251C74.9251 35.5748 71.5076 30.2998 64.9826 30.2998C60.4326 30.2998 63.6326 32.8998 61.6826 36.6998L17.8326 36.6748C17.8326 34.0498 18.1576 30.2998 13.5826 30.2998C7.05762 30.2998 4.05762 35.5748 4.05762 42.0998H6.83262L13.5826 41.7123C20.9076 47.8873 27.2201 52.0623 40.0326 52.0623C50.3826 52.0623 58.9826 48.2998 66.3076 42.0998Z" fill="url(#paint7_radial_1_8265)"/>
<path d="M20.232 36.5159C20.232 36.5159 20.182 38.2909 20.257 39.7909C20.557 45.2159 24.907 49.2909 24.907 49.2909C24.907 49.2909 22.632 48.3109 20.7345 47.4034C19.767 46.9384 18.592 47.0784 17.847 47.8509C15.117 50.6859 13.792 53.1459 13.792 53.1459C13.792 53.1459 9.97453 53.1459 6.28203 50.1659C3.13203 47.4159 2.70703 43.2659 2.70703 43.2659C2.70703 43.2659 1.00703 33.3909 10.557 30.0409C18.232 27.3659 20.207 31.4159 20.207 34.2659C20.207 34.8159 20.232 36.5159 20.232 36.5159Z" fill="url(#paint8_linear_1_8265)"/>
<path d="M20.232 36.5159C20.232 36.5159 20.182 38.2909 20.257 39.7909C20.557 45.2159 24.907 49.2909 24.907 49.2909C24.907 49.2909 22.632 48.3109 20.7345 47.4034C19.767 46.9384 18.592 47.0784 17.847 47.8509C15.117 50.6859 13.792 53.1459 13.792 53.1459C13.792 53.1459 9.97453 53.1459 6.28203 50.1659C3.13203 47.4159 2.70703 43.2659 2.70703 43.2659C2.70703 43.2659 1.00703 33.3909 10.557 30.0409C18.232 27.3659 20.207 31.4159 20.207 34.2659C20.207 34.8159 20.232 36.5159 20.232 36.5159Z" fill="url(#paint9_radial_1_8265)"/>
<g filter="url(#filter2_f_1_8265)">
<path opacity="0.5" d="M3.29437 42.4575C5.14437 35.9575 14.2069 40.455 18.5719 45.615C19.3044 46.4825 20.0544 47.08 20.8544 47.455L20.8394 47.495C20.776 47.4651 20.7126 47.4351 20.6494 47.405C19.6794 46.94 18.5044 47.0775 17.7644 47.855C16.0948 49.0332 14.6087 50.4519 13.3544 52.065C13.3544 52.065 10.1119 52.065 6.47937 49.0175C4.81341 47.6152 3.70771 45.6603 3.36437 43.51C3.26187 42.865 3.11687 43.085 3.29437 42.4575Z" fill="url(#paint10_radial_1_8265)"/>
</g>
<path d="M59.7648 36.5253C59.7648 36.5253 59.8148 38.3003 59.7398 39.8003C59.4398 45.2253 55.0723 49.1453 55.0723 49.1453C55.0723 49.1453 57.3548 48.2553 59.2523 47.3903C60.2298 46.9453 61.4073 47.0828 62.1448 47.8628C64.8248 50.6953 65.9673 53.1478 65.9673 53.1478C65.9673 53.1478 69.8423 53.5728 73.7173 50.1728C76.8673 47.4228 77.2923 43.2728 77.2923 43.2728C77.2923 43.2728 78.9923 33.3978 69.4423 30.0478C61.7673 27.3728 59.7923 31.4228 59.7923 34.2728C59.7923 34.8228 59.7673 36.5228 59.7673 36.5228L59.7648 36.5253Z" fill="url(#paint11_linear_1_8265)"/>
<path d="M59.7648 36.5253C59.7648 36.5253 59.8148 38.3003 59.7398 39.8003C59.4398 45.2253 55.0723 49.1453 55.0723 49.1453C55.0723 49.1453 57.3548 48.2553 59.2523 47.3903C60.2298 46.9453 61.4073 47.0828 62.1448 47.8628C64.8248 50.6953 65.9673 53.1478 65.9673 53.1478C65.9673 53.1478 69.8423 53.5728 73.7173 50.1728C76.8673 47.4228 77.2923 43.2728 77.2923 43.2728C77.2923 43.2728 78.9923 33.3978 69.4423 30.0478C61.7673 27.3728 59.7923 31.4228 59.7923 34.2728C59.7923 34.8228 59.7673 36.5228 59.7673 36.5228L59.7648 36.5253Z" fill="url(#paint12_radial_1_8265)"/>
<g filter="url(#filter3_f_1_8265)">
<path opacity="0.5" d="M77.1022 42.8927C74.4022 36.8827 65.5547 40.2277 61.4522 45.3802C60.6522 46.3802 59.8397 47.0502 58.9697 47.4602L58.9847 47.5027L59.1747 47.4102C60.1422 46.9452 61.5997 46.7202 62.3372 47.5027C65.0172 50.3352 66.1672 52.7277 66.1672 52.7277C66.1672 52.7277 69.3997 53.4727 73.2747 50.0727C74.9847 48.6277 75.9922 46.8552 76.5672 45.4852C77.1547 44.0852 77.7247 44.2752 77.1022 42.8927Z" fill="url(#paint13_radial_1_8265)"/>
</g>
<g opacity="0.25" filter="url(#filter4_f_1_8265)">
<path d="M63.0576 46.555C64.8042 44.7669 66.4106 42.8471 67.8626 40.8125" stroke="white" stroke-width="1.25" stroke-linecap="round"/>
</g>
<defs>
<filter id="filter0_f_1_8265" x="24.9346" y="24.335" width="17.0596" height="17.0596" filterUnits="userSpaceOnUse" color-interpolation-filters="sRGB">
<feFlood flood-opacity="0" result="BackgroundImageFix"/>
<feBlend mode="normal" in="SourceGraphic" in2="BackgroundImageFix" result="shape"/>
<feGaussianBlur stdDeviation="1.25" result="effect1_foregroundBlur_1_8265"/>
</filter>
<filter id="filter1_f_1_8265" x="40.9883" y="25.4229" width="16.0752" height="15.9697" filterUnits="userSpaceOnUse" color-interpolation-filters="sRGB">
<feFlood flood-opacity="0" result="BackgroundImageFix"/>
<feBlend mode="normal" in="SourceGraphic" in2="BackgroundImageFix" result="shape"/>
<feGaussianBlur stdDeviation="1.25" result="effect1_foregroundBlur_1_8265"/>
</filter>
<filter id="filter2_f_1_8265" x="0.710938" y="36.7305" width="22.6436" height="17.835" filterUnits="userSpaceOnUse" color-interpolation-filters="sRGB">
<feFlood flood-opacity="0" result="BackgroundImageFix"/>
<feBlend mode="normal" in="SourceGraphic" in2="BackgroundImageFix" result="shape"/>
<feGaussianBlur stdDeviation="1.25" result="effect1_foregroundBlur_1_8265"/>
</filter>
<filter id="filter3_f_1_8265" x="56.4697" y="37.1797" width="23.4023" height="18.1172" filterUnits="userSpaceOnUse" color-interpolation-filters="sRGB">
<feFlood flood-opacity="0" result="BackgroundImageFix"/>
<feBlend mode="normal" in="SourceGraphic" in2="BackgroundImageFix" result="shape"/>
<feGaussianBlur stdDeviation="1.25" result="effect1_foregroundBlur_1_8265"/>
</filter>
<filter id="filter4_f_1_8265" x="59.9326" y="37.6875" width="11.0547" height="11.9922" filterUnits="userSpaceOnUse" color-interpolation-filters="sRGB">
<feFlood flood-opacity="0" result="BackgroundImageFix"/>
<feBlend mode="normal" in="SourceGraphic" in2="BackgroundImageFix" result="shape"/>
<feGaussianBlur stdDeviation="1.25" result="effect1_foregroundBlur_1_8265"/>
</filter>
<linearGradient id="paint0_linear_1_8265" x1="39.9876" y1="21.62" x2="39.9876" y2="44.8325" gradientUnits="userSpaceOnUse">
<stop stop-color="#9C634D"/>
<stop offset="1" stop-color="#63332A"/>
</linearGradient>
<radialGradient id="paint1_radial_1_8265" cx="0" cy="0" r="1" gradientUnits="userSpaceOnUse" gradientTransform="translate(34.5596 32.865) rotate(-48.3665) scale(4.84095 5.56047)">
<stop stop-color="#BA7D72"/>
<stop offset="0.866" stop-color="#BA7D72" stop-opacity="0"/>
</radialGradient>
<radialGradient id="paint2_radial_1_8265" cx="0" cy="0" r="1" gradientUnits="userSpaceOnUse" gradientTransform="translate(50.0308 33.4079) rotate(-48.0995) scale(4.42224 5.08491)">
<stop stop-color="#BA7D72"/>
<stop offset="0.866" stop-color="#BA7D72" stop-opacity="0"/>
</radialGradient>
<linearGradient id="paint3_linear_1_8265" x1="48.0423" y1="32.1421" x2="18.5873" y2="44.7196" gradientUnits="userSpaceOnUse">
<stop stop-color="#A97C50"/>
<stop offset="1" stop-color="#875236"/>
</linearGradient>
<linearGradient id="paint4_linear_1_8265" x1="39.8848" y1="33.3346" x2="39.8848" y2="34.8571" gradientUnits="userSpaceOnUse">
<stop stop-color="#C59779"/>
<stop offset="1" stop-color="#C59779" stop-opacity="0"/>
</linearGradient>
<linearGradient id="paint5_linear_1_8265" x1="9.45512" y1="39.7998" x2="66.6426" y2="39.7998" gradientUnits="userSpaceOnUse">
<stop stop-color="#63332A"/>
<stop offset="0.422" stop-color="#9C634D"/>
<stop offset="0.896" stop-color="#63332A"/>
</linearGradient>
<radialGradient id="paint6_radial_1_8265" cx="0" cy="0" r="1" gradientUnits="userSpaceOnUse" gradientTransform="translate(40.1501 33.7048) rotate(89.354) scale(20.7826 33.9278)">
<stop offset="0.807" stop-color="#BA7D72" stop-opacity="0"/>
<stop offset="1" stop-color="#BA7D72"/>
</radialGradient>
<radialGradient id="paint7_radial_1_8265" cx="0" cy="0" r="1" gradientUnits="userSpaceOnUse" gradientTransform="translate(39.6118 30.2993) rotate(90.256) scale(27.0777 40.4285)">
<stop offset="0.698" stop-opacity="0"/>
<stop offset="1"/>
</radialGradient>
<linearGradient id="paint8_linear_1_8265" x1="15.082" y1="32.5309" x2="13.1295" y2="54.4059" gradientUnits="userSpaceOnUse">
<stop stop-color="#9C634D"/>
<stop offset="1" stop-color="#63332A"/>
</linearGradient>
<radialGradient id="paint9_radial_1_8265" cx="0" cy="0" r="1" gradientUnits="userSpaceOnUse" gradientTransform="translate(24.907 43.7034) rotate(169.551) scale(6.89242 18.7354)">
<stop stop-color="#BA7D72"/>
<stop offset="1" stop-color="#BA7D72" stop-opacity="0"/>
</radialGradient>
<radialGradient id="paint10_radial_1_8265" cx="0" cy="0" r="1" gradientUnits="userSpaceOnUse" gradientTransform="translate(18.2744 58.3925) rotate(-123.82) scale(19.0895 15.2509)">
<stop/>
<stop offset="1" stop-opacity="0"/>
</radialGradient>
<linearGradient id="paint11_linear_1_8265" x1="64.9173" y1="32.5403" x2="66.8698" y2="54.4128" gradientUnits="userSpaceOnUse">
<stop stop-color="#9C634D"/>
<stop offset="1" stop-color="#63332A"/>
</linearGradient>
<radialGradient id="paint12_radial_1_8265" cx="0" cy="0" r="1" gradientUnits="userSpaceOnUse" gradientTransform="translate(55.0898 43.7103) rotate(10.4489) scale(6.89242 18.7354)">
<stop stop-color="#BA7D72"/>
<stop offset="1" stop-color="#BA7D72" stop-opacity="0"/>
</radialGradient>
<radialGradient id="paint13_radial_1_8265" cx="0" cy="0" r="1" gradientUnits="userSpaceOnUse" gradientTransform="translate(61.5472 58.3977) rotate(-56.1799) scale(19.0896 15.2509)">
<stop/>
<stop offset="1" stop-opacity="0"/>
</radialGradient>
</defs>
</svg>
